G04 #@! TF.GenerationSoftware,KiCad,Pcbnew,7.0.5-0*
G04 #@! TF.CreationDate,2024-12-03T11:17:58-08:00*
G04 #@! TF.ProjectId,MilkVHat,4d696c6b-5648-4617-942e-6b696361645f,rev?*
G04 #@! TF.SameCoordinates,PX5f5e100PY5f5e100*
G04 #@! TF.FileFunction,Legend,Bot*
G04 #@! TF.FilePolarity,Positive*
%FSLAX46Y46*%
G04 Gerber Fmt 4.6, Leading zero omitted, Abs format (unit mm)*
G04 Created by KiCad (PCBNEW 7.0.5-0) date 2024-12-03 11:17:58*
%MOMM*%
%LPD*%
G01*
G04 APERTURE LIST*
%ADD10C,0.250000*%
%ADD11C,0.110000*%
%ADD12C,0.150000*%
%ADD13C,0.152400*%
%ADD14C,0.151994*%
%ADD15C,0.254000*%
%ADD16C,0.059995*%
%ADD17C,0.300000*%
G04 APERTURE END LIST*
D10*
X8312907Y1541095D02*
X8789098Y1541095D01*
X8789098Y1541095D02*
X8789098Y4398238D01*
X8789098Y4398238D02*
X8312907Y4398238D01*
X7170051Y4207761D02*
X6979574Y4207761D01*
X6979574Y4207761D02*
X6789098Y4112523D01*
X6789098Y4112523D02*
X6693860Y4017285D01*
X6693860Y4017285D02*
X6598622Y3826809D01*
X6598622Y3826809D02*
X6503384Y3445857D01*
X6503384Y3445857D02*
X6503384Y2969666D01*
X6503384Y2969666D02*
X6598622Y2588714D01*
X6598622Y2588714D02*
X6693860Y2398238D01*
X6693860Y2398238D02*
X6789098Y2302999D01*
X6789098Y2302999D02*
X6979574Y2207761D01*
X6979574Y2207761D02*
X7170051Y2207761D01*
X7170051Y2207761D02*
X7360527Y2302999D01*
X7360527Y2302999D02*
X7455765Y2398238D01*
X7455765Y2398238D02*
X7551003Y2588714D01*
X7551003Y2588714D02*
X7646241Y2969666D01*
X7646241Y2969666D02*
X7646241Y3445857D01*
X7646241Y3445857D02*
X7551003Y3826809D01*
X7551003Y3826809D02*
X7455765Y4017285D01*
X7455765Y4017285D02*
X7360527Y4112523D01*
X7360527Y4112523D02*
X7170051Y4207761D01*
X5836717Y1541095D02*
X5360527Y1541095D01*
X5360527Y1541095D02*
X5360527Y4398238D01*
X5360527Y4398238D02*
X5836717Y4398238D01*
D11*
X4676441Y4136958D02*
X4371679Y4136958D01*
X4562155Y4403624D02*
X4562155Y3717910D01*
X4562155Y3717910D02*
X4524060Y3641719D01*
X4524060Y3641719D02*
X4447870Y3603624D01*
X4447870Y3603624D02*
X4371679Y3603624D01*
X4105012Y3603624D02*
X4105012Y4403624D01*
X3762155Y3603624D02*
X3762155Y4022672D01*
X3762155Y4022672D02*
X3800250Y4098862D01*
X3800250Y4098862D02*
X3876441Y4136958D01*
X3876441Y4136958D02*
X3990727Y4136958D01*
X3990727Y4136958D02*
X4066917Y4098862D01*
X4066917Y4098862D02*
X4105012Y4060767D01*
D12*
X14781009Y39133334D02*
X14781009Y39466667D01*
X15304819Y39466667D02*
X14304819Y39466667D01*
X14304819Y39466667D02*
X14304819Y38990477D01*
X14781009Y38276191D02*
X14828628Y38133334D01*
X14828628Y38133334D02*
X14876247Y38085715D01*
X14876247Y38085715D02*
X14971485Y38038096D01*
X14971485Y38038096D02*
X15114342Y38038096D01*
X15114342Y38038096D02*
X15209580Y38085715D01*
X15209580Y38085715D02*
X15257200Y38133334D01*
X15257200Y38133334D02*
X15304819Y38228572D01*
X15304819Y38228572D02*
X15304819Y38609524D01*
X15304819Y38609524D02*
X14304819Y38609524D01*
X14304819Y38609524D02*
X14304819Y38276191D01*
X14304819Y38276191D02*
X14352438Y38180953D01*
X14352438Y38180953D02*
X14400057Y38133334D01*
X14400057Y38133334D02*
X14495295Y38085715D01*
X14495295Y38085715D02*
X14590533Y38085715D01*
X14590533Y38085715D02*
X14685771Y38133334D01*
X14685771Y38133334D02*
X14733390Y38180953D01*
X14733390Y38180953D02*
X14781009Y38276191D01*
X14781009Y38276191D02*
X14781009Y38609524D01*
X15304819Y37085715D02*
X15304819Y37657143D01*
X15304819Y37371429D02*
X14304819Y37371429D01*
X14304819Y37371429D02*
X14447676Y37466667D01*
X14447676Y37466667D02*
X14542914Y37561905D01*
X14542914Y37561905D02*
X14590533Y37657143D01*
X18766666Y34290420D02*
X18814285Y34242800D01*
X18814285Y34242800D02*
X18957142Y34195181D01*
X18957142Y34195181D02*
X19052380Y34195181D01*
X19052380Y34195181D02*
X19195237Y34242800D01*
X19195237Y34242800D02*
X19290475Y34338039D01*
X19290475Y34338039D02*
X19338094Y34433277D01*
X19338094Y34433277D02*
X19385713Y34623753D01*
X19385713Y34623753D02*
X19385713Y34766610D01*
X19385713Y34766610D02*
X19338094Y34957086D01*
X19338094Y34957086D02*
X19290475Y35052324D01*
X19290475Y35052324D02*
X19195237Y35147562D01*
X19195237Y35147562D02*
X19052380Y35195181D01*
X19052380Y35195181D02*
X18957142Y35195181D01*
X18957142Y35195181D02*
X18814285Y35147562D01*
X18814285Y35147562D02*
X18766666Y35099943D01*
X18433332Y35195181D02*
X17814285Y35195181D01*
X17814285Y35195181D02*
X18147618Y34814229D01*
X18147618Y34814229D02*
X18004761Y34814229D01*
X18004761Y34814229D02*
X17909523Y34766610D01*
X17909523Y34766610D02*
X17861904Y34718991D01*
X17861904Y34718991D02*
X17814285Y34623753D01*
X17814285Y34623753D02*
X17814285Y34385658D01*
X17814285Y34385658D02*
X17861904Y34290420D01*
X17861904Y34290420D02*
X17909523Y34242800D01*
X17909523Y34242800D02*
X18004761Y34195181D01*
X18004761Y34195181D02*
X18290475Y34195181D01*
X18290475Y34195181D02*
X18385713Y34242800D01*
X18385713Y34242800D02*
X18433332Y34290420D01*
X24816666Y23545181D02*
X25149999Y24021372D01*
X25388094Y23545181D02*
X25388094Y24545181D01*
X25388094Y24545181D02*
X25007142Y24545181D01*
X25007142Y24545181D02*
X24911904Y24497562D01*
X24911904Y24497562D02*
X24864285Y24449943D01*
X24864285Y24449943D02*
X24816666Y24354705D01*
X24816666Y24354705D02*
X24816666Y24211848D01*
X24816666Y24211848D02*
X24864285Y24116610D01*
X24864285Y24116610D02*
X24911904Y24068991D01*
X24911904Y24068991D02*
X25007142Y24021372D01*
X25007142Y24021372D02*
X25388094Y24021372D01*
X24483332Y24545181D02*
X23864285Y24545181D01*
X23864285Y24545181D02*
X24197618Y24164229D01*
X24197618Y24164229D02*
X24054761Y24164229D01*
X24054761Y24164229D02*
X23959523Y24116610D01*
X23959523Y24116610D02*
X23911904Y24068991D01*
X23911904Y24068991D02*
X23864285Y23973753D01*
X23864285Y23973753D02*
X23864285Y23735658D01*
X23864285Y23735658D02*
X23911904Y23640420D01*
X23911904Y23640420D02*
X23959523Y23592800D01*
X23959523Y23592800D02*
X24054761Y23545181D01*
X24054761Y23545181D02*
X24340475Y23545181D01*
X24340475Y23545181D02*
X24435713Y23592800D01*
X24435713Y23592800D02*
X24483332Y23640420D01*
X19016666Y18945181D02*
X19349999Y19421372D01*
X19588094Y18945181D02*
X19588094Y19945181D01*
X19588094Y19945181D02*
X19207142Y19945181D01*
X19207142Y19945181D02*
X19111904Y19897562D01*
X19111904Y19897562D02*
X19064285Y19849943D01*
X19064285Y19849943D02*
X19016666Y19754705D01*
X19016666Y19754705D02*
X19016666Y19611848D01*
X19016666Y19611848D02*
X19064285Y19516610D01*
X19064285Y19516610D02*
X19111904Y19468991D01*
X19111904Y19468991D02*
X19207142Y19421372D01*
X19207142Y19421372D02*
X19588094Y19421372D01*
X18064285Y18945181D02*
X18635713Y18945181D01*
X18349999Y18945181D02*
X18349999Y19945181D01*
X18349999Y19945181D02*
X18445237Y19802324D01*
X18445237Y19802324D02*
X18540475Y19707086D01*
X18540475Y19707086D02*
X18635713Y19659467D01*
X26716666Y12690420D02*
X26764285Y12642800D01*
X26764285Y12642800D02*
X26907142Y12595181D01*
X26907142Y12595181D02*
X27002380Y12595181D01*
X27002380Y12595181D02*
X27145237Y12642800D01*
X27145237Y12642800D02*
X27240475Y12738039D01*
X27240475Y12738039D02*
X27288094Y12833277D01*
X27288094Y12833277D02*
X27335713Y13023753D01*
X27335713Y13023753D02*
X27335713Y13166610D01*
X27335713Y13166610D02*
X27288094Y13357086D01*
X27288094Y13357086D02*
X27240475Y13452324D01*
X27240475Y13452324D02*
X27145237Y13547562D01*
X27145237Y13547562D02*
X27002380Y13595181D01*
X27002380Y13595181D02*
X26907142Y13595181D01*
X26907142Y13595181D02*
X26764285Y13547562D01*
X26764285Y13547562D02*
X26716666Y13499943D01*
X25811904Y13595181D02*
X26288094Y13595181D01*
X26288094Y13595181D02*
X26335713Y13118991D01*
X26335713Y13118991D02*
X26288094Y13166610D01*
X26288094Y13166610D02*
X26192856Y13214229D01*
X26192856Y13214229D02*
X25954761Y13214229D01*
X25954761Y13214229D02*
X25859523Y13166610D01*
X25859523Y13166610D02*
X25811904Y13118991D01*
X25811904Y13118991D02*
X25764285Y13023753D01*
X25764285Y13023753D02*
X25764285Y12785658D01*
X25764285Y12785658D02*
X25811904Y12690420D01*
X25811904Y12690420D02*
X25859523Y12642800D01*
X25859523Y12642800D02*
X25954761Y12595181D01*
X25954761Y12595181D02*
X26192856Y12595181D01*
X26192856Y12595181D02*
X26288094Y12642800D01*
X26288094Y12642800D02*
X26335713Y12690420D01*
X10966666Y19490419D02*
X11014285Y19442799D01*
X11014285Y19442799D02*
X11157142Y19395180D01*
X11157142Y19395180D02*
X11252380Y19395180D01*
X11252380Y19395180D02*
X11395237Y19442799D01*
X11395237Y19442799D02*
X11490475Y19538038D01*
X11490475Y19538038D02*
X11538094Y19633276D01*
X11538094Y19633276D02*
X11585713Y19823752D01*
X11585713Y19823752D02*
X11585713Y19966609D01*
X11585713Y19966609D02*
X11538094Y20157085D01*
X11538094Y20157085D02*
X11490475Y20252323D01*
X11490475Y20252323D02*
X11395237Y20347561D01*
X11395237Y20347561D02*
X11252380Y20395180D01*
X11252380Y20395180D02*
X11157142Y20395180D01*
X11157142Y20395180D02*
X11014285Y20347561D01*
X11014285Y20347561D02*
X10966666Y20299942D01*
X10585713Y20299942D02*
X10538094Y20347561D01*
X10538094Y20347561D02*
X10442856Y20395180D01*
X10442856Y20395180D02*
X10204761Y20395180D01*
X10204761Y20395180D02*
X10109523Y20347561D01*
X10109523Y20347561D02*
X10061904Y20299942D01*
X10061904Y20299942D02*
X10014285Y20204704D01*
X10014285Y20204704D02*
X10014285Y20109466D01*
X10014285Y20109466D02*
X10061904Y19966609D01*
X10061904Y19966609D02*
X10633332Y19395180D01*
X10633332Y19395180D02*
X10014285Y19395180D01*
X10616666Y12595180D02*
X11092856Y12595180D01*
X11092856Y12595180D02*
X11092856Y13595180D01*
X9759523Y12595180D02*
X10330951Y12595180D01*
X10045237Y12595180D02*
X10045237Y13595180D01*
X10045237Y13595180D02*
X10140475Y13452323D01*
X10140475Y13452323D02*
X10235713Y13357085D01*
X10235713Y13357085D02*
X10330951Y13309466D01*
X25309580Y20242858D02*
X25357200Y20290477D01*
X25357200Y20290477D02*
X25404819Y20433334D01*
X25404819Y20433334D02*
X25404819Y20528572D01*
X25404819Y20528572D02*
X25357200Y20671429D01*
X25357200Y20671429D02*
X25261961Y20766667D01*
X25261961Y20766667D02*
X25166723Y20814286D01*
X25166723Y20814286D02*
X24976247Y20861905D01*
X24976247Y20861905D02*
X24833390Y20861905D01*
X24833390Y20861905D02*
X24642914Y20814286D01*
X24642914Y20814286D02*
X24547676Y20766667D01*
X24547676Y20766667D02*
X24452438Y20671429D01*
X24452438Y20671429D02*
X24404819Y20528572D01*
X24404819Y20528572D02*
X24404819Y20433334D01*
X24404819Y20433334D02*
X24452438Y20290477D01*
X24452438Y20290477D02*
X24500057Y20242858D01*
X25404819Y19290477D02*
X25404819Y19861905D01*
X25404819Y19576191D02*
X24404819Y19576191D01*
X24404819Y19576191D02*
X24547676Y19671429D01*
X24547676Y19671429D02*
X24642914Y19766667D01*
X24642914Y19766667D02*
X24690533Y19861905D01*
X24404819Y18671429D02*
X24404819Y18576191D01*
X24404819Y18576191D02*
X24452438Y18480953D01*
X24452438Y18480953D02*
X24500057Y18433334D01*
X24500057Y18433334D02*
X24595295Y18385715D01*
X24595295Y18385715D02*
X24785771Y18338096D01*
X24785771Y18338096D02*
X25023866Y18338096D01*
X25023866Y18338096D02*
X25214342Y18385715D01*
X25214342Y18385715D02*
X25309580Y18433334D01*
X25309580Y18433334D02*
X25357200Y18480953D01*
X25357200Y18480953D02*
X25404819Y18576191D01*
X25404819Y18576191D02*
X25404819Y18671429D01*
X25404819Y18671429D02*
X25357200Y18766667D01*
X25357200Y18766667D02*
X25309580Y18814286D01*
X25309580Y18814286D02*
X25214342Y18861905D01*
X25214342Y18861905D02*
X25023866Y18909524D01*
X25023866Y18909524D02*
X24785771Y18909524D01*
X24785771Y18909524D02*
X24595295Y18861905D01*
X24595295Y18861905D02*
X24500057Y18814286D01*
X24500057Y18814286D02*
X24452438Y18766667D01*
X24452438Y18766667D02*
X24404819Y18671429D01*
X11561904Y23545180D02*
X11561904Y22735657D01*
X11561904Y22735657D02*
X11514285Y22640419D01*
X11514285Y22640419D02*
X11466666Y22592799D01*
X11466666Y22592799D02*
X11371428Y22545180D01*
X11371428Y22545180D02*
X11180952Y22545180D01*
X11180952Y22545180D02*
X11085714Y22592799D01*
X11085714Y22592799D02*
X11038095Y22640419D01*
X11038095Y22640419D02*
X10990476Y22735657D01*
X10990476Y22735657D02*
X10990476Y23545180D01*
X9990476Y22545180D02*
X10561904Y22545180D01*
X10276190Y22545180D02*
X10276190Y23545180D01*
X10276190Y23545180D02*
X10371428Y23402323D01*
X10371428Y23402323D02*
X10466666Y23307085D01*
X10466666Y23307085D02*
X10561904Y23259466D01*
X22711904Y28445181D02*
X22711904Y27635658D01*
X22711904Y27635658D02*
X22664285Y27540420D01*
X22664285Y27540420D02*
X22616666Y27492800D01*
X22616666Y27492800D02*
X22521428Y27445181D01*
X22521428Y27445181D02*
X22330952Y27445181D01*
X22330952Y27445181D02*
X22235714Y27492800D01*
X22235714Y27492800D02*
X22188095Y27540420D01*
X22188095Y27540420D02*
X22140476Y27635658D01*
X22140476Y27635658D02*
X22140476Y28445181D01*
X21711904Y28349943D02*
X21664285Y28397562D01*
X21664285Y28397562D02*
X21569047Y28445181D01*
X21569047Y28445181D02*
X21330952Y28445181D01*
X21330952Y28445181D02*
X21235714Y28397562D01*
X21235714Y28397562D02*
X21188095Y28349943D01*
X21188095Y28349943D02*
X21140476Y28254705D01*
X21140476Y28254705D02*
X21140476Y28159467D01*
X21140476Y28159467D02*
X21188095Y28016610D01*
X21188095Y28016610D02*
X21759523Y27445181D01*
X21759523Y27445181D02*
X21140476Y27445181D01*
X39239333Y49520309D02*
X39239333Y48806024D01*
X39239333Y48806024D02*
X39286952Y48663167D01*
X39286952Y48663167D02*
X39382190Y48567928D01*
X39382190Y48567928D02*
X39525047Y48520309D01*
X39525047Y48520309D02*
X39620285Y48520309D01*
X38810761Y49425071D02*
X38763142Y49472690D01*
X38763142Y49472690D02*
X38667904Y49520309D01*
X38667904Y49520309D02*
X38429809Y49520309D01*
X38429809Y49520309D02*
X38334571Y49472690D01*
X38334571Y49472690D02*
X38286952Y49425071D01*
X38286952Y49425071D02*
X38239333Y49329833D01*
X38239333Y49329833D02*
X38239333Y49234595D01*
X38239333Y49234595D02*
X38286952Y49091738D01*
X38286952Y49091738D02*
X38858380Y48520309D01*
X38858380Y48520309D02*
X38239333Y48520309D01*
X24681009Y32183334D02*
X24681009Y32516667D01*
X25204819Y32516667D02*
X24204819Y32516667D01*
X24204819Y32516667D02*
X24204819Y32040477D01*
X24681009Y31326191D02*
X24728628Y31183334D01*
X24728628Y31183334D02*
X24776247Y31135715D01*
X24776247Y31135715D02*
X24871485Y31088096D01*
X24871485Y31088096D02*
X25014342Y31088096D01*
X25014342Y31088096D02*
X25109580Y31135715D01*
X25109580Y31135715D02*
X25157200Y31183334D01*
X25157200Y31183334D02*
X25204819Y31278572D01*
X25204819Y31278572D02*
X25204819Y31659524D01*
X25204819Y31659524D02*
X24204819Y31659524D01*
X24204819Y31659524D02*
X24204819Y31326191D01*
X24204819Y31326191D02*
X24252438Y31230953D01*
X24252438Y31230953D02*
X24300057Y31183334D01*
X24300057Y31183334D02*
X24395295Y31135715D01*
X24395295Y31135715D02*
X24490533Y31135715D01*
X24490533Y31135715D02*
X24585771Y31183334D01*
X24585771Y31183334D02*
X24633390Y31230953D01*
X24633390Y31230953D02*
X24681009Y31326191D01*
X24681009Y31326191D02*
X24681009Y31659524D01*
X24300057Y30707143D02*
X24252438Y30659524D01*
X24252438Y30659524D02*
X24204819Y30564286D01*
X24204819Y30564286D02*
X24204819Y30326191D01*
X24204819Y30326191D02*
X24252438Y30230953D01*
X24252438Y30230953D02*
X24300057Y30183334D01*
X24300057Y30183334D02*
X24395295Y30135715D01*
X24395295Y30135715D02*
X24490533Y30135715D01*
X24490533Y30135715D02*
X24633390Y30183334D01*
X24633390Y30183334D02*
X25204819Y30754762D01*
X25204819Y30754762D02*
X25204819Y30135715D01*
X19616666Y36890420D02*
X19664285Y36842800D01*
X19664285Y36842800D02*
X19807142Y36795181D01*
X19807142Y36795181D02*
X19902380Y36795181D01*
X19902380Y36795181D02*
X20045237Y36842800D01*
X20045237Y36842800D02*
X20140475Y36938039D01*
X20140475Y36938039D02*
X20188094Y37033277D01*
X20188094Y37033277D02*
X20235713Y37223753D01*
X20235713Y37223753D02*
X20235713Y37366610D01*
X20235713Y37366610D02*
X20188094Y37557086D01*
X20188094Y37557086D02*
X20140475Y37652324D01*
X20140475Y37652324D02*
X20045237Y37747562D01*
X20045237Y37747562D02*
X19902380Y37795181D01*
X19902380Y37795181D02*
X19807142Y37795181D01*
X19807142Y37795181D02*
X19664285Y37747562D01*
X19664285Y37747562D02*
X19616666Y37699943D01*
X19140475Y36795181D02*
X18949999Y36795181D01*
X18949999Y36795181D02*
X18854761Y36842800D01*
X18854761Y36842800D02*
X18807142Y36890420D01*
X18807142Y36890420D02*
X18711904Y37033277D01*
X18711904Y37033277D02*
X18664285Y37223753D01*
X18664285Y37223753D02*
X18664285Y37604705D01*
X18664285Y37604705D02*
X18711904Y37699943D01*
X18711904Y37699943D02*
X18759523Y37747562D01*
X18759523Y37747562D02*
X18854761Y37795181D01*
X18854761Y37795181D02*
X19045237Y37795181D01*
X19045237Y37795181D02*
X19140475Y37747562D01*
X19140475Y37747562D02*
X19188094Y37699943D01*
X19188094Y37699943D02*
X19235713Y37604705D01*
X19235713Y37604705D02*
X19235713Y37366610D01*
X19235713Y37366610D02*
X19188094Y37271372D01*
X19188094Y37271372D02*
X19140475Y37223753D01*
X19140475Y37223753D02*
X19045237Y37176134D01*
X19045237Y37176134D02*
X18854761Y37176134D01*
X18854761Y37176134D02*
X18759523Y37223753D01*
X18759523Y37223753D02*
X18711904Y37271372D01*
X18711904Y37271372D02*
X18664285Y37366610D01*
X25409580Y22466667D02*
X25457200Y22514286D01*
X25457200Y22514286D02*
X25504819Y22657143D01*
X25504819Y22657143D02*
X25504819Y22752381D01*
X25504819Y22752381D02*
X25457200Y22895238D01*
X25457200Y22895238D02*
X25361961Y22990476D01*
X25361961Y22990476D02*
X25266723Y23038095D01*
X25266723Y23038095D02*
X25076247Y23085714D01*
X25076247Y23085714D02*
X24933390Y23085714D01*
X24933390Y23085714D02*
X24742914Y23038095D01*
X24742914Y23038095D02*
X24647676Y22990476D01*
X24647676Y22990476D02*
X24552438Y22895238D01*
X24552438Y22895238D02*
X24504819Y22752381D01*
X24504819Y22752381D02*
X24504819Y22657143D01*
X24504819Y22657143D02*
X24552438Y22514286D01*
X24552438Y22514286D02*
X24600057Y22466667D01*
X24504819Y22133333D02*
X24504819Y21466667D01*
X24504819Y21466667D02*
X25504819Y21895238D01*
X22366666Y12790420D02*
X22414285Y12742800D01*
X22414285Y12742800D02*
X22557142Y12695181D01*
X22557142Y12695181D02*
X22652380Y12695181D01*
X22652380Y12695181D02*
X22795237Y12742800D01*
X22795237Y12742800D02*
X22890475Y12838039D01*
X22890475Y12838039D02*
X22938094Y12933277D01*
X22938094Y12933277D02*
X22985713Y13123753D01*
X22985713Y13123753D02*
X22985713Y13266610D01*
X22985713Y13266610D02*
X22938094Y13457086D01*
X22938094Y13457086D02*
X22890475Y13552324D01*
X22890475Y13552324D02*
X22795237Y13647562D01*
X22795237Y13647562D02*
X22652380Y13695181D01*
X22652380Y13695181D02*
X22557142Y13695181D01*
X22557142Y13695181D02*
X22414285Y13647562D01*
X22414285Y13647562D02*
X22366666Y13599943D01*
X21509523Y13361848D02*
X21509523Y12695181D01*
X21747618Y13742800D02*
X21985713Y13028515D01*
X21985713Y13028515D02*
X21366666Y13028515D01*
X12466666Y28445180D02*
X12799999Y28921371D01*
X13038094Y28445180D02*
X13038094Y29445180D01*
X13038094Y29445180D02*
X12657142Y29445180D01*
X12657142Y29445180D02*
X12561904Y29397561D01*
X12561904Y29397561D02*
X12514285Y29349942D01*
X12514285Y29349942D02*
X12466666Y29254704D01*
X12466666Y29254704D02*
X12466666Y29111847D01*
X12466666Y29111847D02*
X12514285Y29016609D01*
X12514285Y29016609D02*
X12561904Y28968990D01*
X12561904Y28968990D02*
X12657142Y28921371D01*
X12657142Y28921371D02*
X13038094Y28921371D01*
X11609523Y29111847D02*
X11609523Y28445180D01*
X11847618Y29492799D02*
X12085713Y28778514D01*
X12085713Y28778514D02*
X11466666Y28778514D01*
X17466666Y23545180D02*
X17799999Y24021371D01*
X18038094Y23545180D02*
X18038094Y24545180D01*
X18038094Y24545180D02*
X17657142Y24545180D01*
X17657142Y24545180D02*
X17561904Y24497561D01*
X17561904Y24497561D02*
X17514285Y24449942D01*
X17514285Y24449942D02*
X17466666Y24354704D01*
X17466666Y24354704D02*
X17466666Y24211847D01*
X17466666Y24211847D02*
X17514285Y24116609D01*
X17514285Y24116609D02*
X17561904Y24068990D01*
X17561904Y24068990D02*
X17657142Y24021371D01*
X17657142Y24021371D02*
X18038094Y24021371D01*
X17085713Y24449942D02*
X17038094Y24497561D01*
X17038094Y24497561D02*
X16942856Y24545180D01*
X16942856Y24545180D02*
X16704761Y24545180D01*
X16704761Y24545180D02*
X16609523Y24497561D01*
X16609523Y24497561D02*
X16561904Y24449942D01*
X16561904Y24449942D02*
X16514285Y24354704D01*
X16514285Y24354704D02*
X16514285Y24259466D01*
X16514285Y24259466D02*
X16561904Y24116609D01*
X16561904Y24116609D02*
X17133332Y23545180D01*
X17133332Y23545180D02*
X16514285Y23545180D01*
X19316666Y26245180D02*
X19649999Y26721371D01*
X19888094Y26245180D02*
X19888094Y27245180D01*
X19888094Y27245180D02*
X19507142Y27245180D01*
X19507142Y27245180D02*
X19411904Y27197561D01*
X19411904Y27197561D02*
X19364285Y27149942D01*
X19364285Y27149942D02*
X19316666Y27054704D01*
X19316666Y27054704D02*
X19316666Y26911847D01*
X19316666Y26911847D02*
X19364285Y26816609D01*
X19364285Y26816609D02*
X19411904Y26768990D01*
X19411904Y26768990D02*
X19507142Y26721371D01*
X19507142Y26721371D02*
X19888094Y26721371D01*
X18411904Y27245180D02*
X18888094Y27245180D01*
X18888094Y27245180D02*
X18935713Y26768990D01*
X18935713Y26768990D02*
X18888094Y26816609D01*
X18888094Y26816609D02*
X18792856Y26864228D01*
X18792856Y26864228D02*
X18554761Y26864228D01*
X18554761Y26864228D02*
X18459523Y26816609D01*
X18459523Y26816609D02*
X18411904Y26768990D01*
X18411904Y26768990D02*
X18364285Y26673752D01*
X18364285Y26673752D02*
X18364285Y26435657D01*
X18364285Y26435657D02*
X18411904Y26340419D01*
X18411904Y26340419D02*
X18459523Y26292799D01*
X18459523Y26292799D02*
X18554761Y26245180D01*
X18554761Y26245180D02*
X18792856Y26245180D01*
X18792856Y26245180D02*
X18888094Y26292799D01*
X18888094Y26292799D02*
X18935713Y26340419D01*
X15466666Y30740419D02*
X15514285Y30692799D01*
X15514285Y30692799D02*
X15657142Y30645180D01*
X15657142Y30645180D02*
X15752380Y30645180D01*
X15752380Y30645180D02*
X15895237Y30692799D01*
X15895237Y30692799D02*
X15990475Y30788038D01*
X15990475Y30788038D02*
X16038094Y30883276D01*
X16038094Y30883276D02*
X16085713Y31073752D01*
X16085713Y31073752D02*
X16085713Y31216609D01*
X16085713Y31216609D02*
X16038094Y31407085D01*
X16038094Y31407085D02*
X15990475Y31502323D01*
X15990475Y31502323D02*
X15895237Y31597561D01*
X15895237Y31597561D02*
X15752380Y31645180D01*
X15752380Y31645180D02*
X15657142Y31645180D01*
X15657142Y31645180D02*
X15514285Y31597561D01*
X15514285Y31597561D02*
X15466666Y31549942D01*
X14609523Y31645180D02*
X14799999Y31645180D01*
X14799999Y31645180D02*
X14895237Y31597561D01*
X14895237Y31597561D02*
X14942856Y31549942D01*
X14942856Y31549942D02*
X15038094Y31407085D01*
X15038094Y31407085D02*
X15085713Y31216609D01*
X15085713Y31216609D02*
X15085713Y30835657D01*
X15085713Y30835657D02*
X15038094Y30740419D01*
X15038094Y30740419D02*
X14990475Y30692799D01*
X14990475Y30692799D02*
X14895237Y30645180D01*
X14895237Y30645180D02*
X14704761Y30645180D01*
X14704761Y30645180D02*
X14609523Y30692799D01*
X14609523Y30692799D02*
X14561904Y30740419D01*
X14561904Y30740419D02*
X14514285Y30835657D01*
X14514285Y30835657D02*
X14514285Y31073752D01*
X14514285Y31073752D02*
X14561904Y31168990D01*
X14561904Y31168990D02*
X14609523Y31216609D01*
X14609523Y31216609D02*
X14704761Y31264228D01*
X14704761Y31264228D02*
X14895237Y31264228D01*
X14895237Y31264228D02*
X14990475Y31216609D01*
X14990475Y31216609D02*
X15038094Y31168990D01*
X15038094Y31168990D02*
X15085713Y31073752D01*
X4633333Y8395182D02*
X4633333Y7680897D01*
X4633333Y7680897D02*
X4680952Y7538040D01*
X4680952Y7538040D02*
X4776190Y7442801D01*
X4776190Y7442801D02*
X4919047Y7395182D01*
X4919047Y7395182D02*
X5014285Y7395182D01*
X3633333Y7395182D02*
X4204761Y7395182D01*
X3919047Y7395182D02*
X3919047Y8395182D01*
X3919047Y8395182D02*
X4014285Y8252325D01*
X4014285Y8252325D02*
X4109523Y8157087D01*
X4109523Y8157087D02*
X4204761Y8109468D01*
X14416666Y27490419D02*
X14464285Y27442799D01*
X14464285Y27442799D02*
X14607142Y27395180D01*
X14607142Y27395180D02*
X14702380Y27395180D01*
X14702380Y27395180D02*
X14845237Y27442799D01*
X14845237Y27442799D02*
X14940475Y27538038D01*
X14940475Y27538038D02*
X14988094Y27633276D01*
X14988094Y27633276D02*
X15035713Y27823752D01*
X15035713Y27823752D02*
X15035713Y27966609D01*
X15035713Y27966609D02*
X14988094Y28157085D01*
X14988094Y28157085D02*
X14940475Y28252323D01*
X14940475Y28252323D02*
X14845237Y28347561D01*
X14845237Y28347561D02*
X14702380Y28395180D01*
X14702380Y28395180D02*
X14607142Y28395180D01*
X14607142Y28395180D02*
X14464285Y28347561D01*
X14464285Y28347561D02*
X14416666Y28299942D01*
X13464285Y27395180D02*
X14035713Y27395180D01*
X13749999Y27395180D02*
X13749999Y28395180D01*
X13749999Y28395180D02*
X13845237Y28252323D01*
X13845237Y28252323D02*
X13940475Y28157085D01*
X13940475Y28157085D02*
X14035713Y28109466D01*
X25409580Y37016667D02*
X25457200Y37064286D01*
X25457200Y37064286D02*
X25504819Y37207143D01*
X25504819Y37207143D02*
X25504819Y37302381D01*
X25504819Y37302381D02*
X25457200Y37445238D01*
X25457200Y37445238D02*
X25361961Y37540476D01*
X25361961Y37540476D02*
X25266723Y37588095D01*
X25266723Y37588095D02*
X25076247Y37635714D01*
X25076247Y37635714D02*
X24933390Y37635714D01*
X24933390Y37635714D02*
X24742914Y37588095D01*
X24742914Y37588095D02*
X24647676Y37540476D01*
X24647676Y37540476D02*
X24552438Y37445238D01*
X24552438Y37445238D02*
X24504819Y37302381D01*
X24504819Y37302381D02*
X24504819Y37207143D01*
X24504819Y37207143D02*
X24552438Y37064286D01*
X24552438Y37064286D02*
X24600057Y37016667D01*
X24933390Y36445238D02*
X24885771Y36540476D01*
X24885771Y36540476D02*
X24838152Y36588095D01*
X24838152Y36588095D02*
X24742914Y36635714D01*
X24742914Y36635714D02*
X24695295Y36635714D01*
X24695295Y36635714D02*
X24600057Y36588095D01*
X24600057Y36588095D02*
X24552438Y36540476D01*
X24552438Y36540476D02*
X24504819Y36445238D01*
X24504819Y36445238D02*
X24504819Y36254762D01*
X24504819Y36254762D02*
X24552438Y36159524D01*
X24552438Y36159524D02*
X24600057Y36111905D01*
X24600057Y36111905D02*
X24695295Y36064286D01*
X24695295Y36064286D02*
X24742914Y36064286D01*
X24742914Y36064286D02*
X24838152Y36111905D01*
X24838152Y36111905D02*
X24885771Y36159524D01*
X24885771Y36159524D02*
X24933390Y36254762D01*
X24933390Y36254762D02*
X24933390Y36445238D01*
X24933390Y36445238D02*
X24981009Y36540476D01*
X24981009Y36540476D02*
X25028628Y36588095D01*
X25028628Y36588095D02*
X25123866Y36635714D01*
X25123866Y36635714D02*
X25314342Y36635714D01*
X25314342Y36635714D02*
X25409580Y36588095D01*
X25409580Y36588095D02*
X25457200Y36540476D01*
X25457200Y36540476D02*
X25504819Y36445238D01*
X25504819Y36445238D02*
X25504819Y36254762D01*
X25504819Y36254762D02*
X25457200Y36159524D01*
X25457200Y36159524D02*
X25409580Y36111905D01*
X25409580Y36111905D02*
X25314342Y36064286D01*
X25314342Y36064286D02*
X25123866Y36064286D01*
X25123866Y36064286D02*
X25028628Y36111905D01*
X25028628Y36111905D02*
X24981009Y36159524D01*
X24981009Y36159524D02*
X24933390Y36254762D01*
D13*
X15850991Y36625895D02*
X16867424Y36625895D01*
X16867424Y36625895D02*
X17019850Y36778321D01*
X15698641Y36778321D02*
X15850991Y36625895D01*
D14*
X15698641Y36778321D02*
X15698641Y37540323D01*
X17019850Y36778321D02*
X17019850Y37540323D01*
X15698641Y39308344D02*
X15698641Y38546342D01*
X17019850Y39308344D02*
X17019850Y38546342D01*
D13*
X17019850Y39308344D02*
X16867424Y39460643D01*
X15850991Y39460643D02*
X15698641Y39308344D01*
X16867424Y39460643D02*
X15850991Y39460643D01*
D15*
X16594539Y32794386D02*
X16594539Y33594360D01*
X17704369Y33904165D02*
X16904369Y33904165D01*
X17704369Y32484556D02*
X16904369Y32484556D01*
X18280264Y33910032D02*
X19080239Y33910032D01*
X18280264Y32490372D02*
X19080239Y32490372D01*
X19390018Y32800228D02*
X19390018Y33600253D01*
X16904318Y33904215D02*
G75*
G03*
X16594489Y33594361I1J-309830D01*
G01*
X16594488Y32794386D02*
G75*
G03*
X16904318Y32484556I309830J0D01*
G01*
X19390033Y33600202D02*
G75*
G03*
X19080188Y33910032I-309833J-3D01*
G01*
X19080188Y32490371D02*
G75*
G03*
X19390018Y32800227I-8J309838D01*
G01*
D13*
X20788875Y27129096D02*
X20788875Y24970904D01*
X20788875Y24970904D02*
X22148793Y24970904D01*
X22148793Y27129096D02*
X20788875Y27129096D01*
X24051207Y27129096D02*
X25411125Y27129096D01*
X25411125Y27129096D02*
X25411125Y24970904D01*
X25411125Y24970904D02*
X24051207Y24970904D01*
X16464395Y18839909D02*
X17785605Y18839909D01*
X17785605Y18839909D02*
X17785605Y19798786D01*
X16464395Y19798786D02*
X16464395Y18839909D01*
X16464395Y20651212D02*
X16464395Y21610089D01*
X16464395Y21610089D02*
X17785605Y21610089D01*
X17785605Y21610089D02*
X17785605Y20651212D01*
X23359792Y12636398D02*
X25240208Y12636398D01*
X25392609Y12788799D02*
X25392609Y14273787D01*
X23207391Y14273787D02*
X23207391Y12788799D01*
X23207391Y16126213D02*
X23207391Y17611201D01*
X25392609Y17611201D02*
X25392609Y16126213D01*
X23359792Y17763602D02*
X25240208Y17763602D01*
X23207391Y12788799D02*
G75*
G03*
X23359792Y12636398I152400J-1D01*
G01*
X25240208Y12636398D02*
G75*
G03*
X25392609Y12788799I1J152400D01*
G01*
X23359792Y17763609D02*
G75*
G03*
X23207391Y17611201I8J-152409D01*
G01*
X25392602Y17611201D02*
G75*
G03*
X25240208Y17763602I-152402J-1D01*
G01*
X11886385Y20612122D02*
X11886385Y19109708D01*
X12038786Y18957308D02*
X13448793Y18957308D01*
X13448793Y20764522D02*
X12038786Y20764522D01*
X14251181Y20764522D02*
X15661188Y20764522D01*
X15661188Y18957308D02*
X14251181Y18957308D01*
X15813589Y20612122D02*
X15813589Y19109708D01*
X12038786Y20764522D02*
G75*
G03*
X11886386Y20612122I0J-152400D01*
G01*
X11886385Y19109708D02*
G75*
G03*
X12038786Y18957307I152400J-1D01*
G01*
X15813595Y20612122D02*
G75*
G03*
X15661188Y20764523I-152408J-7D01*
G01*
X15661188Y18957314D02*
G75*
G03*
X15813588Y19109708I-1J152401D01*
G01*
D15*
X11930994Y18144005D02*
X11930994Y17636004D01*
X11930994Y17764147D02*
X11930994Y16981139D01*
X11930994Y13718859D02*
X11930994Y13118859D01*
X11930994Y13118859D02*
X11930994Y12555993D01*
X11930994Y12555993D02*
X17519006Y12555993D01*
X17519006Y18144005D02*
X11930994Y18144005D01*
X17519006Y17581139D02*
X17519006Y18144005D01*
X17519006Y16981139D02*
X17519006Y17581139D01*
X17519006Y13063994D02*
X17519006Y13718859D01*
X17519006Y12555993D02*
X17519006Y13063994D01*
D16*
X12009989Y17940042D02*
G75*
G03*
X12009989Y17940042I-29972J0D01*
G01*
D13*
X20086398Y20401207D02*
X20086398Y18898793D01*
X20238799Y18746393D02*
X21648806Y18746393D01*
X21648806Y20553607D02*
X20238799Y20553607D01*
X22451194Y20553607D02*
X23861201Y20553607D01*
X23861201Y18746393D02*
X22451194Y18746393D01*
X24013602Y20401207D02*
X24013602Y18898793D01*
X20238799Y20553607D02*
G75*
G03*
X20086399Y20401207I0J-152400D01*
G01*
X20086398Y18898793D02*
G75*
G03*
X20238799Y18746392I152400J-1D01*
G01*
X24013608Y20401207D02*
G75*
G03*
X23861201Y20553608I-152408J-7D01*
G01*
X23861201Y18746399D02*
G75*
G03*
X24013601Y18898793I-1J152401D01*
G01*
D15*
X15025000Y21399885D02*
X13224975Y21399885D01*
X15025000Y24499910D02*
X13224975Y24499910D01*
X12854997Y21298996D02*
G75*
G03*
X12854997Y21298996I-127000J0D01*
G01*
D16*
X12754973Y21499986D02*
G75*
G03*
X12754973Y21499986I-29998J0D01*
G01*
D15*
X23768231Y30027311D02*
X23761551Y30020631D01*
X23768231Y33402851D02*
X23768231Y30027311D01*
X23761551Y30020631D02*
X23426448Y30020631D01*
X23734830Y33409531D02*
X23754870Y33389491D01*
X23426448Y33409531D02*
X23734830Y33409531D01*
X20649968Y30020631D02*
X20379331Y30020631D01*
X20379331Y30020631D02*
X20379331Y33409531D01*
X20379331Y33409531D02*
X20649943Y33409531D01*
D17*
X23797669Y29533052D02*
G75*
G03*
X23797669Y29533052I-150114J0D01*
G01*
D15*
X38972034Y45925997D02*
G75*
G03*
X38972034Y45925997I-254000J0D01*
G01*
D16*
X38240030Y44950000D02*
G75*
G03*
X38240030Y44950000I-29997J0D01*
G01*
D13*
X24250991Y32925997D02*
X25267424Y32925997D01*
X25267424Y32925997D02*
X25419850Y33078423D01*
X24098641Y33078423D02*
X24250991Y32925997D01*
D14*
X24098641Y33078423D02*
X24098641Y33840425D01*
X25419850Y33078423D02*
X25419850Y33840425D01*
X24098641Y35608446D02*
X24098641Y34846444D01*
X25419850Y35608446D02*
X25419850Y34846444D01*
D13*
X25419850Y35608446D02*
X25267424Y35760745D01*
X24250991Y35760745D02*
X24098641Y35608446D01*
X25267424Y35760745D02*
X24250991Y35760745D01*
D15*
X18394539Y38394387D02*
X18394539Y39194361D01*
X19504369Y39504166D02*
X18704369Y39504166D01*
X19504369Y38084557D02*
X18704369Y38084557D01*
X20080264Y39510033D02*
X20880239Y39510033D01*
X20080264Y38090373D02*
X20880239Y38090373D01*
X21190018Y38400229D02*
X21190018Y39200254D01*
X18704318Y39504216D02*
G75*
G03*
X18394489Y39194362I1J-309830D01*
G01*
X18394488Y38394387D02*
G75*
G03*
X18704318Y38084557I309830J0D01*
G01*
X21190033Y39200203D02*
G75*
G03*
X20880188Y39510033I-309833J-3D01*
G01*
X20880188Y38090372D02*
G75*
G03*
X21190018Y38400228I-8J309838D01*
G01*
D13*
X18811398Y22840207D02*
X18811398Y20959791D01*
X18963799Y20807390D02*
X20448787Y20807390D01*
X20448787Y22992608D02*
X18963799Y22992608D01*
X22301213Y22992608D02*
X23786201Y22992608D01*
X23786201Y20807390D02*
X22301213Y20807390D01*
X23938602Y22840207D02*
X23938602Y20959791D01*
X18963799Y22992608D02*
G75*
G03*
X18811398Y22840207I-1J-152400D01*
G01*
X18811398Y20959791D02*
G75*
G03*
X18963799Y20807390I152400J-1D01*
G01*
X23938609Y22840207D02*
G75*
G03*
X23786201Y22992608I-152409J-8D01*
G01*
X23786201Y20807397D02*
G75*
G03*
X23938602Y20959791I-1J152402D01*
G01*
X19159792Y12636398D02*
X21040208Y12636398D01*
X21192609Y12788799D02*
X21192609Y14273787D01*
X19007391Y14273787D02*
X19007391Y12788799D01*
X19007391Y16126213D02*
X19007391Y17611201D01*
X21192609Y17611201D02*
X21192609Y16126213D01*
X19159792Y17763602D02*
X21040208Y17763602D01*
X19007391Y12788799D02*
G75*
G03*
X19159792Y12636398I152400J-1D01*
G01*
X21040208Y12636398D02*
G75*
G03*
X21192609Y12788799I1J152400D01*
G01*
X19159792Y17763609D02*
G75*
G03*
X19007391Y17611201I8J-152409D01*
G01*
X21192602Y17611201D02*
G75*
G03*
X21040208Y17763602I-152402J-1D01*
G01*
X11895904Y29663874D02*
X14054096Y29663874D01*
X14054096Y29663874D02*
X14054096Y31023792D01*
X11895904Y31023792D02*
X11895904Y29663874D01*
X11895904Y32926206D02*
X11895904Y34286124D01*
X11895904Y34286124D02*
X14054096Y34286124D01*
X14054096Y34286124D02*
X14054096Y32926206D01*
X16694824Y23076517D02*
X16694824Y22295313D01*
X16694824Y22295313D02*
X17150348Y22295313D01*
X17150348Y23076517D02*
X16694824Y23076517D01*
X17482734Y23076517D02*
X17938258Y23076517D01*
X17938258Y23076517D02*
X17938258Y22295313D01*
X17938258Y22295313D02*
X17482734Y22295313D01*
X15313875Y29804095D02*
X15313875Y27645903D01*
X15313875Y27645903D02*
X16673793Y27645903D01*
X16673793Y29804095D02*
X15313875Y29804095D01*
X18576207Y29804095D02*
X19936125Y29804095D01*
X19936125Y29804095D02*
X19936125Y27645903D01*
X19936125Y27645903D02*
X18576207Y27645903D01*
D15*
X16569539Y30694386D02*
X16569539Y31494360D01*
X17679369Y31804165D02*
X16879369Y31804165D01*
X17679369Y30384556D02*
X16879369Y30384556D01*
X18255264Y31810032D02*
X19055239Y31810032D01*
X18255264Y30390372D02*
X19055239Y30390372D01*
X19365018Y30700228D02*
X19365018Y31500253D01*
X16879318Y31804215D02*
G75*
G03*
X16569489Y31494361I1J-309830D01*
G01*
X16569488Y30694386D02*
G75*
G03*
X16879318Y30384556I309830J0D01*
G01*
X19365033Y31500202D02*
G75*
G03*
X19055188Y31810032I-309833J-3D01*
G01*
X19055188Y30390371D02*
G75*
G03*
X19365018Y30700227I-8J309838D01*
G01*
X38972034Y7875997D02*
G75*
G03*
X38972034Y7875997I-254000J0D01*
G01*
D16*
X38240030Y6900000D02*
G75*
G03*
X38240030Y6900000I-29997J0D01*
G01*
D13*
X11736398Y26865207D02*
X11736398Y24984791D01*
X11888799Y24832390D02*
X13373787Y24832390D01*
X13373787Y27017608D02*
X11888799Y27017608D01*
X15226213Y27017608D02*
X16711201Y27017608D01*
X16711201Y24832390D02*
X15226213Y24832390D01*
X16863602Y26865207D02*
X16863602Y24984791D01*
X11888799Y27017608D02*
G75*
G03*
X11736398Y26865207I-1J-152400D01*
G01*
X11736398Y24984791D02*
G75*
G03*
X11888799Y24832390I152400J-1D01*
G01*
X16863609Y26865207D02*
G75*
G03*
X16711201Y27017608I-152409J-8D01*
G01*
X16711201Y24832397D02*
G75*
G03*
X16863602Y24984791I-1J152402D01*
G01*
D15*
X25405461Y39205613D02*
X25405461Y38405639D01*
X24295631Y38095834D02*
X25095631Y38095834D01*
X24295631Y39515443D02*
X25095631Y39515443D01*
X23719736Y38089967D02*
X22919761Y38089967D01*
X23719736Y39509627D02*
X22919761Y39509627D01*
X22609982Y39199771D02*
X22609982Y38399746D01*
X25095682Y38095784D02*
G75*
G03*
X25405511Y38405638I-1J309830D01*
G01*
X25405512Y39205613D02*
G75*
G03*
X25095682Y39515443I-309830J0D01*
G01*
X22609967Y38399797D02*
G75*
G03*
X22919812Y38089967I309833J3D01*
G01*
X22919812Y39509628D02*
G75*
G03*
X22609982Y39199772I8J-309838D01*
G01*
M02*
