G04 #@! TF.GenerationSoftware,KiCad,Pcbnew,7.0.5-0*
G04 #@! TF.CreationDate,2024-12-03T11:17:58-08:00*
G04 #@! TF.ProjectId,MilkVHat,4d696c6b-5648-4617-942e-6b696361645f,rev?*
G04 #@! TF.SameCoordinates,PX5f5e100PY5f5e100*
G04 #@! TF.FileFunction,Soldermask,Bot*
G04 #@! TF.FilePolarity,Negative*
%FSLAX46Y46*%
G04 Gerber Fmt 4.6, Leading zero omitted, Abs format (unit mm)*
G04 Created by KiCad (PCBNEW 7.0.5-0) date 2024-12-03 11:17:58*
%MOMM*%
%LPD*%
G01*
G04 APERTURE LIST*
%ADD10C,1.600000*%
%ADD11C,1.524003*%
%ADD12R,0.864008X0.800000*%
%ADD13R,0.800000X0.900000*%
%ADD14R,1.207518X1.701016*%
%ADD15R,0.864008X0.806477*%
%ADD16R,1.727991X1.485014*%
%ADD17R,1.410008X1.350013*%
%ADD18R,1.905004X2.800000*%
%ADD19R,1.100000X0.600000*%
%ADD20O,0.364008X1.691999*%
%ADD21R,1.700000X1.700000*%
%ADD22C,1.700000*%
%ADD23R,1.485014X1.727991*%
%ADD24R,1.701016X1.207518*%
%ADD25R,0.303124X0.324003*%
G04 APERTURE END LIST*
D10*
X39675000Y2699999D03*
X37675000Y2699999D03*
X35675000Y2699999D03*
X33675000Y2699999D03*
X18475000Y2699999D03*
X16475000Y2699999D03*
X14475000Y2699999D03*
X12475000Y2699999D03*
X29075000Y2699999D03*
X27075000Y2699999D03*
X25075000Y2699999D03*
X23075000Y2699999D03*
D11*
X8250000Y26250000D03*
X5749873Y26250000D03*
X3250000Y26250000D03*
D10*
X23400000Y36900000D03*
X21400000Y36900000D03*
D11*
X8220130Y20918503D03*
X5720003Y20918503D03*
X3220130Y20918503D03*
X8220130Y42418503D03*
X5720003Y42418503D03*
X3220130Y42418503D03*
X8225000Y15500000D03*
X5724873Y15500000D03*
X3225000Y15500000D03*
X8250000Y37000000D03*
X5749873Y37000000D03*
X3250000Y37000000D03*
X18000000Y36149999D03*
X15459995Y33609993D03*
X12919990Y36149999D03*
X8250000Y31668503D03*
X5749873Y31668503D03*
X3250000Y31668503D03*
D12*
X16350000Y37350102D03*
X16350000Y38749898D03*
D13*
X17299975Y33199999D03*
X18700025Y33199999D03*
D14*
X21621209Y26050000D03*
X24578791Y26050000D03*
D15*
X17125000Y19471633D03*
X17125000Y20978365D03*
D16*
X24300000Y13607417D03*
X24300000Y16792583D03*
D17*
X12849987Y19860915D03*
X14849987Y19860915D03*
D18*
X12299041Y15349999D03*
X17150959Y15349999D03*
D17*
X21050000Y19650000D03*
X23050000Y19650000D03*
D19*
X12774987Y22000037D03*
X12774987Y22949999D03*
X12774987Y23899961D03*
X15475013Y23899961D03*
X15475013Y22949999D03*
X15475013Y22000037D03*
D20*
X23013316Y29533052D03*
X22363075Y29533052D03*
X21713087Y29533052D03*
X21063100Y29533052D03*
X21063100Y33825152D03*
X21713087Y33825152D03*
X22363075Y33825152D03*
X23013316Y33825152D03*
D21*
X36940030Y46179997D03*
D22*
X36940030Y48720003D03*
X34400025Y46179997D03*
X34400025Y48720003D03*
X31860020Y46179997D03*
X31860020Y48720003D03*
X29320015Y46179997D03*
X29320015Y48720003D03*
X26780010Y46179997D03*
X26780010Y48720003D03*
X24240005Y46179997D03*
X24240005Y48720003D03*
X21700000Y46179997D03*
X21700000Y48720003D03*
X19159995Y46179997D03*
X19159995Y48720003D03*
X16619990Y46179997D03*
X16619990Y48720003D03*
X14079985Y46179997D03*
X14079985Y48720003D03*
X11539980Y46179997D03*
X11539980Y48720003D03*
X8999975Y46179997D03*
X8999975Y48720003D03*
X6459970Y46179997D03*
X6459970Y48720003D03*
D12*
X24750000Y33650204D03*
X24750000Y35050000D03*
D13*
X19099975Y38800000D03*
X20500025Y38800000D03*
D23*
X19782417Y21899999D03*
X22967583Y21899999D03*
D16*
X20100000Y13607417D03*
X20100000Y16792583D03*
D24*
X12975000Y30496208D03*
X12975000Y33453790D03*
D25*
X17074987Y22685915D03*
X17558095Y22685915D03*
D14*
X16146209Y28724999D03*
X19103791Y28724999D03*
D13*
X17274975Y31099999D03*
X18675025Y31099999D03*
D21*
X36940030Y8129997D03*
D22*
X36940030Y10670003D03*
X34400025Y8129997D03*
X34400025Y10670003D03*
X31860020Y8129997D03*
X31860020Y10670003D03*
X29320015Y8129997D03*
X29320015Y10670003D03*
X26780010Y8129997D03*
X26780010Y10670003D03*
X24240005Y8129997D03*
X24240005Y10670003D03*
X21700000Y8129997D03*
X21700000Y10670003D03*
X19159995Y8129997D03*
X19159995Y10670003D03*
X16619990Y8129997D03*
X16619990Y10670003D03*
X14079985Y8129997D03*
X14079985Y10670003D03*
X11539980Y8129997D03*
X11539980Y10670003D03*
X8999975Y8129997D03*
X8999975Y10670003D03*
X6459970Y8129997D03*
X6459970Y10670003D03*
D23*
X12707417Y25924999D03*
X15892583Y25924999D03*
D13*
X24700025Y38800000D03*
X23299975Y38800000D03*
M02*
