G04 #@! TF.GenerationSoftware,KiCad,Pcbnew,7.0.5-0*
G04 #@! TF.CreationDate,2024-12-03T11:17:58-08:00*
G04 #@! TF.ProjectId,MilkVHat,4d696c6b-5648-4617-942e-6b696361645f,rev?*
G04 #@! TF.SameCoordinates,PX5f5e100PY5f5e100*
G04 #@! TF.FileFunction,Copper,L2,Bot*
G04 #@! TF.FilePolarity,Positive*
%FSLAX46Y46*%
G04 Gerber Fmt 4.6, Leading zero omitted, Abs format (unit mm)*
G04 Created by KiCad (PCBNEW 7.0.5-0) date 2024-12-03 11:17:58*
%MOMM*%
%LPD*%
G01*
G04 APERTURE LIST*
G04 #@! TA.AperFunction,ComponentPad*
%ADD10C,1.600000*%
G04 #@! TD*
G04 #@! TA.AperFunction,ComponentPad*
%ADD11C,1.524003*%
G04 #@! TD*
G04 #@! TA.AperFunction,SMDPad,CuDef*
%ADD12R,0.864008X0.800000*%
G04 #@! TD*
G04 #@! TA.AperFunction,SMDPad,CuDef*
%ADD13R,0.800000X0.900000*%
G04 #@! TD*
G04 #@! TA.AperFunction,SMDPad,CuDef*
%ADD14R,1.207518X1.701016*%
G04 #@! TD*
G04 #@! TA.AperFunction,SMDPad,CuDef*
%ADD15R,0.864008X0.806477*%
G04 #@! TD*
G04 #@! TA.AperFunction,SMDPad,CuDef*
%ADD16R,1.727991X1.485014*%
G04 #@! TD*
G04 #@! TA.AperFunction,SMDPad,CuDef*
%ADD17R,1.410008X1.350013*%
G04 #@! TD*
G04 #@! TA.AperFunction,SMDPad,CuDef*
%ADD18R,1.905004X2.800000*%
G04 #@! TD*
G04 #@! TA.AperFunction,SMDPad,CuDef*
%ADD19R,1.100000X0.600000*%
G04 #@! TD*
G04 #@! TA.AperFunction,SMDPad,CuDef*
%ADD20O,0.364008X1.691999*%
G04 #@! TD*
G04 #@! TA.AperFunction,ComponentPad*
%ADD21R,1.700000X1.700000*%
G04 #@! TD*
G04 #@! TA.AperFunction,ComponentPad*
%ADD22C,1.700000*%
G04 #@! TD*
G04 #@! TA.AperFunction,SMDPad,CuDef*
%ADD23R,1.485014X1.727991*%
G04 #@! TD*
G04 #@! TA.AperFunction,SMDPad,CuDef*
%ADD24R,1.701016X1.207518*%
G04 #@! TD*
G04 #@! TA.AperFunction,SMDPad,CuDef*
%ADD25R,0.303124X0.324003*%
G04 #@! TD*
G04 #@! TA.AperFunction,ViaPad*
%ADD26C,0.900000*%
G04 #@! TD*
G04 #@! TA.AperFunction,Conductor*
%ADD27C,0.500000*%
G04 #@! TD*
G04 #@! TA.AperFunction,Conductor*
%ADD28C,0.200000*%
G04 #@! TD*
G04 #@! TA.AperFunction,Conductor*
%ADD29C,0.400000*%
G04 #@! TD*
G04 APERTURE END LIST*
D10*
X39675000Y2699999D03*
X37675000Y2699999D03*
X35675000Y2699999D03*
X33675000Y2699999D03*
X18475000Y2699999D03*
X16475000Y2699999D03*
X14475000Y2699999D03*
X12475000Y2699999D03*
X29075000Y2699999D03*
X27075000Y2699999D03*
X25075000Y2699999D03*
X23075000Y2699999D03*
D11*
X8250000Y26250000D03*
X5749873Y26250000D03*
X3250000Y26250000D03*
D10*
X23400000Y36900000D03*
X21400000Y36900000D03*
D11*
X8220130Y20918503D03*
X5720003Y20918503D03*
X3220130Y20918503D03*
X8220130Y42418503D03*
X5720003Y42418503D03*
X3220130Y42418503D03*
X8225000Y15500000D03*
X5724873Y15500000D03*
X3225000Y15500000D03*
X8250000Y37000000D03*
X5749873Y37000000D03*
X3250000Y37000000D03*
X18000000Y36149999D03*
X15459995Y33609993D03*
X12919990Y36149999D03*
X8250000Y31668503D03*
X5749873Y31668503D03*
X3250000Y31668503D03*
D12*
X16350000Y37350102D03*
X16350000Y38749898D03*
D13*
X17299975Y33199999D03*
X18700025Y33199999D03*
D14*
X21621209Y26050000D03*
X24578791Y26050000D03*
D15*
X17125000Y19471633D03*
X17125000Y20978365D03*
D16*
X24300000Y13607417D03*
X24300000Y16792583D03*
D17*
X12849987Y19860915D03*
X14849987Y19860915D03*
D18*
X12299041Y15349999D03*
X17150959Y15349999D03*
D17*
X21050000Y19650000D03*
X23050000Y19650000D03*
D19*
X12774987Y22000037D03*
X12774987Y22949999D03*
X12774987Y23899961D03*
X15475013Y23899961D03*
X15475013Y22949999D03*
X15475013Y22000037D03*
D20*
X23013316Y29533052D03*
X22363075Y29533052D03*
X21713087Y29533052D03*
X21063100Y29533052D03*
X21063100Y33825152D03*
X21713087Y33825152D03*
X22363075Y33825152D03*
X23013316Y33825152D03*
D21*
X36940030Y46179997D03*
D22*
X36940030Y48720003D03*
X34400025Y46179997D03*
X34400025Y48720003D03*
X31860020Y46179997D03*
X31860020Y48720003D03*
X29320015Y46179997D03*
X29320015Y48720003D03*
X26780010Y46179997D03*
X26780010Y48720003D03*
X24240005Y46179997D03*
X24240005Y48720003D03*
X21700000Y46179997D03*
X21700000Y48720003D03*
X19159995Y46179997D03*
X19159995Y48720003D03*
X16619990Y46179997D03*
X16619990Y48720003D03*
X14079985Y46179997D03*
X14079985Y48720003D03*
X11539980Y46179997D03*
X11539980Y48720003D03*
X8999975Y46179997D03*
X8999975Y48720003D03*
X6459970Y46179997D03*
X6459970Y48720003D03*
D12*
X24750000Y33650204D03*
X24750000Y35050000D03*
D13*
X19099975Y38800000D03*
X20500025Y38800000D03*
D23*
X19782417Y21899999D03*
X22967583Y21899999D03*
D16*
X20100000Y13607417D03*
X20100000Y16792583D03*
D24*
X12975000Y30496208D03*
X12975000Y33453790D03*
D25*
X17074987Y22685915D03*
X17558095Y22685915D03*
D14*
X16146209Y28724999D03*
X19103791Y28724999D03*
D13*
X17274975Y31099999D03*
X18675025Y31099999D03*
D21*
X36940030Y8129997D03*
D22*
X36940030Y10670003D03*
X34400025Y8129997D03*
X34400025Y10670003D03*
X31860020Y8129997D03*
X31860020Y10670003D03*
X29320015Y8129997D03*
X29320015Y10670003D03*
X26780010Y8129997D03*
X26780010Y10670003D03*
X24240005Y8129997D03*
X24240005Y10670003D03*
X21700000Y8129997D03*
X21700000Y10670003D03*
X19159995Y8129997D03*
X19159995Y10670003D03*
X16619990Y8129997D03*
X16619990Y10670003D03*
X14079985Y8129997D03*
X14079985Y10670003D03*
X11539980Y8129997D03*
X11539980Y10670003D03*
X8999975Y8129997D03*
X8999975Y10670003D03*
X6459970Y8129997D03*
X6459970Y10670003D03*
D23*
X12707417Y25924999D03*
X15892583Y25924999D03*
D13*
X24700025Y38800000D03*
X23299975Y38800000D03*
D26*
X1125000Y6449999D03*
X20075000Y31824999D03*
X12850000Y38250000D03*
X21875000Y38399999D03*
X11950000Y28000000D03*
X22950000Y23600000D03*
X11950000Y31950000D03*
X25199500Y29450000D03*
X22400000Y35600000D03*
X5775000Y39799999D03*
X5775000Y23699999D03*
X5825000Y34249999D03*
X5775000Y28749999D03*
X5775000Y18649999D03*
X24300000Y28200000D03*
X21550000Y23599999D03*
D27*
X3250000Y26250000D02*
X3250000Y15525000D01*
X3250000Y15525000D02*
X3225000Y15500000D01*
D28*
X12475000Y2699999D02*
X14275000Y4499999D01*
X25550000Y2749999D02*
X23950000Y1149999D01*
X23950000Y1149999D02*
X15750000Y1149999D01*
X15750000Y1149999D02*
X14350000Y2549999D01*
X21275000Y4499999D02*
X23075000Y2699999D01*
X14275000Y4499999D02*
X21275000Y4499999D01*
X25075000Y2699999D02*
X26725000Y1049999D01*
X26725000Y1049999D02*
X34025000Y1049999D01*
X34025000Y1049999D02*
X35675000Y2699999D01*
D27*
X20000000Y31824999D02*
X20075000Y31824999D01*
X20075000Y31899999D02*
X19975000Y31799999D01*
X18875025Y31099999D02*
X19275000Y31099999D01*
X20075000Y31824999D02*
X20075000Y31899999D01*
X19275000Y31099999D02*
X20000000Y31824999D01*
X12774987Y23899961D02*
X12774987Y25857429D01*
X13824987Y23899961D02*
X14774949Y22949999D01*
X12774987Y23899961D02*
X13824987Y23899961D01*
X5824873Y26124999D02*
X8049911Y23899961D01*
X14774949Y22949999D02*
X15475013Y22949999D01*
X12774987Y25857429D02*
X12707417Y25924999D01*
X8049911Y23899961D02*
X12774987Y23899961D01*
X15475013Y20485941D02*
X14849987Y19860915D01*
X15475013Y22000037D02*
X15475013Y20485941D01*
X12774987Y22949999D02*
X13575025Y22949999D01*
X12299041Y15349999D02*
X12299041Y19309969D01*
X13575025Y22949999D02*
X13775000Y22750024D01*
X12299041Y19309969D02*
X12849987Y19860915D01*
X13775000Y20874999D02*
X12849987Y19949986D01*
X12849987Y19949986D02*
X12849987Y19860915D01*
X13775000Y22750024D02*
X13775000Y20874999D01*
X18700025Y33549949D02*
X18149975Y34099999D01*
X18149975Y34099999D02*
X15950001Y34099999D01*
X15950001Y34099999D02*
X15459995Y33609993D01*
X18700025Y33199999D02*
X18700025Y33549949D01*
X14596184Y30496208D02*
X17299975Y33199999D01*
X12975000Y30496208D02*
X14596184Y30496208D01*
X38800000Y6849999D02*
X38125000Y6174999D01*
X21621209Y23671208D02*
X21621209Y26050000D01*
X37499999Y13550000D02*
X38800000Y12249999D01*
X29375000Y6299999D02*
X33100000Y6299999D01*
X34400025Y7599975D02*
X34400025Y8129996D01*
X20871633Y19471633D02*
X17125000Y19471633D01*
X21050000Y19650000D02*
X20871633Y19471633D01*
X27075000Y3999999D02*
X29375000Y6299999D01*
X24300000Y28200000D02*
X24300000Y30103124D01*
X17150959Y15349999D02*
X18475000Y15349999D01*
X19782417Y21832416D02*
X19782417Y20917583D01*
X38800000Y12249999D02*
X38800000Y6849999D01*
X33100000Y6299999D02*
X34400025Y7600024D01*
X35825001Y6174999D02*
X34400025Y7599975D01*
X20747250Y13550000D02*
X37499999Y13550000D01*
X24300000Y30103124D02*
X21713087Y32690037D01*
D28*
X34400025Y7600024D02*
X34400025Y8129996D01*
D27*
X21550000Y23599999D02*
X19782417Y21832416D01*
X27075000Y2699999D02*
X27075000Y3999999D01*
X38125000Y6174999D02*
X35825001Y6174999D01*
X19782417Y20917583D02*
X21050000Y19650000D01*
X20689833Y13607417D02*
X20747250Y13550000D01*
X17150959Y15349999D02*
X17150959Y19445674D01*
X18475000Y15349999D02*
X20217582Y13607417D01*
D29*
X21713087Y32690037D02*
X21713087Y33825152D01*
D27*
X16146209Y29971233D02*
X17274975Y31099999D01*
X16146209Y28724999D02*
X16146209Y29971233D01*
X24750000Y35050000D02*
X24750000Y39000025D01*
X24749961Y36699961D02*
X24549922Y36900000D01*
X24549922Y36900000D02*
X23400000Y36900000D01*
X24750000Y35050000D02*
X24750000Y36699922D01*
X20325000Y36900000D02*
X21400000Y36900000D01*
X19149975Y38075025D02*
X20325000Y36900000D01*
X16367894Y38850000D02*
X16417894Y38800000D01*
X19149975Y38800000D02*
X19149975Y38075025D01*
X16417894Y38800000D02*
X19149975Y38800000D01*
X16350000Y37300102D02*
X16411898Y37362000D01*
X21013087Y34850941D02*
X21013087Y33825152D01*
X18502028Y37362000D02*
X21013087Y34850941D01*
X16411898Y37362000D02*
X18502028Y37362000D01*
X23063316Y33775152D02*
X24625052Y33775152D01*
X24625052Y33775152D02*
X24750000Y33650204D01*
D28*
X12919990Y36149999D02*
X13850000Y37080009D01*
X35279161Y44600000D02*
X36934030Y46254869D01*
X13850000Y43000000D02*
X15450000Y44600000D01*
X13850000Y37080009D02*
X13850000Y43000000D01*
X15450000Y44600000D02*
X35279161Y44600000D01*
D27*
X3250000Y42388633D02*
X3220130Y42418503D01*
X3250000Y31668503D02*
X3250000Y42388633D01*
X16900000Y23275012D02*
X16275051Y23899961D01*
X16900000Y21203365D02*
X16900000Y23275012D01*
X17125000Y20978365D02*
X16900000Y21203365D01*
X16275051Y23899961D02*
X15475013Y23899961D01*
X23800000Y26050000D02*
X23013316Y26836684D01*
X23013316Y26836684D02*
X23013316Y29533052D01*
X24578791Y26050000D02*
X23800000Y26050000D01*
X18678006Y34821994D02*
X20100000Y33400000D01*
X14021995Y34821994D02*
X18678006Y34821994D01*
X20100000Y33400000D02*
X20100000Y33100000D01*
X21700000Y31500000D02*
X21700000Y30400000D01*
X20100000Y33100000D02*
X21700000Y31500000D01*
X12975000Y33774999D02*
X14021995Y34821994D01*
X12975000Y33453790D02*
X12975000Y33774999D01*
X20074999Y28724999D02*
X19103791Y28724999D01*
X21063100Y29533052D02*
X20883052Y29533052D01*
X20883052Y29533052D02*
X20074999Y28724999D01*
G04 #@! TA.AperFunction,Conductor*
G36*
X28615507Y2490155D02*
G01*
X28693239Y2369201D01*
X28801900Y2275047D01*
X28932685Y2215319D01*
X28942466Y2213913D01*
X28349526Y1620974D01*
X28349526Y1620973D01*
X28413649Y1576074D01*
X28457274Y1521497D01*
X28464468Y1451999D01*
X28432945Y1389644D01*
X28372716Y1354230D01*
X28342526Y1350499D01*
X26900834Y1350499D01*
X26833795Y1370184D01*
X26813153Y1386818D01*
X26664968Y1535003D01*
X26631483Y1596326D01*
X26636467Y1666018D01*
X26678339Y1721951D01*
X26743803Y1746368D01*
X26788645Y1741344D01*
X26878868Y1713975D01*
X27075000Y1694658D01*
X27271132Y1713975D01*
X27459727Y1771185D01*
X27459735Y1771189D01*
X27633532Y1864086D01*
X27633538Y1864089D01*
X27785883Y1989116D01*
X27785884Y1989117D01*
X27790051Y1994194D01*
X27847795Y2033530D01*
X27917640Y2035403D01*
X27977409Y1999217D01*
X27987481Y1986655D01*
X27995972Y1974528D01*
X27995974Y1974527D01*
X28591922Y2570477D01*
X28615507Y2490155D01*
G37*
G04 #@! TD.AperFunction*
G04 #@! TA.AperFunction,Conductor*
G36*
X18015507Y2490155D02*
G01*
X18093239Y2369201D01*
X18201900Y2275047D01*
X18332685Y2215319D01*
X18342466Y2213913D01*
X17749526Y1620974D01*
X17752647Y1585306D01*
X17738880Y1516806D01*
X17690265Y1466623D01*
X17629119Y1450499D01*
X16520091Y1450499D01*
X16474772Y1463807D01*
X16453014Y1452671D01*
X16429909Y1450499D01*
X15925833Y1450499D01*
X15858794Y1470184D01*
X15838152Y1486818D01*
X15331561Y1993409D01*
X15298076Y2054732D01*
X15303060Y2124424D01*
X15309884Y2139543D01*
X15310909Y2141460D01*
X15310910Y2141461D01*
X15365642Y2243859D01*
X15414603Y2293701D01*
X15482741Y2309162D01*
X15548421Y2285330D01*
X15584357Y2243857D01*
X15639085Y2141467D01*
X15639090Y2141460D01*
X15764116Y1989116D01*
X15916460Y1864090D01*
X15916467Y1864086D01*
X16090266Y1771188D01*
X16090269Y1771188D01*
X16090273Y1771185D01*
X16278868Y1713975D01*
X16442063Y1697902D01*
X16472757Y1685508D01*
X16485156Y1693476D01*
X16507937Y1697902D01*
X16671132Y1713975D01*
X16859727Y1771185D01*
X16859735Y1771189D01*
X17033532Y1864086D01*
X17033538Y1864089D01*
X17185883Y1989116D01*
X17185884Y1989117D01*
X17190051Y1994194D01*
X17247795Y2033530D01*
X17317640Y2035403D01*
X17377409Y1999217D01*
X17387481Y1986655D01*
X17395972Y1974528D01*
X17395973Y1974527D01*
X17991922Y2570476D01*
X18015507Y2490155D01*
G37*
G04 #@! TD.AperFunction*
G04 #@! TA.AperFunction,Conductor*
G36*
X21166206Y4179814D02*
G01*
X21186848Y4163180D01*
X22122648Y3227380D01*
X22156133Y3166057D01*
X22151149Y3096365D01*
X22148449Y3090381D01*
X22148517Y3090353D01*
X22146188Y3084732D01*
X22088975Y2896129D01*
X22069659Y2700000D01*
X22088975Y2503870D01*
X22098218Y2473400D01*
X22136729Y2346446D01*
X22146188Y2315266D01*
X22239086Y2141467D01*
X22239090Y2141460D01*
X22364116Y1989116D01*
X22516460Y1864090D01*
X22516467Y1864086D01*
X22690266Y1771188D01*
X22690269Y1771188D01*
X22690273Y1771185D01*
X22878868Y1713975D01*
X23042063Y1697902D01*
X23072757Y1685508D01*
X23085156Y1693476D01*
X23107937Y1697902D01*
X23271132Y1713975D01*
X23459727Y1771185D01*
X23459735Y1771189D01*
X23633532Y1864086D01*
X23633538Y1864089D01*
X23785883Y1989116D01*
X23910910Y2141461D01*
X23923657Y2165309D01*
X23965642Y2243856D01*
X24014604Y2293700D01*
X24082742Y2309161D01*
X24148421Y2285329D01*
X24184358Y2243856D01*
X24239086Y2141467D01*
X24239090Y2141460D01*
X24292831Y2075977D01*
X24320144Y2011667D01*
X24308353Y1942799D01*
X24284659Y1909631D01*
X23861848Y1486818D01*
X23800525Y1453333D01*
X23774167Y1450499D01*
X23120091Y1450499D01*
X23074772Y1463807D01*
X23053014Y1452671D01*
X23029909Y1450499D01*
X19320880Y1450499D01*
X19253841Y1470184D01*
X19208086Y1522988D01*
X19197352Y1585306D01*
X19200472Y1620974D01*
X18607534Y2213913D01*
X18617315Y2215319D01*
X18748100Y2275047D01*
X18856761Y2369201D01*
X18934493Y2490155D01*
X18958076Y2570475D01*
X19554025Y1974527D01*
X19605136Y2047521D01*
X19701264Y2253668D01*
X19701269Y2253682D01*
X19760139Y2473389D01*
X19760141Y2473400D01*
X19779966Y2699997D01*
X19779966Y2700002D01*
X19760141Y2926599D01*
X19760139Y2926610D01*
X19701269Y3146317D01*
X19701265Y3146326D01*
X19605133Y3352483D01*
X19605131Y3352487D01*
X19554026Y3425473D01*
X19554025Y3425473D01*
X18958076Y2829525D01*
X18934493Y2909843D01*
X18856761Y3030797D01*
X18748100Y3124951D01*
X18617315Y3184679D01*
X18607533Y3186086D01*
X19200472Y3779025D01*
X19200471Y3779026D01*
X19127483Y3830133D01*
X19127481Y3830134D01*
X18921326Y3926265D01*
X18921317Y3926269D01*
X18811387Y3955724D01*
X18751726Y3992089D01*
X18721197Y4054936D01*
X18729492Y4124311D01*
X18773977Y4178189D01*
X18840529Y4199464D01*
X18843480Y4199499D01*
X21099167Y4199499D01*
X21166206Y4179814D01*
G37*
G04 #@! TD.AperFunction*
G04 #@! TA.AperFunction,Conductor*
G36*
X18173559Y4179814D02*
G01*
X18219314Y4127010D01*
X18229258Y4057852D01*
X18200233Y3994296D01*
X18141455Y3956522D01*
X18138613Y3955724D01*
X18028682Y3926269D01*
X18028673Y3926265D01*
X17822513Y3830131D01*
X17749527Y3779027D01*
X17749526Y3779026D01*
X18342467Y3186086D01*
X18332685Y3184679D01*
X18201900Y3124951D01*
X18093239Y3030797D01*
X18015507Y2909843D01*
X17991923Y2829524D01*
X17395973Y3425473D01*
X17395971Y3425472D01*
X17387479Y3413343D01*
X17332902Y3369718D01*
X17263404Y3362526D01*
X17201049Y3394048D01*
X17190049Y3405806D01*
X17185883Y3410883D01*
X17033539Y3535909D01*
X17033532Y3535913D01*
X16859733Y3628811D01*
X16859727Y3628813D01*
X16671132Y3686023D01*
X16671129Y3686024D01*
X16475000Y3705340D01*
X16278870Y3686024D01*
X16090266Y3628811D01*
X15916467Y3535913D01*
X15916460Y3535909D01*
X15764116Y3410883D01*
X15639090Y3258539D01*
X15639085Y3258532D01*
X15584358Y3156143D01*
X15535396Y3106298D01*
X15467258Y3090838D01*
X15401578Y3114670D01*
X15365642Y3156143D01*
X15310914Y3258532D01*
X15310909Y3258539D01*
X15185883Y3410883D01*
X15033539Y3535909D01*
X15033532Y3535913D01*
X14859733Y3628811D01*
X14859727Y3628813D01*
X14671132Y3686023D01*
X14671129Y3686024D01*
X14475000Y3705340D01*
X14278869Y3686024D01*
X14188642Y3658653D01*
X14118775Y3658030D01*
X14059663Y3695278D01*
X14030072Y3758572D01*
X14039397Y3827817D01*
X14064964Y3864993D01*
X14363151Y4163180D01*
X14424475Y4196665D01*
X14450833Y4199499D01*
X18106520Y4199499D01*
X18173559Y4179814D01*
G37*
G04 #@! TD.AperFunction*
G04 #@! TA.AperFunction,Conductor*
G36*
X32974945Y7368624D02*
G01*
X32974946Y7368624D01*
X33033618Y7452415D01*
X33033620Y7452419D01*
X33133449Y7666505D01*
X33133453Y7666514D01*
X33166180Y7788655D01*
X33202544Y7848315D01*
X33265391Y7878845D01*
X33334767Y7870551D01*
X33388645Y7826066D01*
X33404615Y7792558D01*
X33424792Y7726045D01*
X33424793Y7726043D01*
X33494623Y7595401D01*
X33522342Y7543544D01*
X33534027Y7529306D01*
X33561340Y7464996D01*
X33549549Y7396129D01*
X33525855Y7362960D01*
X32949716Y6786818D01*
X32888393Y6753333D01*
X32862035Y6750499D01*
X32636824Y6750499D01*
X32569785Y6770184D01*
X32524030Y6822988D01*
X32514086Y6892146D01*
X32543111Y6955702D01*
X32565700Y6976073D01*
X32621393Y7015071D01*
X32621393Y7015072D01*
X32031598Y7604867D01*
X32148485Y7655637D01*
X32265768Y7751054D01*
X32352960Y7874576D01*
X32383385Y7960184D01*
X32974945Y7368624D01*
G37*
G04 #@! TD.AperFunction*
G04 #@! TA.AperFunction,Conductor*
G36*
X22473421Y36485330D02*
G01*
X22509358Y36443857D01*
X22564086Y36341468D01*
X22564090Y36341461D01*
X22689116Y36189117D01*
X22841460Y36064091D01*
X22841467Y36064087D01*
X23015266Y35971189D01*
X23015269Y35971189D01*
X23015273Y35971186D01*
X23203868Y35913976D01*
X23400000Y35894659D01*
X23596132Y35913976D01*
X23784727Y35971186D01*
X23958538Y36064090D01*
X24096834Y36177588D01*
X24161145Y36204901D01*
X24230012Y36193110D01*
X24281573Y36145958D01*
X24299500Y36081735D01*
X24299500Y35745061D01*
X24279815Y35678022D01*
X24244392Y35641960D01*
X24173444Y35594554D01*
X24129128Y35528231D01*
X24129127Y35528230D01*
X24117496Y35469753D01*
X24117496Y34630248D01*
X24129127Y34571771D01*
X24129128Y34571770D01*
X24173443Y34505448D01*
X24249919Y34454348D01*
X24247862Y34451271D01*
X24285645Y34420824D01*
X24307711Y34354530D01*
X24290433Y34286830D01*
X24239297Y34239219D01*
X24231258Y34235547D01*
X24230172Y34235097D01*
X24182704Y34225652D01*
X23519820Y34225652D01*
X23452781Y34245337D01*
X23407026Y34298141D01*
X23395820Y34349652D01*
X23395820Y34520841D01*
X23395820Y34520842D01*
X23380097Y34615063D01*
X23319339Y34727334D01*
X23319336Y34727337D01*
X23225421Y34813793D01*
X23108514Y34865074D01*
X23108507Y34865075D01*
X22980075Y34875717D01*
X22914890Y34900870D01*
X22888265Y34928852D01*
X22877309Y34944725D01*
X22753344Y35054548D01*
X22606691Y35131516D01*
X22545079Y35146702D01*
X22545079Y33767148D01*
X22525394Y33700109D01*
X22472590Y33654354D01*
X22421079Y33643148D01*
X22305071Y33643148D01*
X22238032Y33662833D01*
X22192277Y33715637D01*
X22181071Y33767148D01*
X22181070Y35146702D01*
X22119458Y35131516D01*
X21972805Y35054548D01*
X21848843Y34944727D01*
X21848833Y34944715D01*
X21835405Y34925263D01*
X21781120Y34881275D01*
X21723123Y34872131D01*
X21681063Y34875615D01*
X21639442Y34865075D01*
X21605560Y34856495D01*
X21535740Y34859120D01*
X21478422Y34899077D01*
X21452505Y34958222D01*
X21448434Y34985232D01*
X21445918Y34993389D01*
X21443111Y35001413D01*
X21415851Y35052990D01*
X21414805Y35055061D01*
X21389511Y35107585D01*
X21384729Y35114599D01*
X21379654Y35121475D01*
X21379653Y35121478D01*
X21338432Y35162699D01*
X21336839Y35164351D01*
X21319683Y35182841D01*
X21297146Y35207132D01*
X21289879Y35212927D01*
X21290399Y35213580D01*
X21278154Y35222977D01*
X20264740Y36236391D01*
X20231255Y36297714D01*
X20236239Y36367406D01*
X20278111Y36423339D01*
X20343575Y36447756D01*
X20357059Y36447985D01*
X20376010Y36447276D01*
X20385243Y36448316D01*
X20385336Y36447487D01*
X20400636Y36449500D01*
X20432020Y36449500D01*
X20499059Y36429815D01*
X20541378Y36383953D01*
X20564090Y36341461D01*
X20689116Y36189117D01*
X20841460Y36064091D01*
X20841467Y36064087D01*
X21015266Y35971189D01*
X21015269Y35971189D01*
X21015273Y35971186D01*
X21203868Y35913976D01*
X21400000Y35894659D01*
X21596132Y35913976D01*
X21784727Y35971186D01*
X21958538Y36064090D01*
X22110883Y36189117D01*
X22235910Y36341462D01*
X22273406Y36411612D01*
X22290642Y36443857D01*
X22339604Y36493701D01*
X22407742Y36509162D01*
X22473421Y36485330D01*
G37*
G04 #@! TD.AperFunction*
G04 #@! TA.AperFunction,Conductor*
G36*
X6290147Y49979816D02*
G01*
X6335902Y49927012D01*
X6345846Y49857854D01*
X6316821Y49794298D01*
X6259103Y49756840D01*
X6056013Y49695234D01*
X5957334Y49642488D01*
X5873520Y49597688D01*
X5873518Y49597687D01*
X5873517Y49597686D01*
X5713559Y49466414D01*
X5582287Y49306456D01*
X5582285Y49306453D01*
X5566840Y49277558D01*
X5484739Y49123960D01*
X5424669Y48925936D01*
X5404387Y48720004D01*
X5424669Y48514071D01*
X5425890Y48510047D01*
X5484738Y48316049D01*
X5582285Y48133553D01*
X5582287Y48133551D01*
X5713559Y47973593D01*
X5750460Y47943310D01*
X5873520Y47842318D01*
X6056016Y47744771D01*
X6254036Y47684703D01*
X6254035Y47684703D01*
X6272499Y47682885D01*
X6459970Y47664420D01*
X6665904Y47684703D01*
X6863924Y47744771D01*
X7046420Y47842318D01*
X7206380Y47973593D01*
X7337655Y48133553D01*
X7435202Y48316049D01*
X7495270Y48514069D01*
X7515553Y48720003D01*
X7495270Y48925937D01*
X7435202Y49123957D01*
X7337655Y49306453D01*
X7255805Y49406188D01*
X7206380Y49466414D01*
X7088647Y49563034D01*
X7046420Y49597688D01*
X6863924Y49695235D01*
X6665904Y49755303D01*
X6665903Y49755304D01*
X6660837Y49756840D01*
X6602398Y49795138D01*
X6573942Y49858950D01*
X6584502Y49928017D01*
X6630726Y49980411D01*
X6696832Y49999501D01*
X8763113Y49999501D01*
X8830152Y49979816D01*
X8875907Y49927012D01*
X8885851Y49857854D01*
X8856826Y49794298D01*
X8799108Y49756840D01*
X8596018Y49695234D01*
X8497339Y49642488D01*
X8413525Y49597688D01*
X8413523Y49597687D01*
X8413522Y49597686D01*
X8253564Y49466414D01*
X8122292Y49306456D01*
X8122290Y49306453D01*
X8106845Y49277558D01*
X8024744Y49123960D01*
X7964674Y48925936D01*
X7944392Y48720004D01*
X7964674Y48514071D01*
X7965895Y48510047D01*
X8024743Y48316049D01*
X8122290Y48133553D01*
X8122292Y48133551D01*
X8253564Y47973593D01*
X8290465Y47943310D01*
X8413525Y47842318D01*
X8596021Y47744771D01*
X8794041Y47684703D01*
X8794040Y47684703D01*
X8812504Y47682885D01*
X8999975Y47664420D01*
X9205909Y47684703D01*
X9403929Y47744771D01*
X9586425Y47842318D01*
X9746385Y47973593D01*
X9877660Y48133553D01*
X9975207Y48316049D01*
X10035275Y48514069D01*
X10055558Y48720003D01*
X10035275Y48925937D01*
X9975207Y49123957D01*
X9877660Y49306453D01*
X9795810Y49406188D01*
X9746385Y49466414D01*
X9628652Y49563034D01*
X9586425Y49597688D01*
X9403929Y49695235D01*
X9205909Y49755303D01*
X9205908Y49755304D01*
X9200842Y49756840D01*
X9142403Y49795138D01*
X9113947Y49858950D01*
X9124507Y49928017D01*
X9170731Y49980411D01*
X9236837Y49999501D01*
X11303118Y49999501D01*
X11370157Y49979816D01*
X11415912Y49927012D01*
X11425856Y49857854D01*
X11396831Y49794298D01*
X11339113Y49756840D01*
X11136023Y49695234D01*
X11037344Y49642488D01*
X10953530Y49597688D01*
X10953528Y49597687D01*
X10953527Y49597686D01*
X10793569Y49466414D01*
X10662297Y49306456D01*
X10662295Y49306453D01*
X10646850Y49277558D01*
X10564749Y49123960D01*
X10504679Y48925936D01*
X10484397Y48720003D01*
X10504679Y48514071D01*
X10505900Y48510047D01*
X10564748Y48316049D01*
X10662295Y48133553D01*
X10662297Y48133551D01*
X10793569Y47973593D01*
X10830470Y47943310D01*
X10953530Y47842318D01*
X11136026Y47744771D01*
X11202541Y47724594D01*
X11260979Y47686298D01*
X11289436Y47622486D01*
X11278877Y47553419D01*
X11232653Y47501025D01*
X11198640Y47486159D01*
X11076494Y47453430D01*
X11076487Y47453427D01*
X10862399Y47353596D01*
X10778605Y47294925D01*
X11368402Y46705128D01*
X11251515Y46654357D01*
X11134232Y46558940D01*
X11047040Y46435418D01*
X11016614Y46349810D01*
X10425053Y46941372D01*
X10425052Y46941371D01*
X10366381Y46857578D01*
X10266550Y46643490D01*
X10266547Y46643484D01*
X10233819Y46521339D01*
X10197454Y46461679D01*
X10134607Y46431150D01*
X10065231Y46439445D01*
X10011353Y46483930D01*
X9995383Y46517438D01*
X9994200Y46521339D01*
X9975207Y46583951D01*
X9877660Y46766447D01*
X9825677Y46829788D01*
X9746385Y46926408D01*
X9596096Y47049745D01*
X9586425Y47057682D01*
X9403929Y47155229D01*
X9205909Y47215297D01*
X9205907Y47215298D01*
X9205909Y47215298D01*
X9018438Y47233762D01*
X8999975Y47235580D01*
X8999974Y47235580D01*
X8794042Y47215298D01*
X8596018Y47155228D01*
X8508089Y47108228D01*
X8413525Y47057682D01*
X8413523Y47057681D01*
X8413522Y47057680D01*
X8253564Y46926408D01*
X8122292Y46766450D01*
X8024744Y46583954D01*
X7964674Y46385930D01*
X7944392Y46179998D01*
X7964674Y45974065D01*
X7980907Y45920551D01*
X8024743Y45776043D01*
X8122290Y45593547D01*
X8122292Y45593545D01*
X8253564Y45433587D01*
X8350184Y45354295D01*
X8413525Y45302312D01*
X8596021Y45204765D01*
X8794041Y45144697D01*
X8794040Y45144697D01*
X8809636Y45143161D01*
X8999975Y45124414D01*
X9205909Y45144697D01*
X9403929Y45204765D01*
X9586425Y45302312D01*
X9746385Y45433587D01*
X9877660Y45593547D01*
X9975207Y45776043D01*
X9995384Y45842559D01*
X10033681Y45900996D01*
X10097493Y45929452D01*
X10166560Y45918892D01*
X10218953Y45872668D01*
X10233819Y45838655D01*
X10266546Y45716514D01*
X10266550Y45716505D01*
X10366380Y45502418D01*
X10366382Y45502414D01*
X10425052Y45418624D01*
X10425053Y45418624D01*
X11014039Y46007611D01*
X11016852Y45994077D01*
X11086411Y45859833D01*
X11189610Y45749335D01*
X11318794Y45670776D01*
X11369971Y45656437D01*
X10778605Y45065072D01*
X10862401Y45006398D01*
X11076487Y44906568D01*
X11076496Y44906564D01*
X11304653Y44845430D01*
X11304664Y44845428D01*
X11539978Y44824840D01*
X11539982Y44824840D01*
X11775295Y44845428D01*
X11775306Y44845430D01*
X12003463Y44906564D01*
X12003472Y44906568D01*
X12217558Y45006397D01*
X12217562Y45006399D01*
X12301353Y45065071D01*
X12301353Y45065072D01*
X11711558Y45654867D01*
X11828445Y45705637D01*
X11945728Y45801054D01*
X12032920Y45924576D01*
X12063345Y46010184D01*
X12654905Y45418624D01*
X12654906Y45418624D01*
X12713578Y45502415D01*
X12713580Y45502419D01*
X12813409Y45716505D01*
X12813413Y45716514D01*
X12846140Y45838655D01*
X12882504Y45898315D01*
X12945351Y45928845D01*
X13014727Y45920551D01*
X13068605Y45876066D01*
X13084575Y45842558D01*
X13104752Y45776045D01*
X13104753Y45776043D01*
X13202300Y45593547D01*
X13202302Y45593545D01*
X13333574Y45433587D01*
X13430194Y45354295D01*
X13493535Y45302312D01*
X13676031Y45204765D01*
X13874051Y45144697D01*
X13874050Y45144697D01*
X13889646Y45143161D01*
X14079985Y45124414D01*
X14285919Y45144697D01*
X14483939Y45204765D01*
X14666435Y45302312D01*
X14826395Y45433587D01*
X14957670Y45593547D01*
X15055217Y45776043D01*
X15115285Y45974063D01*
X15135568Y46179997D01*
X15115285Y46385931D01*
X15055217Y46583951D01*
X14957670Y46766447D01*
X14905687Y46829788D01*
X14826395Y46926408D01*
X14676106Y47049745D01*
X14666435Y47057682D01*
X14483939Y47155229D01*
X14285919Y47215297D01*
X14285917Y47215298D01*
X14285919Y47215298D01*
X14098448Y47233762D01*
X14079985Y47235580D01*
X14079984Y47235580D01*
X13874052Y47215298D01*
X13676028Y47155228D01*
X13588099Y47108228D01*
X13493535Y47057682D01*
X13493533Y47057681D01*
X13493532Y47057680D01*
X13333574Y46926408D01*
X13202302Y46766450D01*
X13104753Y46583952D01*
X13084575Y46517436D01*
X13046277Y46458998D01*
X12982464Y46430542D01*
X12913398Y46441104D01*
X12861005Y46487329D01*
X12846140Y46521340D01*
X12813413Y46643481D01*
X12813409Y46643490D01*
X12713580Y46857574D01*
X12713579Y46857576D01*
X12654905Y46941371D01*
X12654905Y46941372D01*
X12065919Y46352386D01*
X12063108Y46365917D01*
X11993549Y46500161D01*
X11890350Y46610659D01*
X11761166Y46689218D01*
X11709988Y46703558D01*
X12301353Y47294924D01*
X12301353Y47294925D01*
X12217563Y47353595D01*
X12217559Y47353597D01*
X12003472Y47453427D01*
X12003465Y47453430D01*
X11881319Y47486159D01*
X11842206Y47510000D01*
X39434532Y47510000D01*
X39454364Y47283315D01*
X39454366Y47283304D01*
X39513258Y47063513D01*
X39513261Y47063504D01*
X39609431Y46857269D01*
X39609432Y46857267D01*
X39739954Y46670860D01*
X39900858Y46509956D01*
X39900861Y46509954D01*
X40087266Y46379433D01*
X40293504Y46283262D01*
X40513308Y46224366D01*
X40675230Y46210200D01*
X40739998Y46204533D01*
X40740000Y46204533D01*
X40740002Y46204533D01*
X40796673Y46209492D01*
X40966692Y46224366D01*
X41186496Y46283262D01*
X41392734Y46379433D01*
X41579139Y46509954D01*
X41740047Y46670862D01*
X41870568Y46857267D01*
X41966739Y47063505D01*
X42025635Y47283309D01*
X42045468Y47510001D01*
X42044372Y47522524D01*
X42031958Y47664421D01*
X42025635Y47736693D01*
X41980916Y47903586D01*
X41966741Y47956490D01*
X41966738Y47956499D01*
X41932214Y48030535D01*
X41870568Y48162735D01*
X41740047Y48349140D01*
X41740045Y48349143D01*
X41579141Y48510047D01*
X41392734Y48640569D01*
X41392732Y48640570D01*
X41186497Y48736740D01*
X41186488Y48736743D01*
X40966697Y48795635D01*
X40966693Y48795636D01*
X40966692Y48795636D01*
X40966691Y48795637D01*
X40966686Y48795637D01*
X40740002Y48815469D01*
X40739998Y48815469D01*
X40513313Y48795637D01*
X40513302Y48795635D01*
X40293511Y48736743D01*
X40293502Y48736740D01*
X40087267Y48640570D01*
X40087265Y48640569D01*
X39900858Y48510047D01*
X39739954Y48349143D01*
X39609432Y48162736D01*
X39609431Y48162734D01*
X39513261Y47956499D01*
X39513258Y47956490D01*
X39454366Y47736699D01*
X39454364Y47736688D01*
X39434532Y47510003D01*
X39434532Y47510000D01*
X11842206Y47510000D01*
X11821659Y47522524D01*
X11791130Y47585371D01*
X11799425Y47654747D01*
X11843910Y47708625D01*
X11877414Y47724593D01*
X11943934Y47744771D01*
X12126430Y47842318D01*
X12286390Y47973593D01*
X12417665Y48133553D01*
X12515212Y48316049D01*
X12575280Y48514069D01*
X12595563Y48720003D01*
X12575280Y48925937D01*
X12515212Y49123957D01*
X12417665Y49306453D01*
X12335815Y49406188D01*
X12286390Y49466414D01*
X12168657Y49563034D01*
X12126430Y49597688D01*
X11943934Y49695235D01*
X11745914Y49755303D01*
X11745913Y49755304D01*
X11740847Y49756840D01*
X11682408Y49795138D01*
X11653952Y49858950D01*
X11664512Y49928017D01*
X11710736Y49980411D01*
X11776842Y49999501D01*
X13843123Y49999501D01*
X13910162Y49979816D01*
X13955917Y49927012D01*
X13965861Y49857854D01*
X13936836Y49794298D01*
X13879118Y49756840D01*
X13676028Y49695234D01*
X13577349Y49642488D01*
X13493535Y49597688D01*
X13493533Y49597687D01*
X13493532Y49597686D01*
X13333574Y49466414D01*
X13202302Y49306456D01*
X13202300Y49306453D01*
X13186855Y49277558D01*
X13104754Y49123960D01*
X13044684Y48925936D01*
X13024402Y48720004D01*
X13044684Y48514071D01*
X13045905Y48510047D01*
X13104753Y48316049D01*
X13202300Y48133553D01*
X13202302Y48133551D01*
X13333574Y47973593D01*
X13370475Y47943310D01*
X13493535Y47842318D01*
X13676031Y47744771D01*
X13874051Y47684703D01*
X13874050Y47684703D01*
X13892514Y47682885D01*
X14079985Y47664420D01*
X14285919Y47684703D01*
X14483939Y47744771D01*
X14666435Y47842318D01*
X14826395Y47973593D01*
X14957670Y48133553D01*
X15055217Y48316049D01*
X15115285Y48514069D01*
X15135568Y48720003D01*
X15115285Y48925937D01*
X15055217Y49123957D01*
X14957670Y49306453D01*
X14875820Y49406188D01*
X14826395Y49466414D01*
X14708662Y49563034D01*
X14666435Y49597688D01*
X14483939Y49695235D01*
X14285919Y49755303D01*
X14285918Y49755304D01*
X14280852Y49756840D01*
X14222413Y49795138D01*
X14193957Y49858950D01*
X14204517Y49928017D01*
X14250741Y49980411D01*
X14316847Y49999501D01*
X16383128Y49999501D01*
X16450167Y49979816D01*
X16495922Y49927012D01*
X16505866Y49857854D01*
X16476841Y49794298D01*
X16419123Y49756840D01*
X16216033Y49695234D01*
X16117354Y49642488D01*
X16033540Y49597688D01*
X16033538Y49597687D01*
X16033537Y49597686D01*
X15873579Y49466414D01*
X15742307Y49306456D01*
X15742305Y49306453D01*
X15726860Y49277558D01*
X15644759Y49123960D01*
X15584689Y48925936D01*
X15564407Y48720003D01*
X15584689Y48514071D01*
X15585910Y48510047D01*
X15644758Y48316049D01*
X15742305Y48133553D01*
X15742307Y48133551D01*
X15873579Y47973593D01*
X15910480Y47943310D01*
X16033540Y47842318D01*
X16216036Y47744771D01*
X16414056Y47684703D01*
X16414055Y47684703D01*
X16434338Y47682706D01*
X16619990Y47664420D01*
X16825924Y47684703D01*
X17023944Y47744771D01*
X17206440Y47842318D01*
X17366400Y47973593D01*
X17497675Y48133553D01*
X17595222Y48316049D01*
X17655290Y48514069D01*
X17675573Y48720003D01*
X17655290Y48925937D01*
X17595222Y49123957D01*
X17497675Y49306453D01*
X17415825Y49406188D01*
X17366400Y49466414D01*
X17248667Y49563034D01*
X17206440Y49597688D01*
X17023944Y49695235D01*
X16825924Y49755303D01*
X16825923Y49755304D01*
X16820857Y49756840D01*
X16762418Y49795138D01*
X16733962Y49858950D01*
X16744522Y49928017D01*
X16790746Y49980411D01*
X16856852Y49999501D01*
X18923133Y49999501D01*
X18990172Y49979816D01*
X19035927Y49927012D01*
X19045871Y49857854D01*
X19016846Y49794298D01*
X18959128Y49756840D01*
X18756038Y49695234D01*
X18657359Y49642488D01*
X18573545Y49597688D01*
X18573543Y49597687D01*
X18573542Y49597686D01*
X18413584Y49466414D01*
X18282312Y49306456D01*
X18282310Y49306453D01*
X18266865Y49277558D01*
X18184764Y49123960D01*
X18124694Y48925936D01*
X18104412Y48720004D01*
X18124694Y48514071D01*
X18125915Y48510047D01*
X18184763Y48316049D01*
X18282310Y48133553D01*
X18282312Y48133551D01*
X18413584Y47973593D01*
X18450485Y47943310D01*
X18573545Y47842318D01*
X18756041Y47744771D01*
X18954061Y47684703D01*
X18954060Y47684703D01*
X18972524Y47682885D01*
X19159995Y47664420D01*
X19365929Y47684703D01*
X19563949Y47744771D01*
X19746445Y47842318D01*
X19906405Y47973593D01*
X20037680Y48133553D01*
X20135227Y48316049D01*
X20195295Y48514069D01*
X20215578Y48720003D01*
X20195295Y48925937D01*
X20135227Y49123957D01*
X20037680Y49306453D01*
X19955830Y49406188D01*
X19906405Y49466414D01*
X19788672Y49563034D01*
X19746445Y49597688D01*
X19563949Y49695235D01*
X19365929Y49755303D01*
X19365928Y49755304D01*
X19360862Y49756840D01*
X19302423Y49795138D01*
X19273967Y49858950D01*
X19284527Y49928017D01*
X19330751Y49980411D01*
X19396857Y49999501D01*
X21463138Y49999501D01*
X21530177Y49979816D01*
X21575932Y49927012D01*
X21585876Y49857854D01*
X21556851Y49794298D01*
X21499133Y49756840D01*
X21296043Y49695234D01*
X21197364Y49642488D01*
X21113550Y49597688D01*
X21113548Y49597687D01*
X21113547Y49597686D01*
X20953589Y49466414D01*
X20822317Y49306456D01*
X20822315Y49306453D01*
X20806870Y49277558D01*
X20724769Y49123960D01*
X20664699Y48925936D01*
X20644417Y48720004D01*
X20664699Y48514071D01*
X20665920Y48510047D01*
X20724768Y48316049D01*
X20822315Y48133553D01*
X20822317Y48133551D01*
X20953589Y47973593D01*
X20990490Y47943310D01*
X21113550Y47842318D01*
X21296046Y47744771D01*
X21494066Y47684703D01*
X21494065Y47684703D01*
X21514348Y47682706D01*
X21700000Y47664420D01*
X21905934Y47684703D01*
X22103954Y47744771D01*
X22286450Y47842318D01*
X22446410Y47973593D01*
X22577685Y48133553D01*
X22675232Y48316049D01*
X22735300Y48514069D01*
X22755583Y48720003D01*
X22735300Y48925937D01*
X22675232Y49123957D01*
X22577685Y49306453D01*
X22495835Y49406188D01*
X22446410Y49466414D01*
X22328677Y49563034D01*
X22286450Y49597688D01*
X22103954Y49695235D01*
X21905934Y49755303D01*
X21905933Y49755304D01*
X21900867Y49756840D01*
X21842428Y49795138D01*
X21813972Y49858950D01*
X21824532Y49928017D01*
X21870756Y49980411D01*
X21936862Y49999501D01*
X24003143Y49999501D01*
X24070182Y49979816D01*
X24115937Y49927012D01*
X24125881Y49857854D01*
X24096856Y49794298D01*
X24039138Y49756840D01*
X23836048Y49695234D01*
X23737369Y49642488D01*
X23653555Y49597688D01*
X23653553Y49597687D01*
X23653552Y49597686D01*
X23493594Y49466414D01*
X23362322Y49306456D01*
X23362320Y49306453D01*
X23346875Y49277558D01*
X23264774Y49123960D01*
X23204704Y48925936D01*
X23184422Y48720004D01*
X23204704Y48514071D01*
X23205925Y48510047D01*
X23264773Y48316049D01*
X23362320Y48133553D01*
X23362322Y48133551D01*
X23493594Y47973593D01*
X23530495Y47943310D01*
X23653555Y47842318D01*
X23836051Y47744771D01*
X24034071Y47684703D01*
X24034070Y47684703D01*
X24052534Y47682885D01*
X24240005Y47664420D01*
X24445939Y47684703D01*
X24643959Y47744771D01*
X24826455Y47842318D01*
X24986415Y47973593D01*
X25117690Y48133553D01*
X25215237Y48316049D01*
X25275305Y48514069D01*
X25295588Y48720003D01*
X25275305Y48925937D01*
X25215237Y49123957D01*
X25117690Y49306453D01*
X25035840Y49406188D01*
X24986415Y49466414D01*
X24868682Y49563034D01*
X24826455Y49597688D01*
X24643959Y49695235D01*
X24445939Y49755303D01*
X24445938Y49755304D01*
X24440872Y49756840D01*
X24382433Y49795138D01*
X24353977Y49858950D01*
X24364537Y49928017D01*
X24410761Y49980411D01*
X24476867Y49999501D01*
X26543148Y49999501D01*
X26610187Y49979816D01*
X26655942Y49927012D01*
X26665886Y49857854D01*
X26636861Y49794298D01*
X26579143Y49756840D01*
X26376053Y49695234D01*
X26277374Y49642488D01*
X26193560Y49597688D01*
X26193558Y49597687D01*
X26193557Y49597686D01*
X26033599Y49466414D01*
X25902327Y49306456D01*
X25902325Y49306453D01*
X25886880Y49277558D01*
X25804779Y49123960D01*
X25744709Y48925936D01*
X25724427Y48720004D01*
X25744709Y48514071D01*
X25745930Y48510047D01*
X25804778Y48316049D01*
X25902325Y48133553D01*
X25902327Y48133551D01*
X26033599Y47973593D01*
X26070500Y47943310D01*
X26193560Y47842318D01*
X26376056Y47744771D01*
X26574076Y47684703D01*
X26574075Y47684703D01*
X26594357Y47682706D01*
X26780010Y47664420D01*
X26985944Y47684703D01*
X27183964Y47744771D01*
X27366460Y47842318D01*
X27526420Y47973593D01*
X27657695Y48133553D01*
X27755242Y48316049D01*
X27815310Y48514069D01*
X27835593Y48720003D01*
X27815310Y48925937D01*
X27755242Y49123957D01*
X27657695Y49306453D01*
X27575845Y49406188D01*
X27526420Y49466414D01*
X27408687Y49563034D01*
X27366460Y49597688D01*
X27183964Y49695235D01*
X26985944Y49755303D01*
X26985943Y49755304D01*
X26980877Y49756840D01*
X26922438Y49795138D01*
X26893982Y49858950D01*
X26904542Y49928017D01*
X26950766Y49980411D01*
X27016872Y49999501D01*
X29083153Y49999501D01*
X29150192Y49979816D01*
X29195947Y49927012D01*
X29205891Y49857854D01*
X29176866Y49794298D01*
X29119148Y49756840D01*
X28916058Y49695234D01*
X28817379Y49642488D01*
X28733565Y49597688D01*
X28733563Y49597687D01*
X28733562Y49597686D01*
X28573604Y49466414D01*
X28442332Y49306456D01*
X28442330Y49306453D01*
X28426885Y49277558D01*
X28344784Y49123960D01*
X28284714Y48925936D01*
X28264432Y48720003D01*
X28284714Y48514071D01*
X28285935Y48510047D01*
X28344783Y48316049D01*
X28442330Y48133553D01*
X28442332Y48133551D01*
X28573604Y47973593D01*
X28610505Y47943310D01*
X28733565Y47842318D01*
X28916061Y47744771D01*
X29114081Y47684703D01*
X29114080Y47684703D01*
X29132544Y47682885D01*
X29320015Y47664420D01*
X29525949Y47684703D01*
X29723969Y47744771D01*
X29906465Y47842318D01*
X30066425Y47973593D01*
X30197700Y48133553D01*
X30295247Y48316049D01*
X30355315Y48514069D01*
X30375598Y48720003D01*
X30355315Y48925937D01*
X30295247Y49123957D01*
X30197700Y49306453D01*
X30115850Y49406188D01*
X30066425Y49466414D01*
X29948692Y49563034D01*
X29906465Y49597688D01*
X29723969Y49695235D01*
X29525949Y49755303D01*
X29525948Y49755304D01*
X29520882Y49756840D01*
X29462443Y49795138D01*
X29433987Y49858950D01*
X29444547Y49928017D01*
X29490771Y49980411D01*
X29556877Y49999501D01*
X31623158Y49999501D01*
X31690197Y49979816D01*
X31735952Y49927012D01*
X31745896Y49857854D01*
X31716871Y49794298D01*
X31659153Y49756840D01*
X31456063Y49695234D01*
X31357384Y49642488D01*
X31273570Y49597688D01*
X31273568Y49597687D01*
X31273567Y49597686D01*
X31113609Y49466414D01*
X30982337Y49306456D01*
X30982335Y49306453D01*
X30966890Y49277558D01*
X30884789Y49123960D01*
X30824719Y48925936D01*
X30804437Y48720004D01*
X30824719Y48514071D01*
X30825940Y48510047D01*
X30884788Y48316049D01*
X30982335Y48133553D01*
X30982337Y48133551D01*
X31113609Y47973593D01*
X31150510Y47943310D01*
X31273570Y47842318D01*
X31456066Y47744771D01*
X31654086Y47684703D01*
X31654085Y47684703D01*
X31674368Y47682706D01*
X31860020Y47664420D01*
X32065954Y47684703D01*
X32263974Y47744771D01*
X32446470Y47842318D01*
X32606430Y47973593D01*
X32737705Y48133553D01*
X32835252Y48316049D01*
X32895320Y48514069D01*
X32915603Y48720003D01*
X32895320Y48925937D01*
X32835252Y49123957D01*
X32737705Y49306453D01*
X32655855Y49406188D01*
X32606430Y49466414D01*
X32488697Y49563034D01*
X32446470Y49597688D01*
X32263974Y49695235D01*
X32065954Y49755303D01*
X32065953Y49755304D01*
X32060887Y49756840D01*
X32002448Y49795138D01*
X31973992Y49858950D01*
X31984552Y49928017D01*
X32030776Y49980411D01*
X32096882Y49999501D01*
X34163163Y49999501D01*
X34230202Y49979816D01*
X34275957Y49927012D01*
X34285901Y49857854D01*
X34256876Y49794298D01*
X34199158Y49756840D01*
X33996068Y49695234D01*
X33897389Y49642488D01*
X33813575Y49597688D01*
X33813573Y49597687D01*
X33813572Y49597686D01*
X33653614Y49466414D01*
X33522342Y49306456D01*
X33522340Y49306453D01*
X33506895Y49277558D01*
X33424794Y49123960D01*
X33364724Y48925936D01*
X33344442Y48720003D01*
X33364724Y48514071D01*
X33365945Y48510047D01*
X33424793Y48316049D01*
X33522340Y48133553D01*
X33522342Y48133551D01*
X33653614Y47973593D01*
X33690515Y47943310D01*
X33813575Y47842318D01*
X33996071Y47744771D01*
X34194091Y47684703D01*
X34194090Y47684703D01*
X34212554Y47682885D01*
X34400025Y47664420D01*
X34605959Y47684703D01*
X34803979Y47744771D01*
X34986475Y47842318D01*
X35146435Y47973593D01*
X35277710Y48133553D01*
X35375257Y48316049D01*
X35435325Y48514069D01*
X35455608Y48720003D01*
X35435325Y48925937D01*
X35375257Y49123957D01*
X35277710Y49306453D01*
X35195860Y49406188D01*
X35146435Y49466414D01*
X35028702Y49563034D01*
X34986475Y49597688D01*
X34803979Y49695235D01*
X34605959Y49755303D01*
X34605958Y49755304D01*
X34600892Y49756840D01*
X34542453Y49795138D01*
X34513997Y49858950D01*
X34524557Y49928017D01*
X34570781Y49980411D01*
X34636887Y49999501D01*
X36703168Y49999501D01*
X36770207Y49979816D01*
X36815962Y49927012D01*
X36825906Y49857854D01*
X36796881Y49794298D01*
X36739163Y49756840D01*
X36536073Y49695234D01*
X36437394Y49642488D01*
X36353580Y49597688D01*
X36353578Y49597687D01*
X36353577Y49597686D01*
X36193619Y49466414D01*
X36062347Y49306456D01*
X36062345Y49306453D01*
X36046900Y49277558D01*
X35964799Y49123960D01*
X35904729Y48925936D01*
X35884447Y48720004D01*
X35904729Y48514071D01*
X35905950Y48510047D01*
X35964798Y48316049D01*
X36062345Y48133553D01*
X36062347Y48133551D01*
X36193619Y47973593D01*
X36230520Y47943310D01*
X36353580Y47842318D01*
X36536076Y47744771D01*
X36734096Y47684703D01*
X36734095Y47684703D01*
X36754378Y47682706D01*
X36940030Y47664420D01*
X37145964Y47684703D01*
X37343984Y47744771D01*
X37526480Y47842318D01*
X37686440Y47973593D01*
X37817715Y48133553D01*
X37915262Y48316049D01*
X37975330Y48514069D01*
X37995613Y48720003D01*
X37975330Y48925937D01*
X37915262Y49123957D01*
X37817715Y49306453D01*
X37735865Y49406188D01*
X37686440Y49466414D01*
X37568707Y49563034D01*
X37526480Y49597688D01*
X37343984Y49695235D01*
X37145964Y49755303D01*
X37145963Y49755304D01*
X37140897Y49756840D01*
X37082458Y49795138D01*
X37054002Y49858950D01*
X37064562Y49928017D01*
X37110786Y49980411D01*
X37176892Y49999501D01*
X41267792Y49999501D01*
X41286021Y49998154D01*
X41298193Y49996345D01*
X41541766Y49960145D01*
X41549492Y49958488D01*
X41750019Y49901885D01*
X41804487Y49886509D01*
X41811949Y49883879D01*
X42055707Y49780047D01*
X42062774Y49776489D01*
X42291342Y49642488D01*
X42297888Y49638068D01*
X42507556Y49476072D01*
X42513487Y49470854D01*
X42700851Y49283490D01*
X42706069Y49277559D01*
X42868063Y49067893D01*
X42872486Y49061345D01*
X43006488Y48832776D01*
X43010046Y48825709D01*
X43113879Y48581949D01*
X43116509Y48574487D01*
X43134699Y48510048D01*
X43180118Y48349140D01*
X43188484Y48319505D01*
X43190143Y48311769D01*
X43212294Y48162735D01*
X43227810Y48058334D01*
X43228153Y48056030D01*
X43229500Y48037801D01*
X43229500Y45141207D01*
X43229264Y45135806D01*
X43228712Y45129497D01*
X43216020Y44984432D01*
X43212267Y44963147D01*
X43175045Y44824231D01*
X43167652Y44803919D01*
X43106875Y44673582D01*
X43096068Y44654864D01*
X43013581Y44537060D01*
X42999687Y44520502D01*
X42897998Y44418813D01*
X42881440Y44404919D01*
X42763636Y44322432D01*
X42744918Y44311625D01*
X42614582Y44250848D01*
X42594270Y44243455D01*
X42455354Y44206233D01*
X42434069Y44202480D01*
X42316906Y44192229D01*
X42282706Y44189237D01*
X42277305Y44189001D01*
X35594372Y44189001D01*
X35527333Y44208686D01*
X35481578Y44261490D01*
X35471634Y44330648D01*
X35495411Y44387719D01*
X35503800Y44398829D01*
X35509426Y44405296D01*
X36197309Y45093178D01*
X36258633Y45126663D01*
X36284991Y45129497D01*
X37809780Y45129497D01*
X37809781Y45129498D01*
X37824598Y45132445D01*
X37868259Y45141129D01*
X37868259Y45141130D01*
X37868261Y45141130D01*
X37934582Y45185445D01*
X37978897Y45251766D01*
X37978897Y45251768D01*
X37978898Y45251768D01*
X37990529Y45310245D01*
X37990530Y45310247D01*
X37990530Y47049748D01*
X37990529Y47049750D01*
X37978898Y47108227D01*
X37978897Y47108228D01*
X37934582Y47174550D01*
X37868260Y47218865D01*
X37868259Y47218866D01*
X37809782Y47230497D01*
X37809778Y47230497D01*
X36070282Y47230497D01*
X36070277Y47230497D01*
X36011800Y47218866D01*
X36011799Y47218865D01*
X35945477Y47174550D01*
X35901162Y47108228D01*
X35901161Y47108227D01*
X35889530Y47049750D01*
X35889530Y45686703D01*
X35869845Y45619664D01*
X35853211Y45599022D01*
X35191009Y44936819D01*
X35129686Y44903334D01*
X35103328Y44900500D01*
X34636890Y44900500D01*
X34569851Y44920185D01*
X34524096Y44972989D01*
X34514152Y45042147D01*
X34543177Y45105703D01*
X34600895Y45143161D01*
X34605958Y45144697D01*
X34605959Y45144697D01*
X34803979Y45204765D01*
X34986475Y45302312D01*
X35146435Y45433587D01*
X35277710Y45593547D01*
X35375257Y45776043D01*
X35435325Y45974063D01*
X35455608Y46179997D01*
X35435325Y46385931D01*
X35375257Y46583951D01*
X35277710Y46766447D01*
X35225727Y46829788D01*
X35146435Y46926408D01*
X34996146Y47049745D01*
X34986475Y47057682D01*
X34803979Y47155229D01*
X34605959Y47215297D01*
X34605957Y47215298D01*
X34605959Y47215298D01*
X34400025Y47235580D01*
X34194092Y47215298D01*
X33996068Y47155228D01*
X33908139Y47108228D01*
X33813575Y47057682D01*
X33813573Y47057681D01*
X33813572Y47057680D01*
X33653614Y46926408D01*
X33522342Y46766450D01*
X33424794Y46583954D01*
X33364724Y46385930D01*
X33344442Y46179997D01*
X33364724Y45974065D01*
X33380957Y45920551D01*
X33424793Y45776043D01*
X33522340Y45593547D01*
X33522342Y45593545D01*
X33653614Y45433587D01*
X33750234Y45354295D01*
X33813575Y45302312D01*
X33996071Y45204765D01*
X34194091Y45144697D01*
X34199155Y45143161D01*
X34257594Y45104863D01*
X34286050Y45041051D01*
X34275490Y44971984D01*
X34229266Y44919591D01*
X34163160Y44900500D01*
X32096885Y44900500D01*
X32029846Y44920185D01*
X31984091Y44972989D01*
X31974147Y45042147D01*
X32003172Y45105703D01*
X32060890Y45143161D01*
X32065953Y45144697D01*
X32065954Y45144697D01*
X32263974Y45204765D01*
X32446470Y45302312D01*
X32606430Y45433587D01*
X32737705Y45593547D01*
X32835252Y45776043D01*
X32895320Y45974063D01*
X32915603Y46179997D01*
X32895320Y46385931D01*
X32835252Y46583951D01*
X32737705Y46766447D01*
X32685722Y46829788D01*
X32606430Y46926408D01*
X32456141Y47049745D01*
X32446470Y47057682D01*
X32263974Y47155229D01*
X32065954Y47215297D01*
X32065952Y47215298D01*
X32065954Y47215298D01*
X31878483Y47233762D01*
X31860020Y47235580D01*
X31860019Y47235580D01*
X31654087Y47215298D01*
X31456063Y47155228D01*
X31368134Y47108228D01*
X31273570Y47057682D01*
X31273568Y47057681D01*
X31273567Y47057680D01*
X31113609Y46926408D01*
X30982337Y46766450D01*
X30884789Y46583954D01*
X30824719Y46385930D01*
X30804437Y46179998D01*
X30824719Y45974065D01*
X30840952Y45920551D01*
X30884788Y45776043D01*
X30982335Y45593547D01*
X30982337Y45593545D01*
X31113609Y45433587D01*
X31210229Y45354295D01*
X31273570Y45302312D01*
X31456066Y45204765D01*
X31654086Y45144697D01*
X31659150Y45143161D01*
X31717589Y45104863D01*
X31746045Y45041051D01*
X31735485Y44971984D01*
X31689261Y44919591D01*
X31623155Y44900500D01*
X29556880Y44900500D01*
X29489841Y44920185D01*
X29444086Y44972989D01*
X29434142Y45042147D01*
X29463167Y45105703D01*
X29520885Y45143161D01*
X29525948Y45144697D01*
X29525949Y45144697D01*
X29723969Y45204765D01*
X29906465Y45302312D01*
X30066425Y45433587D01*
X30197700Y45593547D01*
X30295247Y45776043D01*
X30355315Y45974063D01*
X30375598Y46179997D01*
X30355315Y46385931D01*
X30295247Y46583951D01*
X30197700Y46766447D01*
X30145717Y46829788D01*
X30066425Y46926408D01*
X29916136Y47049745D01*
X29906465Y47057682D01*
X29723969Y47155229D01*
X29525949Y47215297D01*
X29525947Y47215298D01*
X29525949Y47215298D01*
X29320015Y47235580D01*
X29114082Y47215298D01*
X28916058Y47155228D01*
X28828129Y47108228D01*
X28733565Y47057682D01*
X28733563Y47057681D01*
X28733562Y47057680D01*
X28573604Y46926408D01*
X28442332Y46766450D01*
X28344784Y46583954D01*
X28284714Y46385930D01*
X28264432Y46179997D01*
X28284714Y45974065D01*
X28300947Y45920551D01*
X28344783Y45776043D01*
X28442330Y45593547D01*
X28442332Y45593545D01*
X28573604Y45433587D01*
X28670224Y45354295D01*
X28733565Y45302312D01*
X28916061Y45204765D01*
X29114081Y45144697D01*
X29119145Y45143161D01*
X29177584Y45104863D01*
X29206040Y45041051D01*
X29195480Y44971984D01*
X29149256Y44919591D01*
X29083150Y44900500D01*
X27016875Y44900500D01*
X26949836Y44920185D01*
X26904081Y44972989D01*
X26894137Y45042147D01*
X26923162Y45105703D01*
X26980880Y45143161D01*
X26985943Y45144697D01*
X26985944Y45144697D01*
X27183964Y45204765D01*
X27366460Y45302312D01*
X27526420Y45433587D01*
X27657695Y45593547D01*
X27755242Y45776043D01*
X27815310Y45974063D01*
X27835593Y46179997D01*
X27815310Y46385931D01*
X27755242Y46583951D01*
X27657695Y46766447D01*
X27605712Y46829788D01*
X27526420Y46926408D01*
X27376131Y47049745D01*
X27366460Y47057682D01*
X27183964Y47155229D01*
X26985944Y47215297D01*
X26985942Y47215298D01*
X26985944Y47215298D01*
X26780010Y47235580D01*
X26574077Y47215298D01*
X26376053Y47155228D01*
X26288124Y47108228D01*
X26193560Y47057682D01*
X26193558Y47057681D01*
X26193557Y47057680D01*
X26033599Y46926408D01*
X25902327Y46766450D01*
X25804779Y46583954D01*
X25744709Y46385930D01*
X25724427Y46179997D01*
X25744709Y45974065D01*
X25760942Y45920551D01*
X25804778Y45776043D01*
X25902325Y45593547D01*
X25902327Y45593545D01*
X26033599Y45433587D01*
X26130219Y45354295D01*
X26193560Y45302312D01*
X26376056Y45204765D01*
X26574076Y45144697D01*
X26579140Y45143161D01*
X26637579Y45104863D01*
X26666035Y45041051D01*
X26655475Y44971984D01*
X26609251Y44919591D01*
X26543145Y44900500D01*
X24476870Y44900500D01*
X24409831Y44920185D01*
X24364076Y44972989D01*
X24354132Y45042147D01*
X24383157Y45105703D01*
X24440875Y45143161D01*
X24445938Y45144697D01*
X24445939Y45144697D01*
X24643959Y45204765D01*
X24826455Y45302312D01*
X24986415Y45433587D01*
X25117690Y45593547D01*
X25215237Y45776043D01*
X25275305Y45974063D01*
X25295588Y46179997D01*
X25275305Y46385931D01*
X25215237Y46583951D01*
X25117690Y46766447D01*
X25065707Y46829788D01*
X24986415Y46926408D01*
X24836126Y47049745D01*
X24826455Y47057682D01*
X24643959Y47155229D01*
X24445939Y47215297D01*
X24445937Y47215298D01*
X24445939Y47215298D01*
X24240005Y47235580D01*
X24034072Y47215298D01*
X23836048Y47155228D01*
X23748119Y47108228D01*
X23653555Y47057682D01*
X23653553Y47057681D01*
X23653552Y47057680D01*
X23493594Y46926408D01*
X23362322Y46766450D01*
X23264774Y46583954D01*
X23204704Y46385930D01*
X23184422Y46179997D01*
X23204704Y45974065D01*
X23220937Y45920551D01*
X23264773Y45776043D01*
X23362320Y45593547D01*
X23362322Y45593545D01*
X23493594Y45433587D01*
X23590214Y45354295D01*
X23653555Y45302312D01*
X23836051Y45204765D01*
X24034071Y45144697D01*
X24039135Y45143161D01*
X24097574Y45104863D01*
X24126030Y45041051D01*
X24115470Y44971984D01*
X24069246Y44919591D01*
X24003140Y44900500D01*
X21936865Y44900500D01*
X21869826Y44920185D01*
X21824071Y44972989D01*
X21814127Y45042147D01*
X21843152Y45105703D01*
X21900870Y45143161D01*
X21905933Y45144697D01*
X21905934Y45144697D01*
X22103954Y45204765D01*
X22286450Y45302312D01*
X22446410Y45433587D01*
X22577685Y45593547D01*
X22675232Y45776043D01*
X22735300Y45974063D01*
X22755583Y46179997D01*
X22735300Y46385931D01*
X22675232Y46583951D01*
X22577685Y46766447D01*
X22525702Y46829788D01*
X22446410Y46926408D01*
X22296121Y47049745D01*
X22286450Y47057682D01*
X22103954Y47155229D01*
X21905934Y47215297D01*
X21905932Y47215298D01*
X21905934Y47215298D01*
X21700000Y47235580D01*
X21494067Y47215298D01*
X21296043Y47155228D01*
X21208114Y47108228D01*
X21113550Y47057682D01*
X21113548Y47057681D01*
X21113547Y47057680D01*
X20953589Y46926408D01*
X20822317Y46766450D01*
X20724769Y46583954D01*
X20664699Y46385930D01*
X20644417Y46179997D01*
X20664699Y45974065D01*
X20680932Y45920551D01*
X20724768Y45776043D01*
X20822315Y45593547D01*
X20822317Y45593545D01*
X20953589Y45433587D01*
X21050209Y45354295D01*
X21113550Y45302312D01*
X21296046Y45204765D01*
X21494066Y45144697D01*
X21499130Y45143161D01*
X21557569Y45104863D01*
X21586025Y45041051D01*
X21575465Y44971984D01*
X21529241Y44919591D01*
X21463135Y44900500D01*
X19396860Y44900500D01*
X19329821Y44920185D01*
X19284066Y44972989D01*
X19274122Y45042147D01*
X19303147Y45105703D01*
X19360865Y45143161D01*
X19365928Y45144697D01*
X19365929Y45144697D01*
X19563949Y45204765D01*
X19746445Y45302312D01*
X19906405Y45433587D01*
X20037680Y45593547D01*
X20135227Y45776043D01*
X20195295Y45974063D01*
X20215578Y46179997D01*
X20195295Y46385931D01*
X20135227Y46583951D01*
X20037680Y46766447D01*
X19985697Y46829788D01*
X19906405Y46926408D01*
X19756116Y47049745D01*
X19746445Y47057682D01*
X19563949Y47155229D01*
X19365929Y47215297D01*
X19365927Y47215298D01*
X19365929Y47215298D01*
X19159995Y47235580D01*
X18954062Y47215298D01*
X18756038Y47155228D01*
X18668109Y47108228D01*
X18573545Y47057682D01*
X18573543Y47057681D01*
X18573542Y47057680D01*
X18413584Y46926408D01*
X18282312Y46766450D01*
X18184764Y46583954D01*
X18124694Y46385930D01*
X18104412Y46179998D01*
X18124694Y45974065D01*
X18140927Y45920551D01*
X18184763Y45776043D01*
X18282310Y45593547D01*
X18282312Y45593545D01*
X18413584Y45433587D01*
X18510204Y45354295D01*
X18573545Y45302312D01*
X18756041Y45204765D01*
X18954061Y45144697D01*
X18959125Y45143161D01*
X19017564Y45104863D01*
X19046020Y45041051D01*
X19035460Y44971984D01*
X18989236Y44919591D01*
X18923130Y44900500D01*
X16856855Y44900500D01*
X16789816Y44920185D01*
X16744061Y44972989D01*
X16734117Y45042147D01*
X16763142Y45105703D01*
X16820860Y45143161D01*
X16825923Y45144697D01*
X16825924Y45144697D01*
X17023944Y45204765D01*
X17206440Y45302312D01*
X17366400Y45433587D01*
X17497675Y45593547D01*
X17595222Y45776043D01*
X17655290Y45974063D01*
X17675573Y46179997D01*
X17655290Y46385931D01*
X17595222Y46583951D01*
X17497675Y46766447D01*
X17445692Y46829788D01*
X17366400Y46926408D01*
X17216111Y47049745D01*
X17206440Y47057682D01*
X17023944Y47155229D01*
X16825924Y47215297D01*
X16825922Y47215298D01*
X16825924Y47215298D01*
X16638453Y47233762D01*
X16619990Y47235580D01*
X16619989Y47235580D01*
X16414057Y47215298D01*
X16216033Y47155228D01*
X16128104Y47108228D01*
X16033540Y47057682D01*
X16033538Y47057681D01*
X16033537Y47057680D01*
X15873579Y46926408D01*
X15742307Y46766450D01*
X15644759Y46583954D01*
X15584689Y46385930D01*
X15564407Y46179997D01*
X15584689Y45974065D01*
X15600922Y45920551D01*
X15644758Y45776043D01*
X15742305Y45593547D01*
X15742307Y45593545D01*
X15873579Y45433587D01*
X15970199Y45354295D01*
X16033540Y45302312D01*
X16216036Y45204765D01*
X16414056Y45144697D01*
X16419120Y45143161D01*
X16477559Y45104863D01*
X16506015Y45041051D01*
X16495455Y44971984D01*
X16449231Y44919591D01*
X16383125Y44900500D01*
X15512842Y44900500D01*
X15504268Y44901095D01*
X15492239Y44902773D01*
X15492236Y44902773D01*
X15467220Y44901617D01*
X15444491Y44900566D01*
X15441628Y44900500D01*
X15422156Y44900500D01*
X15422151Y44900500D01*
X15422149Y44900499D01*
X15419515Y44900007D01*
X15410985Y44899018D01*
X15380008Y44897585D01*
X15380006Y44897585D01*
X15373665Y44894785D01*
X15346379Y44886336D01*
X15339572Y44885064D01*
X15339566Y44885061D01*
X15313202Y44868739D01*
X15305603Y44864734D01*
X15277237Y44852208D01*
X15272336Y44847307D01*
X15249942Y44829569D01*
X15244048Y44825920D01*
X15225359Y44801173D01*
X15219718Y44794690D01*
X13681948Y43256920D01*
X13675464Y43251278D01*
X13665768Y43243956D01*
X13633559Y43208626D01*
X13631585Y43206558D01*
X13617827Y43192800D01*
X13617822Y43192794D01*
X13616306Y43190580D01*
X13610976Y43183852D01*
X13590083Y43160934D01*
X13590083Y43160933D01*
X13587578Y43154467D01*
X13574259Y43129198D01*
X13570345Y43123485D01*
X13570343Y43123479D01*
X13563244Y43093301D01*
X13560702Y43085093D01*
X13549500Y43056174D01*
X13549500Y43049249D01*
X13546206Y43020859D01*
X13544621Y43014123D01*
X13544621Y43014119D01*
X13548905Y42983410D01*
X13549500Y42974834D01*
X13549500Y37255843D01*
X13529815Y37188804D01*
X13513185Y37168167D01*
X13462176Y37117157D01*
X13418195Y37073176D01*
X13356871Y37039692D01*
X13294519Y37042197D01*
X13192395Y37073176D01*
X13108673Y37098573D01*
X13108671Y37098574D01*
X13108673Y37098574D01*
X12936906Y37115491D01*
X12919990Y37117157D01*
X12919989Y37117157D01*
X12731310Y37098574D01*
X12549868Y37043534D01*
X12382671Y36954165D01*
X12382665Y36954161D01*
X12236105Y36833884D01*
X12115828Y36687324D01*
X12115824Y36687318D01*
X12026455Y36520121D01*
X11971415Y36338679D01*
X11957078Y36193110D01*
X11952832Y36149999D01*
X11954259Y36135508D01*
X11971415Y35961320D01*
X11971415Y35961318D01*
X11971416Y35961316D01*
X11989137Y35902899D01*
X12026455Y35779878D01*
X12115824Y35612681D01*
X12115828Y35612675D01*
X12236105Y35466115D01*
X12314947Y35401412D01*
X12382666Y35345837D01*
X12382668Y35345836D01*
X12382671Y35345834D01*
X12549868Y35256465D01*
X12549871Y35256465D01*
X12549875Y35256462D01*
X12731307Y35201425D01*
X12919990Y35182841D01*
X13108673Y35201425D01*
X13290105Y35256462D01*
X13291752Y35257342D01*
X13457308Y35345834D01*
X13457314Y35345837D01*
X13603874Y35466115D01*
X13724152Y35612675D01*
X13798849Y35752424D01*
X13813524Y35779878D01*
X13813524Y35779879D01*
X13813527Y35779884D01*
X13868564Y35961316D01*
X13887148Y36149999D01*
X13868564Y36338682D01*
X13813527Y36520114D01*
X13813525Y36520118D01*
X13812187Y36524529D01*
X13811563Y36594396D01*
X13843164Y36648204D01*
X14018059Y36823099D01*
X14024532Y36828730D01*
X14034224Y36836050D01*
X14034228Y36836051D01*
X14066459Y36871409D01*
X14068367Y36873407D01*
X14082174Y36887212D01*
X14083684Y36889417D01*
X14089023Y36896158D01*
X14090489Y36897767D01*
X14109916Y36919076D01*
X14112416Y36925531D01*
X14125750Y36950826D01*
X14128035Y36954161D01*
X14129657Y36956529D01*
X14136757Y36986718D01*
X14139291Y36994903D01*
X14150500Y37023836D01*
X14150500Y37030761D01*
X14153794Y37059153D01*
X14155379Y37065890D01*
X14151095Y37096596D01*
X14150499Y37105174D01*
X14150499Y39965377D01*
X14150499Y42824171D01*
X14170184Y42891206D01*
X14186813Y42911843D01*
X15538152Y44263182D01*
X15599475Y44296666D01*
X15625833Y44299500D01*
X15861406Y44299500D01*
X15928445Y44279815D01*
X15974200Y44227011D01*
X15984144Y44157853D01*
X15955119Y44094297D01*
X15923408Y44068114D01*
X15809440Y44002313D01*
X15809437Y44002311D01*
X15668631Y43884159D01*
X15550479Y43743350D01*
X15550478Y43743348D01*
X15458575Y43584164D01*
X15395704Y43411430D01*
X15363786Y43230411D01*
X15363786Y41116255D01*
X15363801Y41116103D01*
X15363801Y41046593D01*
X15395718Y40865576D01*
X15414579Y40813756D01*
X15458586Y40692848D01*
X15458587Y40692847D01*
X15550490Y40533663D01*
X15550491Y40533661D01*
X15615831Y40455792D01*
X15668642Y40392853D01*
X15809449Y40274700D01*
X15968632Y40182793D01*
X15968631Y40182793D01*
X15968634Y40182792D01*
X16141360Y40119923D01*
X16322379Y40088002D01*
X16379574Y40088002D01*
X16379578Y40088001D01*
X16404241Y40088001D01*
X16414285Y40088001D01*
X16430694Y40088001D01*
X24763592Y40088001D01*
X24777294Y40088001D01*
X24782695Y40087766D01*
X24934069Y40074522D01*
X24955354Y40070769D01*
X25003198Y40057950D01*
X25094274Y40033546D01*
X25114575Y40026157D01*
X25244920Y39965376D01*
X25263635Y39954571D01*
X25364200Y39884154D01*
X25381437Y39872085D01*
X25397995Y39858192D01*
X25499690Y39756498D01*
X25513584Y39739939D01*
X25596069Y39622138D01*
X25606876Y39603420D01*
X25667653Y39473084D01*
X25675046Y39452772D01*
X25712268Y39313856D01*
X25716021Y39292570D01*
X25721659Y39228129D01*
X25726775Y39169646D01*
X25729263Y39141214D01*
X25729499Y39135808D01*
X25729499Y17983327D01*
X25709814Y17916288D01*
X25657010Y17870533D01*
X25587852Y17860589D01*
X25528745Y17887582D01*
X25528284Y17886965D01*
X25525448Y17889088D01*
X25524296Y17889614D01*
X25522452Y17891331D01*
X25406089Y17978441D01*
X25406082Y17978445D01*
X25271375Y18028687D01*
X25271368Y18028689D01*
X25211840Y18035090D01*
X24550000Y18035090D01*
X24550000Y15550076D01*
X25211824Y15550076D01*
X25211840Y15550077D01*
X25271368Y15556478D01*
X25271375Y15556480D01*
X25406082Y15606722D01*
X25406089Y15606726D01*
X25521183Y15692886D01*
X25521184Y15692887D01*
X25568518Y15756117D01*
X25624451Y15797989D01*
X25694143Y15802973D01*
X25755466Y15769489D01*
X25784307Y15724217D01*
X25824290Y15614363D01*
X25824293Y15614356D01*
X25916197Y15455169D01*
X25916198Y15455167D01*
X26034343Y15314366D01*
X26034351Y15314358D01*
X26037975Y15311317D01*
X26175159Y15196205D01*
X26334345Y15104298D01*
X26507073Y15041430D01*
X26688093Y15009511D01*
X26769955Y15009511D01*
X42263592Y15009511D01*
X42277294Y15009511D01*
X42282695Y15009276D01*
X42434070Y14996032D01*
X42455355Y14992279D01*
X42504340Y14979154D01*
X42594276Y14955056D01*
X42614577Y14947667D01*
X42744927Y14886884D01*
X42763633Y14876083D01*
X42849277Y14816116D01*
X42881441Y14793595D01*
X42897999Y14779701D01*
X42999695Y14678005D01*
X43013588Y14661449D01*
X43077546Y14570109D01*
X43096071Y14543654D01*
X43106878Y14524935D01*
X43167660Y14394592D01*
X43175054Y14374280D01*
X43212276Y14235367D01*
X43216029Y14214083D01*
X43229264Y14062841D01*
X43229500Y14057433D01*
X43229500Y2052039D01*
X43229367Y2047983D01*
X43213087Y1799593D01*
X43212027Y1791544D01*
X43163866Y1549425D01*
X43161765Y1541583D01*
X43082411Y1307812D01*
X43079304Y1300311D01*
X42970116Y1078901D01*
X42966057Y1071870D01*
X42828903Y866603D01*
X42823961Y860162D01*
X42661186Y674555D01*
X42655446Y668815D01*
X42469839Y506040D01*
X42463398Y501098D01*
X42258131Y363944D01*
X42251101Y359885D01*
X42029687Y250695D01*
X42022186Y247589D01*
X41788421Y168236D01*
X41780579Y166135D01*
X41538457Y117973D01*
X41530408Y116913D01*
X41282033Y100634D01*
X41277977Y100501D01*
X2102038Y100501D01*
X2097982Y100634D01*
X1849591Y116914D01*
X1841542Y117974D01*
X1599420Y166136D01*
X1591581Y168237D01*
X1474695Y207914D01*
X1357813Y247590D01*
X1350313Y250696D01*
X1128898Y359886D01*
X1121868Y363945D01*
X1019235Y432522D01*
X916599Y501101D01*
X910167Y506037D01*
X724552Y668816D01*
X718813Y674555D01*
X655978Y746205D01*
X556033Y860171D01*
X551098Y866603D01*
X413942Y1071872D01*
X409887Y1078894D01*
X300691Y1300322D01*
X297588Y1307815D01*
X282137Y1353333D01*
X218231Y1541593D01*
X216136Y1549415D01*
X167971Y1791557D01*
X166913Y1799594D01*
X150633Y2047996D01*
X150500Y2052052D01*
X150500Y2700000D01*
X11469659Y2700000D01*
X11488975Y2503870D01*
X11498218Y2473400D01*
X11536729Y2346446D01*
X11546188Y2315266D01*
X11639086Y2141467D01*
X11639090Y2141460D01*
X11764116Y1989116D01*
X11916460Y1864090D01*
X11916467Y1864086D01*
X12090266Y1771188D01*
X12090269Y1771188D01*
X12090273Y1771185D01*
X12278868Y1713975D01*
X12475000Y1694658D01*
X12671132Y1713975D01*
X12859727Y1771185D01*
X12859735Y1771189D01*
X13033532Y1864086D01*
X13033538Y1864089D01*
X13185883Y1989116D01*
X13310910Y2141461D01*
X13323657Y2165309D01*
X13365642Y2243856D01*
X13414604Y2293700D01*
X13482742Y2309161D01*
X13548421Y2285329D01*
X13584358Y2243856D01*
X13639086Y2141467D01*
X13639090Y2141460D01*
X13764116Y1989116D01*
X13916460Y1864090D01*
X13916467Y1864086D01*
X14090266Y1771188D01*
X14090269Y1771188D01*
X14090273Y1771185D01*
X14278868Y1713975D01*
X14475000Y1694658D01*
X14671132Y1713975D01*
X14671132Y1713976D01*
X14677105Y1715163D01*
X14677455Y1713399D01*
X14738841Y1713961D01*
X14792678Y1682350D01*
X15493078Y981950D01*
X15498721Y975466D01*
X15506041Y965773D01*
X15506042Y965771D01*
X15520861Y952262D01*
X15541375Y933560D01*
X15543423Y931605D01*
X15557203Y917825D01*
X15559413Y916311D01*
X15566143Y910981D01*
X15575245Y902683D01*
X15589064Y890085D01*
X15589065Y890085D01*
X15589067Y890083D01*
X15595530Y887580D01*
X15620807Y874256D01*
X15626519Y870343D01*
X15656702Y863245D01*
X15664903Y860705D01*
X15693827Y849499D01*
X15700751Y849499D01*
X15729141Y846206D01*
X15735881Y844620D01*
X15766590Y848904D01*
X15775166Y849499D01*
X23887159Y849499D01*
X23895733Y848904D01*
X23907761Y847227D01*
X23907761Y847228D01*
X23907765Y847226D01*
X23950920Y849221D01*
X23955510Y849433D01*
X23958373Y849499D01*
X23977843Y849499D01*
X23977844Y849499D01*
X23980468Y849990D01*
X23989021Y850983D01*
X23990245Y851040D01*
X24019992Y852414D01*
X24026322Y855210D01*
X24053629Y863667D01*
X24060433Y864938D01*
X24086797Y881263D01*
X24094392Y885266D01*
X24122765Y897793D01*
X24127661Y902690D01*
X24150069Y920438D01*
X24155952Y924080D01*
X24174649Y948841D01*
X24180266Y955296D01*
X24892091Y1667121D01*
X24953412Y1700604D01*
X24991921Y1702841D01*
X25075000Y1694658D01*
X25271132Y1713975D01*
X25459727Y1771185D01*
X25459732Y1771188D01*
X25459736Y1771189D01*
X25465355Y1773516D01*
X25466232Y1771397D01*
X25524609Y1783570D01*
X25589861Y1758591D01*
X25602380Y1747648D01*
X26468078Y881950D01*
X26473721Y875466D01*
X26481041Y865773D01*
X26481042Y865771D01*
X26498964Y849433D01*
X26516375Y833560D01*
X26518423Y831605D01*
X26532203Y817825D01*
X26534413Y816311D01*
X26541143Y810981D01*
X26550245Y802683D01*
X26564064Y790085D01*
X26564065Y790085D01*
X26564067Y790083D01*
X26570530Y787580D01*
X26595807Y774256D01*
X26601519Y770343D01*
X26631702Y763245D01*
X26639903Y760705D01*
X26668827Y749499D01*
X26675751Y749499D01*
X26704141Y746206D01*
X26710881Y744620D01*
X26741590Y748904D01*
X26750166Y749499D01*
X33962159Y749499D01*
X33970733Y748904D01*
X33982761Y747227D01*
X33982761Y747228D01*
X33982765Y747226D01*
X34025920Y749221D01*
X34030510Y749433D01*
X34033373Y749499D01*
X34052843Y749499D01*
X34052844Y749499D01*
X34055468Y749990D01*
X34064021Y750983D01*
X34065245Y751040D01*
X34094992Y752414D01*
X34101322Y755210D01*
X34128629Y763667D01*
X34135433Y764938D01*
X34161797Y781263D01*
X34169392Y785266D01*
X34197765Y797793D01*
X34202661Y802690D01*
X34225069Y820438D01*
X34230952Y824080D01*
X34249649Y848841D01*
X34255266Y855296D01*
X35147620Y1747650D01*
X35208941Y1781133D01*
X35278633Y1776149D01*
X35284613Y1773450D01*
X35284641Y1773517D01*
X35290260Y1771190D01*
X35290268Y1771188D01*
X35290273Y1771185D01*
X35478868Y1713975D01*
X35675000Y1694658D01*
X35871132Y1713975D01*
X36059727Y1771185D01*
X36059735Y1771189D01*
X36233532Y1864086D01*
X36233538Y1864089D01*
X36385883Y1989116D01*
X36510910Y2141461D01*
X36523657Y2165309D01*
X36565642Y2243856D01*
X36614604Y2293700D01*
X36682742Y2309161D01*
X36748421Y2285329D01*
X36784358Y2243856D01*
X36839086Y2141467D01*
X36839090Y2141460D01*
X36964116Y1989116D01*
X37116460Y1864090D01*
X37116467Y1864086D01*
X37290266Y1771188D01*
X37290269Y1771188D01*
X37290273Y1771185D01*
X37478868Y1713975D01*
X37675000Y1694658D01*
X37871132Y1713975D01*
X38059727Y1771185D01*
X38059735Y1771189D01*
X38233532Y1864086D01*
X38233538Y1864089D01*
X38385883Y1989116D01*
X38385884Y1989117D01*
X38390051Y1994194D01*
X38447795Y2033530D01*
X38517640Y2035403D01*
X38577409Y1999217D01*
X38587481Y1986655D01*
X38595972Y1974528D01*
X38595974Y1974527D01*
X39191922Y2570476D01*
X39215507Y2490155D01*
X39293239Y2369201D01*
X39401900Y2275047D01*
X39532685Y2215319D01*
X39542466Y2213913D01*
X38949526Y1620974D01*
X38949526Y1620973D01*
X39022512Y1569868D01*
X39022516Y1569866D01*
X39228673Y1473734D01*
X39228682Y1473730D01*
X39448389Y1414860D01*
X39448400Y1414858D01*
X39674998Y1395033D01*
X39675002Y1395033D01*
X39901599Y1414858D01*
X39901610Y1414860D01*
X40121317Y1473730D01*
X40121331Y1473735D01*
X40327478Y1569863D01*
X40400472Y1620974D01*
X39807534Y2213913D01*
X39817315Y2215319D01*
X39948100Y2275047D01*
X40056761Y2369201D01*
X40134493Y2490155D01*
X40158077Y2570476D01*
X40754025Y1974527D01*
X40805136Y2047521D01*
X40901264Y2253668D01*
X40901269Y2253682D01*
X40960139Y2473389D01*
X40960141Y2473400D01*
X40979966Y2699997D01*
X40979966Y2700002D01*
X40960141Y2926599D01*
X40960139Y2926610D01*
X40901269Y3146317D01*
X40901265Y3146326D01*
X40805133Y3352483D01*
X40805131Y3352487D01*
X40754026Y3425473D01*
X40754025Y3425473D01*
X40158076Y2829525D01*
X40134493Y2909843D01*
X40056761Y3030797D01*
X39948100Y3124951D01*
X39817315Y3184679D01*
X39807533Y3186086D01*
X40400472Y3779025D01*
X40400471Y3779026D01*
X40327483Y3830133D01*
X40327481Y3830134D01*
X40121326Y3926265D01*
X40121317Y3926269D01*
X39901610Y3985139D01*
X39901599Y3985141D01*
X39675002Y4004965D01*
X39674998Y4004965D01*
X39448400Y3985141D01*
X39448389Y3985139D01*
X39228682Y3926269D01*
X39228673Y3926265D01*
X39022513Y3830131D01*
X38949527Y3779027D01*
X38949526Y3779026D01*
X39542467Y3186086D01*
X39532685Y3184679D01*
X39401900Y3124951D01*
X39293239Y3030797D01*
X39215507Y2909843D01*
X39191923Y2829523D01*
X38595973Y3425473D01*
X38595971Y3425472D01*
X38587479Y3413343D01*
X38532902Y3369718D01*
X38463404Y3362526D01*
X38401049Y3394048D01*
X38390049Y3405806D01*
X38385883Y3410883D01*
X38233539Y3535909D01*
X38233532Y3535913D01*
X38059733Y3628811D01*
X38059727Y3628813D01*
X37871132Y3686023D01*
X37871129Y3686024D01*
X37675000Y3705340D01*
X37478870Y3686024D01*
X37290266Y3628811D01*
X37116467Y3535913D01*
X37116460Y3535909D01*
X36964116Y3410883D01*
X36839090Y3258539D01*
X36839088Y3258535D01*
X36784357Y3156142D01*
X36735394Y3106298D01*
X36667256Y3090838D01*
X36601577Y3114670D01*
X36565641Y3156142D01*
X36510910Y3258537D01*
X36419666Y3369718D01*
X36385883Y3410883D01*
X36233539Y3535909D01*
X36233532Y3535913D01*
X36059733Y3628811D01*
X36059727Y3628813D01*
X35871132Y3686023D01*
X35871129Y3686024D01*
X35675000Y3705340D01*
X35478870Y3686024D01*
X35290266Y3628811D01*
X35116467Y3535913D01*
X35116460Y3535909D01*
X34964116Y3410883D01*
X34839090Y3258539D01*
X34839085Y3258532D01*
X34784358Y3156143D01*
X34735396Y3106298D01*
X34667258Y3090838D01*
X34601578Y3114670D01*
X34565642Y3156143D01*
X34510914Y3258532D01*
X34510909Y3258539D01*
X34385883Y3410883D01*
X34233539Y3535909D01*
X34233532Y3535913D01*
X34059733Y3628811D01*
X34059727Y3628813D01*
X33871132Y3686023D01*
X33871129Y3686024D01*
X33675000Y3705340D01*
X33478870Y3686024D01*
X33290266Y3628811D01*
X33116467Y3535913D01*
X33116460Y3535909D01*
X32964116Y3410883D01*
X32839090Y3258539D01*
X32839086Y3258532D01*
X32746188Y3084733D01*
X32688975Y2896129D01*
X32669659Y2700000D01*
X32688975Y2503870D01*
X32698218Y2473400D01*
X32736729Y2346446D01*
X32746188Y2315266D01*
X32839086Y2141467D01*
X32839090Y2141460D01*
X32964116Y1989116D01*
X33116460Y1864090D01*
X33116467Y1864086D01*
X33290266Y1771188D01*
X33290269Y1771188D01*
X33290273Y1771185D01*
X33478868Y1713975D01*
X33675000Y1694658D01*
X33871132Y1713975D01*
X33961354Y1741344D01*
X34031222Y1741968D01*
X34090335Y1704720D01*
X34119926Y1641427D01*
X34110601Y1572182D01*
X34085033Y1535004D01*
X33936846Y1386817D01*
X33875526Y1353333D01*
X33849167Y1350499D01*
X29807474Y1350499D01*
X29740435Y1370184D01*
X29694680Y1422988D01*
X29684736Y1492146D01*
X29713761Y1555702D01*
X29736350Y1576073D01*
X29800472Y1620973D01*
X29800472Y1620974D01*
X29207534Y2213913D01*
X29217315Y2215319D01*
X29348100Y2275047D01*
X29456761Y2369201D01*
X29534493Y2490155D01*
X29558076Y2570475D01*
X30154025Y1974527D01*
X30205136Y2047521D01*
X30301264Y2253668D01*
X30301269Y2253682D01*
X30360139Y2473389D01*
X30360141Y2473400D01*
X30379966Y2699997D01*
X30379966Y2700002D01*
X30360141Y2926599D01*
X30360139Y2926610D01*
X30301269Y3146317D01*
X30301265Y3146326D01*
X30205133Y3352483D01*
X30205131Y3352487D01*
X30154026Y3425473D01*
X30154025Y3425473D01*
X29558076Y2829525D01*
X29534493Y2909843D01*
X29456761Y3030797D01*
X29348100Y3124951D01*
X29217315Y3184679D01*
X29207533Y3186086D01*
X29800472Y3779025D01*
X29800471Y3779026D01*
X29727483Y3830133D01*
X29727481Y3830134D01*
X29521326Y3926265D01*
X29521317Y3926269D01*
X29301610Y3985139D01*
X29301599Y3985141D01*
X29075002Y4004965D01*
X29074998Y4004965D01*
X28848400Y3985141D01*
X28848389Y3985139D01*
X28628682Y3926269D01*
X28628673Y3926265D01*
X28422513Y3830131D01*
X28349527Y3779027D01*
X28349526Y3779026D01*
X28942467Y3186086D01*
X28932685Y3184679D01*
X28801900Y3124951D01*
X28693239Y3030797D01*
X28615507Y2909843D01*
X28591922Y2829523D01*
X27995973Y3425473D01*
X27995971Y3425472D01*
X27987479Y3413343D01*
X27932902Y3369718D01*
X27863404Y3362526D01*
X27801049Y3394048D01*
X27790049Y3405806D01*
X27785883Y3410883D01*
X27633539Y3535909D01*
X27591045Y3558623D01*
X27541201Y3607586D01*
X27525500Y3667980D01*
X27525500Y3762034D01*
X27545185Y3829073D01*
X27561819Y3849715D01*
X29525284Y5813180D01*
X29586607Y5846665D01*
X29612965Y5849499D01*
X33071217Y5849499D01*
X33078155Y5849110D01*
X33110050Y5845516D01*
X33117034Y5844729D01*
X33117034Y5844730D01*
X33117035Y5844729D01*
X33174382Y5855581D01*
X33176577Y5855954D01*
X33234287Y5864651D01*
X33234291Y5864654D01*
X33242447Y5867169D01*
X33250469Y5869975D01*
X33250470Y5869976D01*
X33250472Y5869976D01*
X33302123Y5897276D01*
X33304038Y5898243D01*
X33356642Y5923574D01*
X33356643Y5923576D01*
X33356645Y5923576D01*
X33363695Y5928383D01*
X33370537Y5933432D01*
X33370538Y5933433D01*
X33411821Y5974718D01*
X33413420Y5976258D01*
X33456194Y6015944D01*
X33456196Y6015949D01*
X33461987Y6023209D01*
X33462643Y6022686D01*
X33472032Y6034929D01*
X34312319Y6875215D01*
X34373642Y6908700D01*
X34443334Y6903716D01*
X34487681Y6875215D01*
X35486095Y5876801D01*
X35490731Y5871613D01*
X35506950Y5851276D01*
X35515122Y5841029D01*
X35562931Y5808433D01*
X35563294Y5808186D01*
X35565185Y5806844D01*
X35612121Y5772205D01*
X35619673Y5768214D01*
X35627323Y5764531D01*
X35627328Y5764527D01*
X35675984Y5749519D01*
X35683074Y5747332D01*
X35685267Y5746611D01*
X35697960Y5742169D01*
X35740300Y5727353D01*
X35748689Y5725767D01*
X35757096Y5724499D01*
X35757099Y5724499D01*
X35815422Y5724499D01*
X35817705Y5724457D01*
X35876011Y5722275D01*
X35885244Y5723315D01*
X35885337Y5722486D01*
X35900637Y5724499D01*
X38096217Y5724499D01*
X38103155Y5724110D01*
X38135050Y5720516D01*
X38142034Y5719729D01*
X38142034Y5719730D01*
X38142035Y5719729D01*
X38199382Y5730581D01*
X38201577Y5730954D01*
X38259287Y5739651D01*
X38259291Y5739654D01*
X38267447Y5742169D01*
X38275469Y5744975D01*
X38275470Y5744976D01*
X38275472Y5744976D01*
X38327123Y5772276D01*
X38329038Y5773243D01*
X38381642Y5798574D01*
X38381643Y5798576D01*
X38381645Y5798576D01*
X38388695Y5803383D01*
X38395537Y5808432D01*
X38400285Y5813180D01*
X38436821Y5849718D01*
X38438420Y5851258D01*
X38481194Y5890944D01*
X38481196Y5890949D01*
X38486987Y5898209D01*
X38487643Y5897686D01*
X38497032Y5909929D01*
X39098205Y6511103D01*
X39103373Y6515722D01*
X39133970Y6540120D01*
X39166865Y6588370D01*
X39168131Y6590154D01*
X39202793Y6637117D01*
X39202793Y6637120D01*
X39202795Y6637121D01*
X39206787Y6644675D01*
X39210471Y6652324D01*
X39210472Y6652326D01*
X39227673Y6708097D01*
X39228382Y6710250D01*
X39247646Y6765300D01*
X39247646Y6765303D01*
X39249232Y6773688D01*
X39250500Y6782095D01*
X39250500Y6840421D01*
X39250542Y6842705D01*
X39252724Y6901009D01*
X39252723Y6901010D01*
X39251684Y6910238D01*
X39252513Y6910332D01*
X39250500Y6925633D01*
X39250500Y9002269D01*
X39270185Y9069308D01*
X39322989Y9115063D01*
X39392147Y9125007D01*
X39455703Y9095982D01*
X39493477Y9037204D01*
X39494275Y9034362D01*
X39513258Y8963513D01*
X39513261Y8963504D01*
X39609431Y8757269D01*
X39609432Y8757267D01*
X39739954Y8570860D01*
X39900858Y8409956D01*
X39900861Y8409954D01*
X40087266Y8279433D01*
X40293504Y8183262D01*
X40513308Y8124366D01*
X40675230Y8110200D01*
X40739998Y8104533D01*
X40740000Y8104533D01*
X40740002Y8104533D01*
X40796673Y8109492D01*
X40966692Y8124366D01*
X41186496Y8183262D01*
X41392734Y8279433D01*
X41579139Y8409954D01*
X41740047Y8570862D01*
X41870568Y8757267D01*
X41966739Y8963505D01*
X42025635Y9183309D01*
X42045468Y9410001D01*
X42043179Y9436159D01*
X42037295Y9503419D01*
X42025635Y9636693D01*
X41977125Y9817734D01*
X41966741Y9856490D01*
X41966738Y9856499D01*
X41935451Y9923593D01*
X41870568Y10062735D01*
X41740047Y10249140D01*
X41740045Y10249143D01*
X41579141Y10410047D01*
X41392734Y10540569D01*
X41392732Y10540570D01*
X41186497Y10636740D01*
X41186488Y10636743D01*
X40966697Y10695635D01*
X40966693Y10695636D01*
X40966692Y10695636D01*
X40966691Y10695637D01*
X40966686Y10695637D01*
X40740002Y10715469D01*
X40739998Y10715469D01*
X40513313Y10695637D01*
X40513302Y10695635D01*
X40293511Y10636743D01*
X40293502Y10636740D01*
X40087267Y10540570D01*
X40087265Y10540569D01*
X39900858Y10410047D01*
X39739954Y10249143D01*
X39609432Y10062736D01*
X39609431Y10062734D01*
X39513261Y9856499D01*
X39513258Y9856490D01*
X39494275Y9785641D01*
X39457910Y9725980D01*
X39395063Y9695451D01*
X39325688Y9703746D01*
X39271810Y9748231D01*
X39250535Y9814783D01*
X39250500Y9817734D01*
X39250500Y12221217D01*
X39250889Y12228156D01*
X39255270Y12267034D01*
X39244416Y12324392D01*
X39244037Y12326632D01*
X39235348Y12384284D01*
X39235348Y12384286D01*
X39235346Y12384290D01*
X39232833Y12392438D01*
X39230021Y12400476D01*
X39202770Y12452035D01*
X39201724Y12454106D01*
X39176425Y12506642D01*
X39171624Y12513683D01*
X39166567Y12520534D01*
X39166566Y12520537D01*
X39125332Y12561771D01*
X39123723Y12563441D01*
X39084056Y12606192D01*
X39076790Y12611987D01*
X39077310Y12612640D01*
X39065070Y12622033D01*
X37838907Y13848195D01*
X37834270Y13853383D01*
X37809878Y13883970D01*
X37809877Y13883971D01*
X37809876Y13883972D01*
X37786972Y13899588D01*
X37761668Y13916839D01*
X37759802Y13918164D01*
X37712885Y13952790D01*
X37712881Y13952793D01*
X37712876Y13952795D01*
X37705296Y13956802D01*
X37697674Y13960472D01*
X37641940Y13977663D01*
X37639751Y13978383D01*
X37621296Y13984840D01*
X37584694Y13997648D01*
X37576325Y13999232D01*
X37567903Y14000500D01*
X37567901Y14000500D01*
X37509577Y14000500D01*
X37507293Y14000543D01*
X37483401Y14001437D01*
X37448988Y14002725D01*
X37439755Y14001684D01*
X37439661Y14002514D01*
X37424363Y14000500D01*
X25488496Y14000500D01*
X25421457Y14020185D01*
X25375702Y14072989D01*
X25364496Y14124500D01*
X25364496Y14369675D01*
X25364495Y14369677D01*
X25352864Y14428154D01*
X25352863Y14428155D01*
X25308548Y14494477D01*
X25242226Y14538792D01*
X25242225Y14538793D01*
X25183748Y14550424D01*
X25183744Y14550424D01*
X23416256Y14550424D01*
X23416251Y14550424D01*
X23357774Y14538793D01*
X23357773Y14538792D01*
X23291451Y14494477D01*
X23247136Y14428155D01*
X23247135Y14428154D01*
X23235504Y14369677D01*
X23235504Y14124500D01*
X23215819Y14057461D01*
X23163015Y14011706D01*
X23111504Y14000500D01*
X21288496Y14000500D01*
X21221457Y14020185D01*
X21175702Y14072989D01*
X21164496Y14124500D01*
X21164496Y14369675D01*
X21164495Y14369677D01*
X21152864Y14428154D01*
X21152863Y14428155D01*
X21108548Y14494477D01*
X21042226Y14538792D01*
X21042225Y14538793D01*
X20983748Y14550424D01*
X20983744Y14550424D01*
X19963041Y14550424D01*
X19896002Y14570109D01*
X19875360Y14586743D01*
X19507046Y14955057D01*
X19123706Y15338396D01*
X19090222Y15399718D01*
X19095206Y15469409D01*
X19137078Y15525343D01*
X19202542Y15549760D01*
X19211388Y15550076D01*
X19850000Y15550076D01*
X19850000Y16542583D01*
X20350000Y16542583D01*
X20350000Y15550076D01*
X21011824Y15550076D01*
X21011840Y15550077D01*
X21071368Y15556478D01*
X21071375Y15556480D01*
X21206082Y15606722D01*
X21206089Y15606726D01*
X21321183Y15692886D01*
X21321186Y15692889D01*
X21407346Y15807983D01*
X21407350Y15807990D01*
X21457592Y15942697D01*
X21457594Y15942704D01*
X21463995Y16002232D01*
X21463996Y16002249D01*
X21463996Y16542583D01*
X22936004Y16542583D01*
X22936004Y16002232D01*
X22942405Y15942704D01*
X22942407Y15942697D01*
X22992649Y15807990D01*
X22992653Y15807983D01*
X23078813Y15692889D01*
X23078816Y15692886D01*
X23193910Y15606726D01*
X23193917Y15606722D01*
X23328624Y15556480D01*
X23328631Y15556478D01*
X23388159Y15550077D01*
X23388176Y15550076D01*
X24050000Y15550076D01*
X24050000Y16542583D01*
X22936004Y16542583D01*
X21463996Y16542583D01*
X20350000Y16542583D01*
X19850000Y16542583D01*
X18736004Y16542583D01*
X18736004Y16002232D01*
X18742406Y15942699D01*
X18744177Y15935202D01*
X18740433Y15865432D01*
X18699563Y15808763D01*
X18634543Y15783186D01*
X18582545Y15789651D01*
X18559695Y15797647D01*
X18551326Y15799231D01*
X18542904Y15800499D01*
X18542902Y15800499D01*
X18484578Y15800499D01*
X18482295Y15800542D01*
X18457959Y15801452D01*
X18423322Y15802749D01*
X18357066Y15824928D01*
X18313319Y15879406D01*
X18303961Y15926662D01*
X18303961Y16769750D01*
X18303960Y16769752D01*
X18292329Y16828229D01*
X18292328Y16828230D01*
X18248013Y16894552D01*
X18181691Y16938867D01*
X18181690Y16938868D01*
X18123213Y16950499D01*
X18123209Y16950499D01*
X17725459Y16950499D01*
X17658420Y16970184D01*
X17612665Y17022988D01*
X17608402Y17042583D01*
X18736003Y17042583D01*
X19850000Y17042583D01*
X19850000Y18035090D01*
X20350000Y18035090D01*
X20350000Y17042583D01*
X21463995Y17042583D01*
X22936004Y17042583D01*
X24050000Y17042583D01*
X24050000Y18035090D01*
X23388159Y18035090D01*
X23328631Y18028689D01*
X23328624Y18028687D01*
X23193917Y17978445D01*
X23193910Y17978441D01*
X23078816Y17892281D01*
X23078813Y17892278D01*
X22992653Y17777184D01*
X22992649Y17777177D01*
X22942407Y17642470D01*
X22942405Y17642463D01*
X22936004Y17582935D01*
X22936004Y17042583D01*
X21463995Y17042583D01*
X21463996Y17582918D01*
X21463995Y17582935D01*
X21457594Y17642463D01*
X21457592Y17642470D01*
X21407350Y17777177D01*
X21407346Y17777184D01*
X21321186Y17892278D01*
X21321183Y17892281D01*
X21206089Y17978441D01*
X21206082Y17978445D01*
X21071375Y18028687D01*
X21071368Y18028689D01*
X21011840Y18035090D01*
X20350000Y18035090D01*
X19850000Y18035090D01*
X19188159Y18035090D01*
X19128631Y18028689D01*
X19128624Y18028687D01*
X18993917Y17978445D01*
X18993910Y17978441D01*
X18878816Y17892281D01*
X18878813Y17892278D01*
X18792653Y17777184D01*
X18792649Y17777177D01*
X18742407Y17642470D01*
X18742405Y17642463D01*
X18736004Y17582935D01*
X18736004Y17582918D01*
X18736003Y17042583D01*
X17608402Y17042583D01*
X17601459Y17074499D01*
X17601459Y17916288D01*
X17601459Y18790684D01*
X17621143Y18857719D01*
X17656566Y18893781D01*
X17701556Y18923842D01*
X17729742Y18966025D01*
X17783352Y19010829D01*
X17832843Y19021133D01*
X20029626Y19021133D01*
X20096665Y19001448D01*
X20142420Y18948644D01*
X20151244Y18921323D01*
X20156129Y18896762D01*
X20200443Y18830441D01*
X20266765Y18786126D01*
X20266766Y18786125D01*
X20325243Y18774494D01*
X20325246Y18774493D01*
X20325248Y18774493D01*
X21774751Y18774493D01*
X21774752Y18774493D01*
X21781462Y18775828D01*
X21851053Y18769602D01*
X21904922Y18728523D01*
X21987808Y18617803D01*
X22102902Y18531643D01*
X22102909Y18531639D01*
X22237616Y18481397D01*
X22237623Y18481395D01*
X22297151Y18474994D01*
X22297168Y18474993D01*
X22799999Y18474993D01*
X22799999Y19400000D01*
X23300000Y19400000D01*
X23300000Y18474993D01*
X23802832Y18474993D01*
X23802848Y18474994D01*
X23862376Y18481395D01*
X23862383Y18481397D01*
X23997090Y18531639D01*
X23997097Y18531643D01*
X24112191Y18617803D01*
X24112194Y18617806D01*
X24198354Y18732900D01*
X24198358Y18732907D01*
X24248600Y18867614D01*
X24248602Y18867621D01*
X24255003Y18927149D01*
X24255004Y18927166D01*
X24255004Y19400000D01*
X23300000Y19400000D01*
X22799999Y19400000D01*
X22799999Y20496004D01*
X22782713Y20513291D01*
X22774544Y20515689D01*
X22728789Y20568493D01*
X22717583Y20620004D01*
X22717583Y21649999D01*
X23217583Y21649999D01*
X23217583Y20865007D01*
X23234869Y20847720D01*
X23243039Y20845321D01*
X23288794Y20792517D01*
X23300000Y20741006D01*
X23300000Y19900000D01*
X24255004Y19900000D01*
X24255004Y20372835D01*
X24255003Y20372852D01*
X24248602Y20432380D01*
X24248600Y20432387D01*
X24198358Y20567094D01*
X24198356Y20567097D01*
X24146631Y20636192D01*
X24122213Y20701656D01*
X24137064Y20769929D01*
X24146634Y20784820D01*
X24153441Y20793914D01*
X24203687Y20928627D01*
X24203688Y20928631D01*
X24210089Y20988159D01*
X24210089Y20988176D01*
X24210090Y21649999D01*
X23217583Y21649999D01*
X22717583Y21649999D01*
X21725076Y21649999D01*
X21725076Y20988159D01*
X21731477Y20928631D01*
X21731479Y20928624D01*
X21781721Y20793917D01*
X21781722Y20793915D01*
X21834197Y20723818D01*
X21858614Y20658354D01*
X21843763Y20590081D01*
X21794358Y20540675D01*
X21734930Y20525507D01*
X20862959Y20525507D01*
X20795920Y20545192D01*
X20775282Y20561822D01*
X20642141Y20694963D01*
X20608658Y20756282D01*
X20613642Y20825974D01*
X20655513Y20881908D01*
X20660927Y20885739D01*
X20669476Y20891451D01*
X20713791Y20957772D01*
X20713791Y20957774D01*
X20713792Y20957774D01*
X20725423Y21016251D01*
X20725424Y21016255D01*
X20725423Y22086960D01*
X20745107Y22153998D01*
X20761737Y22174635D01*
X21500283Y22913180D01*
X21561607Y22946665D01*
X21587965Y22949499D01*
X21601831Y22949499D01*
X21668870Y22929814D01*
X21714625Y22877010D01*
X21724646Y22815181D01*
X21725254Y22815148D01*
X21725104Y22812355D01*
X21725121Y22812253D01*
X21725077Y22811846D01*
X21725076Y22811823D01*
X21725076Y22149999D01*
X22717582Y22149999D01*
X22717583Y23263995D01*
X23217583Y23263995D01*
X23217583Y22149999D01*
X24210090Y22149999D01*
X24210089Y22811823D01*
X24210089Y22811840D01*
X24203688Y22871368D01*
X24203686Y22871375D01*
X24153444Y23006082D01*
X24153440Y23006089D01*
X24067280Y23121183D01*
X24067277Y23121186D01*
X23952183Y23207346D01*
X23952176Y23207350D01*
X23817469Y23257592D01*
X23817462Y23257594D01*
X23757934Y23263995D01*
X23217583Y23263995D01*
X22717583Y23263995D01*
X22297926Y23263995D01*
X22230887Y23283680D01*
X22185132Y23336484D01*
X22175188Y23405642D01*
X22181984Y23431966D01*
X22182912Y23434417D01*
X22186237Y23443181D01*
X22205278Y23599999D01*
X22186237Y23756817D01*
X22186236Y23756819D01*
X22148312Y23856817D01*
X22130220Y23904522D01*
X22093658Y23957491D01*
X22071776Y24023845D01*
X22071709Y24027930D01*
X22071709Y24874992D01*
X22091394Y24942031D01*
X22144198Y24987786D01*
X22195709Y24998992D01*
X22244718Y24998992D01*
X22244719Y24998993D01*
X22261980Y25002426D01*
X22303197Y25010624D01*
X22303197Y25010625D01*
X22303199Y25010625D01*
X22369520Y25054940D01*
X22413835Y25121261D01*
X22413835Y25121263D01*
X22413836Y25121263D01*
X22425467Y25179740D01*
X22425468Y25179742D01*
X22425468Y26489142D01*
X22445153Y26556181D01*
X22497957Y26601936D01*
X22567115Y26611880D01*
X22630671Y26582855D01*
X22640111Y26572646D01*
X22640181Y26572715D01*
X22687982Y26524914D01*
X22689591Y26523244D01*
X22729263Y26480488D01*
X22736526Y26474696D01*
X22736005Y26474043D01*
X22748246Y26464650D01*
X23461090Y25751807D01*
X23465726Y25746620D01*
X23490121Y25716030D01*
X23490123Y25716028D01*
X23538321Y25683167D01*
X23540212Y25681825D01*
X23587118Y25647207D01*
X23594665Y25643219D01*
X23602322Y25639532D01*
X23602327Y25639528D01*
X23658079Y25622331D01*
X23660246Y25621618D01*
X23691486Y25610687D01*
X23748262Y25569965D01*
X23774010Y25505013D01*
X23774532Y25493645D01*
X23774532Y25179740D01*
X23786163Y25121263D01*
X23786164Y25121262D01*
X23830479Y25054940D01*
X23896801Y25010625D01*
X23896802Y25010624D01*
X23955279Y24998993D01*
X23955282Y24998992D01*
X23955284Y24998992D01*
X25202300Y24998992D01*
X25202301Y24998993D01*
X25219562Y25002426D01*
X25260779Y25010624D01*
X25260779Y25010625D01*
X25260781Y25010625D01*
X25327102Y25054940D01*
X25371417Y25121261D01*
X25371417Y25121263D01*
X25371418Y25121263D01*
X25383049Y25179740D01*
X25383050Y25179742D01*
X25383050Y26920259D01*
X25383049Y26920261D01*
X25371418Y26978738D01*
X25371417Y26978739D01*
X25327102Y27045061D01*
X25260780Y27089376D01*
X25260779Y27089377D01*
X25202302Y27101008D01*
X25202298Y27101008D01*
X23955284Y27101008D01*
X23955279Y27101008D01*
X23896802Y27089377D01*
X23896801Y27089376D01*
X23830479Y27045061D01*
X23786164Y26978739D01*
X23786163Y26978736D01*
X23785331Y26974553D01*
X23752943Y26912644D01*
X23692226Y26878072D01*
X23622457Y26881815D01*
X23576034Y26911069D01*
X23500135Y26986968D01*
X23466650Y27048291D01*
X23463816Y27074649D01*
X23463816Y27893753D01*
X23483501Y27960792D01*
X23536305Y28006547D01*
X23605463Y28016491D01*
X23669019Y27987466D01*
X23703757Y27937725D01*
X23719780Y27895477D01*
X23809517Y27765470D01*
X23927760Y27660717D01*
X23927762Y27660716D01*
X24067634Y27587304D01*
X24221014Y27549500D01*
X24221015Y27549500D01*
X24378985Y27549500D01*
X24532365Y27587304D01*
X24532364Y27587305D01*
X24672240Y27660717D01*
X24790483Y27765470D01*
X24880220Y27895477D01*
X24936237Y28043182D01*
X24955278Y28200000D01*
X24946812Y28269729D01*
X24936237Y28356819D01*
X24902614Y28445475D01*
X24880220Y28504523D01*
X24790483Y28634530D01*
X24790479Y28634534D01*
X24785509Y28640144D01*
X24786953Y28641424D01*
X24755145Y28692140D01*
X24750500Y28725760D01*
X24750500Y30074342D01*
X24750889Y30081281D01*
X24755270Y30120159D01*
X24744416Y30177517D01*
X24744037Y30179757D01*
X24743380Y30184115D01*
X24735348Y30237411D01*
X24735346Y30237415D01*
X24732836Y30245553D01*
X24730023Y30253592D01*
X24730023Y30253596D01*
X24702760Y30305176D01*
X24701727Y30307224D01*
X24694148Y30322963D01*
X24676425Y30359766D01*
X24676423Y30359768D01*
X24676423Y30359769D01*
X24671642Y30366782D01*
X24666566Y30373659D01*
X24666565Y30373662D01*
X24625345Y30414882D01*
X24623752Y30416534D01*
X24609597Y30431790D01*
X24584059Y30459315D01*
X24576792Y30465110D01*
X24577312Y30465763D01*
X24565067Y30475160D01*
X22669944Y32370283D01*
X22636459Y32431606D01*
X22641443Y32501298D01*
X22683315Y32557231D01*
X22700002Y32567762D01*
X22753344Y32595757D01*
X22877311Y32705582D01*
X22890751Y32725054D01*
X22945032Y32769046D01*
X23003040Y32778194D01*
X23045340Y32774689D01*
X23169091Y32806027D01*
X23275961Y32875848D01*
X23354370Y32976588D01*
X23370434Y33023381D01*
X23395820Y33097327D01*
X23395820Y33200652D01*
X23415505Y33267691D01*
X23468309Y33313446D01*
X23519820Y33324652D01*
X23996995Y33324652D01*
X24064034Y33304967D01*
X24109789Y33252163D01*
X24118612Y33224843D01*
X24129127Y33171975D01*
X24129128Y33171974D01*
X24173443Y33105652D01*
X24239765Y33061337D01*
X24239766Y33061336D01*
X24298243Y33049705D01*
X24298246Y33049704D01*
X24298248Y33049704D01*
X25201754Y33049704D01*
X25201755Y33049705D01*
X25216572Y33052652D01*
X25260233Y33061336D01*
X25260233Y33061337D01*
X25260235Y33061337D01*
X25326556Y33105652D01*
X25370871Y33171973D01*
X25370871Y33171975D01*
X25370872Y33171975D01*
X25380608Y33220925D01*
X25382504Y33230456D01*
X25382504Y34069952D01*
X25382504Y34069955D01*
X25382503Y34069957D01*
X25370872Y34128434D01*
X25370871Y34128435D01*
X25326556Y34194757D01*
X25250081Y34245856D01*
X25252137Y34248934D01*
X25214355Y34279380D01*
X25192289Y34345674D01*
X25209567Y34413374D01*
X25251420Y34452343D01*
X25250081Y34454348D01*
X25326556Y34505448D01*
X25336842Y34520842D01*
X25370871Y34571769D01*
X25370871Y34571771D01*
X25370872Y34571771D01*
X25382503Y34630248D01*
X25382504Y34630250D01*
X25382504Y35469751D01*
X25382503Y35469753D01*
X25370872Y35528230D01*
X25370871Y35528231D01*
X25326555Y35594554D01*
X25255608Y35641960D01*
X25210804Y35695572D01*
X25200500Y35745061D01*
X25200500Y36671526D01*
X25200889Y36678463D01*
X25205231Y36716996D01*
X25202660Y36730583D01*
X25200500Y36753621D01*
X25200500Y38110010D01*
X25220185Y38177049D01*
X25236821Y38197693D01*
X25244573Y38205446D01*
X25244577Y38205448D01*
X25288892Y38271769D01*
X25288892Y38271771D01*
X25288893Y38271771D01*
X25300524Y38330248D01*
X25300525Y38330250D01*
X25300525Y39269751D01*
X25300524Y39269753D01*
X25288893Y39328230D01*
X25288892Y39328231D01*
X25244577Y39394553D01*
X25178255Y39438868D01*
X25178254Y39438869D01*
X25119777Y39450500D01*
X25119773Y39450500D01*
X24814842Y39450500D01*
X24787249Y39453609D01*
X24784043Y39454341D01*
X24753198Y39452029D01*
X24735105Y39450673D01*
X24730489Y39450500D01*
X24280277Y39450500D01*
X24264807Y39447423D01*
X24195215Y39453652D01*
X24141350Y39494730D01*
X24057161Y39607191D01*
X23942068Y39693351D01*
X23942061Y39693355D01*
X23807354Y39743597D01*
X23807347Y39743599D01*
X23747819Y39750000D01*
X23549975Y39750000D01*
X23549975Y38674000D01*
X23530290Y38606961D01*
X23477486Y38561206D01*
X23425975Y38550000D01*
X22399975Y38550000D01*
X22399975Y38302156D01*
X22406376Y38242628D01*
X22406378Y38242621D01*
X22456620Y38107914D01*
X22456624Y38107907D01*
X22542784Y37992813D01*
X22542787Y37992810D01*
X22657881Y37906650D01*
X22657890Y37906645D01*
X22725209Y37881537D01*
X22781143Y37839667D01*
X22805561Y37774203D01*
X22790710Y37705929D01*
X22760543Y37669503D01*
X22689117Y37610885D01*
X22564090Y37458540D01*
X22564085Y37458533D01*
X22509358Y37356144D01*
X22460396Y37306299D01*
X22392258Y37290839D01*
X22326578Y37314671D01*
X22290642Y37356144D01*
X22235914Y37458533D01*
X22235909Y37458540D01*
X22110883Y37610884D01*
X21958539Y37735910D01*
X21958532Y37735914D01*
X21784733Y37828812D01*
X21784727Y37828814D01*
X21596132Y37886024D01*
X21596129Y37886025D01*
X21425011Y37902878D01*
X21360224Y37929039D01*
X21319865Y37986073D01*
X21316748Y38055873D01*
X21337901Y38100596D01*
X21343379Y38107914D01*
X21393621Y38242621D01*
X21393623Y38242628D01*
X21400024Y38302156D01*
X21400024Y38302173D01*
X21400025Y38550000D01*
X20750025Y38550000D01*
X20750025Y37850000D01*
X20757162Y37842863D01*
X20790647Y37781540D01*
X20785663Y37711848D01*
X20748147Y37659330D01*
X20689117Y37610885D01*
X20578525Y37476128D01*
X20520779Y37436794D01*
X20450934Y37434923D01*
X20394991Y37467112D01*
X20324778Y37537325D01*
X20218742Y37643361D01*
X20185259Y37704681D01*
X20190243Y37774372D01*
X20218744Y37818721D01*
X20250025Y37850002D01*
X20250025Y39750000D01*
X20750025Y39750000D01*
X20750025Y39050000D01*
X21400025Y39050000D01*
X22399975Y39050000D01*
X23049975Y39050000D01*
X23049975Y39750000D01*
X22852130Y39750000D01*
X22792602Y39743599D01*
X22792595Y39743597D01*
X22657888Y39693355D01*
X22657881Y39693351D01*
X22542787Y39607191D01*
X22542784Y39607188D01*
X22456624Y39492094D01*
X22456620Y39492087D01*
X22406378Y39357380D01*
X22406376Y39357373D01*
X22399975Y39297845D01*
X22399975Y39050000D01*
X21400025Y39050000D01*
X21400024Y39297828D01*
X21400024Y39297845D01*
X21393623Y39357373D01*
X21393621Y39357380D01*
X21343379Y39492087D01*
X21343375Y39492094D01*
X21257215Y39607188D01*
X21257212Y39607191D01*
X21142118Y39693351D01*
X21142111Y39693355D01*
X21007404Y39743597D01*
X21007397Y39743599D01*
X20947869Y39750000D01*
X20750025Y39750000D01*
X20250025Y39750000D01*
X20052180Y39750000D01*
X19992652Y39743599D01*
X19992645Y39743597D01*
X19857938Y39693355D01*
X19857931Y39693351D01*
X19742837Y39607191D01*
X19742834Y39607188D01*
X19658648Y39494730D01*
X19602714Y39452859D01*
X19535191Y39447424D01*
X19519727Y39450500D01*
X19519723Y39450500D01*
X18680227Y39450500D01*
X18680222Y39450500D01*
X18621745Y39438869D01*
X18621744Y39438868D01*
X18555422Y39394553D01*
X18511106Y39328229D01*
X18510615Y39327043D01*
X18508853Y39324858D01*
X18504323Y39318077D01*
X18503716Y39318483D01*
X18466772Y39272641D01*
X18400477Y39250579D01*
X18396056Y39250500D01*
X17021869Y39250500D01*
X16954830Y39270185D01*
X16934188Y39286819D01*
X16926557Y39294450D01*
X16860234Y39338766D01*
X16860233Y39338767D01*
X16801756Y39350398D01*
X16801752Y39350398D01*
X15898248Y39350398D01*
X15898243Y39350398D01*
X15839766Y39338767D01*
X15839765Y39338766D01*
X15773443Y39294451D01*
X15729128Y39228129D01*
X15729127Y39228128D01*
X15717496Y39169651D01*
X15717496Y38330146D01*
X15729127Y38271669D01*
X15729128Y38271668D01*
X15773443Y38205346D01*
X15849919Y38154246D01*
X15847862Y38151169D01*
X15885653Y38120709D01*
X15907710Y38054412D01*
X15890424Y37986715D01*
X15848576Y37947763D01*
X15849919Y37945754D01*
X15773443Y37894655D01*
X15729128Y37828333D01*
X15729127Y37828332D01*
X15717496Y37769855D01*
X15717496Y36930350D01*
X15729127Y36871873D01*
X15729128Y36871872D01*
X15773443Y36805550D01*
X15839765Y36761235D01*
X15839766Y36761234D01*
X15898243Y36749603D01*
X15898246Y36749602D01*
X16693024Y36749602D01*
X16760063Y36729917D01*
X16805818Y36677113D01*
X16815762Y36607955D01*
X16810885Y36588533D01*
X16810978Y36588508D01*
X16752425Y36369986D01*
X16752423Y36369976D01*
X16733178Y36150000D01*
X16733178Y36149999D01*
X16752423Y35930023D01*
X16752425Y35930013D01*
X16809574Y35716728D01*
X16809578Y35716719D01*
X16902900Y35516588D01*
X16902904Y35516582D01*
X16937189Y35467618D01*
X16959517Y35401412D01*
X16942507Y35333645D01*
X16891560Y35285831D01*
X16835615Y35272494D01*
X14050778Y35272494D01*
X14043839Y35272884D01*
X14030625Y35274373D01*
X14004960Y35277265D01*
X13947639Y35266421D01*
X13945357Y35266033D01*
X13887710Y35257343D01*
X13879551Y35254827D01*
X13871524Y35252018D01*
X13819935Y35224753D01*
X13817867Y35223710D01*
X13765353Y35198419D01*
X13758303Y35193614D01*
X13751454Y35188559D01*
X13710235Y35147339D01*
X13708566Y35145731D01*
X13665799Y35106048D01*
X13660008Y35098786D01*
X13659357Y35099306D01*
X13649962Y35087066D01*
X12857266Y34294368D01*
X12795943Y34260883D01*
X12769585Y34258049D01*
X12104739Y34258049D01*
X12046262Y34246418D01*
X12046261Y34246417D01*
X11979939Y34202102D01*
X11935624Y34135780D01*
X11935623Y34135779D01*
X11923992Y34077302D01*
X11923992Y32830279D01*
X11935623Y32771802D01*
X11935624Y32771801D01*
X11979939Y32705479D01*
X12046261Y32661164D01*
X12046262Y32661163D01*
X12104739Y32649532D01*
X12104742Y32649531D01*
X12104744Y32649531D01*
X13845258Y32649531D01*
X13845259Y32649532D01*
X13860076Y32652479D01*
X13903737Y32661163D01*
X13903737Y32661164D01*
X13903739Y32661164D01*
X13970060Y32705479D01*
X14014375Y32771800D01*
X14014375Y32771802D01*
X14014376Y32771802D01*
X14025844Y32829458D01*
X14026008Y32830283D01*
X14026008Y34077297D01*
X14026008Y34077298D01*
X14026008Y34077300D01*
X14026007Y34077302D01*
X14020422Y34105383D01*
X14026649Y34174974D01*
X14054354Y34217251D01*
X14172281Y34335178D01*
X14233602Y34368660D01*
X14259960Y34371494D01*
X14577634Y34371494D01*
X14644673Y34351809D01*
X14690428Y34299005D01*
X14700372Y34229847D01*
X14673487Y34168829D01*
X14655833Y34147319D01*
X14655829Y34147312D01*
X14566460Y33980115D01*
X14511420Y33798673D01*
X14492837Y33609993D01*
X14511420Y33421314D01*
X14511420Y33421312D01*
X14511421Y33421310D01*
X14563474Y33249716D01*
X14566460Y33239872D01*
X14655829Y33072675D01*
X14655833Y33072669D01*
X14776110Y32926109D01*
X14892876Y32830283D01*
X14922671Y32805831D01*
X14922673Y32805830D01*
X14922676Y32805828D01*
X15089873Y32716459D01*
X15089876Y32716459D01*
X15089880Y32716456D01*
X15271312Y32661419D01*
X15459995Y32642835D01*
X15648678Y32661419D01*
X15830110Y32716456D01*
X15843093Y32723396D01*
X15911492Y32737640D01*
X15976737Y32712642D01*
X16018110Y32656339D01*
X16022475Y32586606D01*
X15989229Y32526358D01*
X14445900Y30983027D01*
X14384577Y30949542D01*
X14358219Y30946708D01*
X14150008Y30946708D01*
X14082969Y30966393D01*
X14037214Y31019197D01*
X14026008Y31070708D01*
X14026008Y31119718D01*
X14026007Y31119720D01*
X14014376Y31178197D01*
X14014375Y31178198D01*
X13970060Y31244520D01*
X13903738Y31288835D01*
X13903737Y31288836D01*
X13845260Y31300467D01*
X13845256Y31300467D01*
X12104744Y31300467D01*
X12104739Y31300467D01*
X12046262Y31288836D01*
X12046261Y31288835D01*
X11979939Y31244520D01*
X11935624Y31178198D01*
X11935623Y31178197D01*
X11923992Y31119720D01*
X11923992Y29872697D01*
X11935623Y29814220D01*
X11935624Y29814219D01*
X11979939Y29747897D01*
X12046261Y29703582D01*
X12046262Y29703581D01*
X12104739Y29691950D01*
X12104742Y29691949D01*
X12104744Y29691949D01*
X13845258Y29691949D01*
X13845259Y29691950D01*
X13860076Y29694897D01*
X13903737Y29703581D01*
X13903737Y29703582D01*
X13903739Y29703582D01*
X13970060Y29747897D01*
X14014375Y29814218D01*
X14014375Y29814220D01*
X14014376Y29814220D01*
X14026007Y29872697D01*
X14026008Y29872699D01*
X14026008Y29921708D01*
X14045693Y29988747D01*
X14098497Y30034502D01*
X14150008Y30045708D01*
X14567401Y30045708D01*
X14574339Y30045319D01*
X14606234Y30041725D01*
X14613218Y30040938D01*
X14613218Y30040939D01*
X14613219Y30040938D01*
X14670566Y30051790D01*
X14672761Y30052163D01*
X14730471Y30060860D01*
X14730475Y30060863D01*
X14738631Y30063378D01*
X14746653Y30066184D01*
X14746654Y30066185D01*
X14746656Y30066185D01*
X14798307Y30093485D01*
X14800222Y30094452D01*
X14852826Y30119783D01*
X14852827Y30119785D01*
X14852829Y30119785D01*
X14859879Y30124592D01*
X14866721Y30129641D01*
X14866722Y30129642D01*
X14908005Y30170927D01*
X14909604Y30172467D01*
X14952378Y30212153D01*
X14952380Y30212158D01*
X14958171Y30219418D01*
X14958827Y30218895D01*
X14968216Y30231138D01*
X16476718Y31739640D01*
X16538039Y31773123D01*
X16607731Y31768139D01*
X16663664Y31726267D01*
X16688081Y31660803D01*
X16686015Y31627768D01*
X16674475Y31569748D01*
X16674475Y31187966D01*
X16654790Y31120927D01*
X16638156Y31100285D01*
X15848013Y30310141D01*
X15842826Y30305506D01*
X15812242Y30281116D01*
X15812239Y30281112D01*
X15779380Y30232920D01*
X15778041Y30231033D01*
X15743415Y30184115D01*
X15739425Y30176566D01*
X15735737Y30168908D01*
X15718540Y30113159D01*
X15717816Y30110958D01*
X15698562Y30055929D01*
X15696980Y30047574D01*
X15695709Y30039134D01*
X15695709Y29980813D01*
X15695666Y29978528D01*
X15695323Y29969334D01*
X15693484Y29920223D01*
X15694198Y29913892D01*
X15682144Y29845070D01*
X15634795Y29793690D01*
X15570978Y29776007D01*
X15522697Y29776007D01*
X15464220Y29764376D01*
X15464219Y29764375D01*
X15397897Y29720060D01*
X15353582Y29653738D01*
X15353581Y29653737D01*
X15341950Y29595260D01*
X15341950Y27854739D01*
X15353581Y27796262D01*
X15353582Y27796261D01*
X15397897Y27729939D01*
X15464219Y27685624D01*
X15464220Y27685623D01*
X15522697Y27673992D01*
X15522700Y27673991D01*
X15522702Y27673991D01*
X16769718Y27673991D01*
X16769719Y27673992D01*
X16784536Y27676939D01*
X16828197Y27685623D01*
X16828197Y27685624D01*
X16828199Y27685624D01*
X16894520Y27729939D01*
X16938835Y27796260D01*
X16938835Y27796262D01*
X16938836Y27796262D01*
X16950467Y27854739D01*
X16950468Y27854741D01*
X16950468Y29595258D01*
X16950467Y29595260D01*
X16938836Y29653737D01*
X16938835Y29653738D01*
X16894520Y29720060D01*
X16845057Y29753110D01*
X16828199Y29764374D01*
X16828198Y29764375D01*
X16828194Y29764377D01*
X16821634Y29767095D01*
X16767233Y29810939D01*
X16745172Y29877234D01*
X16762455Y29944933D01*
X16781408Y29969330D01*
X17225258Y30413180D01*
X17286582Y30446665D01*
X17312940Y30449499D01*
X17694724Y30449499D01*
X17702137Y30450974D01*
X17710186Y30452575D01*
X17779778Y30446351D01*
X17833649Y30405270D01*
X17917838Y30292809D01*
X18032931Y30206649D01*
X18032938Y30206645D01*
X18167645Y30156403D01*
X18167652Y30156401D01*
X18227180Y30150000D01*
X18227197Y30149999D01*
X18425025Y30149999D01*
X18425025Y30849999D01*
X18925025Y30849999D01*
X18925025Y30149999D01*
X19122853Y30149999D01*
X19122869Y30150000D01*
X19182397Y30156401D01*
X19182404Y30156403D01*
X19317111Y30206645D01*
X19317118Y30206649D01*
X19432212Y30292809D01*
X19432215Y30292812D01*
X19518375Y30407906D01*
X19518379Y30407913D01*
X19568621Y30542620D01*
X19568623Y30542627D01*
X19575024Y30602155D01*
X19575024Y30602172D01*
X19575025Y30849999D01*
X18925025Y30849999D01*
X18425025Y30849999D01*
X18425025Y32049999D01*
X18925025Y32049999D01*
X18925025Y31349999D01*
X19575024Y31349999D01*
X19575024Y31597844D01*
X19568623Y31657372D01*
X19568621Y31657379D01*
X19518379Y31792086D01*
X19518375Y31792093D01*
X19432215Y31907187D01*
X19432212Y31907190D01*
X19317118Y31993350D01*
X19317111Y31993354D01*
X19182404Y32043596D01*
X19182397Y32043598D01*
X19122869Y32049999D01*
X18925025Y32049999D01*
X18425025Y32049999D01*
X18227180Y32049999D01*
X18167652Y32043598D01*
X18167645Y32043596D01*
X18032938Y31993354D01*
X18032931Y31993350D01*
X17917837Y31907190D01*
X17917834Y31907187D01*
X17833648Y31794729D01*
X17777714Y31752858D01*
X17710191Y31747423D01*
X17694727Y31750499D01*
X17694723Y31750499D01*
X16855227Y31750499D01*
X16855226Y31750499D01*
X16797206Y31738959D01*
X16727615Y31745188D01*
X16672438Y31788052D01*
X16649195Y31853942D01*
X16665264Y31921939D01*
X16685332Y31948254D01*
X17250259Y32513181D01*
X17311582Y32546665D01*
X17337940Y32549499D01*
X17719725Y32549499D01*
X17719726Y32549500D01*
X17734543Y32552447D01*
X17778204Y32561131D01*
X17778204Y32561132D01*
X17778206Y32561132D01*
X17844527Y32605447D01*
X17869510Y32642836D01*
X17895627Y32681922D01*
X17898627Y32679918D01*
X17929274Y32717952D01*
X17995567Y32740021D01*
X18063267Y32722746D01*
X18102466Y32680648D01*
X18104373Y32681922D01*
X18155472Y32605447D01*
X18221794Y32561132D01*
X18221795Y32561131D01*
X18280272Y32549500D01*
X18280275Y32549499D01*
X18280277Y32549499D01*
X19119775Y32549499D01*
X19119776Y32549500D01*
X19134593Y32552447D01*
X19178254Y32561131D01*
X19178254Y32561132D01*
X19178256Y32561132D01*
X19244577Y32605447D01*
X19288892Y32671768D01*
X19288892Y32671770D01*
X19288893Y32671770D01*
X19300524Y32730247D01*
X19300525Y32730251D01*
X19300524Y33263013D01*
X19320208Y33330050D01*
X19373012Y33375805D01*
X19442171Y33385749D01*
X19505727Y33356724D01*
X19512205Y33350692D01*
X19613181Y33249716D01*
X19646666Y33188393D01*
X19649500Y33162035D01*
X19649500Y33128783D01*
X19649110Y33121845D01*
X19647502Y33107570D01*
X19644729Y33082964D01*
X19655571Y33025665D01*
X19655959Y33023381D01*
X19664652Y32965709D01*
X19667162Y32957573D01*
X19669976Y32949530D01*
X19697229Y32897964D01*
X19698274Y32895895D01*
X19723574Y32843358D01*
X19728362Y32836335D01*
X19733431Y32829468D01*
X19733434Y32829462D01*
X19733438Y32829458D01*
X19774666Y32788230D01*
X19776275Y32786560D01*
X19815947Y32743804D01*
X19823210Y32738012D01*
X19822689Y32737359D01*
X19834930Y32727966D01*
X20524278Y32038618D01*
X21213181Y31349716D01*
X21246666Y31288393D01*
X21249500Y31262035D01*
X21249500Y30700117D01*
X21229815Y30633078D01*
X21177011Y30587323D01*
X21115262Y30576540D01*
X21052347Y30581753D01*
X21031076Y30583515D01*
X21031075Y30583515D01*
X20907325Y30552177D01*
X20907322Y30552176D01*
X20800456Y30482357D01*
X20800455Y30482357D01*
X20722045Y30381615D01*
X20722044Y30381614D01*
X20680595Y30260878D01*
X20680596Y30011956D01*
X20660911Y29944917D01*
X20632876Y29916111D01*
X20633193Y29915769D01*
X20632041Y29914701D01*
X20630307Y29913471D01*
X20626440Y29909497D01*
X20626412Y29909479D01*
X20626410Y29909477D01*
X20626408Y29909476D01*
X20619360Y29904672D01*
X20612511Y29899617D01*
X20571292Y29858397D01*
X20569623Y29856789D01*
X20526856Y29817106D01*
X20521065Y29809844D01*
X20520414Y29810364D01*
X20511019Y29798124D01*
X20119731Y29406835D01*
X20058408Y29373350D01*
X19988717Y29378334D01*
X19932783Y29420205D01*
X19908366Y29485670D01*
X19908050Y29494516D01*
X19908050Y29595258D01*
X19908049Y29595260D01*
X19896418Y29653737D01*
X19896417Y29653738D01*
X19852102Y29720060D01*
X19785780Y29764375D01*
X19785779Y29764376D01*
X19727302Y29776007D01*
X19727298Y29776007D01*
X18480284Y29776007D01*
X18480279Y29776007D01*
X18421802Y29764376D01*
X18421801Y29764375D01*
X18355479Y29720060D01*
X18311164Y29653738D01*
X18311163Y29653737D01*
X18299532Y29595260D01*
X18299532Y27854739D01*
X18311163Y27796262D01*
X18311164Y27796261D01*
X18355479Y27729939D01*
X18421801Y27685624D01*
X18421802Y27685623D01*
X18480279Y27673992D01*
X18480282Y27673991D01*
X18480284Y27673991D01*
X19727300Y27673991D01*
X19727301Y27673992D01*
X19742118Y27676939D01*
X19785779Y27685623D01*
X19785779Y27685624D01*
X19785781Y27685624D01*
X19852102Y27729939D01*
X19896417Y27796260D01*
X19896417Y27796262D01*
X19896418Y27796262D01*
X19908049Y27854739D01*
X19908050Y27854741D01*
X19908050Y28150499D01*
X19927735Y28217538D01*
X19980539Y28263293D01*
X20032050Y28274499D01*
X20046216Y28274499D01*
X20053154Y28274110D01*
X20085049Y28270516D01*
X20092033Y28269729D01*
X20092033Y28269730D01*
X20092034Y28269729D01*
X20149381Y28280581D01*
X20151576Y28280954D01*
X20209286Y28289651D01*
X20209290Y28289654D01*
X20217446Y28292169D01*
X20225468Y28294975D01*
X20225469Y28294976D01*
X20225471Y28294976D01*
X20277122Y28322276D01*
X20279037Y28323243D01*
X20331641Y28348574D01*
X20331642Y28348576D01*
X20331644Y28348576D01*
X20338694Y28353383D01*
X20345536Y28358432D01*
X20345537Y28358433D01*
X20386820Y28399718D01*
X20388419Y28401258D01*
X20431193Y28440944D01*
X20431195Y28440949D01*
X20436986Y28448209D01*
X20437642Y28447686D01*
X20447027Y28459925D01*
X20600521Y28613419D01*
X20661840Y28646901D01*
X20731531Y28641917D01*
X20772181Y28616965D01*
X20850994Y28544412D01*
X20850995Y28544412D01*
X20850997Y28544410D01*
X20967902Y28493130D01*
X21095124Y28482589D01*
X21218875Y28513927D01*
X21322452Y28581598D01*
X21389339Y28601783D01*
X21456524Y28582603D01*
X21474255Y28569016D01*
X21500981Y28544412D01*
X21500982Y28544412D01*
X21500984Y28544410D01*
X21617889Y28493130D01*
X21745111Y28482589D01*
X21868862Y28513927D01*
X21972439Y28581598D01*
X22039326Y28601783D01*
X22106511Y28582603D01*
X22124241Y28569017D01*
X22150969Y28544412D01*
X22150970Y28544412D01*
X22150972Y28544410D01*
X22267877Y28493130D01*
X22395099Y28482589D01*
X22408374Y28485951D01*
X22478193Y28483328D01*
X22535512Y28443373D01*
X22562130Y28378772D01*
X22562816Y28365746D01*
X22562816Y27147892D01*
X22543131Y27080853D01*
X22490327Y27035098D01*
X22421169Y27025154D01*
X22369925Y27044790D01*
X22303198Y27089376D01*
X22303197Y27089377D01*
X22244720Y27101008D01*
X22244716Y27101008D01*
X20997702Y27101008D01*
X20997697Y27101008D01*
X20939220Y27089377D01*
X20939219Y27089376D01*
X20872897Y27045061D01*
X20828582Y26978739D01*
X20828581Y26978738D01*
X20816950Y26920261D01*
X20816950Y25179740D01*
X20828581Y25121263D01*
X20828582Y25121262D01*
X20872897Y25054940D01*
X20939219Y25010625D01*
X20939220Y25010624D01*
X20997697Y24998993D01*
X20997700Y24998992D01*
X20997702Y24998992D01*
X21046709Y24998992D01*
X21113748Y24979307D01*
X21159503Y24926503D01*
X21170709Y24874992D01*
X21170709Y24188845D01*
X21151024Y24121806D01*
X21128937Y24096030D01*
X21059516Y24034529D01*
X20969781Y23904524D01*
X20969780Y23904523D01*
X20913763Y23756819D01*
X20897367Y23621791D01*
X20869745Y23557613D01*
X20861952Y23549057D01*
X20313712Y23000814D01*
X20252389Y22967329D01*
X20226031Y22964495D01*
X19020157Y22964495D01*
X18961680Y22952864D01*
X18961679Y22952863D01*
X18895357Y22908548D01*
X18851042Y22842226D01*
X18851041Y22842225D01*
X18839410Y22783748D01*
X18839410Y21016251D01*
X18851041Y20957774D01*
X18851042Y20957773D01*
X18895357Y20891451D01*
X18961679Y20847136D01*
X18961680Y20847135D01*
X19020157Y20835504D01*
X19020160Y20835503D01*
X19020162Y20835503D01*
X19241531Y20835503D01*
X19308570Y20815818D01*
X19351162Y20769443D01*
X19352393Y20767113D01*
X19352394Y20767111D01*
X19362691Y20747628D01*
X19379646Y20715547D01*
X19380691Y20713478D01*
X19405991Y20660941D01*
X19410779Y20653918D01*
X19415848Y20647051D01*
X19415851Y20647045D01*
X19415855Y20647041D01*
X19457083Y20605813D01*
X19458692Y20604143D01*
X19498189Y20561575D01*
X19498364Y20561387D01*
X19505627Y20555595D01*
X19505106Y20554942D01*
X19517347Y20545549D01*
X19789837Y20273059D01*
X19929083Y20133814D01*
X19962568Y20072491D01*
X19957584Y20002800D01*
X19915713Y19946866D01*
X19850248Y19922449D01*
X19841402Y19922133D01*
X17832843Y19922133D01*
X17765804Y19941818D01*
X17729742Y19977241D01*
X17701556Y20019424D01*
X17693258Y20024969D01*
X17635234Y20063740D01*
X17635233Y20063741D01*
X17576756Y20075372D01*
X17576752Y20075372D01*
X16673248Y20075372D01*
X16673243Y20075372D01*
X16614766Y20063741D01*
X16614765Y20063740D01*
X16548443Y20019425D01*
X16504128Y19953103D01*
X16504127Y19953102D01*
X16492496Y19894625D01*
X16492496Y19048642D01*
X16504127Y18990165D01*
X16504128Y18990164D01*
X16548443Y18923842D01*
X16614762Y18879529D01*
X16614765Y18879527D01*
X16614768Y18879527D01*
X16623913Y18875738D01*
X16678316Y18831896D01*
X16700380Y18765602D01*
X16700459Y18761177D01*
X16700459Y17074499D01*
X16680774Y17007460D01*
X16627970Y16961705D01*
X16576459Y16950499D01*
X16178704Y16950499D01*
X16120227Y16938868D01*
X16120226Y16938867D01*
X16053904Y16894552D01*
X16009589Y16828230D01*
X16009588Y16828229D01*
X15997957Y16769752D01*
X15997957Y13930247D01*
X16009588Y13871770D01*
X16009589Y13871769D01*
X16053904Y13805447D01*
X16120226Y13761132D01*
X16120227Y13761131D01*
X16178704Y13749500D01*
X16178707Y13749499D01*
X16178709Y13749499D01*
X18123211Y13749499D01*
X18123212Y13749500D01*
X18138029Y13752447D01*
X18181690Y13761131D01*
X18181690Y13761132D01*
X18181692Y13761132D01*
X18248013Y13805447D01*
X18292328Y13871768D01*
X18292328Y13871770D01*
X18292329Y13871770D01*
X18303960Y13930247D01*
X18303961Y13930251D01*
X18303960Y14584575D01*
X18323644Y14651612D01*
X18376448Y14697367D01*
X18445607Y14707311D01*
X18509163Y14678286D01*
X18515641Y14672254D01*
X18999184Y14188711D01*
X19032669Y14127388D01*
X19035503Y14101030D01*
X19035503Y12845160D01*
X19035504Y12845158D01*
X19047135Y12786681D01*
X19047136Y12786680D01*
X19091451Y12720358D01*
X19157773Y12676043D01*
X19157774Y12676042D01*
X19216251Y12664411D01*
X19216254Y12664410D01*
X19216256Y12664410D01*
X20983746Y12664410D01*
X20983747Y12664411D01*
X20998564Y12667358D01*
X21042225Y12676042D01*
X21042225Y12676043D01*
X21042227Y12676043D01*
X21108548Y12720358D01*
X21152863Y12786679D01*
X21152863Y12786681D01*
X21152864Y12786681D01*
X21164495Y12845158D01*
X21164496Y12845160D01*
X21164496Y12975500D01*
X21184181Y13042539D01*
X21236985Y13088294D01*
X21288496Y13099500D01*
X23111504Y13099500D01*
X23178543Y13079815D01*
X23224298Y13027011D01*
X23235504Y12975500D01*
X23235504Y12845158D01*
X23247135Y12786681D01*
X23247136Y12786680D01*
X23291451Y12720358D01*
X23357773Y12676043D01*
X23357774Y12676042D01*
X23416251Y12664411D01*
X23416254Y12664410D01*
X23416256Y12664410D01*
X25183746Y12664410D01*
X25183747Y12664411D01*
X25198564Y12667358D01*
X25242225Y12676042D01*
X25242225Y12676043D01*
X25242227Y12676043D01*
X25308548Y12720358D01*
X25352863Y12786679D01*
X25352863Y12786681D01*
X25352864Y12786681D01*
X25364495Y12845158D01*
X25364496Y12845160D01*
X25364496Y12975500D01*
X25384181Y13042539D01*
X25436985Y13088294D01*
X25488496Y13099500D01*
X37262033Y13099500D01*
X37329072Y13079815D01*
X37349714Y13063181D01*
X38313181Y12099715D01*
X38346666Y12038392D01*
X38349500Y12012034D01*
X38349500Y7087965D01*
X38329815Y7020926D01*
X38313181Y7000284D01*
X37974716Y6661818D01*
X37913393Y6628333D01*
X37887035Y6625499D01*
X36062966Y6625499D01*
X35995927Y6645184D01*
X35975285Y6661818D01*
X35376858Y7260245D01*
X35889530Y7260245D01*
X35901161Y7201768D01*
X35901162Y7201767D01*
X35945477Y7135445D01*
X36011799Y7091130D01*
X36011800Y7091129D01*
X36070277Y7079498D01*
X36070280Y7079497D01*
X36070282Y7079497D01*
X37809780Y7079497D01*
X37809781Y7079498D01*
X37824598Y7082445D01*
X37868259Y7091129D01*
X37868259Y7091130D01*
X37868261Y7091130D01*
X37934582Y7135445D01*
X37978897Y7201766D01*
X37978897Y7201768D01*
X37978898Y7201768D01*
X37990529Y7260245D01*
X37990530Y7260247D01*
X37990530Y8999748D01*
X37990529Y8999750D01*
X37978898Y9058227D01*
X37978897Y9058228D01*
X37934582Y9124550D01*
X37868260Y9168865D01*
X37868259Y9168866D01*
X37809782Y9180497D01*
X37809778Y9180497D01*
X36070282Y9180497D01*
X36070277Y9180497D01*
X36011800Y9168866D01*
X36011799Y9168865D01*
X35945477Y9124550D01*
X35901162Y9058228D01*
X35901161Y9058227D01*
X35889530Y8999750D01*
X35889530Y7260245D01*
X35376858Y7260245D01*
X35274171Y7362932D01*
X35240686Y7424255D01*
X35245670Y7493947D01*
X35266002Y7529281D01*
X35277707Y7543543D01*
X35277708Y7543545D01*
X35277710Y7543547D01*
X35375257Y7726043D01*
X35435325Y7924063D01*
X35455608Y8129997D01*
X35435325Y8335931D01*
X35375257Y8533951D01*
X35277710Y8716447D01*
X35225727Y8779788D01*
X35146435Y8876408D01*
X34996146Y8999745D01*
X34986475Y9007682D01*
X34803979Y9105229D01*
X34605959Y9165297D01*
X34605957Y9165298D01*
X34605959Y9165298D01*
X34400025Y9185580D01*
X34194092Y9165298D01*
X34059761Y9124549D01*
X33996075Y9105230D01*
X33996068Y9105228D01*
X33928868Y9069308D01*
X33813575Y9007682D01*
X33813573Y9007681D01*
X33813572Y9007680D01*
X33653614Y8876408D01*
X33522342Y8716450D01*
X33424793Y8533952D01*
X33404615Y8467436D01*
X33366317Y8408998D01*
X33302504Y8380542D01*
X33233438Y8391104D01*
X33181045Y8437329D01*
X33166180Y8471340D01*
X33133453Y8593481D01*
X33133449Y8593490D01*
X33033620Y8807574D01*
X33033619Y8807576D01*
X32974945Y8891371D01*
X32974945Y8891372D01*
X32385959Y8302386D01*
X32383148Y8315917D01*
X32313589Y8450161D01*
X32210390Y8560659D01*
X32081206Y8639218D01*
X32030026Y8653558D01*
X32621393Y9244924D01*
X32621393Y9244925D01*
X32537603Y9303595D01*
X32537599Y9303597D01*
X32323512Y9403427D01*
X32323505Y9403430D01*
X32201359Y9436159D01*
X32141699Y9472524D01*
X32111170Y9535371D01*
X32119465Y9604747D01*
X32163950Y9658625D01*
X32197454Y9674593D01*
X32263974Y9694771D01*
X32446470Y9792318D01*
X32606430Y9923593D01*
X32737705Y10083553D01*
X32835252Y10266049D01*
X32895320Y10464069D01*
X32915603Y10670003D01*
X32915603Y10670004D01*
X33344442Y10670004D01*
X33364724Y10464071D01*
X33380957Y10410557D01*
X33424793Y10266049D01*
X33522340Y10083553D01*
X33522342Y10083551D01*
X33653614Y9923593D01*
X33735370Y9856499D01*
X33813575Y9792318D01*
X33996071Y9694771D01*
X34194091Y9634703D01*
X34194090Y9634703D01*
X34212554Y9632885D01*
X34400025Y9614420D01*
X34605959Y9634703D01*
X34803979Y9694771D01*
X34986475Y9792318D01*
X35146435Y9923593D01*
X35277710Y10083553D01*
X35375257Y10266049D01*
X35435325Y10464069D01*
X35455608Y10670003D01*
X35884447Y10670003D01*
X35904729Y10464071D01*
X35920962Y10410557D01*
X35964798Y10266049D01*
X36062345Y10083553D01*
X36062347Y10083551D01*
X36193619Y9923593D01*
X36275375Y9856499D01*
X36353580Y9792318D01*
X36536076Y9694771D01*
X36734096Y9634703D01*
X36734095Y9634703D01*
X36752559Y9632885D01*
X36940030Y9614420D01*
X37145964Y9634703D01*
X37343984Y9694771D01*
X37526480Y9792318D01*
X37686440Y9923593D01*
X37817715Y10083553D01*
X37915262Y10266049D01*
X37975330Y10464069D01*
X37995613Y10670003D01*
X37975330Y10875937D01*
X37915262Y11073957D01*
X37817715Y11256453D01*
X37765732Y11319794D01*
X37686440Y11416414D01*
X37526482Y11547686D01*
X37526483Y11547686D01*
X37526480Y11547688D01*
X37343984Y11645235D01*
X37145964Y11705303D01*
X37145962Y11705304D01*
X37145964Y11705304D01*
X36940030Y11725586D01*
X36734097Y11705304D01*
X36536073Y11645234D01*
X36425928Y11586360D01*
X36353580Y11547688D01*
X36353578Y11547687D01*
X36353577Y11547686D01*
X36193619Y11416414D01*
X36062347Y11256456D01*
X35964799Y11073960D01*
X35904729Y10875936D01*
X35884447Y10670003D01*
X35455608Y10670003D01*
X35435325Y10875937D01*
X35375257Y11073957D01*
X35277710Y11256453D01*
X35225727Y11319794D01*
X35146435Y11416414D01*
X34986477Y11547686D01*
X34986478Y11547686D01*
X34986475Y11547688D01*
X34803979Y11645235D01*
X34605959Y11705303D01*
X34605957Y11705304D01*
X34605959Y11705304D01*
X34400025Y11725586D01*
X34194092Y11705304D01*
X33996068Y11645234D01*
X33885922Y11586360D01*
X33813575Y11547688D01*
X33813573Y11547687D01*
X33813572Y11547686D01*
X33653614Y11416414D01*
X33522342Y11256456D01*
X33424794Y11073960D01*
X33364724Y10875936D01*
X33344442Y10670004D01*
X32915603Y10670004D01*
X32895320Y10875937D01*
X32835252Y11073957D01*
X32737705Y11256453D01*
X32685722Y11319794D01*
X32606430Y11416414D01*
X32446472Y11547686D01*
X32446473Y11547686D01*
X32446470Y11547688D01*
X32263974Y11645235D01*
X32065954Y11705303D01*
X32065952Y11705304D01*
X32065954Y11705304D01*
X31860020Y11725586D01*
X31654087Y11705304D01*
X31456063Y11645234D01*
X31345917Y11586360D01*
X31273570Y11547688D01*
X31273568Y11547687D01*
X31273567Y11547686D01*
X31113609Y11416414D01*
X30982337Y11256456D01*
X30884789Y11073960D01*
X30824719Y10875936D01*
X30804437Y10670003D01*
X30824719Y10464071D01*
X30840952Y10410557D01*
X30884788Y10266049D01*
X30982335Y10083553D01*
X30982337Y10083551D01*
X31113609Y9923593D01*
X31195365Y9856499D01*
X31273570Y9792318D01*
X31456066Y9694771D01*
X31522581Y9674594D01*
X31581019Y9636298D01*
X31609476Y9572486D01*
X31598917Y9503419D01*
X31552693Y9451025D01*
X31518680Y9436159D01*
X31396534Y9403430D01*
X31396527Y9403427D01*
X31182439Y9303596D01*
X31098645Y9244925D01*
X31098645Y9244924D01*
X31688440Y8655128D01*
X31571555Y8604357D01*
X31454272Y8508940D01*
X31367080Y8385418D01*
X31336654Y8299810D01*
X30745092Y8891372D01*
X30686421Y8807578D01*
X30586590Y8593490D01*
X30586587Y8593484D01*
X30553859Y8471339D01*
X30517494Y8411679D01*
X30454647Y8381150D01*
X30385271Y8389445D01*
X30331393Y8433930D01*
X30315423Y8467438D01*
X30314240Y8471339D01*
X30295247Y8533951D01*
X30197700Y8716447D01*
X30145717Y8779788D01*
X30066425Y8876408D01*
X29916136Y8999745D01*
X29906465Y9007682D01*
X29723969Y9105229D01*
X29525949Y9165297D01*
X29525947Y9165298D01*
X29525949Y9165298D01*
X29338478Y9183762D01*
X29320015Y9185580D01*
X29320014Y9185580D01*
X29114082Y9165298D01*
X28979751Y9124549D01*
X28916065Y9105230D01*
X28916058Y9105228D01*
X28848858Y9069308D01*
X28733565Y9007682D01*
X28733563Y9007681D01*
X28733562Y9007680D01*
X28573604Y8876408D01*
X28442332Y8716450D01*
X28344784Y8533954D01*
X28284714Y8335930D01*
X28264432Y8129997D01*
X28284714Y7924065D01*
X28300947Y7870551D01*
X28344783Y7726043D01*
X28442330Y7543547D01*
X28454017Y7529306D01*
X28573604Y7383587D01*
X28598773Y7362932D01*
X28733565Y7252312D01*
X28916061Y7154765D01*
X29114081Y7094697D01*
X29114080Y7094697D01*
X29132544Y7092879D01*
X29320015Y7074414D01*
X29525949Y7094697D01*
X29723969Y7154765D01*
X29906465Y7252312D01*
X30066425Y7383587D01*
X30197700Y7543547D01*
X30295247Y7726043D01*
X30315424Y7792559D01*
X30353721Y7850996D01*
X30417533Y7879452D01*
X30486600Y7868892D01*
X30538993Y7822668D01*
X30553859Y7788655D01*
X30586586Y7666514D01*
X30586590Y7666505D01*
X30686420Y7452418D01*
X30686422Y7452414D01*
X30745092Y7368624D01*
X30745093Y7368624D01*
X31334079Y7957611D01*
X31336892Y7944077D01*
X31406451Y7809833D01*
X31509650Y7699335D01*
X31638834Y7620776D01*
X31690011Y7606437D01*
X31098645Y7015072D01*
X31154340Y6976074D01*
X31197964Y6921497D01*
X31205157Y6851998D01*
X31173635Y6789644D01*
X31113405Y6754230D01*
X31083216Y6750499D01*
X29403783Y6750499D01*
X29396844Y6750889D01*
X29381322Y6752638D01*
X29357963Y6755270D01*
X29300672Y6744429D01*
X29298387Y6744041D01*
X29240715Y6735348D01*
X29232532Y6732824D01*
X29224529Y6730023D01*
X29172961Y6702769D01*
X29170892Y6701724D01*
X29118357Y6676425D01*
X29111338Y6671640D01*
X29104460Y6666564D01*
X29063239Y6625343D01*
X29061571Y6623736D01*
X29018804Y6584053D01*
X29013013Y6576791D01*
X29012362Y6577311D01*
X29002967Y6565071D01*
X26776804Y4338907D01*
X26771617Y4334272D01*
X26741033Y4309882D01*
X26741030Y4309878D01*
X26708171Y4261686D01*
X26706832Y4259799D01*
X26672206Y4212881D01*
X26668216Y4205332D01*
X26664528Y4197674D01*
X26647331Y4141925D01*
X26646607Y4139724D01*
X26627353Y4084695D01*
X26625771Y4076340D01*
X26624500Y4067900D01*
X26624500Y4009579D01*
X26624457Y4007294D01*
X26623889Y3992089D01*
X26622275Y3948989D01*
X26623316Y3939756D01*
X26622485Y3939663D01*
X26624500Y3924364D01*
X26624500Y3667980D01*
X26604815Y3600941D01*
X26558955Y3558623D01*
X26516460Y3535909D01*
X26364116Y3410883D01*
X26239090Y3258539D01*
X26239085Y3258532D01*
X26184358Y3156143D01*
X26135396Y3106298D01*
X26067258Y3090838D01*
X26001578Y3114670D01*
X25965642Y3156143D01*
X25910914Y3258532D01*
X25910909Y3258539D01*
X25785883Y3410883D01*
X25633539Y3535909D01*
X25633532Y3535913D01*
X25459733Y3628811D01*
X25459727Y3628813D01*
X25271132Y3686023D01*
X25271129Y3686024D01*
X25075000Y3705340D01*
X24878870Y3686024D01*
X24690266Y3628811D01*
X24516467Y3535913D01*
X24516460Y3535909D01*
X24364116Y3410883D01*
X24239090Y3258539D01*
X24239085Y3258532D01*
X24184358Y3156143D01*
X24135396Y3106298D01*
X24067258Y3090838D01*
X24001578Y3114670D01*
X23965642Y3156143D01*
X23910914Y3258532D01*
X23910909Y3258539D01*
X23785883Y3410883D01*
X23633539Y3535909D01*
X23633532Y3535913D01*
X23459733Y3628811D01*
X23459727Y3628813D01*
X23271132Y3686023D01*
X23271129Y3686024D01*
X23075000Y3705340D01*
X22878870Y3686024D01*
X22786588Y3658030D01*
X22690273Y3628813D01*
X22690272Y3628813D01*
X22690267Y3628811D01*
X22684646Y3626482D01*
X22683773Y3628588D01*
X22625308Y3616435D01*
X22560073Y3641458D01*
X22547619Y3652351D01*
X21531922Y4668048D01*
X21526278Y4674534D01*
X21518956Y4684229D01*
X21483624Y4716439D01*
X21481573Y4718397D01*
X21467797Y4732173D01*
X21465586Y4733688D01*
X21458853Y4739021D01*
X21435933Y4759915D01*
X21429470Y4762419D01*
X21404192Y4775743D01*
X21398481Y4779655D01*
X21398478Y4779656D01*
X21398479Y4779656D01*
X21368302Y4786755D01*
X21360094Y4789296D01*
X21331173Y4800499D01*
X21324249Y4800499D01*
X21295858Y4803793D01*
X21289119Y4805378D01*
X21258409Y4801094D01*
X21249834Y4800499D01*
X14337841Y4800499D01*
X14329267Y4801094D01*
X14317238Y4802772D01*
X14317235Y4802772D01*
X14292219Y4801616D01*
X14269490Y4800565D01*
X14266627Y4800499D01*
X14247156Y4800499D01*
X14247151Y4800499D01*
X14247149Y4800498D01*
X14244515Y4800006D01*
X14235985Y4799017D01*
X14205006Y4797584D01*
X14205004Y4797584D01*
X14198658Y4794782D01*
X14171385Y4786336D01*
X14164570Y4785062D01*
X14164566Y4785060D01*
X14138204Y4768738D01*
X14130603Y4764732D01*
X14102234Y4752206D01*
X14097329Y4747301D01*
X14074939Y4729566D01*
X14069049Y4725919D01*
X14069044Y4725915D01*
X14050363Y4701177D01*
X14044721Y4694694D01*
X13002380Y3652352D01*
X12941057Y3618867D01*
X12871365Y3623851D01*
X12865386Y3626548D01*
X12865359Y3626481D01*
X12859739Y3628809D01*
X12859728Y3628813D01*
X12859727Y3628813D01*
X12671132Y3686023D01*
X12671129Y3686024D01*
X12475000Y3705340D01*
X12278870Y3686024D01*
X12090266Y3628811D01*
X11916467Y3535913D01*
X11916460Y3535909D01*
X11764116Y3410883D01*
X11639090Y3258539D01*
X11639086Y3258532D01*
X11546188Y3084733D01*
X11488975Y2896129D01*
X11469659Y2700000D01*
X150500Y2700000D01*
X150500Y9410000D01*
X1334532Y9410000D01*
X1354364Y9183315D01*
X1354366Y9183304D01*
X1413258Y8963513D01*
X1413261Y8963504D01*
X1509431Y8757269D01*
X1509432Y8757267D01*
X1639954Y8570860D01*
X1800858Y8409956D01*
X1800861Y8409954D01*
X1987266Y8279433D01*
X2193504Y8183262D01*
X2413308Y8124366D01*
X2575230Y8110200D01*
X2639998Y8104533D01*
X2640000Y8104533D01*
X2640002Y8104533D01*
X2696673Y8109492D01*
X2866692Y8124366D01*
X3086496Y8183262D01*
X3292734Y8279433D01*
X3479139Y8409954D01*
X3640047Y8570862D01*
X3770568Y8757267D01*
X3866739Y8963505D01*
X3925635Y9183309D01*
X3945468Y9410001D01*
X3943179Y9436159D01*
X3937295Y9503419D01*
X3925635Y9636693D01*
X3877125Y9817734D01*
X3866741Y9856490D01*
X3866738Y9856499D01*
X3835451Y9923593D01*
X3770568Y10062735D01*
X3640047Y10249140D01*
X3640045Y10249143D01*
X3479141Y10410047D01*
X3292734Y10540569D01*
X3292732Y10540570D01*
X3086497Y10636740D01*
X3086488Y10636743D01*
X2962362Y10670002D01*
X5104813Y10670002D01*
X5125400Y10434688D01*
X5125402Y10434677D01*
X5186536Y10206520D01*
X5186540Y10206511D01*
X5286370Y9992424D01*
X5286372Y9992420D01*
X5345042Y9908630D01*
X5345043Y9908630D01*
X5934029Y10497617D01*
X5936842Y10484083D01*
X6006401Y10349839D01*
X6109600Y10239341D01*
X6238784Y10160782D01*
X6289961Y10146443D01*
X5698595Y9555078D01*
X5782391Y9496404D01*
X5996477Y9396574D01*
X5996486Y9396570D01*
X6118629Y9363842D01*
X6178290Y9327477D01*
X6208819Y9264630D01*
X6200524Y9195255D01*
X6156039Y9141377D01*
X6122532Y9125407D01*
X6056016Y9105230D01*
X5968082Y9058227D01*
X5873520Y9007682D01*
X5873518Y9007681D01*
X5873517Y9007680D01*
X5713559Y8876408D01*
X5582287Y8716450D01*
X5484739Y8533954D01*
X5424669Y8335930D01*
X5404387Y8129997D01*
X5424669Y7924065D01*
X5440902Y7870551D01*
X5484738Y7726043D01*
X5582285Y7543547D01*
X5593972Y7529306D01*
X5713559Y7383587D01*
X5738728Y7362932D01*
X5873520Y7252312D01*
X6056016Y7154765D01*
X6254036Y7094697D01*
X6254035Y7094697D01*
X6272499Y7092879D01*
X6459970Y7074414D01*
X6665904Y7094697D01*
X6863924Y7154765D01*
X7046420Y7252312D01*
X7206380Y7383587D01*
X7337655Y7543547D01*
X7435202Y7726043D01*
X7495270Y7924063D01*
X7515553Y8129997D01*
X7944392Y8129997D01*
X7964674Y7924065D01*
X7980907Y7870551D01*
X8024743Y7726043D01*
X8122290Y7543547D01*
X8133977Y7529306D01*
X8253564Y7383587D01*
X8278733Y7362932D01*
X8413525Y7252312D01*
X8596021Y7154765D01*
X8794041Y7094697D01*
X8794040Y7094697D01*
X8812504Y7092879D01*
X8999975Y7074414D01*
X9205909Y7094697D01*
X9403929Y7154765D01*
X9586425Y7252312D01*
X9746385Y7383587D01*
X9877660Y7543547D01*
X9975207Y7726043D01*
X10035275Y7924063D01*
X10055558Y8129997D01*
X10484397Y8129997D01*
X10504679Y7924065D01*
X10520912Y7870551D01*
X10564748Y7726043D01*
X10662295Y7543547D01*
X10673982Y7529306D01*
X10793569Y7383587D01*
X10818738Y7362932D01*
X10953530Y7252312D01*
X11136026Y7154765D01*
X11334046Y7094697D01*
X11334045Y7094697D01*
X11352509Y7092879D01*
X11539980Y7074414D01*
X11745914Y7094697D01*
X11943934Y7154765D01*
X12126430Y7252312D01*
X12286390Y7383587D01*
X12417665Y7543547D01*
X12515212Y7726043D01*
X12575280Y7924063D01*
X12595563Y8129997D01*
X13024402Y8129997D01*
X13044684Y7924065D01*
X13060917Y7870551D01*
X13104753Y7726043D01*
X13202300Y7543547D01*
X13213987Y7529306D01*
X13333574Y7383587D01*
X13358743Y7362932D01*
X13493535Y7252312D01*
X13676031Y7154765D01*
X13874051Y7094697D01*
X13874050Y7094697D01*
X13894332Y7092700D01*
X14079985Y7074414D01*
X14285919Y7094697D01*
X14483939Y7154765D01*
X14666435Y7252312D01*
X14826395Y7383587D01*
X14957670Y7543547D01*
X15055217Y7726043D01*
X15115285Y7924063D01*
X15135568Y8129997D01*
X15564407Y8129997D01*
X15584689Y7924065D01*
X15600922Y7870551D01*
X15644758Y7726043D01*
X15742305Y7543547D01*
X15753992Y7529306D01*
X15873579Y7383587D01*
X15898748Y7362932D01*
X16033540Y7252312D01*
X16216036Y7154765D01*
X16414056Y7094697D01*
X16414055Y7094697D01*
X16432519Y7092879D01*
X16619990Y7074414D01*
X16825924Y7094697D01*
X17023944Y7154765D01*
X17206440Y7252312D01*
X17366400Y7383587D01*
X17497675Y7543547D01*
X17595222Y7726043D01*
X17655290Y7924063D01*
X17675573Y8129997D01*
X18104412Y8129997D01*
X18124694Y7924065D01*
X18140927Y7870551D01*
X18184763Y7726043D01*
X18282310Y7543547D01*
X18293997Y7529306D01*
X18413584Y7383587D01*
X18438753Y7362932D01*
X18573545Y7252312D01*
X18756041Y7154765D01*
X18954061Y7094697D01*
X18954060Y7094697D01*
X18972524Y7092879D01*
X19159995Y7074414D01*
X19365929Y7094697D01*
X19563949Y7154765D01*
X19746445Y7252312D01*
X19906405Y7383587D01*
X20037680Y7543547D01*
X20135227Y7726043D01*
X20195295Y7924063D01*
X20215578Y8129997D01*
X20644417Y8129997D01*
X20664699Y7924065D01*
X20680932Y7870551D01*
X20724768Y7726043D01*
X20822315Y7543547D01*
X20834002Y7529306D01*
X20953589Y7383587D01*
X20978758Y7362932D01*
X21113550Y7252312D01*
X21296046Y7154765D01*
X21494066Y7094697D01*
X21494065Y7094697D01*
X21514347Y7092700D01*
X21700000Y7074414D01*
X21905934Y7094697D01*
X22103954Y7154765D01*
X22286450Y7252312D01*
X22446410Y7383587D01*
X22577685Y7543547D01*
X22675232Y7726043D01*
X22735300Y7924063D01*
X22755583Y8129997D01*
X23184422Y8129997D01*
X23204704Y7924065D01*
X23220937Y7870551D01*
X23264773Y7726043D01*
X23362320Y7543547D01*
X23374007Y7529306D01*
X23493594Y7383587D01*
X23518763Y7362932D01*
X23653555Y7252312D01*
X23836051Y7154765D01*
X24034071Y7094697D01*
X24034070Y7094697D01*
X24054352Y7092700D01*
X24240005Y7074414D01*
X24445939Y7094697D01*
X24643959Y7154765D01*
X24826455Y7252312D01*
X24986415Y7383587D01*
X25117690Y7543547D01*
X25215237Y7726043D01*
X25275305Y7924063D01*
X25295588Y8129997D01*
X25724427Y8129997D01*
X25744709Y7924065D01*
X25760942Y7870551D01*
X25804778Y7726043D01*
X25902325Y7543547D01*
X25914012Y7529306D01*
X26033599Y7383587D01*
X26058768Y7362932D01*
X26193560Y7252312D01*
X26376056Y7154765D01*
X26574076Y7094697D01*
X26574075Y7094697D01*
X26592539Y7092879D01*
X26780010Y7074414D01*
X26985944Y7094697D01*
X27183964Y7154765D01*
X27366460Y7252312D01*
X27526420Y7383587D01*
X27657695Y7543547D01*
X27755242Y7726043D01*
X27815310Y7924063D01*
X27835593Y8129997D01*
X27815310Y8335931D01*
X27755242Y8533951D01*
X27657695Y8716447D01*
X27605712Y8779788D01*
X27526420Y8876408D01*
X27376131Y8999745D01*
X27366460Y9007682D01*
X27183964Y9105229D01*
X26985944Y9165297D01*
X26985942Y9165298D01*
X26985944Y9165298D01*
X26780010Y9185580D01*
X26574077Y9165298D01*
X26439746Y9124549D01*
X26376060Y9105230D01*
X26376053Y9105228D01*
X26308853Y9069308D01*
X26193560Y9007682D01*
X26193558Y9007681D01*
X26193557Y9007680D01*
X26033599Y8876408D01*
X25902327Y8716450D01*
X25804779Y8533954D01*
X25744709Y8335930D01*
X25724427Y8129997D01*
X25295588Y8129997D01*
X25275305Y8335931D01*
X25215237Y8533951D01*
X25117690Y8716447D01*
X25065707Y8779788D01*
X24986415Y8876408D01*
X24836126Y8999745D01*
X24826455Y9007682D01*
X24643959Y9105229D01*
X24445939Y9165297D01*
X24445937Y9165298D01*
X24445939Y9165298D01*
X24240005Y9185580D01*
X24034072Y9165298D01*
X23899741Y9124549D01*
X23836055Y9105230D01*
X23836048Y9105228D01*
X23768848Y9069308D01*
X23653555Y9007682D01*
X23653553Y9007681D01*
X23653552Y9007680D01*
X23493594Y8876408D01*
X23362322Y8716450D01*
X23264774Y8533954D01*
X23204704Y8335930D01*
X23184422Y8129997D01*
X22755583Y8129997D01*
X22735300Y8335931D01*
X22675232Y8533951D01*
X22577685Y8716447D01*
X22525702Y8779788D01*
X22446410Y8876408D01*
X22296121Y8999745D01*
X22286450Y9007682D01*
X22103954Y9105229D01*
X21905934Y9165297D01*
X21905932Y9165298D01*
X21905934Y9165298D01*
X21718463Y9183762D01*
X21700000Y9185580D01*
X21699999Y9185580D01*
X21494067Y9165298D01*
X21359736Y9124549D01*
X21296050Y9105230D01*
X21296043Y9105228D01*
X21228843Y9069308D01*
X21113550Y9007682D01*
X21113548Y9007681D01*
X21113547Y9007680D01*
X20953589Y8876408D01*
X20822317Y8716450D01*
X20724769Y8533954D01*
X20664699Y8335930D01*
X20644417Y8129997D01*
X20215578Y8129997D01*
X20195295Y8335931D01*
X20135227Y8533951D01*
X20037680Y8716447D01*
X19985697Y8779788D01*
X19906405Y8876408D01*
X19756116Y8999745D01*
X19746445Y9007682D01*
X19563949Y9105229D01*
X19365929Y9165297D01*
X19365927Y9165298D01*
X19365929Y9165298D01*
X19178458Y9183762D01*
X19159995Y9185580D01*
X19159994Y9185580D01*
X18954062Y9165298D01*
X18819731Y9124549D01*
X18756045Y9105230D01*
X18756038Y9105228D01*
X18688838Y9069308D01*
X18573545Y9007682D01*
X18573543Y9007681D01*
X18573542Y9007680D01*
X18413584Y8876408D01*
X18282312Y8716450D01*
X18184764Y8533954D01*
X18124694Y8335930D01*
X18104412Y8129997D01*
X17675573Y8129997D01*
X17655290Y8335931D01*
X17595222Y8533951D01*
X17497675Y8716447D01*
X17445692Y8779788D01*
X17366400Y8876408D01*
X17216111Y8999745D01*
X17206440Y9007682D01*
X17023944Y9105229D01*
X16825924Y9165297D01*
X16825922Y9165298D01*
X16825924Y9165298D01*
X16619990Y9185580D01*
X16414057Y9165298D01*
X16279726Y9124549D01*
X16216040Y9105230D01*
X16216033Y9105228D01*
X16148833Y9069308D01*
X16033540Y9007682D01*
X16033538Y9007681D01*
X16033537Y9007680D01*
X15873579Y8876408D01*
X15742307Y8716450D01*
X15644759Y8533954D01*
X15584689Y8335930D01*
X15564407Y8129997D01*
X15135568Y8129997D01*
X15115285Y8335931D01*
X15055217Y8533951D01*
X14957670Y8716447D01*
X14905687Y8779788D01*
X14826395Y8876408D01*
X14676106Y8999745D01*
X14666435Y9007682D01*
X14483939Y9105229D01*
X14285919Y9165297D01*
X14285917Y9165298D01*
X14285919Y9165298D01*
X14098448Y9183762D01*
X14079985Y9185580D01*
X14079984Y9185580D01*
X13874052Y9165298D01*
X13739721Y9124549D01*
X13676035Y9105230D01*
X13676028Y9105228D01*
X13608828Y9069308D01*
X13493535Y9007682D01*
X13493533Y9007681D01*
X13493532Y9007680D01*
X13333574Y8876408D01*
X13202302Y8716450D01*
X13104754Y8533954D01*
X13044684Y8335930D01*
X13024402Y8129997D01*
X12595563Y8129997D01*
X12575280Y8335931D01*
X12515212Y8533951D01*
X12417665Y8716447D01*
X12365682Y8779788D01*
X12286390Y8876408D01*
X12136101Y8999745D01*
X12126430Y9007682D01*
X11943934Y9105229D01*
X11745914Y9165297D01*
X11745912Y9165298D01*
X11745914Y9165298D01*
X11539980Y9185580D01*
X11334047Y9165298D01*
X11199716Y9124549D01*
X11136030Y9105230D01*
X11136023Y9105228D01*
X11068823Y9069308D01*
X10953530Y9007682D01*
X10953528Y9007681D01*
X10953527Y9007680D01*
X10793569Y8876408D01*
X10662297Y8716450D01*
X10564749Y8533954D01*
X10504679Y8335930D01*
X10484397Y8129997D01*
X10055558Y8129997D01*
X10035275Y8335931D01*
X9975207Y8533951D01*
X9877660Y8716447D01*
X9825677Y8779788D01*
X9746385Y8876408D01*
X9596096Y8999745D01*
X9586425Y9007682D01*
X9403929Y9105229D01*
X9205909Y9165297D01*
X9205907Y9165298D01*
X9205909Y9165298D01*
X9018438Y9183762D01*
X8999975Y9185580D01*
X8999974Y9185580D01*
X8794042Y9165298D01*
X8659711Y9124549D01*
X8596025Y9105230D01*
X8596018Y9105228D01*
X8528818Y9069308D01*
X8413525Y9007682D01*
X8413523Y9007681D01*
X8413522Y9007680D01*
X8253564Y8876408D01*
X8122292Y8716450D01*
X8024744Y8533954D01*
X7964674Y8335930D01*
X7944392Y8129997D01*
X7515553Y8129997D01*
X7495270Y8335931D01*
X7435202Y8533951D01*
X7337655Y8716447D01*
X7285672Y8779788D01*
X7206380Y8876408D01*
X7056091Y8999745D01*
X7046420Y9007682D01*
X6863924Y9105229D01*
X6797407Y9125407D01*
X6738969Y9163704D01*
X6710513Y9227516D01*
X6721073Y9296583D01*
X6767297Y9348977D01*
X6801310Y9363842D01*
X6923453Y9396570D01*
X6923462Y9396574D01*
X7137548Y9496403D01*
X7137552Y9496405D01*
X7221343Y9555077D01*
X7221343Y9555078D01*
X6631548Y10144873D01*
X6748435Y10195643D01*
X6865718Y10291060D01*
X6952910Y10414582D01*
X6983335Y10500190D01*
X7574895Y9908630D01*
X7574896Y9908630D01*
X7633568Y9992421D01*
X7633570Y9992425D01*
X7733399Y10206511D01*
X7733403Y10206520D01*
X7766130Y10328661D01*
X7802494Y10388321D01*
X7865341Y10418851D01*
X7934717Y10410557D01*
X7988595Y10366072D01*
X8004565Y10332564D01*
X8024742Y10266051D01*
X8024743Y10266049D01*
X8122290Y10083553D01*
X8122292Y10083551D01*
X8253564Y9923593D01*
X8335320Y9856499D01*
X8413525Y9792318D01*
X8596021Y9694771D01*
X8794041Y9634703D01*
X8794040Y9634703D01*
X8814323Y9632706D01*
X8999975Y9614420D01*
X9205909Y9634703D01*
X9403929Y9694771D01*
X9586425Y9792318D01*
X9746385Y9923593D01*
X9877660Y10083553D01*
X9975207Y10266049D01*
X10035275Y10464069D01*
X10055558Y10670003D01*
X10055558Y10670004D01*
X10484397Y10670004D01*
X10504679Y10464071D01*
X10520912Y10410557D01*
X10564748Y10266049D01*
X10662295Y10083553D01*
X10662297Y10083551D01*
X10793569Y9923593D01*
X10875325Y9856499D01*
X10953530Y9792318D01*
X11136026Y9694771D01*
X11334046Y9634703D01*
X11334045Y9634703D01*
X11352509Y9632885D01*
X11539980Y9614420D01*
X11745914Y9634703D01*
X11943934Y9694771D01*
X12126430Y9792318D01*
X12286390Y9923593D01*
X12417665Y10083553D01*
X12515212Y10266049D01*
X12575280Y10464069D01*
X12595563Y10670003D01*
X13024402Y10670003D01*
X13044684Y10464071D01*
X13060917Y10410557D01*
X13104753Y10266049D01*
X13202300Y10083553D01*
X13202302Y10083551D01*
X13333574Y9923593D01*
X13415330Y9856499D01*
X13493535Y9792318D01*
X13676031Y9694771D01*
X13874051Y9634703D01*
X13874050Y9634703D01*
X13894333Y9632706D01*
X14079985Y9614420D01*
X14285919Y9634703D01*
X14483939Y9694771D01*
X14666435Y9792318D01*
X14826395Y9923593D01*
X14957670Y10083553D01*
X15055217Y10266049D01*
X15115285Y10464069D01*
X15135568Y10670003D01*
X15135568Y10670004D01*
X15564407Y10670004D01*
X15584689Y10464071D01*
X15600922Y10410557D01*
X15644758Y10266049D01*
X15742305Y10083553D01*
X15742307Y10083551D01*
X15873579Y9923593D01*
X15955335Y9856499D01*
X16033540Y9792318D01*
X16216036Y9694771D01*
X16414056Y9634703D01*
X16414055Y9634703D01*
X16432519Y9632885D01*
X16619990Y9614420D01*
X16825924Y9634703D01*
X17023944Y9694771D01*
X17206440Y9792318D01*
X17366400Y9923593D01*
X17497675Y10083553D01*
X17595222Y10266049D01*
X17655290Y10464069D01*
X17675573Y10670003D01*
X18104412Y10670003D01*
X18124694Y10464071D01*
X18140927Y10410557D01*
X18184763Y10266049D01*
X18282310Y10083553D01*
X18282312Y10083551D01*
X18413584Y9923593D01*
X18495340Y9856499D01*
X18573545Y9792318D01*
X18756041Y9694771D01*
X18954061Y9634703D01*
X18954060Y9634703D01*
X18974342Y9632706D01*
X19159995Y9614420D01*
X19365929Y9634703D01*
X19563949Y9694771D01*
X19746445Y9792318D01*
X19906405Y9923593D01*
X20037680Y10083553D01*
X20135227Y10266049D01*
X20195295Y10464069D01*
X20215578Y10670003D01*
X20644417Y10670003D01*
X20664699Y10464071D01*
X20680932Y10410557D01*
X20724768Y10266049D01*
X20822315Y10083553D01*
X20822317Y10083551D01*
X20953589Y9923593D01*
X21035345Y9856499D01*
X21113550Y9792318D01*
X21296046Y9694771D01*
X21494066Y9634703D01*
X21494065Y9634703D01*
X21514347Y9632706D01*
X21700000Y9614420D01*
X21905934Y9634703D01*
X22103954Y9694771D01*
X22286450Y9792318D01*
X22446410Y9923593D01*
X22577685Y10083553D01*
X22675232Y10266049D01*
X22735300Y10464069D01*
X22755583Y10670003D01*
X23184422Y10670003D01*
X23204704Y10464071D01*
X23220937Y10410557D01*
X23264773Y10266049D01*
X23362320Y10083553D01*
X23362322Y10083551D01*
X23493594Y9923593D01*
X23575350Y9856499D01*
X23653555Y9792318D01*
X23836051Y9694771D01*
X24034071Y9634703D01*
X24034070Y9634703D01*
X24052534Y9632885D01*
X24240005Y9614420D01*
X24445939Y9634703D01*
X24643959Y9694771D01*
X24826455Y9792318D01*
X24986415Y9923593D01*
X25117690Y10083553D01*
X25215237Y10266049D01*
X25275305Y10464069D01*
X25295588Y10670003D01*
X25724427Y10670003D01*
X25744709Y10464071D01*
X25760942Y10410557D01*
X25804778Y10266049D01*
X25902325Y10083553D01*
X25902327Y10083551D01*
X26033599Y9923593D01*
X26115355Y9856499D01*
X26193560Y9792318D01*
X26376056Y9694771D01*
X26574076Y9634703D01*
X26574075Y9634703D01*
X26592539Y9632885D01*
X26780010Y9614420D01*
X26985944Y9634703D01*
X27183964Y9694771D01*
X27366460Y9792318D01*
X27526420Y9923593D01*
X27657695Y10083553D01*
X27755242Y10266049D01*
X27815310Y10464069D01*
X27835593Y10670003D01*
X27835593Y10670004D01*
X28264432Y10670004D01*
X28284714Y10464071D01*
X28300947Y10410557D01*
X28344783Y10266049D01*
X28442330Y10083553D01*
X28442332Y10083551D01*
X28573604Y9923593D01*
X28655360Y9856499D01*
X28733565Y9792318D01*
X28916061Y9694771D01*
X29114081Y9634703D01*
X29114080Y9634703D01*
X29134363Y9632706D01*
X29320015Y9614420D01*
X29525949Y9634703D01*
X29723969Y9694771D01*
X29906465Y9792318D01*
X30066425Y9923593D01*
X30197700Y10083553D01*
X30295247Y10266049D01*
X30355315Y10464069D01*
X30375598Y10670003D01*
X30355315Y10875937D01*
X30295247Y11073957D01*
X30197700Y11256453D01*
X30145717Y11319794D01*
X30066425Y11416414D01*
X29906467Y11547686D01*
X29906468Y11547686D01*
X29906465Y11547688D01*
X29723969Y11645235D01*
X29525949Y11705303D01*
X29525947Y11705304D01*
X29525949Y11705304D01*
X29338478Y11723768D01*
X29320015Y11725586D01*
X29320014Y11725586D01*
X29114082Y11705304D01*
X28916058Y11645234D01*
X28805912Y11586360D01*
X28733565Y11547688D01*
X28733563Y11547687D01*
X28733562Y11547686D01*
X28573604Y11416414D01*
X28442332Y11256456D01*
X28344784Y11073960D01*
X28284714Y10875936D01*
X28264432Y10670004D01*
X27835593Y10670004D01*
X27815310Y10875937D01*
X27755242Y11073957D01*
X27657695Y11256453D01*
X27605712Y11319794D01*
X27526420Y11416414D01*
X27366462Y11547686D01*
X27366463Y11547686D01*
X27366460Y11547688D01*
X27183964Y11645235D01*
X26985944Y11705303D01*
X26985942Y11705304D01*
X26985944Y11705304D01*
X26798473Y11723768D01*
X26780010Y11725586D01*
X26780009Y11725586D01*
X26574077Y11705304D01*
X26376053Y11645234D01*
X26265907Y11586360D01*
X26193560Y11547688D01*
X26193558Y11547687D01*
X26193557Y11547686D01*
X26033599Y11416414D01*
X25902327Y11256456D01*
X25804779Y11073960D01*
X25744709Y10875936D01*
X25724427Y10670003D01*
X25295588Y10670003D01*
X25275305Y10875937D01*
X25215237Y11073957D01*
X25117690Y11256453D01*
X25065707Y11319794D01*
X24986415Y11416414D01*
X24826457Y11547686D01*
X24826458Y11547686D01*
X24826455Y11547688D01*
X24643959Y11645235D01*
X24445939Y11705303D01*
X24445937Y11705304D01*
X24445939Y11705304D01*
X24240005Y11725586D01*
X24034072Y11705304D01*
X23836048Y11645234D01*
X23725902Y11586360D01*
X23653555Y11547688D01*
X23653553Y11547687D01*
X23653552Y11547686D01*
X23493594Y11416414D01*
X23362322Y11256456D01*
X23264774Y11073960D01*
X23204704Y10875936D01*
X23184422Y10670003D01*
X22755583Y10670003D01*
X22735300Y10875937D01*
X22675232Y11073957D01*
X22577685Y11256453D01*
X22525702Y11319794D01*
X22446410Y11416414D01*
X22286452Y11547686D01*
X22286453Y11547686D01*
X22286450Y11547688D01*
X22103954Y11645235D01*
X21905934Y11705303D01*
X21905932Y11705304D01*
X21905934Y11705304D01*
X21718463Y11723768D01*
X21700000Y11725586D01*
X21699999Y11725586D01*
X21494067Y11705304D01*
X21296043Y11645234D01*
X21185897Y11586360D01*
X21113550Y11547688D01*
X21113548Y11547687D01*
X21113547Y11547686D01*
X20953589Y11416414D01*
X20822317Y11256456D01*
X20724769Y11073960D01*
X20664699Y10875936D01*
X20644417Y10670003D01*
X20215578Y10670003D01*
X20195295Y10875937D01*
X20135227Y11073957D01*
X20037680Y11256453D01*
X19985697Y11319794D01*
X19906405Y11416414D01*
X19746447Y11547686D01*
X19746448Y11547686D01*
X19746445Y11547688D01*
X19563949Y11645235D01*
X19365929Y11705303D01*
X19365927Y11705304D01*
X19365929Y11705304D01*
X19178458Y11723768D01*
X19159995Y11725586D01*
X19159994Y11725586D01*
X18954062Y11705304D01*
X18756038Y11645234D01*
X18645892Y11586360D01*
X18573545Y11547688D01*
X18573543Y11547687D01*
X18573542Y11547686D01*
X18413584Y11416414D01*
X18282312Y11256456D01*
X18184764Y11073960D01*
X18124694Y10875936D01*
X18104412Y10670003D01*
X17675573Y10670003D01*
X17655290Y10875937D01*
X17595222Y11073957D01*
X17497675Y11256453D01*
X17445692Y11319794D01*
X17366400Y11416414D01*
X17206442Y11547686D01*
X17206443Y11547686D01*
X17206440Y11547688D01*
X17023944Y11645235D01*
X16825924Y11705303D01*
X16825922Y11705304D01*
X16825924Y11705304D01*
X16638453Y11723768D01*
X16619990Y11725586D01*
X16619989Y11725586D01*
X16414057Y11705304D01*
X16216033Y11645234D01*
X16105888Y11586360D01*
X16033540Y11547688D01*
X16033538Y11547687D01*
X16033537Y11547686D01*
X15873579Y11416414D01*
X15742307Y11256456D01*
X15644759Y11073960D01*
X15584689Y10875936D01*
X15564407Y10670004D01*
X15135568Y10670004D01*
X15115285Y10875937D01*
X15055217Y11073957D01*
X14957670Y11256453D01*
X14905687Y11319794D01*
X14826395Y11416414D01*
X14666437Y11547686D01*
X14666438Y11547686D01*
X14666435Y11547688D01*
X14483939Y11645235D01*
X14285919Y11705303D01*
X14285917Y11705304D01*
X14285919Y11705304D01*
X14079985Y11725586D01*
X13874052Y11705304D01*
X13676028Y11645234D01*
X13565883Y11586360D01*
X13493535Y11547688D01*
X13493533Y11547687D01*
X13493532Y11547686D01*
X13333574Y11416414D01*
X13202302Y11256456D01*
X13104754Y11073960D01*
X13044684Y10875936D01*
X13024402Y10670003D01*
X12595563Y10670003D01*
X12575280Y10875937D01*
X12515212Y11073957D01*
X12417665Y11256453D01*
X12365682Y11319794D01*
X12286390Y11416414D01*
X12126432Y11547686D01*
X12126433Y11547686D01*
X12126430Y11547688D01*
X11943934Y11645235D01*
X11745914Y11705303D01*
X11745912Y11705304D01*
X11745914Y11705304D01*
X11539980Y11725586D01*
X11334047Y11705304D01*
X11136023Y11645234D01*
X11025877Y11586360D01*
X10953530Y11547688D01*
X10953528Y11547687D01*
X10953527Y11547686D01*
X10793569Y11416414D01*
X10662297Y11256456D01*
X10564749Y11073960D01*
X10504679Y10875936D01*
X10484397Y10670004D01*
X10055558Y10670004D01*
X10035275Y10875937D01*
X9975207Y11073957D01*
X9877660Y11256453D01*
X9825677Y11319794D01*
X9746385Y11416414D01*
X9586427Y11547686D01*
X9586428Y11547686D01*
X9586425Y11547688D01*
X9403929Y11645235D01*
X9205909Y11705303D01*
X9205907Y11705304D01*
X9205909Y11705304D01*
X8999975Y11725586D01*
X8794042Y11705304D01*
X8596018Y11645234D01*
X8485872Y11586360D01*
X8413525Y11547688D01*
X8413523Y11547687D01*
X8413522Y11547686D01*
X8253564Y11416414D01*
X8122292Y11256456D01*
X8024743Y11073958D01*
X8004565Y11007442D01*
X7966267Y10949004D01*
X7902454Y10920548D01*
X7833388Y10931110D01*
X7780995Y10977335D01*
X7766130Y11011346D01*
X7733403Y11133487D01*
X7733399Y11133496D01*
X7633570Y11347580D01*
X7633569Y11347582D01*
X7574895Y11431377D01*
X7574895Y11431378D01*
X6985909Y10842392D01*
X6983098Y10855923D01*
X6913539Y10990167D01*
X6810340Y11100665D01*
X6681156Y11179224D01*
X6629978Y11193564D01*
X7221343Y11784930D01*
X7221343Y11784931D01*
X7137553Y11843601D01*
X7137549Y11843603D01*
X6923462Y11943433D01*
X6923453Y11943437D01*
X6695296Y12004571D01*
X6695285Y12004573D01*
X6459972Y12025160D01*
X6459968Y12025160D01*
X6224654Y12004573D01*
X6224643Y12004571D01*
X5996486Y11943437D01*
X5996477Y11943433D01*
X5782389Y11843602D01*
X5698595Y11784931D01*
X6288392Y11195134D01*
X6171505Y11144363D01*
X6054222Y11048946D01*
X5967030Y10925424D01*
X5936604Y10839816D01*
X5345042Y11431378D01*
X5286371Y11347584D01*
X5186540Y11133496D01*
X5186536Y11133487D01*
X5125402Y10905330D01*
X5125400Y10905319D01*
X5104813Y10670005D01*
X5104813Y10670002D01*
X2962362Y10670002D01*
X2866697Y10695635D01*
X2866693Y10695636D01*
X2866692Y10695636D01*
X2866691Y10695637D01*
X2866686Y10695637D01*
X2640002Y10715469D01*
X2639998Y10715469D01*
X2413313Y10695637D01*
X2413302Y10695635D01*
X2193511Y10636743D01*
X2193502Y10636740D01*
X1987267Y10540570D01*
X1987265Y10540569D01*
X1800858Y10410047D01*
X1639954Y10249143D01*
X1509432Y10062736D01*
X1509431Y10062734D01*
X1413261Y9856499D01*
X1413258Y9856490D01*
X1354366Y9636699D01*
X1354364Y9636688D01*
X1334532Y9410003D01*
X1334532Y9410000D01*
X150500Y9410000D01*
X150500Y20918503D01*
X2252972Y20918503D01*
X2271555Y20729824D01*
X2271555Y20729822D01*
X2271556Y20729820D01*
X2324383Y20555675D01*
X2326595Y20548382D01*
X2415964Y20381185D01*
X2415968Y20381179D01*
X2536245Y20234619D01*
X2682804Y20114342D01*
X2685105Y20113112D01*
X2733954Y20087002D01*
X2783797Y20038042D01*
X2799500Y19977645D01*
X2799500Y16438257D01*
X2779815Y16371218D01*
X2733956Y16328900D01*
X2687673Y16304161D01*
X2541115Y16183885D01*
X2420838Y16037325D01*
X2420834Y16037319D01*
X2331465Y15870122D01*
X2276425Y15688680D01*
X2257842Y15500000D01*
X2276425Y15311321D01*
X2276425Y15311319D01*
X2276426Y15311317D01*
X2311345Y15196205D01*
X2331465Y15129879D01*
X2420834Y14962682D01*
X2420838Y14962676D01*
X2541115Y14816116D01*
X2661393Y14717408D01*
X2687676Y14695838D01*
X2687678Y14695837D01*
X2687681Y14695835D01*
X2854878Y14606466D01*
X2854881Y14606466D01*
X2854885Y14606463D01*
X3036317Y14551426D01*
X3225000Y14532842D01*
X3413683Y14551426D01*
X3595115Y14606463D01*
X3762324Y14695838D01*
X3908884Y14816116D01*
X4029162Y14962676D01*
X4093703Y15083424D01*
X4118534Y15129879D01*
X4118534Y15129880D01*
X4118537Y15129885D01*
X4173574Y15311317D01*
X4192158Y15500000D01*
X4757715Y15500000D01*
X4776298Y15311321D01*
X4776298Y15311319D01*
X4776299Y15311317D01*
X4811218Y15196205D01*
X4831338Y15129879D01*
X4920707Y14962682D01*
X4920711Y14962676D01*
X5040988Y14816116D01*
X5161266Y14717408D01*
X5187549Y14695838D01*
X5187551Y14695837D01*
X5187554Y14695835D01*
X5354751Y14606466D01*
X5354754Y14606466D01*
X5354758Y14606463D01*
X5536190Y14551426D01*
X5724873Y14532842D01*
X5913556Y14551426D01*
X6094988Y14606463D01*
X6262197Y14695838D01*
X6408757Y14816116D01*
X6529035Y14962676D01*
X6593576Y15083424D01*
X6618407Y15129879D01*
X6618407Y15129880D01*
X6618410Y15129885D01*
X6673447Y15311317D01*
X6692031Y15500000D01*
X6958178Y15500000D01*
X6977423Y15280024D01*
X6977425Y15280014D01*
X7034574Y15066729D01*
X7034579Y15066715D01*
X7127897Y14866594D01*
X7127901Y14866586D01*
X7173257Y14801812D01*
X7173258Y14801812D01*
X7773832Y15402386D01*
X7774227Y15397114D01*
X7824580Y15268818D01*
X7910512Y15161062D01*
X8024387Y15083424D01*
X8129540Y15050988D01*
X7526811Y14448260D01*
X7591591Y14402899D01*
X7591593Y14402898D01*
X7791714Y14309580D01*
X7791728Y14309575D01*
X8005013Y14252426D01*
X8005023Y14252424D01*
X8224999Y14233178D01*
X8225001Y14233178D01*
X8444976Y14252424D01*
X8444986Y14252426D01*
X8658271Y14309575D01*
X8658285Y14309580D01*
X8858406Y14402898D01*
X8923188Y14448260D01*
X8319560Y15051888D01*
X8361284Y15058177D01*
X8485459Y15117976D01*
X8586492Y15211720D01*
X8655403Y15331079D01*
X8672512Y15406041D01*
X9276740Y14801813D01*
X9322102Y14866594D01*
X9415420Y15066715D01*
X9415425Y15066729D01*
X9472574Y15280014D01*
X9472576Y15280024D01*
X9491822Y15500000D01*
X9491822Y15500001D01*
X9472576Y15719977D01*
X9472574Y15719987D01*
X9415425Y15933272D01*
X9415420Y15933286D01*
X9322102Y16133407D01*
X9322101Y16133409D01*
X9276740Y16198189D01*
X8676167Y15597617D01*
X8675773Y15602886D01*
X8625420Y15731182D01*
X8539488Y15838938D01*
X8425613Y15916576D01*
X8320459Y15949012D01*
X8923188Y16551742D01*
X8923188Y16551743D01*
X8858414Y16597099D01*
X8858406Y16597103D01*
X8658285Y16690421D01*
X8658271Y16690426D01*
X8444986Y16747575D01*
X8444976Y16747577D01*
X8225001Y16766822D01*
X8224999Y16766822D01*
X8005023Y16747577D01*
X8005013Y16747575D01*
X7791728Y16690426D01*
X7791719Y16690422D01*
X7591589Y16597100D01*
X7526810Y16551742D01*
X8130440Y15948113D01*
X8088716Y15941823D01*
X7964541Y15882024D01*
X7863508Y15788280D01*
X7794597Y15668921D01*
X7777487Y15593961D01*
X7173258Y16198190D01*
X7127900Y16133411D01*
X7034578Y15933281D01*
X7034574Y15933272D01*
X6977425Y15719987D01*
X6977423Y15719977D01*
X6958178Y15500001D01*
X6958178Y15500000D01*
X6692031Y15500000D01*
X6673447Y15688683D01*
X6618410Y15870115D01*
X6618407Y15870119D01*
X6618407Y15870122D01*
X6529038Y16037319D01*
X6529034Y16037325D01*
X6408757Y16183885D01*
X6262197Y16304162D01*
X6262191Y16304166D01*
X6094994Y16393535D01*
X6094988Y16393537D01*
X5913556Y16448574D01*
X5913554Y16448575D01*
X5913552Y16448575D01*
X5751249Y16464561D01*
X5724873Y16467158D01*
X5724872Y16467158D01*
X5536193Y16448575D01*
X5354751Y16393535D01*
X5187554Y16304166D01*
X5187548Y16304162D01*
X5040988Y16183885D01*
X4920711Y16037325D01*
X4920707Y16037319D01*
X4831338Y15870122D01*
X4776298Y15688680D01*
X4757715Y15500000D01*
X4192158Y15500000D01*
X4173574Y15688683D01*
X4118537Y15870115D01*
X4118534Y15870119D01*
X4118534Y15870122D01*
X4029165Y16037319D01*
X4029161Y16037325D01*
X3908884Y16183885D01*
X3762323Y16304163D01*
X3757264Y16307543D01*
X3758577Y16309509D01*
X3716201Y16351137D01*
X3700500Y16411530D01*
X3700500Y18649999D01*
X5119722Y18649999D01*
X5138762Y18493181D01*
X5194779Y18345477D01*
X5194780Y18345476D01*
X5284517Y18215469D01*
X5402760Y18110716D01*
X5402762Y18110715D01*
X5542634Y18037303D01*
X5696014Y17999499D01*
X5696015Y17999499D01*
X5853985Y17999499D01*
X6007365Y18037303D01*
X6007364Y18037304D01*
X6147240Y18110716D01*
X6265483Y18215469D01*
X6355220Y18345476D01*
X6411237Y18493181D01*
X6430278Y18649999D01*
X6413750Y18786125D01*
X6411237Y18806818D01*
X6377125Y18896762D01*
X6355220Y18954522D01*
X6265483Y19084529D01*
X6147240Y19189282D01*
X6147238Y19189283D01*
X6147237Y19189284D01*
X6007365Y19262696D01*
X5853986Y19300499D01*
X5853985Y19300499D01*
X5696015Y19300499D01*
X5696014Y19300499D01*
X5542634Y19262696D01*
X5402762Y19189284D01*
X5284516Y19084528D01*
X5194781Y18954524D01*
X5194780Y18954523D01*
X5138762Y18806818D01*
X5119722Y18650000D01*
X5119722Y18649999D01*
X3700500Y18649999D01*
X3700500Y20010007D01*
X3720185Y20077046D01*
X3752872Y20110322D01*
X3752745Y20110477D01*
X3754192Y20111665D01*
X3755614Y20113112D01*
X3757448Y20114338D01*
X3757454Y20114341D01*
X3904014Y20234619D01*
X4024292Y20381179D01*
X4085667Y20496004D01*
X4113664Y20548382D01*
X4113664Y20548383D01*
X4113667Y20548388D01*
X4168704Y20729820D01*
X4187288Y20918503D01*
X4187288Y20918504D01*
X4752845Y20918504D01*
X4771428Y20729824D01*
X4771428Y20729822D01*
X4771429Y20729820D01*
X4824256Y20555675D01*
X4826468Y20548382D01*
X4915837Y20381185D01*
X4915841Y20381179D01*
X5036118Y20234619D01*
X5150526Y20140728D01*
X5182679Y20114341D01*
X5182681Y20114340D01*
X5182684Y20114338D01*
X5349881Y20024969D01*
X5349884Y20024969D01*
X5349888Y20024966D01*
X5531320Y19969929D01*
X5720003Y19951345D01*
X5908686Y19969929D01*
X6090118Y20024966D01*
X6114582Y20038042D01*
X6250098Y20110477D01*
X6257327Y20114341D01*
X6403887Y20234619D01*
X6524165Y20381179D01*
X6585540Y20496004D01*
X6613537Y20548382D01*
X6613537Y20548383D01*
X6613540Y20548388D01*
X6668577Y20729820D01*
X6687161Y20918503D01*
X6953308Y20918503D01*
X6972553Y20698527D01*
X6972555Y20698517D01*
X7029704Y20485232D01*
X7029709Y20485218D01*
X7123027Y20285097D01*
X7123031Y20285089D01*
X7168387Y20220315D01*
X7168388Y20220315D01*
X7768962Y20820889D01*
X7769357Y20815617D01*
X7819710Y20687321D01*
X7905642Y20579565D01*
X8019517Y20501927D01*
X8124670Y20469491D01*
X7521941Y19866763D01*
X7586721Y19821402D01*
X7586723Y19821401D01*
X7786844Y19728083D01*
X7786858Y19728078D01*
X8000143Y19670929D01*
X8000153Y19670927D01*
X8220129Y19651681D01*
X8220131Y19651681D01*
X8440106Y19670927D01*
X8440116Y19670929D01*
X8653401Y19728078D01*
X8653415Y19728083D01*
X8853536Y19821401D01*
X8918318Y19866763D01*
X8314690Y20470391D01*
X8356414Y20476680D01*
X8480589Y20536479D01*
X8581622Y20630223D01*
X8650533Y20749582D01*
X8667642Y20824544D01*
X9271870Y20220316D01*
X9317232Y20285097D01*
X9410550Y20485218D01*
X9410555Y20485232D01*
X9467704Y20698517D01*
X9467706Y20698527D01*
X9486952Y20918503D01*
X9486952Y20918504D01*
X9467706Y21138480D01*
X9467704Y21138490D01*
X9410555Y21351775D01*
X9410550Y21351789D01*
X9317232Y21551910D01*
X9317231Y21551912D01*
X9271870Y21616692D01*
X8671297Y21016120D01*
X8670903Y21021389D01*
X8620550Y21149685D01*
X8534618Y21257441D01*
X8420743Y21335079D01*
X8315589Y21367515D01*
X8698110Y21750037D01*
X11724987Y21750037D01*
X11724987Y21652193D01*
X11731388Y21592665D01*
X11731390Y21592658D01*
X11781632Y21457951D01*
X11781636Y21457944D01*
X11867796Y21342850D01*
X11867799Y21342847D01*
X11982893Y21256687D01*
X11982900Y21256683D01*
X12117607Y21206441D01*
X12117614Y21206439D01*
X12177142Y21200038D01*
X12177159Y21200037D01*
X12524987Y21200037D01*
X12524987Y21750037D01*
X11724987Y21750037D01*
X8698110Y21750037D01*
X8918318Y21970245D01*
X8918318Y21970246D01*
X8853544Y22015602D01*
X8853536Y22015606D01*
X8653415Y22108924D01*
X8653401Y22108929D01*
X8440116Y22166078D01*
X8440106Y22166080D01*
X8220131Y22185325D01*
X8220129Y22185325D01*
X8000153Y22166080D01*
X8000143Y22166078D01*
X7786858Y22108929D01*
X7786849Y22108925D01*
X7586719Y22015603D01*
X7521940Y21970245D01*
X8125570Y21366616D01*
X8083846Y21360326D01*
X7959671Y21300527D01*
X7858638Y21206783D01*
X7789727Y21087424D01*
X7772617Y21012464D01*
X7168388Y21616693D01*
X7123030Y21551914D01*
X7029708Y21351784D01*
X7029704Y21351775D01*
X6972555Y21138490D01*
X6972553Y21138480D01*
X6953308Y20918504D01*
X6953308Y20918503D01*
X6687161Y20918503D01*
X6668577Y21107186D01*
X6613540Y21288618D01*
X6613537Y21288622D01*
X6613537Y21288625D01*
X6524168Y21455822D01*
X6524164Y21455828D01*
X6522427Y21457944D01*
X6478747Y21511169D01*
X6403887Y21602388D01*
X6257327Y21722665D01*
X6257321Y21722669D01*
X6090124Y21812038D01*
X6090118Y21812040D01*
X5908686Y21867077D01*
X5908684Y21867078D01*
X5908682Y21867078D01*
X5720003Y21885661D01*
X5531323Y21867078D01*
X5349881Y21812038D01*
X5182684Y21722669D01*
X5182678Y21722665D01*
X5036118Y21602388D01*
X4915841Y21455828D01*
X4915837Y21455822D01*
X4826468Y21288625D01*
X4771428Y21107183D01*
X4752845Y20918504D01*
X4187288Y20918504D01*
X4168704Y21107186D01*
X4113667Y21288618D01*
X4113664Y21288622D01*
X4113664Y21288625D01*
X4024295Y21455822D01*
X4024291Y21455828D01*
X4022554Y21457944D01*
X3978874Y21511169D01*
X3904014Y21602388D01*
X3757456Y21722664D01*
X3755610Y21723897D01*
X3754860Y21724794D01*
X3752746Y21726529D01*
X3753075Y21726931D01*
X3710805Y21777509D01*
X3700500Y21827000D01*
X3700500Y23699999D01*
X5119722Y23699999D01*
X5138762Y23543181D01*
X5192032Y23402723D01*
X5194780Y23395476D01*
X5284517Y23265469D01*
X5402760Y23160716D01*
X5402762Y23160715D01*
X5542634Y23087303D01*
X5696014Y23049499D01*
X5696015Y23049499D01*
X5853985Y23049499D01*
X6007365Y23087303D01*
X6071917Y23121183D01*
X6147240Y23160716D01*
X6265483Y23265469D01*
X6355220Y23395476D01*
X6411237Y23543181D01*
X6430278Y23699999D01*
X6412160Y23849220D01*
X6411237Y23856818D01*
X6360996Y23989291D01*
X6355220Y24004522D01*
X6265483Y24134529D01*
X6147240Y24239282D01*
X6147238Y24239283D01*
X6147237Y24239284D01*
X6007365Y24312696D01*
X5853986Y24350499D01*
X5853985Y24350499D01*
X5696015Y24350499D01*
X5696014Y24350499D01*
X5542634Y24312696D01*
X5402762Y24239284D01*
X5284516Y24134528D01*
X5194781Y24004524D01*
X5194780Y24004523D01*
X5138762Y23856818D01*
X5119722Y23700000D01*
X5119722Y23699999D01*
X3700500Y23699999D01*
X3700500Y25325108D01*
X3720185Y25392147D01*
X3766049Y25434467D01*
X3787324Y25445838D01*
X3933884Y25566116D01*
X4054162Y25712676D01*
X4143537Y25879885D01*
X4198574Y26061317D01*
X4217158Y26250000D01*
X4782715Y26250000D01*
X4801298Y26061321D01*
X4801298Y26061319D01*
X4801299Y26061317D01*
X4831512Y25961720D01*
X4856338Y25879879D01*
X4945707Y25712682D01*
X4945711Y25712676D01*
X5065988Y25566116D01*
X5186266Y25467408D01*
X5212549Y25445838D01*
X5212551Y25445837D01*
X5212554Y25445835D01*
X5379751Y25356466D01*
X5379754Y25356466D01*
X5379758Y25356463D01*
X5561190Y25301426D01*
X5749873Y25282842D01*
X5920250Y25299623D01*
X5944619Y25302023D01*
X5944855Y25299623D01*
X6003851Y25294344D01*
X6046133Y25266635D01*
X7711001Y23601768D01*
X7715637Y23596581D01*
X7740032Y23565991D01*
X7740034Y23565989D01*
X7788232Y23533128D01*
X7790123Y23531786D01*
X7837029Y23497168D01*
X7844565Y23493185D01*
X7852230Y23489494D01*
X7852238Y23489489D01*
X7879032Y23481225D01*
X7908000Y23472289D01*
X7910195Y23471567D01*
X7965212Y23452315D01*
X7965216Y23452315D01*
X7973590Y23450731D01*
X7982007Y23449462D01*
X7982009Y23449461D01*
X8040333Y23449461D01*
X8042616Y23449419D01*
X8100921Y23447237D01*
X8110155Y23448277D01*
X8110248Y23447448D01*
X8125547Y23449461D01*
X11909140Y23449461D01*
X11976179Y23429776D01*
X12021934Y23376972D01*
X12031878Y23307814D01*
X12030757Y23301269D01*
X12024487Y23269750D01*
X12024487Y22836594D01*
X12004802Y22769555D01*
X11974799Y22737328D01*
X11867796Y22657225D01*
X11781636Y22542131D01*
X11781632Y22542124D01*
X11731390Y22407417D01*
X11731388Y22407410D01*
X11724987Y22347882D01*
X11724987Y22250037D01*
X12900987Y22250037D01*
X12968026Y22230352D01*
X13013781Y22177548D01*
X13024987Y22126037D01*
X13024987Y21200037D01*
X13163572Y21200037D01*
X13230611Y21180352D01*
X13276366Y21127548D01*
X13286310Y21058390D01*
X13257285Y20994834D01*
X13251253Y20988356D01*
X13035639Y20772741D01*
X12974316Y20739256D01*
X12947958Y20736422D01*
X12125230Y20736422D01*
X12066753Y20724791D01*
X12066752Y20724790D01*
X12000430Y20680475D01*
X11956115Y20614153D01*
X11956114Y20614152D01*
X11944483Y20555675D01*
X11944483Y19629012D01*
X11924798Y19561973D01*
X11920255Y19555381D01*
X11896247Y19522850D01*
X11892257Y19515302D01*
X11888569Y19507644D01*
X11871372Y19451895D01*
X11870648Y19449694D01*
X11851394Y19394665D01*
X11849812Y19386310D01*
X11848541Y19377870D01*
X11848541Y19319549D01*
X11848498Y19317264D01*
X11847871Y19300499D01*
X11846316Y19258959D01*
X11847357Y19249726D01*
X11846526Y19249633D01*
X11848541Y19234334D01*
X11848541Y17074499D01*
X11828856Y17007460D01*
X11776052Y16961705D01*
X11724541Y16950499D01*
X11326786Y16950499D01*
X11268309Y16938868D01*
X11268308Y16938867D01*
X11201986Y16894552D01*
X11157671Y16828230D01*
X11157670Y16828229D01*
X11146039Y16769752D01*
X11146039Y13930247D01*
X11157670Y13871770D01*
X11157671Y13871769D01*
X11201986Y13805447D01*
X11268308Y13761132D01*
X11268309Y13761131D01*
X11326786Y13749500D01*
X11326789Y13749499D01*
X11326791Y13749499D01*
X13271293Y13749499D01*
X13271294Y13749500D01*
X13286111Y13752447D01*
X13329772Y13761131D01*
X13329772Y13761132D01*
X13329774Y13761132D01*
X13396095Y13805447D01*
X13440410Y13871768D01*
X13440410Y13871770D01*
X13440411Y13871770D01*
X13452042Y13930247D01*
X13452043Y13930249D01*
X13452043Y16769750D01*
X13452042Y16769752D01*
X13440411Y16828229D01*
X13440410Y16828230D01*
X13396095Y16894552D01*
X13329773Y16938867D01*
X13329772Y16938868D01*
X13271295Y16950499D01*
X13271291Y16950499D01*
X12873541Y16950499D01*
X12806502Y16970184D01*
X12760747Y17022988D01*
X12749541Y17074499D01*
X12749541Y18861408D01*
X12769226Y18928447D01*
X12822030Y18974202D01*
X12873541Y18985408D01*
X13574741Y18985408D01*
X13574742Y18985409D01*
X13589559Y18988356D01*
X13633220Y18997040D01*
X13633220Y18997041D01*
X13633222Y18997041D01*
X13699543Y19041356D01*
X13743858Y19107677D01*
X13743857Y19107677D01*
X13746885Y19112207D01*
X13800498Y19157012D01*
X13869823Y19165719D01*
X13932850Y19135564D01*
X13953089Y19112207D01*
X14000430Y19041356D01*
X14066752Y18997041D01*
X14066753Y18997040D01*
X14125230Y18985409D01*
X14125233Y18985408D01*
X14125235Y18985408D01*
X15574741Y18985408D01*
X15574742Y18985409D01*
X15589559Y18988356D01*
X15633220Y18997040D01*
X15633220Y18997041D01*
X15633222Y18997041D01*
X15699543Y19041356D01*
X15743858Y19107677D01*
X15743858Y19107679D01*
X15743859Y19107679D01*
X15755490Y19166156D01*
X15755491Y19166158D01*
X15755491Y20073689D01*
X15775176Y20140728D01*
X15802181Y20170638D01*
X15808983Y20176062D01*
X15841878Y20224312D01*
X15843144Y20226096D01*
X15877806Y20273059D01*
X15877806Y20273062D01*
X15877808Y20273063D01*
X15881791Y20280600D01*
X15885481Y20288264D01*
X15885485Y20288268D01*
X15902690Y20344051D01*
X15903401Y20346207D01*
X15913346Y20374626D01*
X15922659Y20401241D01*
X15922659Y20401243D01*
X15924241Y20409605D01*
X15925513Y20418042D01*
X15925513Y20476363D01*
X15925555Y20478647D01*
X15927737Y20536951D01*
X15927736Y20536952D01*
X15926697Y20546180D01*
X15927526Y20546274D01*
X15925513Y20561575D01*
X15925513Y21375537D01*
X15945198Y21442576D01*
X15998002Y21488331D01*
X16038870Y21497222D01*
X16038701Y21498940D01*
X16044755Y21499537D01*
X16044761Y21499537D01*
X16059581Y21502485D01*
X16103242Y21511169D01*
X16103242Y21511170D01*
X16103244Y21511170D01*
X16169565Y21555485D01*
X16177428Y21567253D01*
X16220665Y21631960D01*
X16223381Y21630146D01*
X16254779Y21669108D01*
X16321072Y21691174D01*
X16388772Y21673896D01*
X16436383Y21622759D01*
X16449500Y21567253D01*
X16449500Y21232148D01*
X16449110Y21225210D01*
X16447502Y21210935D01*
X16444729Y21186329D01*
X16455571Y21129030D01*
X16455959Y21126746D01*
X16464652Y21069074D01*
X16467165Y21060928D01*
X16469976Y21052895D01*
X16478125Y21037476D01*
X16492495Y20979534D01*
X16492495Y20555376D01*
X16492496Y20555374D01*
X16504127Y20496897D01*
X16504128Y20496896D01*
X16548443Y20430574D01*
X16614765Y20386259D01*
X16614766Y20386258D01*
X16673243Y20374627D01*
X16673246Y20374626D01*
X16673248Y20374626D01*
X17576754Y20374626D01*
X17576755Y20374627D01*
X17591572Y20377574D01*
X17635233Y20386258D01*
X17635233Y20386259D01*
X17635235Y20386259D01*
X17701556Y20430574D01*
X17745871Y20496895D01*
X17745871Y20496897D01*
X17745872Y20496897D01*
X17756112Y20548382D01*
X17757504Y20555378D01*
X17757504Y21401352D01*
X17757504Y21401355D01*
X17757503Y21401357D01*
X17745872Y21459834D01*
X17745871Y21459835D01*
X17701556Y21526157D01*
X17635234Y21570472D01*
X17635233Y21570473D01*
X17576756Y21582104D01*
X17576752Y21582104D01*
X17474500Y21582104D01*
X17407461Y21601789D01*
X17361706Y21654593D01*
X17350500Y21706104D01*
X17350500Y21916518D01*
X17370185Y21983557D01*
X17386819Y22004199D01*
X17406532Y22023913D01*
X17406532Y22534353D01*
X17709657Y22534353D01*
X17709657Y22023913D01*
X17757485Y22023913D01*
X17757501Y22023914D01*
X17817029Y22030315D01*
X17817036Y22030317D01*
X17951743Y22080559D01*
X17951750Y22080563D01*
X18066844Y22166723D01*
X18066847Y22166726D01*
X18153007Y22281820D01*
X18153011Y22281827D01*
X18203253Y22416534D01*
X18203255Y22416541D01*
X18209656Y22476069D01*
X18209657Y22476086D01*
X18209657Y22534353D01*
X17709657Y22534353D01*
X17406532Y22534353D01*
X17406533Y23347917D01*
X17709657Y23347917D01*
X17709657Y22837477D01*
X18209657Y22837477D01*
X18209657Y22895745D01*
X18209656Y22895762D01*
X18203255Y22955290D01*
X18203253Y22955297D01*
X18153011Y23090004D01*
X18153007Y23090011D01*
X18066847Y23205105D01*
X18066844Y23205108D01*
X17951750Y23291268D01*
X17951743Y23291272D01*
X17817036Y23341514D01*
X17817029Y23341516D01*
X17757501Y23347917D01*
X17709657Y23347917D01*
X17406533Y23347917D01*
X17390480Y23363970D01*
X17378109Y23367602D01*
X17334853Y23417522D01*
X17334367Y23417264D01*
X17333257Y23419364D01*
X17332354Y23420406D01*
X17331229Y23423200D01*
X17330023Y23425481D01*
X17330023Y23425484D01*
X17302760Y23477064D01*
X17301727Y23479112D01*
X17293032Y23497168D01*
X17276425Y23531654D01*
X17276423Y23531656D01*
X17276423Y23531657D01*
X17271642Y23538670D01*
X17266566Y23545547D01*
X17266565Y23545550D01*
X17225345Y23586770D01*
X17223752Y23588422D01*
X17209597Y23603678D01*
X17184059Y23631203D01*
X17176792Y23636998D01*
X17177312Y23637651D01*
X17165067Y23647048D01*
X16613959Y24198156D01*
X16609322Y24203344D01*
X16584930Y24233931D01*
X16584929Y24233932D01*
X16584928Y24233933D01*
X16562024Y24249549D01*
X16536720Y24266800D01*
X16534854Y24268125D01*
X16487937Y24302751D01*
X16487933Y24302754D01*
X16487928Y24302756D01*
X16480348Y24306763D01*
X16472726Y24310433D01*
X16446532Y24318512D01*
X16388273Y24357082D01*
X16360115Y24421026D01*
X16370997Y24490043D01*
X16417466Y24542220D01*
X16483081Y24561003D01*
X16682918Y24561003D01*
X16682934Y24561004D01*
X16742462Y24567405D01*
X16742469Y24567407D01*
X16877176Y24617649D01*
X16877183Y24617653D01*
X16992277Y24703813D01*
X16992280Y24703816D01*
X17078440Y24818910D01*
X17078444Y24818917D01*
X17128686Y24953624D01*
X17128688Y24953631D01*
X17135089Y25013159D01*
X17135089Y25013176D01*
X17135090Y25674999D01*
X14650076Y25674999D01*
X14650076Y25013159D01*
X14656477Y24953631D01*
X14656479Y24953624D01*
X14706721Y24818917D01*
X14706725Y24818910D01*
X14792885Y24703816D01*
X14792888Y24703813D01*
X14914036Y24613121D01*
X14955907Y24557188D01*
X14960891Y24487496D01*
X14927405Y24426173D01*
X14866082Y24392689D01*
X14863920Y24392238D01*
X14846782Y24388829D01*
X14780460Y24344514D01*
X14736145Y24278192D01*
X14736144Y24278191D01*
X14724513Y24219714D01*
X14724512Y24219712D01*
X14724512Y23936901D01*
X14704827Y23869861D01*
X14652023Y23824106D01*
X14582865Y23814163D01*
X14519309Y23843188D01*
X14512831Y23849220D01*
X14163895Y24198156D01*
X14159258Y24203344D01*
X14134866Y24233931D01*
X14134865Y24233932D01*
X14134864Y24233933D01*
X14111960Y24249549D01*
X14086656Y24266800D01*
X14084790Y24268125D01*
X14037873Y24302751D01*
X14037869Y24302754D01*
X14037864Y24302756D01*
X14030284Y24306763D01*
X14022662Y24310433D01*
X13966928Y24327624D01*
X13964739Y24328344D01*
X13946284Y24334801D01*
X13909682Y24347609D01*
X13901313Y24349193D01*
X13892891Y24350461D01*
X13892889Y24350461D01*
X13834565Y24350461D01*
X13832281Y24350504D01*
X13808389Y24351398D01*
X13773976Y24352686D01*
X13764743Y24351645D01*
X13764649Y24352475D01*
X13749351Y24350461D01*
X13498253Y24350461D01*
X13431214Y24370146D01*
X13429391Y24371339D01*
X13403218Y24388828D01*
X13403216Y24388829D01*
X13403214Y24388830D01*
X13403216Y24388830D01*
X13344739Y24400461D01*
X13338675Y24401058D01*
X13338921Y24403564D01*
X13282448Y24420146D01*
X13236693Y24472950D01*
X13225487Y24524461D01*
X13225487Y24736503D01*
X13245172Y24803542D01*
X13297976Y24849297D01*
X13349487Y24860503D01*
X13469674Y24860503D01*
X13469675Y24860504D01*
X13484492Y24863451D01*
X13528153Y24872135D01*
X13528153Y24872136D01*
X13528155Y24872136D01*
X13594476Y24916451D01*
X13638791Y24982772D01*
X13638791Y24982774D01*
X13638792Y24982774D01*
X13650423Y25041251D01*
X13650424Y25041253D01*
X13650424Y26174999D01*
X14650076Y26174999D01*
X15642583Y26174999D01*
X16142582Y26174999D01*
X17135090Y26174999D01*
X17135089Y26836823D01*
X17135089Y26836840D01*
X17128688Y26896368D01*
X17128686Y26896375D01*
X17078444Y27031082D01*
X17078440Y27031089D01*
X16992280Y27146183D01*
X16992277Y27146186D01*
X16877183Y27232346D01*
X16877176Y27232350D01*
X16742469Y27282592D01*
X16742462Y27282594D01*
X16682934Y27288995D01*
X16142583Y27288995D01*
X16142582Y26174999D01*
X15642583Y26174999D01*
X15642583Y27288995D01*
X15102231Y27288995D01*
X15042703Y27282594D01*
X15042696Y27282592D01*
X14907989Y27232350D01*
X14907982Y27232346D01*
X14792888Y27146186D01*
X14792885Y27146183D01*
X14706725Y27031089D01*
X14706721Y27031082D01*
X14656479Y26896375D01*
X14656477Y26896368D01*
X14650076Y26836840D01*
X14650076Y26174999D01*
X13650424Y26174999D01*
X13650424Y26808746D01*
X13650423Y26808748D01*
X13638792Y26867225D01*
X13638791Y26867226D01*
X13594476Y26933548D01*
X13528154Y26977863D01*
X13528153Y26977864D01*
X13469676Y26989495D01*
X13469672Y26989495D01*
X11945162Y26989495D01*
X11945157Y26989495D01*
X11886680Y26977864D01*
X11886679Y26977863D01*
X11820357Y26933548D01*
X11776042Y26867226D01*
X11776041Y26867225D01*
X11764410Y26808748D01*
X11764410Y25041251D01*
X11776041Y24982774D01*
X11776042Y24982773D01*
X11820357Y24916451D01*
X11886679Y24872136D01*
X11886680Y24872135D01*
X11945157Y24860504D01*
X11945160Y24860503D01*
X11945162Y24860503D01*
X12200487Y24860503D01*
X12267526Y24840818D01*
X12313281Y24788014D01*
X12324487Y24736503D01*
X12324487Y24524461D01*
X12304802Y24457422D01*
X12251998Y24411667D01*
X12211129Y24402777D01*
X12211299Y24401058D01*
X12205234Y24400461D01*
X12146758Y24388830D01*
X12130724Y24378116D01*
X12120611Y24371359D01*
X12053935Y24350481D01*
X12051721Y24350461D01*
X8287877Y24350461D01*
X8220838Y24370146D01*
X8200196Y24386780D01*
X7748730Y24838246D01*
X7715245Y24899569D01*
X7720229Y24969261D01*
X7762101Y25025194D01*
X7827565Y25049611D01*
X7868505Y25045702D01*
X8030017Y25002425D01*
X8030023Y25002424D01*
X8249999Y24983178D01*
X8250001Y24983178D01*
X8469976Y25002424D01*
X8469986Y25002426D01*
X8683271Y25059575D01*
X8683285Y25059580D01*
X8883406Y25152898D01*
X8948187Y25198260D01*
X8344559Y25801888D01*
X8386284Y25808177D01*
X8510459Y25867976D01*
X8611492Y25961720D01*
X8680403Y26081079D01*
X8697512Y26156042D01*
X9301740Y25551813D01*
X9347102Y25616594D01*
X9440420Y25816715D01*
X9440425Y25816729D01*
X9497574Y26030014D01*
X9497576Y26030024D01*
X9516822Y26250000D01*
X9516822Y26250001D01*
X9497576Y26469977D01*
X9497574Y26469987D01*
X9440425Y26683272D01*
X9440420Y26683286D01*
X9347102Y26883407D01*
X9347101Y26883409D01*
X9301740Y26948189D01*
X8701167Y26347617D01*
X8700773Y26352886D01*
X8650420Y26481182D01*
X8564488Y26588938D01*
X8450613Y26666576D01*
X8345458Y26699013D01*
X8948188Y27301743D01*
X8883414Y27347099D01*
X8883406Y27347103D01*
X8683285Y27440421D01*
X8683271Y27440426D01*
X8469986Y27497575D01*
X8469976Y27497577D01*
X8250001Y27516822D01*
X8249999Y27516822D01*
X8030023Y27497577D01*
X8030013Y27497575D01*
X7816728Y27440426D01*
X7816719Y27440422D01*
X7616589Y27347100D01*
X7551810Y27301742D01*
X8155441Y26698113D01*
X8113716Y26691823D01*
X7989541Y26632024D01*
X7888508Y26538280D01*
X7819597Y26418921D01*
X7802487Y26343960D01*
X7198258Y26948190D01*
X7152900Y26883411D01*
X7059578Y26683281D01*
X7059574Y26683272D01*
X7002425Y26469987D01*
X7002423Y26469977D01*
X6983178Y26250001D01*
X6983178Y26250000D01*
X7002423Y26030024D01*
X7002425Y26030014D01*
X7045701Y25868504D01*
X7044038Y25798654D01*
X7004875Y25740792D01*
X6940647Y25713288D01*
X6871744Y25724875D01*
X6838245Y25748730D01*
X6710785Y25876190D01*
X6677300Y25937513D01*
X6679806Y25999868D01*
X6698447Y26061318D01*
X6706897Y26147114D01*
X6717031Y26250000D01*
X6698447Y26438683D01*
X6643410Y26620115D01*
X6643407Y26620119D01*
X6643407Y26620122D01*
X6554038Y26787319D01*
X6554034Y26787325D01*
X6536454Y26808746D01*
X6527507Y26819649D01*
X6433757Y26933885D01*
X6287197Y27054162D01*
X6287191Y27054166D01*
X6119994Y27143535D01*
X6119988Y27143537D01*
X5938556Y27198574D01*
X5938554Y27198575D01*
X5938552Y27198575D01*
X5749873Y27217158D01*
X5561193Y27198575D01*
X5379751Y27143535D01*
X5212554Y27054166D01*
X5212548Y27054162D01*
X5065988Y26933885D01*
X4945711Y26787325D01*
X4945707Y26787319D01*
X4856338Y26620122D01*
X4801298Y26438680D01*
X4782715Y26250000D01*
X4217158Y26250000D01*
X4198574Y26438683D01*
X4143537Y26620115D01*
X4143534Y26620119D01*
X4143534Y26620122D01*
X4054165Y26787319D01*
X4054161Y26787325D01*
X4036581Y26808746D01*
X4027634Y26819649D01*
X3933884Y26933885D01*
X3787324Y27054162D01*
X3787318Y27054166D01*
X3620121Y27143535D01*
X3620115Y27143537D01*
X3438683Y27198574D01*
X3438681Y27198575D01*
X3438679Y27198575D01*
X3250000Y27217158D01*
X3061320Y27198575D01*
X2879878Y27143535D01*
X2712681Y27054166D01*
X2712675Y27054162D01*
X2566115Y26933885D01*
X2445838Y26787325D01*
X2445834Y26787319D01*
X2356465Y26620122D01*
X2301425Y26438680D01*
X2282842Y26250000D01*
X2301425Y26061321D01*
X2301425Y26061319D01*
X2301426Y26061317D01*
X2331639Y25961720D01*
X2356465Y25879879D01*
X2445834Y25712682D01*
X2445838Y25712676D01*
X2566115Y25566116D01*
X2686393Y25467408D01*
X2712676Y25445838D01*
X2733950Y25434467D01*
X2783795Y25385508D01*
X2799500Y25325108D01*
X2799500Y21859363D01*
X2779815Y21792324D01*
X2733955Y21750006D01*
X2682805Y21722665D01*
X2536245Y21602388D01*
X2415968Y21455828D01*
X2415964Y21455822D01*
X2326595Y21288625D01*
X2271555Y21107183D01*
X2252972Y20918503D01*
X150500Y20918503D01*
X150500Y28749999D01*
X5119722Y28749999D01*
X5138762Y28593181D01*
X5193942Y28447686D01*
X5194780Y28445476D01*
X5284517Y28315469D01*
X5402760Y28210716D01*
X5402762Y28210715D01*
X5542634Y28137303D01*
X5696014Y28099499D01*
X5696015Y28099499D01*
X5853985Y28099499D01*
X6007365Y28137303D01*
X6007364Y28137303D01*
X6147240Y28210716D01*
X6265483Y28315469D01*
X6355220Y28445476D01*
X6411237Y28593181D01*
X6430278Y28749999D01*
X6411237Y28906817D01*
X6355220Y29054522D01*
X6265483Y29184529D01*
X6147240Y29289282D01*
X6147238Y29289283D01*
X6147237Y29289284D01*
X6007365Y29362696D01*
X5853986Y29400499D01*
X5853985Y29400499D01*
X5696015Y29400499D01*
X5696014Y29400499D01*
X5542634Y29362696D01*
X5402762Y29289284D01*
X5284516Y29184528D01*
X5194781Y29054524D01*
X5194780Y29054523D01*
X5138762Y28906818D01*
X5119722Y28750000D01*
X5119722Y28749999D01*
X150500Y28749999D01*
X150500Y42418503D01*
X2252972Y42418503D01*
X2271555Y42229824D01*
X2326595Y42048382D01*
X2415964Y41881185D01*
X2415968Y41881179D01*
X2536245Y41734619D01*
X2682804Y41614342D01*
X2685096Y41613117D01*
X2733952Y41587003D01*
X2783796Y41538042D01*
X2799499Y41477645D01*
X2799500Y37924894D01*
X2779815Y37857855D01*
X2733957Y37815538D01*
X2712675Y37804162D01*
X2566115Y37683885D01*
X2445838Y37537325D01*
X2445834Y37537319D01*
X2356465Y37370122D01*
X2301425Y37188680D01*
X2282842Y37000000D01*
X2301425Y36811321D01*
X2301425Y36811319D01*
X2301426Y36811317D01*
X2351439Y36646447D01*
X2356465Y36629879D01*
X2445834Y36462682D01*
X2445838Y36462676D01*
X2566115Y36316116D01*
X2652988Y36244822D01*
X2712676Y36195838D01*
X2733950Y36184467D01*
X2783795Y36135508D01*
X2799500Y36075108D01*
X2799500Y32593397D01*
X2779815Y32526358D01*
X2733957Y32484041D01*
X2712675Y32472665D01*
X2566115Y32352388D01*
X2445838Y32205828D01*
X2445834Y32205822D01*
X2356465Y32038625D01*
X2301425Y31857183D01*
X2282842Y31668504D01*
X2301425Y31479824D01*
X2301425Y31479822D01*
X2301426Y31479820D01*
X2356463Y31298388D01*
X2356465Y31298382D01*
X2445834Y31131185D01*
X2445838Y31131179D01*
X2566115Y30984619D01*
X2686393Y30885911D01*
X2712676Y30864341D01*
X2712678Y30864340D01*
X2712681Y30864338D01*
X2879878Y30774969D01*
X2879881Y30774969D01*
X2879885Y30774966D01*
X3061317Y30719929D01*
X3250000Y30701345D01*
X3438683Y30719929D01*
X3620115Y30774966D01*
X3626703Y30778487D01*
X3787318Y30864338D01*
X3787324Y30864341D01*
X3933884Y30984619D01*
X4054162Y31131179D01*
X4109779Y31235232D01*
X4143534Y31298382D01*
X4143534Y31298383D01*
X4143537Y31298388D01*
X4198574Y31479820D01*
X4217158Y31668503D01*
X4217158Y31668504D01*
X4782715Y31668504D01*
X4801298Y31479824D01*
X4801298Y31479822D01*
X4801299Y31479820D01*
X4856336Y31298388D01*
X4856338Y31298382D01*
X4945707Y31131185D01*
X4945711Y31131179D01*
X5065988Y30984619D01*
X5186266Y30885911D01*
X5212549Y30864341D01*
X5212551Y30864340D01*
X5212554Y30864338D01*
X5379751Y30774969D01*
X5379754Y30774969D01*
X5379758Y30774966D01*
X5561190Y30719929D01*
X5749873Y30701345D01*
X5938556Y30719929D01*
X6119988Y30774966D01*
X6126576Y30778487D01*
X6287191Y30864338D01*
X6287197Y30864341D01*
X6433757Y30984619D01*
X6554035Y31131179D01*
X6609652Y31235232D01*
X6643407Y31298382D01*
X6643407Y31298383D01*
X6643410Y31298388D01*
X6698447Y31479820D01*
X6717031Y31668503D01*
X6983178Y31668503D01*
X7002423Y31448527D01*
X7002425Y31448517D01*
X7059574Y31235232D01*
X7059579Y31235218D01*
X7152897Y31035097D01*
X7152901Y31035089D01*
X7198257Y30970315D01*
X7198258Y30970315D01*
X7798832Y31570889D01*
X7799227Y31565617D01*
X7849580Y31437321D01*
X7935512Y31329565D01*
X8049387Y31251927D01*
X8154540Y31219491D01*
X7551811Y30616763D01*
X7616591Y30571402D01*
X7616593Y30571401D01*
X7816714Y30478083D01*
X7816728Y30478078D01*
X8030013Y30420929D01*
X8030023Y30420927D01*
X8249999Y30401681D01*
X8250001Y30401681D01*
X8469976Y30420927D01*
X8469986Y30420929D01*
X8683271Y30478078D01*
X8683285Y30478083D01*
X8883406Y30571401D01*
X8948188Y30616763D01*
X8344560Y31220391D01*
X8386284Y31226680D01*
X8510459Y31286479D01*
X8611492Y31380223D01*
X8680403Y31499582D01*
X8697512Y31574544D01*
X9301740Y30970316D01*
X9347102Y31035097D01*
X9440420Y31235218D01*
X9440425Y31235232D01*
X9497574Y31448517D01*
X9497576Y31448527D01*
X9516822Y31668503D01*
X9516822Y31668504D01*
X9497576Y31888480D01*
X9497574Y31888490D01*
X9440425Y32101775D01*
X9440420Y32101789D01*
X9347102Y32301910D01*
X9347101Y32301912D01*
X9301740Y32366692D01*
X8701167Y31766120D01*
X8700773Y31771389D01*
X8650420Y31899685D01*
X8564488Y32007441D01*
X8450613Y32085079D01*
X8345459Y32117515D01*
X8948188Y32720245D01*
X8948188Y32720246D01*
X8883414Y32765602D01*
X8883406Y32765606D01*
X8683285Y32858924D01*
X8683271Y32858929D01*
X8469986Y32916078D01*
X8469976Y32916080D01*
X8250001Y32935325D01*
X8249999Y32935325D01*
X8030023Y32916080D01*
X8030013Y32916078D01*
X7816728Y32858929D01*
X7816719Y32858925D01*
X7616589Y32765603D01*
X7551810Y32720245D01*
X8155440Y32116616D01*
X8113716Y32110326D01*
X7989541Y32050527D01*
X7888508Y31956783D01*
X7819597Y31837424D01*
X7802487Y31762464D01*
X7198258Y32366693D01*
X7152900Y32301914D01*
X7059578Y32101784D01*
X7059574Y32101775D01*
X7002425Y31888490D01*
X7002423Y31888480D01*
X6983178Y31668504D01*
X6983178Y31668503D01*
X6717031Y31668503D01*
X6698447Y31857186D01*
X6643410Y32038618D01*
X6643407Y32038622D01*
X6643407Y32038625D01*
X6554038Y32205822D01*
X6554034Y32205828D01*
X6433757Y32352388D01*
X6287197Y32472665D01*
X6287191Y32472669D01*
X6119994Y32562038D01*
X6119988Y32562040D01*
X5938556Y32617077D01*
X5938554Y32617078D01*
X5938552Y32617078D01*
X5776249Y32633064D01*
X5749873Y32635661D01*
X5749872Y32635661D01*
X5561193Y32617078D01*
X5379751Y32562038D01*
X5212554Y32472669D01*
X5212548Y32472665D01*
X5065988Y32352388D01*
X4945711Y32205828D01*
X4945707Y32205822D01*
X4856338Y32038625D01*
X4801298Y31857183D01*
X4782715Y31668504D01*
X4217158Y31668504D01*
X4198574Y31857186D01*
X4143537Y32038618D01*
X4143534Y32038622D01*
X4143534Y32038625D01*
X4054165Y32205822D01*
X4054161Y32205828D01*
X3933884Y32352388D01*
X3787324Y32472665D01*
X3787321Y32472667D01*
X3766043Y32484041D01*
X3716200Y32533005D01*
X3700499Y32593398D01*
X3700499Y34249999D01*
X5169722Y34249999D01*
X5188762Y34093181D01*
X5242891Y33950456D01*
X5244780Y33945476D01*
X5334517Y33815469D01*
X5452760Y33710716D01*
X5452762Y33710715D01*
X5592634Y33637303D01*
X5746014Y33599499D01*
X5746015Y33599499D01*
X5903985Y33599499D01*
X6057365Y33637303D01*
X6067837Y33642799D01*
X6197240Y33710716D01*
X6315483Y33815469D01*
X6405220Y33945476D01*
X6461237Y34093181D01*
X6480278Y34249999D01*
X6480193Y34250704D01*
X6461237Y34406818D01*
X6405806Y34552976D01*
X6405220Y34554522D01*
X6315483Y34684529D01*
X6197240Y34789282D01*
X6197238Y34789283D01*
X6197237Y34789284D01*
X6057365Y34862696D01*
X5903986Y34900499D01*
X5903985Y34900499D01*
X5746015Y34900499D01*
X5746014Y34900499D01*
X5592634Y34862696D01*
X5452762Y34789284D01*
X5334516Y34684528D01*
X5244781Y34554524D01*
X5244780Y34554523D01*
X5188762Y34406818D01*
X5169722Y34250000D01*
X5169722Y34249999D01*
X3700499Y34249999D01*
X3700499Y36075107D01*
X3720184Y36142146D01*
X3766048Y36184466D01*
X3766052Y36184468D01*
X3787324Y36195838D01*
X3933884Y36316116D01*
X4054162Y36462676D01*
X4124568Y36594396D01*
X4143534Y36629879D01*
X4143534Y36629880D01*
X4143537Y36629885D01*
X4198574Y36811317D01*
X4217158Y37000000D01*
X4782715Y37000000D01*
X4801298Y36811321D01*
X4801298Y36811319D01*
X4801299Y36811317D01*
X4851312Y36646447D01*
X4856338Y36629879D01*
X4945707Y36462682D01*
X4945711Y36462676D01*
X5065988Y36316116D01*
X5152861Y36244822D01*
X5212549Y36195838D01*
X5212551Y36195837D01*
X5212554Y36195835D01*
X5379751Y36106466D01*
X5379754Y36106466D01*
X5379758Y36106463D01*
X5561190Y36051426D01*
X5749873Y36032842D01*
X5938556Y36051426D01*
X6119988Y36106463D01*
X6174328Y36135508D01*
X6203592Y36151151D01*
X6287197Y36195838D01*
X6433757Y36316116D01*
X6554035Y36462676D01*
X6624441Y36594396D01*
X6643407Y36629879D01*
X6643407Y36629880D01*
X6643410Y36629885D01*
X6698447Y36811317D01*
X6717031Y37000000D01*
X6983178Y37000000D01*
X7002423Y36780024D01*
X7002425Y36780014D01*
X7059574Y36566729D01*
X7059579Y36566715D01*
X7152897Y36366594D01*
X7152901Y36366586D01*
X7198257Y36301812D01*
X7198258Y36301812D01*
X7798832Y36902386D01*
X7799227Y36897114D01*
X7849580Y36768818D01*
X7935512Y36661062D01*
X8049387Y36583424D01*
X8154540Y36550988D01*
X7551811Y35948260D01*
X7616591Y35902899D01*
X7616593Y35902898D01*
X7816714Y35809580D01*
X7816728Y35809575D01*
X8030013Y35752426D01*
X8030023Y35752424D01*
X8249999Y35733178D01*
X8250001Y35733178D01*
X8469976Y35752424D01*
X8469986Y35752426D01*
X8683271Y35809575D01*
X8683285Y35809580D01*
X8883406Y35902898D01*
X8948188Y35948260D01*
X8344560Y36551888D01*
X8386284Y36558177D01*
X8510459Y36617976D01*
X8611492Y36711720D01*
X8680403Y36831079D01*
X8697512Y36906041D01*
X9301740Y36301813D01*
X9347102Y36366594D01*
X9440420Y36566715D01*
X9440425Y36566729D01*
X9497574Y36780014D01*
X9497576Y36780024D01*
X9516822Y37000000D01*
X9516822Y37000001D01*
X9497576Y37219977D01*
X9497574Y37219987D01*
X9440425Y37433272D01*
X9440420Y37433286D01*
X9347102Y37633407D01*
X9347101Y37633409D01*
X9301740Y37698189D01*
X8701167Y37097617D01*
X8700773Y37102886D01*
X8650420Y37231182D01*
X8564488Y37338938D01*
X8450613Y37416576D01*
X8345459Y37449012D01*
X8948188Y38051742D01*
X8948188Y38051743D01*
X8883414Y38097099D01*
X8883406Y38097103D01*
X8683285Y38190421D01*
X8683271Y38190426D01*
X8469986Y38247575D01*
X8469976Y38247577D01*
X8250001Y38266822D01*
X8249999Y38266822D01*
X8030023Y38247577D01*
X8030013Y38247575D01*
X7816728Y38190426D01*
X7816719Y38190422D01*
X7616589Y38097100D01*
X7551810Y38051742D01*
X8155440Y37448113D01*
X8113716Y37441823D01*
X7989541Y37382024D01*
X7888508Y37288280D01*
X7819597Y37168921D01*
X7802487Y37093961D01*
X7198258Y37698190D01*
X7152900Y37633411D01*
X7059578Y37433281D01*
X7059574Y37433272D01*
X7002425Y37219987D01*
X7002423Y37219977D01*
X6983178Y37000001D01*
X6983178Y37000000D01*
X6717031Y37000000D01*
X6698447Y37188683D01*
X6643410Y37370115D01*
X6643407Y37370119D01*
X6643407Y37370122D01*
X6554038Y37537319D01*
X6554034Y37537325D01*
X6433757Y37683885D01*
X6287197Y37804162D01*
X6287191Y37804166D01*
X6119994Y37893535D01*
X6119988Y37893537D01*
X5938556Y37948574D01*
X5938554Y37948575D01*
X5938552Y37948575D01*
X5776249Y37964561D01*
X5749873Y37967158D01*
X5749872Y37967158D01*
X5561193Y37948575D01*
X5379751Y37893535D01*
X5212554Y37804166D01*
X5212548Y37804162D01*
X5065988Y37683885D01*
X4945711Y37537325D01*
X4945707Y37537319D01*
X4856338Y37370122D01*
X4801298Y37188680D01*
X4782715Y37000000D01*
X4217158Y37000000D01*
X4198574Y37188683D01*
X4143537Y37370115D01*
X4143534Y37370119D01*
X4143534Y37370122D01*
X4054165Y37537319D01*
X4054161Y37537325D01*
X3933884Y37683885D01*
X3787324Y37804162D01*
X3787321Y37804164D01*
X3766043Y37815538D01*
X3716200Y37864502D01*
X3700499Y37924895D01*
X3700499Y39799999D01*
X5119722Y39799999D01*
X5138762Y39643181D01*
X5152413Y39607188D01*
X5194780Y39495476D01*
X5284517Y39365469D01*
X5402760Y39260716D01*
X5402762Y39260715D01*
X5542634Y39187303D01*
X5696014Y39149499D01*
X5696015Y39149499D01*
X5853985Y39149499D01*
X6007365Y39187303D01*
X6007364Y39187304D01*
X6147240Y39260716D01*
X6265483Y39365469D01*
X6355220Y39495476D01*
X6411237Y39643181D01*
X6430278Y39799999D01*
X6411237Y39956817D01*
X6409729Y39960792D01*
X6382137Y40033547D01*
X6355220Y40104522D01*
X6265483Y40234529D01*
X6147240Y40339282D01*
X6147238Y40339283D01*
X6147237Y40339284D01*
X6007365Y40412696D01*
X5853986Y40450499D01*
X5853985Y40450499D01*
X5696015Y40450499D01*
X5696014Y40450499D01*
X5542634Y40412696D01*
X5402762Y40339284D01*
X5402759Y40339282D01*
X5402760Y40339282D01*
X5297766Y40246266D01*
X5284516Y40234528D01*
X5194781Y40104524D01*
X5194780Y40104523D01*
X5138762Y39956818D01*
X5119722Y39800000D01*
X5119722Y39799999D01*
X3700499Y39799999D01*
X3700499Y41510007D01*
X3720184Y41577046D01*
X3752873Y41610321D01*
X3752745Y41610477D01*
X3754197Y41611670D01*
X3755620Y41613117D01*
X3757448Y41614338D01*
X3757454Y41614341D01*
X3904014Y41734619D01*
X4024292Y41881179D01*
X4113667Y42048388D01*
X4168704Y42229820D01*
X4187288Y42418503D01*
X4187288Y42418504D01*
X4752845Y42418504D01*
X4771428Y42229824D01*
X4826468Y42048382D01*
X4915837Y41881185D01*
X4915841Y41881179D01*
X5036118Y41734619D01*
X5156396Y41635911D01*
X5182679Y41614341D01*
X5182681Y41614340D01*
X5182684Y41614338D01*
X5349881Y41524969D01*
X5349884Y41524969D01*
X5349888Y41524966D01*
X5531320Y41469929D01*
X5720003Y41451345D01*
X5908686Y41469929D01*
X6090118Y41524966D01*
X6114582Y41538042D01*
X6257321Y41614338D01*
X6257327Y41614341D01*
X6403887Y41734619D01*
X6524165Y41881179D01*
X6613540Y42048388D01*
X6668577Y42229820D01*
X6687161Y42418503D01*
X6953308Y42418503D01*
X6972553Y42198527D01*
X6972555Y42198517D01*
X7029704Y41985232D01*
X7029709Y41985218D01*
X7123027Y41785097D01*
X7123031Y41785089D01*
X7168387Y41720315D01*
X7168388Y41720315D01*
X7768962Y42320889D01*
X7769357Y42315617D01*
X7819710Y42187321D01*
X7905642Y42079565D01*
X8019517Y42001927D01*
X8124670Y41969491D01*
X7521941Y41366763D01*
X7586721Y41321402D01*
X7586723Y41321401D01*
X7786844Y41228083D01*
X7786858Y41228078D01*
X8000143Y41170929D01*
X8000153Y41170927D01*
X8220129Y41151681D01*
X8220131Y41151681D01*
X8440106Y41170927D01*
X8440116Y41170929D01*
X8653401Y41228078D01*
X8653415Y41228083D01*
X8853536Y41321401D01*
X8918318Y41366763D01*
X8314690Y41970391D01*
X8356414Y41976680D01*
X8480589Y42036479D01*
X8581622Y42130223D01*
X8650533Y42249582D01*
X8667642Y42324544D01*
X9271870Y41720316D01*
X9317232Y41785097D01*
X9410550Y41985218D01*
X9410555Y41985232D01*
X9467704Y42198517D01*
X9467706Y42198527D01*
X9486952Y42418503D01*
X9486952Y42418504D01*
X9467706Y42638480D01*
X9467704Y42638490D01*
X9410555Y42851775D01*
X9410550Y42851789D01*
X9317232Y43051910D01*
X9317231Y43051912D01*
X9271870Y43116692D01*
X8671297Y42516120D01*
X8670903Y42521389D01*
X8620550Y42649685D01*
X8534618Y42757441D01*
X8420743Y42835079D01*
X8315589Y42867515D01*
X8918318Y43470245D01*
X8918318Y43470246D01*
X8853544Y43515602D01*
X8853536Y43515606D01*
X8653415Y43608924D01*
X8653401Y43608929D01*
X8440116Y43666078D01*
X8440106Y43666080D01*
X8220131Y43685325D01*
X8220129Y43685325D01*
X8000153Y43666080D01*
X8000143Y43666078D01*
X7786858Y43608929D01*
X7786849Y43608925D01*
X7586719Y43515603D01*
X7521940Y43470245D01*
X8125570Y42866616D01*
X8083846Y42860326D01*
X7959671Y42800527D01*
X7858638Y42706783D01*
X7789727Y42587424D01*
X7772617Y42512464D01*
X7168388Y43116693D01*
X7123030Y43051914D01*
X7029708Y42851784D01*
X7029704Y42851775D01*
X6972555Y42638490D01*
X6972553Y42638480D01*
X6953308Y42418504D01*
X6953308Y42418503D01*
X6687161Y42418503D01*
X6668577Y42607186D01*
X6613540Y42788618D01*
X6613537Y42788622D01*
X6613537Y42788625D01*
X6524168Y42955822D01*
X6524164Y42955828D01*
X6403887Y43102388D01*
X6257327Y43222665D01*
X6257321Y43222669D01*
X6090124Y43312038D01*
X6090118Y43312040D01*
X5908686Y43367077D01*
X5908684Y43367078D01*
X5908682Y43367078D01*
X5720003Y43385661D01*
X5531323Y43367078D01*
X5349881Y43312038D01*
X5182684Y43222669D01*
X5182678Y43222665D01*
X5036118Y43102388D01*
X4915841Y42955828D01*
X4915837Y42955822D01*
X4826468Y42788625D01*
X4771428Y42607183D01*
X4752845Y42418504D01*
X4187288Y42418504D01*
X4168704Y42607186D01*
X4113667Y42788618D01*
X4113664Y42788622D01*
X4113664Y42788625D01*
X4024295Y42955822D01*
X4024291Y42955828D01*
X3904014Y43102388D01*
X3757454Y43222665D01*
X3757448Y43222669D01*
X3590251Y43312038D01*
X3590245Y43312040D01*
X3408813Y43367077D01*
X3408811Y43367078D01*
X3408809Y43367078D01*
X3246506Y43383064D01*
X3220130Y43385661D01*
X3220129Y43385661D01*
X3031450Y43367078D01*
X2850008Y43312038D01*
X2682811Y43222669D01*
X2682805Y43222665D01*
X2536245Y43102388D01*
X2415968Y42955828D01*
X2415964Y42955822D01*
X2326595Y42788625D01*
X2271555Y42607183D01*
X2252972Y42418503D01*
X150500Y42418503D01*
X150500Y46179997D01*
X5404387Y46179997D01*
X5424669Y45974065D01*
X5440902Y45920551D01*
X5484738Y45776043D01*
X5582285Y45593547D01*
X5582287Y45593545D01*
X5713559Y45433587D01*
X5810179Y45354295D01*
X5873520Y45302312D01*
X6056016Y45204765D01*
X6254036Y45144697D01*
X6254035Y45144697D01*
X6269631Y45143161D01*
X6459970Y45124414D01*
X6665904Y45144697D01*
X6863924Y45204765D01*
X7046420Y45302312D01*
X7206380Y45433587D01*
X7337655Y45593547D01*
X7435202Y45776043D01*
X7495270Y45974063D01*
X7515553Y46179997D01*
X7495270Y46385931D01*
X7435202Y46583951D01*
X7337655Y46766447D01*
X7285672Y46829788D01*
X7206380Y46926408D01*
X7056091Y47049745D01*
X7046420Y47057682D01*
X6863924Y47155229D01*
X6665904Y47215297D01*
X6665902Y47215298D01*
X6665904Y47215298D01*
X6459970Y47235580D01*
X6254037Y47215298D01*
X6056013Y47155228D01*
X5968084Y47108228D01*
X5873520Y47057682D01*
X5873518Y47057681D01*
X5873517Y47057680D01*
X5713559Y46926408D01*
X5582287Y46766450D01*
X5484739Y46583954D01*
X5424669Y46385930D01*
X5404387Y46179997D01*
X150500Y46179997D01*
X150500Y47510000D01*
X1334532Y47510000D01*
X1354364Y47283315D01*
X1354366Y47283304D01*
X1413258Y47063513D01*
X1413261Y47063504D01*
X1509431Y46857269D01*
X1509432Y46857267D01*
X1639954Y46670860D01*
X1800858Y46509956D01*
X1800861Y46509954D01*
X1987266Y46379433D01*
X2193504Y46283262D01*
X2413308Y46224366D01*
X2575230Y46210200D01*
X2639998Y46204533D01*
X2640000Y46204533D01*
X2640002Y46204533D01*
X2696672Y46209492D01*
X2866692Y46224366D01*
X3086496Y46283262D01*
X3292734Y46379433D01*
X3479139Y46509954D01*
X3640047Y46670862D01*
X3770568Y46857267D01*
X3866739Y47063505D01*
X3925635Y47283309D01*
X3945468Y47510001D01*
X3944372Y47522524D01*
X3931958Y47664421D01*
X3925635Y47736693D01*
X3880916Y47903586D01*
X3866741Y47956490D01*
X3866738Y47956499D01*
X3832214Y48030535D01*
X3770568Y48162735D01*
X3640047Y48349140D01*
X3640045Y48349143D01*
X3479141Y48510047D01*
X3292734Y48640569D01*
X3292732Y48640570D01*
X3086497Y48736740D01*
X3086488Y48736743D01*
X2866697Y48795635D01*
X2866693Y48795636D01*
X2866692Y48795636D01*
X2866691Y48795637D01*
X2866686Y48795637D01*
X2640002Y48815469D01*
X2639998Y48815469D01*
X2413313Y48795637D01*
X2413302Y48795635D01*
X2193511Y48736743D01*
X2193502Y48736740D01*
X1987267Y48640570D01*
X1987265Y48640569D01*
X1800858Y48510047D01*
X1639954Y48349143D01*
X1509432Y48162736D01*
X1509431Y48162734D01*
X1413261Y47956499D01*
X1413258Y47956490D01*
X1354366Y47736699D01*
X1354364Y47736688D01*
X1334532Y47510003D01*
X1334532Y47510000D01*
X150500Y47510000D01*
X150500Y48030535D01*
X153656Y48058334D01*
X209146Y48299549D01*
X211071Y48306193D01*
X297734Y48552781D01*
X300393Y48559178D01*
X339692Y48640569D01*
X414039Y48794550D01*
X417395Y48800608D01*
X435486Y48829355D01*
X556601Y49021816D01*
X560618Y49027472D01*
X590376Y49064760D01*
X723649Y49231763D01*
X728252Y49236913D01*
X913087Y49421748D01*
X918241Y49426354D01*
X968438Y49466413D01*
X1122534Y49589387D01*
X1128185Y49593400D01*
X1203007Y49640485D01*
X1349403Y49732612D01*
X1355443Y49735957D01*
X1590832Y49849612D01*
X1597216Y49852265D01*
X1843801Y49938928D01*
X1850453Y49940855D01*
X2091669Y49996345D01*
X2119469Y49999501D01*
X6223108Y49999501D01*
X6290147Y49979816D01*
G37*
G04 #@! TD.AperFunction*
M02*
