G04 #@! TF.GenerationSoftware,KiCad,Pcbnew,7.0.5-0*
G04 #@! TF.CreationDate,2024-12-03T11:17:58-08:00*
G04 #@! TF.ProjectId,MilkVHat,4d696c6b-5648-4617-942e-6b696361645f,rev?*
G04 #@! TF.SameCoordinates,PX5f5e100PY5f5e100*
G04 #@! TF.FileFunction,Profile,NP*
%FSLAX46Y46*%
G04 Gerber Fmt 4.6, Leading zero omitted, Abs format (unit mm)*
G04 Created by KiCad (PCBNEW 7.0.5-0) date 2024-12-03 11:17:58*
%MOMM*%
%LPD*%
G01*
G04 APERTURE LIST*
G04 #@! TA.AperFunction,Profile*
%ADD10C,0.100000*%
G04 #@! TD*
G04 APERTURE END LIST*
D10*
X3890000Y47510001D02*
G75*
G03*
X3890000Y47510001I-1250000J0D01*
G01*
X42280000Y44138500D02*
G75*
G03*
X43280000Y45138501I0J1000000D01*
G01*
X25780000Y16060011D02*
X25780000Y39138501D01*
X100000Y48050000D02*
X100000Y2050001D01*
X15414286Y43138501D02*
X15414286Y41138501D01*
X43280000Y2050001D02*
X43280000Y14060011D01*
X2100001Y50049999D02*
G75*
G03*
X100001Y48050000I414999J-2414999D01*
G01*
X41280000Y50000D02*
G75*
G03*
X43280000Y2050001I0J2000000D01*
G01*
X43280000Y48050000D02*
G75*
G03*
X41279999Y50050000I-2183300J-183300D01*
G01*
X3890000Y9410001D02*
G75*
G03*
X3890000Y9410001I-1250000J0D01*
G01*
X25780001Y39138501D02*
G75*
G03*
X24780000Y40138501I-1000001J-1D01*
G01*
X16414286Y44138501D02*
X42280000Y44138501D01*
X2100000Y50001D02*
X41280000Y50001D01*
X15414301Y41138501D02*
G75*
G03*
X16414286Y40138501I999999J-1D01*
G01*
X41990000Y47510001D02*
G75*
G03*
X41990000Y47510001I-1250000J0D01*
G01*
X42280000Y15060011D02*
X26780000Y15060011D01*
X100001Y2050001D02*
G75*
G03*
X2100000Y50001I1999999J-1D01*
G01*
X16414286Y40138501D02*
X24780000Y40138501D01*
X25780011Y16060011D02*
G75*
G03*
X26780000Y15060011I999989J-11D01*
G01*
X43280000Y45138501D02*
X43280000Y48050000D01*
X43280011Y14060011D02*
G75*
G03*
X42280000Y15060011I-1000011J-11D01*
G01*
X16414286Y44138514D02*
G75*
G03*
X15414286Y43138501I14J-1000014D01*
G01*
X41990000Y9410001D02*
G75*
G03*
X41990000Y9410001I-1250000J0D01*
G01*
X2100001Y50050001D02*
X41279999Y50050001D01*
M02*
