G04 #@! TF.GenerationSoftware,KiCad,Pcbnew,7.0.5-0*
G04 #@! TF.CreationDate,2024-12-03T11:17:58-08:00*
G04 #@! TF.ProjectId,MilkVHat,4d696c6b-5648-4617-942e-6b696361645f,rev?*
G04 #@! TF.SameCoordinates,PX5f5e100PY5f5e100*
G04 #@! TF.FileFunction,Soldermask,Top*
G04 #@! TF.FilePolarity,Negative*
%FSLAX46Y46*%
G04 Gerber Fmt 4.6, Leading zero omitted, Abs format (unit mm)*
G04 Created by KiCad (PCBNEW 7.0.5-0) date 2024-12-03 11:17:58*
%MOMM*%
%LPD*%
G01*
G04 APERTURE LIST*
%ADD10C,1.600000*%
%ADD11R,1.000000X5.500000*%
%ADD12R,1.600000X3.000000*%
%ADD13C,1.524003*%
%ADD14R,1.700000X1.700000*%
%ADD15C,1.700000*%
G04 APERTURE END LIST*
D10*
X39675000Y2699999D03*
X37675000Y2699999D03*
X35675000Y2699999D03*
X33675000Y2699999D03*
X18475000Y2699999D03*
X16475000Y2699999D03*
X14475000Y2699999D03*
X12475000Y2699999D03*
X29075000Y2699999D03*
X27075000Y2699999D03*
X25075000Y2699999D03*
X23075000Y2699999D03*
D11*
X19974975Y18387019D03*
X17975000Y18385495D03*
X15974975Y18385495D03*
D12*
X13574924Y16137083D03*
X22375025Y16137083D03*
D13*
X8250000Y26250000D03*
X5749873Y26250000D03*
X3250000Y26250000D03*
D10*
X23400000Y36900000D03*
X21400000Y36900000D03*
D13*
X8220130Y20918503D03*
X5720003Y20918503D03*
X3220130Y20918503D03*
X8220130Y42418503D03*
X5720003Y42418503D03*
X3220130Y42418503D03*
D11*
X15925025Y27137541D03*
X17925000Y27139065D03*
X19925025Y27139065D03*
D12*
X22325076Y29387477D03*
X13524975Y29387477D03*
D13*
X8225000Y15500000D03*
X5724873Y15500000D03*
X3225000Y15500000D03*
X8250000Y37000000D03*
X5749873Y37000000D03*
X3250000Y37000000D03*
X18000000Y36149999D03*
X15459995Y33609993D03*
X12919990Y36149999D03*
X8250000Y31668503D03*
X5749873Y31668503D03*
X3250000Y31668503D03*
D14*
X36940030Y46179997D03*
D15*
X36940030Y48720003D03*
X34400025Y46179997D03*
X34400025Y48720003D03*
X31860020Y46179997D03*
X31860020Y48720003D03*
X29320015Y46179997D03*
X29320015Y48720003D03*
X26780010Y46179997D03*
X26780010Y48720003D03*
X24240005Y46179997D03*
X24240005Y48720003D03*
X21700000Y46179997D03*
X21700000Y48720003D03*
X19159995Y46179997D03*
X19159995Y48720003D03*
X16619990Y46179997D03*
X16619990Y48720003D03*
X14079985Y46179997D03*
X14079985Y48720003D03*
X11539980Y46179997D03*
X11539980Y48720003D03*
X8999975Y46179997D03*
X8999975Y48720003D03*
X6459970Y46179997D03*
X6459970Y48720003D03*
D14*
X36940030Y8129997D03*
D15*
X36940030Y10670003D03*
X34400025Y8129997D03*
X34400025Y10670003D03*
X31860020Y8129997D03*
X31860020Y10670003D03*
X29320015Y8129997D03*
X29320015Y10670003D03*
X26780010Y8129997D03*
X26780010Y10670003D03*
X24240005Y8129997D03*
X24240005Y10670003D03*
X21700000Y8129997D03*
X21700000Y10670003D03*
X19159995Y8129997D03*
X19159995Y10670003D03*
X16619990Y8129997D03*
X16619990Y10670003D03*
X14079985Y8129997D03*
X14079985Y10670003D03*
X11539980Y8129997D03*
X11539980Y10670003D03*
X8999975Y8129997D03*
X8999975Y10670003D03*
X6459970Y8129997D03*
X6459970Y10670003D03*
M02*
