G04 #@! TF.GenerationSoftware,KiCad,Pcbnew,7.0.5-0*
G04 #@! TF.CreationDate,2024-12-03T11:17:58-08:00*
G04 #@! TF.ProjectId,MilkVHat,4d696c6b-5648-4617-942e-6b696361645f,rev?*
G04 #@! TF.SameCoordinates,PX5f5e100PY5f5e100*
G04 #@! TF.FileFunction,Legend,Top*
G04 #@! TF.FilePolarity,Positive*
%FSLAX46Y46*%
G04 Gerber Fmt 4.6, Leading zero omitted, Abs format (unit mm)*
G04 Created by KiCad (PCBNEW 7.0.5-0) date 2024-12-03 11:17:58*
%MOMM*%
%LPD*%
G01*
G04 APERTURE LIST*
%ADD10C,0.120000*%
%ADD11C,0.100000*%
%ADD12C,0.300000*%
%ADD13C,0.150000*%
%ADD14C,0.110000*%
%ADD15C,0.254000*%
%ADD16C,0.059995*%
G04 APERTURE END LIST*
D10*
X25081250Y13799999D02*
X23625000Y13799999D01*
X23500000Y13724999D02*
X23750000Y13974999D01*
X25075000Y13649999D02*
X23625000Y13649999D01*
X23500000Y13724999D02*
X23750000Y13474999D01*
D11*
X21300000Y26250000D02*
X21450000Y26100000D01*
X21850000Y26250000D02*
X21850000Y25700000D01*
D12*
X11300000Y13300000D02*
X11300000Y26925000D01*
D11*
X21300000Y26250000D02*
X21300000Y25700000D01*
D10*
X14850000Y40999999D02*
X14850000Y40199999D01*
X14850000Y40200000D02*
X15250000Y40550000D01*
D11*
X21850000Y26250000D02*
X22000000Y26100000D01*
X21150000Y26100000D02*
X21300000Y26250000D01*
D10*
X14849999Y41000000D02*
G75*
G03*
X14268793Y41806380I-849999J0D01*
G01*
D12*
X11300000Y29575000D02*
X11300000Y43200000D01*
D10*
X14850000Y40200000D02*
X14450000Y40550000D01*
D11*
X21700000Y26100000D02*
X21850000Y26250000D01*
D10*
X14450000Y40550000D02*
X14850000Y40200000D01*
D11*
X1204612Y43950425D02*
X881363Y43627176D01*
X1042987Y43788800D02*
X477302Y44354486D01*
X477302Y44354486D02*
X504239Y44219799D01*
X504239Y44219799D02*
X504239Y44112049D01*
X504239Y44112049D02*
X477302Y44031237D01*
X10581265Y6003104D02*
X10581265Y6803104D01*
X10962217Y6003104D02*
X10962217Y6803104D01*
X10962217Y6803104D02*
X11228883Y6231676D01*
X11228883Y6231676D02*
X11495550Y6803104D01*
X11495550Y6803104D02*
X11495550Y6003104D01*
X11876503Y6803104D02*
X11876503Y6155485D01*
X11876503Y6155485D02*
X11914598Y6079295D01*
X11914598Y6079295D02*
X11952693Y6041199D01*
X11952693Y6041199D02*
X12028884Y6003104D01*
X12028884Y6003104D02*
X12181265Y6003104D01*
X12181265Y6003104D02*
X12257455Y6041199D01*
X12257455Y6041199D02*
X12295550Y6079295D01*
X12295550Y6079295D02*
X12333646Y6155485D01*
X12333646Y6155485D02*
X12333646Y6803104D01*
X13324122Y6079295D02*
X13362217Y6041199D01*
X13362217Y6041199D02*
X13324122Y6003104D01*
X13324122Y6003104D02*
X13286026Y6041199D01*
X13286026Y6041199D02*
X13324122Y6079295D01*
X13324122Y6079295D02*
X13324122Y6003104D01*
X13324122Y6307866D02*
X13286026Y6765009D01*
X13286026Y6765009D02*
X13324122Y6803104D01*
X13324122Y6803104D02*
X13362217Y6765009D01*
X13362217Y6765009D02*
X13324122Y6307866D01*
X13324122Y6307866D02*
X13324122Y6803104D01*
X14695550Y6803104D02*
X14314598Y6803104D01*
X14314598Y6803104D02*
X14276502Y6422152D01*
X14276502Y6422152D02*
X14314598Y6460247D01*
X14314598Y6460247D02*
X14390788Y6498342D01*
X14390788Y6498342D02*
X14581264Y6498342D01*
X14581264Y6498342D02*
X14657455Y6460247D01*
X14657455Y6460247D02*
X14695550Y6422152D01*
X14695550Y6422152D02*
X14733645Y6345961D01*
X14733645Y6345961D02*
X14733645Y6155485D01*
X14733645Y6155485D02*
X14695550Y6079295D01*
X14695550Y6079295D02*
X14657455Y6041199D01*
X14657455Y6041199D02*
X14581264Y6003104D01*
X14581264Y6003104D02*
X14390788Y6003104D01*
X14390788Y6003104D02*
X14314598Y6041199D01*
X14314598Y6041199D02*
X14276502Y6079295D01*
X15076503Y6079295D02*
X15114598Y6041199D01*
X15114598Y6041199D02*
X15076503Y6003104D01*
X15076503Y6003104D02*
X15038407Y6041199D01*
X15038407Y6041199D02*
X15076503Y6079295D01*
X15076503Y6079295D02*
X15076503Y6003104D01*
X15838407Y6803104D02*
X15457455Y6803104D01*
X15457455Y6803104D02*
X15419359Y6422152D01*
X15419359Y6422152D02*
X15457455Y6460247D01*
X15457455Y6460247D02*
X15533645Y6498342D01*
X15533645Y6498342D02*
X15724121Y6498342D01*
X15724121Y6498342D02*
X15800312Y6460247D01*
X15800312Y6460247D02*
X15838407Y6422152D01*
X15838407Y6422152D02*
X15876502Y6345961D01*
X15876502Y6345961D02*
X15876502Y6155485D01*
X15876502Y6155485D02*
X15838407Y6079295D01*
X15838407Y6079295D02*
X15800312Y6041199D01*
X15800312Y6041199D02*
X15724121Y6003104D01*
X15724121Y6003104D02*
X15533645Y6003104D01*
X15533645Y6003104D02*
X15457455Y6041199D01*
X15457455Y6041199D02*
X15419359Y6079295D01*
X16714598Y6803104D02*
X16981265Y6003104D01*
X16981265Y6003104D02*
X17247931Y6803104D01*
X17628883Y6003104D02*
X17552693Y6041199D01*
X17552693Y6041199D02*
X17514598Y6079295D01*
X17514598Y6079295D02*
X17476502Y6155485D01*
X17476502Y6155485D02*
X17476502Y6384057D01*
X17476502Y6384057D02*
X17514598Y6460247D01*
X17514598Y6460247D02*
X17552693Y6498342D01*
X17552693Y6498342D02*
X17628883Y6536438D01*
X17628883Y6536438D02*
X17743169Y6536438D01*
X17743169Y6536438D02*
X17819360Y6498342D01*
X17819360Y6498342D02*
X17857455Y6460247D01*
X17857455Y6460247D02*
X17895550Y6384057D01*
X17895550Y6384057D02*
X17895550Y6155485D01*
X17895550Y6155485D02*
X17857455Y6079295D01*
X17857455Y6079295D02*
X17819360Y6041199D01*
X17819360Y6041199D02*
X17743169Y6003104D01*
X17743169Y6003104D02*
X17628883Y6003104D01*
X18352693Y6003104D02*
X18276503Y6041199D01*
X18276503Y6041199D02*
X18238408Y6117390D01*
X18238408Y6117390D02*
X18238408Y6803104D01*
X18543170Y6536438D02*
X18847932Y6536438D01*
X18657456Y6803104D02*
X18657456Y6117390D01*
X18657456Y6117390D02*
X18695551Y6041199D01*
X18695551Y6041199D02*
X18771741Y6003104D01*
X18771741Y6003104D02*
X18847932Y6003104D01*
X19724123Y6079295D02*
X19762218Y6041199D01*
X19762218Y6041199D02*
X19724123Y6003104D01*
X19724123Y6003104D02*
X19686027Y6041199D01*
X19686027Y6041199D02*
X19724123Y6079295D01*
X19724123Y6079295D02*
X19724123Y6003104D01*
X19724123Y6307866D02*
X19686027Y6765009D01*
X19686027Y6765009D02*
X19724123Y6803104D01*
X19724123Y6803104D02*
X19762218Y6765009D01*
X19762218Y6765009D02*
X19724123Y6307866D01*
X19724123Y6307866D02*
X19724123Y6803104D01*
X31931265Y6003104D02*
X31931265Y6803104D01*
X32312217Y6003104D02*
X32312217Y6803104D01*
X32312217Y6803104D02*
X32578883Y6231676D01*
X32578883Y6231676D02*
X32845550Y6803104D01*
X32845550Y6803104D02*
X32845550Y6003104D01*
X33226503Y6803104D02*
X33226503Y6155485D01*
X33226503Y6155485D02*
X33264598Y6079295D01*
X33264598Y6079295D02*
X33302693Y6041199D01*
X33302693Y6041199D02*
X33378884Y6003104D01*
X33378884Y6003104D02*
X33531265Y6003104D01*
X33531265Y6003104D02*
X33607455Y6041199D01*
X33607455Y6041199D02*
X33645550Y6079295D01*
X33645550Y6079295D02*
X33683646Y6155485D01*
X33683646Y6155485D02*
X33683646Y6803104D01*
X34674122Y6536438D02*
X35283646Y6307866D01*
X35283646Y6307866D02*
X34674122Y6079295D01*
X36197931Y6803104D02*
X36693169Y6803104D01*
X36693169Y6803104D02*
X36426503Y6498342D01*
X36426503Y6498342D02*
X36540788Y6498342D01*
X36540788Y6498342D02*
X36616979Y6460247D01*
X36616979Y6460247D02*
X36655074Y6422152D01*
X36655074Y6422152D02*
X36693169Y6345961D01*
X36693169Y6345961D02*
X36693169Y6155485D01*
X36693169Y6155485D02*
X36655074Y6079295D01*
X36655074Y6079295D02*
X36616979Y6041199D01*
X36616979Y6041199D02*
X36540788Y6003104D01*
X36540788Y6003104D02*
X36312217Y6003104D01*
X36312217Y6003104D02*
X36236026Y6041199D01*
X36236026Y6041199D02*
X36197931Y6079295D01*
X37036027Y6079295D02*
X37074122Y6041199D01*
X37074122Y6041199D02*
X37036027Y6003104D01*
X37036027Y6003104D02*
X36997931Y6041199D01*
X36997931Y6041199D02*
X37036027Y6079295D01*
X37036027Y6079295D02*
X37036027Y6003104D01*
X37340788Y6803104D02*
X37836026Y6803104D01*
X37836026Y6803104D02*
X37569360Y6498342D01*
X37569360Y6498342D02*
X37683645Y6498342D01*
X37683645Y6498342D02*
X37759836Y6460247D01*
X37759836Y6460247D02*
X37797931Y6422152D01*
X37797931Y6422152D02*
X37836026Y6345961D01*
X37836026Y6345961D02*
X37836026Y6155485D01*
X37836026Y6155485D02*
X37797931Y6079295D01*
X37797931Y6079295D02*
X37759836Y6041199D01*
X37759836Y6041199D02*
X37683645Y6003104D01*
X37683645Y6003104D02*
X37455074Y6003104D01*
X37455074Y6003104D02*
X37378883Y6041199D01*
X37378883Y6041199D02*
X37340788Y6079295D01*
X38674122Y6803104D02*
X38940789Y6003104D01*
X38940789Y6003104D02*
X39207455Y6803104D01*
X39588407Y6003104D02*
X39512217Y6041199D01*
X39512217Y6041199D02*
X39474122Y6079295D01*
X39474122Y6079295D02*
X39436026Y6155485D01*
X39436026Y6155485D02*
X39436026Y6384057D01*
X39436026Y6384057D02*
X39474122Y6460247D01*
X39474122Y6460247D02*
X39512217Y6498342D01*
X39512217Y6498342D02*
X39588407Y6536438D01*
X39588407Y6536438D02*
X39702693Y6536438D01*
X39702693Y6536438D02*
X39778884Y6498342D01*
X39778884Y6498342D02*
X39816979Y6460247D01*
X39816979Y6460247D02*
X39855074Y6384057D01*
X39855074Y6384057D02*
X39855074Y6155485D01*
X39855074Y6155485D02*
X39816979Y6079295D01*
X39816979Y6079295D02*
X39778884Y6041199D01*
X39778884Y6041199D02*
X39702693Y6003104D01*
X39702693Y6003104D02*
X39588407Y6003104D01*
X40312217Y6003104D02*
X40236027Y6041199D01*
X40236027Y6041199D02*
X40197932Y6117390D01*
X40197932Y6117390D02*
X40197932Y6803104D01*
X40502694Y6536438D02*
X40807456Y6536438D01*
X40616980Y6803104D02*
X40616980Y6117390D01*
X40616980Y6117390D02*
X40655075Y6041199D01*
X40655075Y6041199D02*
X40731265Y6003104D01*
X40731265Y6003104D02*
X40807456Y6003104D01*
X42293171Y6536438D02*
X41683647Y6307866D01*
X41683647Y6307866D02*
X42293171Y6079295D01*
X22500313Y25741104D02*
X22500313Y26541104D01*
X22500313Y26541104D02*
X22766979Y25969676D01*
X22766979Y25969676D02*
X23033646Y26541104D01*
X23033646Y26541104D02*
X23033646Y25741104D01*
X23414599Y25741104D02*
X23414599Y26541104D01*
X24252694Y25817295D02*
X24214598Y25779199D01*
X24214598Y25779199D02*
X24100313Y25741104D01*
X24100313Y25741104D02*
X24024122Y25741104D01*
X24024122Y25741104D02*
X23909836Y25779199D01*
X23909836Y25779199D02*
X23833646Y25855390D01*
X23833646Y25855390D02*
X23795551Y25931580D01*
X23795551Y25931580D02*
X23757455Y26083961D01*
X23757455Y26083961D02*
X23757455Y26198247D01*
X23757455Y26198247D02*
X23795551Y26350628D01*
X23795551Y26350628D02*
X23833646Y26426819D01*
X23833646Y26426819D02*
X23909836Y26503009D01*
X23909836Y26503009D02*
X24024122Y26541104D01*
X24024122Y26541104D02*
X24100313Y26541104D01*
X24100313Y26541104D02*
X24214598Y26503009D01*
X24214598Y26503009D02*
X24252694Y26464914D01*
X21281265Y24453104D02*
X21281265Y25253104D01*
X21281265Y25253104D02*
X21586027Y25253104D01*
X21586027Y25253104D02*
X21662217Y25215009D01*
X21662217Y25215009D02*
X21700312Y25176914D01*
X21700312Y25176914D02*
X21738408Y25100723D01*
X21738408Y25100723D02*
X21738408Y24986438D01*
X21738408Y24986438D02*
X21700312Y24910247D01*
X21700312Y24910247D02*
X21662217Y24872152D01*
X21662217Y24872152D02*
X21586027Y24834057D01*
X21586027Y24834057D02*
X21281265Y24834057D01*
X22462217Y24453104D02*
X22081265Y24453104D01*
X22081265Y24453104D02*
X22081265Y25253104D01*
X22728884Y25253104D02*
X22728884Y24605485D01*
X22728884Y24605485D02*
X22766979Y24529295D01*
X22766979Y24529295D02*
X22805074Y24491199D01*
X22805074Y24491199D02*
X22881265Y24453104D01*
X22881265Y24453104D02*
X23033646Y24453104D01*
X23033646Y24453104D02*
X23109836Y24491199D01*
X23109836Y24491199D02*
X23147931Y24529295D01*
X23147931Y24529295D02*
X23186027Y24605485D01*
X23186027Y24605485D02*
X23186027Y25253104D01*
X23986026Y25215009D02*
X23909836Y25253104D01*
X23909836Y25253104D02*
X23795550Y25253104D01*
X23795550Y25253104D02*
X23681264Y25215009D01*
X23681264Y25215009D02*
X23605074Y25138819D01*
X23605074Y25138819D02*
X23566979Y25062628D01*
X23566979Y25062628D02*
X23528883Y24910247D01*
X23528883Y24910247D02*
X23528883Y24795961D01*
X23528883Y24795961D02*
X23566979Y24643580D01*
X23566979Y24643580D02*
X23605074Y24567390D01*
X23605074Y24567390D02*
X23681264Y24491199D01*
X23681264Y24491199D02*
X23795550Y24453104D01*
X23795550Y24453104D02*
X23871741Y24453104D01*
X23871741Y24453104D02*
X23986026Y24491199D01*
X23986026Y24491199D02*
X24024122Y24529295D01*
X24024122Y24529295D02*
X24024122Y24795961D01*
X24024122Y24795961D02*
X23871741Y24795961D01*
X24366979Y24529295D02*
X24405074Y24491199D01*
X24405074Y24491199D02*
X24366979Y24453104D01*
X24366979Y24453104D02*
X24328883Y24491199D01*
X24328883Y24491199D02*
X24366979Y24529295D01*
X24366979Y24529295D02*
X24366979Y24453104D01*
X24366979Y24757866D02*
X24328883Y25215009D01*
X24328883Y25215009D02*
X24366979Y25253104D01*
X24366979Y25253104D02*
X24405074Y25215009D01*
X24405074Y25215009D02*
X24366979Y24757866D01*
X24366979Y24757866D02*
X24366979Y25253104D01*
X21231265Y5953104D02*
X21231265Y6753104D01*
X21612217Y5953104D02*
X21612217Y6753104D01*
X21612217Y6753104D02*
X21878883Y6181676D01*
X21878883Y6181676D02*
X22145550Y6753104D01*
X22145550Y6753104D02*
X22145550Y5953104D01*
X22526503Y6753104D02*
X22526503Y6105485D01*
X22526503Y6105485D02*
X22564598Y6029295D01*
X22564598Y6029295D02*
X22602693Y5991199D01*
X22602693Y5991199D02*
X22678884Y5953104D01*
X22678884Y5953104D02*
X22831265Y5953104D01*
X22831265Y5953104D02*
X22907455Y5991199D01*
X22907455Y5991199D02*
X22945550Y6029295D01*
X22945550Y6029295D02*
X22983646Y6105485D01*
X22983646Y6105485D02*
X22983646Y6753104D01*
X23974122Y6029295D02*
X24012217Y5991199D01*
X24012217Y5991199D02*
X23974122Y5953104D01*
X23974122Y5953104D02*
X23936026Y5991199D01*
X23936026Y5991199D02*
X23974122Y6029295D01*
X23974122Y6029295D02*
X23974122Y5953104D01*
X23974122Y6257866D02*
X23936026Y6715009D01*
X23936026Y6715009D02*
X23974122Y6753104D01*
X23974122Y6753104D02*
X24012217Y6715009D01*
X24012217Y6715009D02*
X23974122Y6257866D01*
X23974122Y6257866D02*
X23974122Y6753104D01*
X25345550Y6753104D02*
X24964598Y6753104D01*
X24964598Y6753104D02*
X24926502Y6372152D01*
X24926502Y6372152D02*
X24964598Y6410247D01*
X24964598Y6410247D02*
X25040788Y6448342D01*
X25040788Y6448342D02*
X25231264Y6448342D01*
X25231264Y6448342D02*
X25307455Y6410247D01*
X25307455Y6410247D02*
X25345550Y6372152D01*
X25345550Y6372152D02*
X25383645Y6295961D01*
X25383645Y6295961D02*
X25383645Y6105485D01*
X25383645Y6105485D02*
X25345550Y6029295D01*
X25345550Y6029295D02*
X25307455Y5991199D01*
X25307455Y5991199D02*
X25231264Y5953104D01*
X25231264Y5953104D02*
X25040788Y5953104D01*
X25040788Y5953104D02*
X24964598Y5991199D01*
X24964598Y5991199D02*
X24926502Y6029295D01*
X25726503Y6029295D02*
X25764598Y5991199D01*
X25764598Y5991199D02*
X25726503Y5953104D01*
X25726503Y5953104D02*
X25688407Y5991199D01*
X25688407Y5991199D02*
X25726503Y6029295D01*
X25726503Y6029295D02*
X25726503Y5953104D01*
X26488407Y6753104D02*
X26107455Y6753104D01*
X26107455Y6753104D02*
X26069359Y6372152D01*
X26069359Y6372152D02*
X26107455Y6410247D01*
X26107455Y6410247D02*
X26183645Y6448342D01*
X26183645Y6448342D02*
X26374121Y6448342D01*
X26374121Y6448342D02*
X26450312Y6410247D01*
X26450312Y6410247D02*
X26488407Y6372152D01*
X26488407Y6372152D02*
X26526502Y6295961D01*
X26526502Y6295961D02*
X26526502Y6105485D01*
X26526502Y6105485D02*
X26488407Y6029295D01*
X26488407Y6029295D02*
X26450312Y5991199D01*
X26450312Y5991199D02*
X26374121Y5953104D01*
X26374121Y5953104D02*
X26183645Y5953104D01*
X26183645Y5953104D02*
X26107455Y5991199D01*
X26107455Y5991199D02*
X26069359Y6029295D01*
X27364598Y6753104D02*
X27631265Y5953104D01*
X27631265Y5953104D02*
X27897931Y6753104D01*
X28278883Y5953104D02*
X28202693Y5991199D01*
X28202693Y5991199D02*
X28164598Y6029295D01*
X28164598Y6029295D02*
X28126502Y6105485D01*
X28126502Y6105485D02*
X28126502Y6334057D01*
X28126502Y6334057D02*
X28164598Y6410247D01*
X28164598Y6410247D02*
X28202693Y6448342D01*
X28202693Y6448342D02*
X28278883Y6486438D01*
X28278883Y6486438D02*
X28393169Y6486438D01*
X28393169Y6486438D02*
X28469360Y6448342D01*
X28469360Y6448342D02*
X28507455Y6410247D01*
X28507455Y6410247D02*
X28545550Y6334057D01*
X28545550Y6334057D02*
X28545550Y6105485D01*
X28545550Y6105485D02*
X28507455Y6029295D01*
X28507455Y6029295D02*
X28469360Y5991199D01*
X28469360Y5991199D02*
X28393169Y5953104D01*
X28393169Y5953104D02*
X28278883Y5953104D01*
X29002693Y5953104D02*
X28926503Y5991199D01*
X28926503Y5991199D02*
X28888408Y6067390D01*
X28888408Y6067390D02*
X28888408Y6753104D01*
X29193170Y6486438D02*
X29497932Y6486438D01*
X29307456Y6753104D02*
X29307456Y6067390D01*
X29307456Y6067390D02*
X29345551Y5991199D01*
X29345551Y5991199D02*
X29421741Y5953104D01*
X29421741Y5953104D02*
X29497932Y5953104D01*
X30374123Y6029295D02*
X30412218Y5991199D01*
X30412218Y5991199D02*
X30374123Y5953104D01*
X30374123Y5953104D02*
X30336027Y5991199D01*
X30336027Y5991199D02*
X30374123Y6029295D01*
X30374123Y6029295D02*
X30374123Y5953104D01*
X30374123Y6257866D02*
X30336027Y6715009D01*
X30336027Y6715009D02*
X30374123Y6753104D01*
X30374123Y6753104D02*
X30412218Y6715009D01*
X30412218Y6715009D02*
X30374123Y6257866D01*
X30374123Y6257866D02*
X30374123Y6753104D01*
X369552Y27938987D02*
X369552Y27992861D01*
X369552Y27992861D02*
X396490Y28073674D01*
X396490Y28073674D02*
X531177Y28208361D01*
X531177Y28208361D02*
X611989Y28235298D01*
X611989Y28235298D02*
X665864Y28235298D01*
X665864Y28235298D02*
X746676Y28208361D01*
X746676Y28208361D02*
X800551Y28154486D01*
X800551Y28154486D02*
X854425Y28046736D01*
X854425Y28046736D02*
X854425Y27400239D01*
X854425Y27400239D02*
X1204612Y27750425D01*
X25481265Y13403104D02*
X25481265Y14203104D01*
X25481265Y14203104D02*
X25747931Y13631676D01*
X25747931Y13631676D02*
X26014598Y14203104D01*
X26014598Y14203104D02*
X26014598Y13403104D01*
X26547932Y14203104D02*
X26700313Y14203104D01*
X26700313Y14203104D02*
X26776503Y14165009D01*
X26776503Y14165009D02*
X26852694Y14088819D01*
X26852694Y14088819D02*
X26890789Y13936438D01*
X26890789Y13936438D02*
X26890789Y13669771D01*
X26890789Y13669771D02*
X26852694Y13517390D01*
X26852694Y13517390D02*
X26776503Y13441199D01*
X26776503Y13441199D02*
X26700313Y13403104D01*
X26700313Y13403104D02*
X26547932Y13403104D01*
X26547932Y13403104D02*
X26471741Y13441199D01*
X26471741Y13441199D02*
X26395551Y13517390D01*
X26395551Y13517390D02*
X26357455Y13669771D01*
X26357455Y13669771D02*
X26357455Y13936438D01*
X26357455Y13936438D02*
X26395551Y14088819D01*
X26395551Y14088819D02*
X26471741Y14165009D01*
X26471741Y14165009D02*
X26547932Y14203104D01*
X27119360Y14203104D02*
X27576503Y14203104D01*
X27347931Y13403104D02*
X27347931Y14203104D01*
X27995551Y14203104D02*
X28147932Y14203104D01*
X28147932Y14203104D02*
X28224122Y14165009D01*
X28224122Y14165009D02*
X28300313Y14088819D01*
X28300313Y14088819D02*
X28338408Y13936438D01*
X28338408Y13936438D02*
X28338408Y13669771D01*
X28338408Y13669771D02*
X28300313Y13517390D01*
X28300313Y13517390D02*
X28224122Y13441199D01*
X28224122Y13441199D02*
X28147932Y13403104D01*
X28147932Y13403104D02*
X27995551Y13403104D01*
X27995551Y13403104D02*
X27919360Y13441199D01*
X27919360Y13441199D02*
X27843170Y13517390D01*
X27843170Y13517390D02*
X27805074Y13669771D01*
X27805074Y13669771D02*
X27805074Y13936438D01*
X27805074Y13936438D02*
X27843170Y14088819D01*
X27843170Y14088819D02*
X27919360Y14165009D01*
X27919360Y14165009D02*
X27995551Y14203104D01*
X29138408Y13403104D02*
X28871741Y13784057D01*
X28681265Y13403104D02*
X28681265Y14203104D01*
X28681265Y14203104D02*
X28986027Y14203104D01*
X28986027Y14203104D02*
X29062217Y14165009D01*
X29062217Y14165009D02*
X29100312Y14126914D01*
X29100312Y14126914D02*
X29138408Y14050723D01*
X29138408Y14050723D02*
X29138408Y13936438D01*
X29138408Y13936438D02*
X29100312Y13860247D01*
X29100312Y13860247D02*
X29062217Y13822152D01*
X29062217Y13822152D02*
X28986027Y13784057D01*
X28986027Y13784057D02*
X28681265Y13784057D01*
X30547932Y13479295D02*
X30509836Y13441199D01*
X30509836Y13441199D02*
X30395551Y13403104D01*
X30395551Y13403104D02*
X30319360Y13403104D01*
X30319360Y13403104D02*
X30205074Y13441199D01*
X30205074Y13441199D02*
X30128884Y13517390D01*
X30128884Y13517390D02*
X30090789Y13593580D01*
X30090789Y13593580D02*
X30052693Y13745961D01*
X30052693Y13745961D02*
X30052693Y13860247D01*
X30052693Y13860247D02*
X30090789Y14012628D01*
X30090789Y14012628D02*
X30128884Y14088819D01*
X30128884Y14088819D02*
X30205074Y14165009D01*
X30205074Y14165009D02*
X30319360Y14203104D01*
X30319360Y14203104D02*
X30395551Y14203104D01*
X30395551Y14203104D02*
X30509836Y14165009D01*
X30509836Y14165009D02*
X30547932Y14126914D01*
X31043170Y14203104D02*
X31195551Y14203104D01*
X31195551Y14203104D02*
X31271741Y14165009D01*
X31271741Y14165009D02*
X31347932Y14088819D01*
X31347932Y14088819D02*
X31386027Y13936438D01*
X31386027Y13936438D02*
X31386027Y13669771D01*
X31386027Y13669771D02*
X31347932Y13517390D01*
X31347932Y13517390D02*
X31271741Y13441199D01*
X31271741Y13441199D02*
X31195551Y13403104D01*
X31195551Y13403104D02*
X31043170Y13403104D01*
X31043170Y13403104D02*
X30966979Y13441199D01*
X30966979Y13441199D02*
X30890789Y13517390D01*
X30890789Y13517390D02*
X30852693Y13669771D01*
X30852693Y13669771D02*
X30852693Y13936438D01*
X30852693Y13936438D02*
X30890789Y14088819D01*
X30890789Y14088819D02*
X30966979Y14165009D01*
X30966979Y14165009D02*
X31043170Y14203104D01*
X31728884Y13403104D02*
X31728884Y14203104D01*
X31728884Y14203104D02*
X31995550Y13631676D01*
X31995550Y13631676D02*
X32262217Y14203104D01*
X32262217Y14203104D02*
X32262217Y13403104D01*
X32605074Y13441199D02*
X32719360Y13403104D01*
X32719360Y13403104D02*
X32909836Y13403104D01*
X32909836Y13403104D02*
X32986027Y13441199D01*
X32986027Y13441199D02*
X33024122Y13479295D01*
X33024122Y13479295D02*
X33062217Y13555485D01*
X33062217Y13555485D02*
X33062217Y13631676D01*
X33062217Y13631676D02*
X33024122Y13707866D01*
X33024122Y13707866D02*
X32986027Y13745961D01*
X32986027Y13745961D02*
X32909836Y13784057D01*
X32909836Y13784057D02*
X32757455Y13822152D01*
X32757455Y13822152D02*
X32681265Y13860247D01*
X32681265Y13860247D02*
X32643170Y13898342D01*
X32643170Y13898342D02*
X32605074Y13974533D01*
X32605074Y13974533D02*
X32605074Y14050723D01*
X32605074Y14050723D02*
X32643170Y14126914D01*
X32643170Y14126914D02*
X32681265Y14165009D01*
X32681265Y14165009D02*
X32757455Y14203104D01*
X32757455Y14203104D02*
X32947932Y14203104D01*
X32947932Y14203104D02*
X33062217Y14165009D01*
X34014599Y13403104D02*
X34014599Y14203104D01*
X34014599Y14203104D02*
X34319361Y14203104D01*
X34319361Y14203104D02*
X34395551Y14165009D01*
X34395551Y14165009D02*
X34433646Y14126914D01*
X34433646Y14126914D02*
X34471742Y14050723D01*
X34471742Y14050723D02*
X34471742Y13936438D01*
X34471742Y13936438D02*
X34433646Y13860247D01*
X34433646Y13860247D02*
X34395551Y13822152D01*
X34395551Y13822152D02*
X34319361Y13784057D01*
X34319361Y13784057D02*
X34014599Y13784057D01*
X35195551Y13403104D02*
X34814599Y13403104D01*
X34814599Y13403104D02*
X34814599Y14203104D01*
X35462218Y14203104D02*
X35462218Y13555485D01*
X35462218Y13555485D02*
X35500313Y13479295D01*
X35500313Y13479295D02*
X35538408Y13441199D01*
X35538408Y13441199D02*
X35614599Y13403104D01*
X35614599Y13403104D02*
X35766980Y13403104D01*
X35766980Y13403104D02*
X35843170Y13441199D01*
X35843170Y13441199D02*
X35881265Y13479295D01*
X35881265Y13479295D02*
X35919361Y13555485D01*
X35919361Y13555485D02*
X35919361Y14203104D01*
X36719360Y14165009D02*
X36643170Y14203104D01*
X36643170Y14203104D02*
X36528884Y14203104D01*
X36528884Y14203104D02*
X36414598Y14165009D01*
X36414598Y14165009D02*
X36338408Y14088819D01*
X36338408Y14088819D02*
X36300313Y14012628D01*
X36300313Y14012628D02*
X36262217Y13860247D01*
X36262217Y13860247D02*
X36262217Y13745961D01*
X36262217Y13745961D02*
X36300313Y13593580D01*
X36300313Y13593580D02*
X36338408Y13517390D01*
X36338408Y13517390D02*
X36414598Y13441199D01*
X36414598Y13441199D02*
X36528884Y13403104D01*
X36528884Y13403104D02*
X36605075Y13403104D01*
X36605075Y13403104D02*
X36719360Y13441199D01*
X36719360Y13441199D02*
X36757456Y13479295D01*
X36757456Y13479295D02*
X36757456Y13745961D01*
X36757456Y13745961D02*
X36605075Y13745961D01*
X37100313Y13479295D02*
X37138408Y13441199D01*
X37138408Y13441199D02*
X37100313Y13403104D01*
X37100313Y13403104D02*
X37062217Y13441199D01*
X37062217Y13441199D02*
X37100313Y13479295D01*
X37100313Y13479295D02*
X37100313Y13403104D01*
X37100313Y13707866D02*
X37062217Y14165009D01*
X37062217Y14165009D02*
X37100313Y14203104D01*
X37100313Y14203104D02*
X37138408Y14165009D01*
X37138408Y14165009D02*
X37100313Y13707866D01*
X37100313Y13707866D02*
X37100313Y14203104D01*
D13*
X1371303Y2955704D02*
X1104636Y3336657D01*
X914160Y2955704D02*
X914160Y3755704D01*
X914160Y3755704D02*
X1218922Y3755704D01*
X1218922Y3755704D02*
X1295112Y3717609D01*
X1295112Y3717609D02*
X1333207Y3679514D01*
X1333207Y3679514D02*
X1371303Y3603323D01*
X1371303Y3603323D02*
X1371303Y3489038D01*
X1371303Y3489038D02*
X1333207Y3412847D01*
X1333207Y3412847D02*
X1295112Y3374752D01*
X1295112Y3374752D02*
X1218922Y3336657D01*
X1218922Y3336657D02*
X914160Y3336657D01*
X2018922Y2993799D02*
X1942731Y2955704D01*
X1942731Y2955704D02*
X1790350Y2955704D01*
X1790350Y2955704D02*
X1714160Y2993799D01*
X1714160Y2993799D02*
X1676064Y3069990D01*
X1676064Y3069990D02*
X1676064Y3374752D01*
X1676064Y3374752D02*
X1714160Y3450942D01*
X1714160Y3450942D02*
X1790350Y3489038D01*
X1790350Y3489038D02*
X1942731Y3489038D01*
X1942731Y3489038D02*
X2018922Y3450942D01*
X2018922Y3450942D02*
X2057017Y3374752D01*
X2057017Y3374752D02*
X2057017Y3298561D01*
X2057017Y3298561D02*
X1676064Y3222371D01*
X2323683Y3489038D02*
X2514159Y2955704D01*
X2514159Y2955704D02*
X2704636Y3489038D01*
X3885588Y3374752D02*
X3999874Y3336657D01*
X3999874Y3336657D02*
X4037969Y3298561D01*
X4037969Y3298561D02*
X4076065Y3222371D01*
X4076065Y3222371D02*
X4076065Y3108085D01*
X4076065Y3108085D02*
X4037969Y3031895D01*
X4037969Y3031895D02*
X3999874Y2993799D01*
X3999874Y2993799D02*
X3923684Y2955704D01*
X3923684Y2955704D02*
X3618922Y2955704D01*
X3618922Y2955704D02*
X3618922Y3755704D01*
X3618922Y3755704D02*
X3885588Y3755704D01*
X3885588Y3755704D02*
X3961779Y3717609D01*
X3961779Y3717609D02*
X3999874Y3679514D01*
X3999874Y3679514D02*
X4037969Y3603323D01*
X4037969Y3603323D02*
X4037969Y3527133D01*
X4037969Y3527133D02*
X3999874Y3450942D01*
X3999874Y3450942D02*
X3961779Y3412847D01*
X3961779Y3412847D02*
X3885588Y3374752D01*
X3885588Y3374752D02*
X3618922Y3374752D01*
D11*
X19768169Y33191200D02*
X19882455Y33153105D01*
X19882455Y33153105D02*
X20072931Y33153105D01*
X20072931Y33153105D02*
X20149122Y33191200D01*
X20149122Y33191200D02*
X20187217Y33229296D01*
X20187217Y33229296D02*
X20225312Y33305486D01*
X20225312Y33305486D02*
X20225312Y33381677D01*
X20225312Y33381677D02*
X20187217Y33457867D01*
X20187217Y33457867D02*
X20149122Y33495962D01*
X20149122Y33495962D02*
X20072931Y33534058D01*
X20072931Y33534058D02*
X19920550Y33572153D01*
X19920550Y33572153D02*
X19844360Y33610248D01*
X19844360Y33610248D02*
X19806265Y33648343D01*
X19806265Y33648343D02*
X19768169Y33724534D01*
X19768169Y33724534D02*
X19768169Y33800724D01*
X19768169Y33800724D02*
X19806265Y33876915D01*
X19806265Y33876915D02*
X19844360Y33915010D01*
X19844360Y33915010D02*
X19920550Y33953105D01*
X19920550Y33953105D02*
X20111027Y33953105D01*
X20111027Y33953105D02*
X20225312Y33915010D01*
X20568170Y33153105D02*
X20568170Y33953105D01*
X20568170Y33953105D02*
X20872932Y33953105D01*
X20872932Y33953105D02*
X20949122Y33915010D01*
X20949122Y33915010D02*
X20987217Y33876915D01*
X20987217Y33876915D02*
X21025313Y33800724D01*
X21025313Y33800724D02*
X21025313Y33686439D01*
X21025313Y33686439D02*
X20987217Y33610248D01*
X20987217Y33610248D02*
X20949122Y33572153D01*
X20949122Y33572153D02*
X20872932Y33534058D01*
X20872932Y33534058D02*
X20568170Y33534058D01*
X21368170Y33572153D02*
X21634836Y33572153D01*
X21749122Y33153105D02*
X21368170Y33153105D01*
X21368170Y33153105D02*
X21368170Y33953105D01*
X21368170Y33953105D02*
X21749122Y33953105D01*
X22053884Y33381677D02*
X22434837Y33381677D01*
X21977694Y33153105D02*
X22244361Y33953105D01*
X22244361Y33953105D02*
X22511027Y33153105D01*
X22777694Y33153105D02*
X22777694Y33953105D01*
X23234837Y33153105D02*
X22891979Y33610248D01*
X23234837Y33953105D02*
X22777694Y33495962D01*
X23577694Y33572153D02*
X23844360Y33572153D01*
X23958646Y33153105D02*
X23577694Y33153105D01*
X23577694Y33153105D02*
X23577694Y33953105D01*
X23577694Y33953105D02*
X23958646Y33953105D01*
X24758647Y33153105D02*
X24491980Y33534058D01*
X24301504Y33153105D02*
X24301504Y33953105D01*
X24301504Y33953105D02*
X24606266Y33953105D01*
X24606266Y33953105D02*
X24682456Y33915010D01*
X24682456Y33915010D02*
X24720551Y33876915D01*
X24720551Y33876915D02*
X24758647Y33800724D01*
X24758647Y33800724D02*
X24758647Y33686439D01*
X24758647Y33686439D02*
X24720551Y33610248D01*
X24720551Y33610248D02*
X24682456Y33572153D01*
X24682456Y33572153D02*
X24606266Y33534058D01*
X24606266Y33534058D02*
X24301504Y33534058D01*
X25101504Y33229296D02*
X25139599Y33191200D01*
X25139599Y33191200D02*
X25101504Y33153105D01*
X25101504Y33153105D02*
X25063408Y33191200D01*
X25063408Y33191200D02*
X25101504Y33229296D01*
X25101504Y33229296D02*
X25101504Y33153105D01*
X25101504Y33457867D02*
X25063408Y33915010D01*
X25063408Y33915010D02*
X25101504Y33953105D01*
X25101504Y33953105D02*
X25139599Y33915010D01*
X25139599Y33915010D02*
X25101504Y33457867D01*
X25101504Y33457867D02*
X25101504Y33953105D01*
D14*
X474748Y44891720D02*
X589034Y44853625D01*
X589034Y44853625D02*
X779510Y44853625D01*
X779510Y44853625D02*
X855701Y44891720D01*
X855701Y44891720D02*
X893796Y44929816D01*
X893796Y44929816D02*
X931891Y45006006D01*
X931891Y45006006D02*
X931891Y45082197D01*
X931891Y45082197D02*
X893796Y45158387D01*
X893796Y45158387D02*
X855701Y45196482D01*
X855701Y45196482D02*
X779510Y45234578D01*
X779510Y45234578D02*
X627129Y45272673D01*
X627129Y45272673D02*
X550939Y45310768D01*
X550939Y45310768D02*
X512844Y45348863D01*
X512844Y45348863D02*
X474748Y45425054D01*
X474748Y45425054D02*
X474748Y45501244D01*
X474748Y45501244D02*
X512844Y45577435D01*
X512844Y45577435D02*
X550939Y45615530D01*
X550939Y45615530D02*
X627129Y45653625D01*
X627129Y45653625D02*
X817606Y45653625D01*
X817606Y45653625D02*
X931891Y45615530D01*
X1274749Y45272673D02*
X1541415Y45272673D01*
X1655701Y44853625D02*
X1274749Y44853625D01*
X1274749Y44853625D02*
X1274749Y45653625D01*
X1274749Y45653625D02*
X1655701Y45653625D01*
X2455702Y44853625D02*
X2189035Y45234578D01*
X1998559Y44853625D02*
X1998559Y45653625D01*
X1998559Y45653625D02*
X2303321Y45653625D01*
X2303321Y45653625D02*
X2379511Y45615530D01*
X2379511Y45615530D02*
X2417606Y45577435D01*
X2417606Y45577435D02*
X2455702Y45501244D01*
X2455702Y45501244D02*
X2455702Y45386959D01*
X2455702Y45386959D02*
X2417606Y45310768D01*
X2417606Y45310768D02*
X2379511Y45272673D01*
X2379511Y45272673D02*
X2303321Y45234578D01*
X2303321Y45234578D02*
X1998559Y45234578D01*
X2684273Y45653625D02*
X2950940Y44853625D01*
X2950940Y44853625D02*
X3217606Y45653625D01*
X3636654Y45653625D02*
X3789035Y45653625D01*
X3789035Y45653625D02*
X3865225Y45615530D01*
X3865225Y45615530D02*
X3941416Y45539340D01*
X3941416Y45539340D02*
X3979511Y45386959D01*
X3979511Y45386959D02*
X3979511Y45120292D01*
X3979511Y45120292D02*
X3941416Y44967911D01*
X3941416Y44967911D02*
X3865225Y44891720D01*
X3865225Y44891720D02*
X3789035Y44853625D01*
X3789035Y44853625D02*
X3636654Y44853625D01*
X3636654Y44853625D02*
X3560463Y44891720D01*
X3560463Y44891720D02*
X3484273Y44967911D01*
X3484273Y44967911D02*
X3446177Y45120292D01*
X3446177Y45120292D02*
X3446177Y45386959D01*
X3446177Y45386959D02*
X3484273Y45539340D01*
X3484273Y45539340D02*
X3560463Y45615530D01*
X3560463Y45615530D02*
X3636654Y45653625D01*
X4284272Y44891720D02*
X4398558Y44853625D01*
X4398558Y44853625D02*
X4589034Y44853625D01*
X4589034Y44853625D02*
X4665225Y44891720D01*
X4665225Y44891720D02*
X4703320Y44929816D01*
X4703320Y44929816D02*
X4741415Y45006006D01*
X4741415Y45006006D02*
X4741415Y45082197D01*
X4741415Y45082197D02*
X4703320Y45158387D01*
X4703320Y45158387D02*
X4665225Y45196482D01*
X4665225Y45196482D02*
X4589034Y45234578D01*
X4589034Y45234578D02*
X4436653Y45272673D01*
X4436653Y45272673D02*
X4360463Y45310768D01*
X4360463Y45310768D02*
X4322368Y45348863D01*
X4322368Y45348863D02*
X4284272Y45425054D01*
X4284272Y45425054D02*
X4284272Y45501244D01*
X4284272Y45501244D02*
X4322368Y45577435D01*
X4322368Y45577435D02*
X4360463Y45615530D01*
X4360463Y45615530D02*
X4436653Y45653625D01*
X4436653Y45653625D02*
X4627130Y45653625D01*
X4627130Y45653625D02*
X4741415Y45615530D01*
X5084273Y44929816D02*
X5122368Y44891720D01*
X5122368Y44891720D02*
X5084273Y44853625D01*
X5084273Y44853625D02*
X5046177Y44891720D01*
X5046177Y44891720D02*
X5084273Y44929816D01*
X5084273Y44929816D02*
X5084273Y44853625D01*
X5084273Y45158387D02*
X5046177Y45615530D01*
X5046177Y45615530D02*
X5084273Y45653625D01*
X5084273Y45653625D02*
X5122368Y45615530D01*
X5122368Y45615530D02*
X5084273Y45158387D01*
X5084273Y45158387D02*
X5084273Y45653625D01*
D13*
X766541Y5230180D02*
X1433207Y5230180D01*
X1433207Y5230180D02*
X766541Y4230180D01*
X766541Y4230180D02*
X1433207Y4230180D01*
X2195112Y4277799D02*
X2099874Y4230180D01*
X2099874Y4230180D02*
X1909398Y4230180D01*
X1909398Y4230180D02*
X1814160Y4277799D01*
X1814160Y4277799D02*
X1766541Y4373038D01*
X1766541Y4373038D02*
X1766541Y4753990D01*
X1766541Y4753990D02*
X1814160Y4849228D01*
X1814160Y4849228D02*
X1909398Y4896847D01*
X1909398Y4896847D02*
X2099874Y4896847D01*
X2099874Y4896847D02*
X2195112Y4849228D01*
X2195112Y4849228D02*
X2242731Y4753990D01*
X2242731Y4753990D02*
X2242731Y4658752D01*
X2242731Y4658752D02*
X1766541Y4563514D01*
X2671303Y4230180D02*
X2671303Y4896847D01*
X2671303Y4706371D02*
X2718922Y4801609D01*
X2718922Y4801609D02*
X2766541Y4849228D01*
X2766541Y4849228D02*
X2861779Y4896847D01*
X2861779Y4896847D02*
X2957017Y4896847D01*
X3433208Y4230180D02*
X3337970Y4277799D01*
X3337970Y4277799D02*
X3290351Y4325419D01*
X3290351Y4325419D02*
X3242732Y4420657D01*
X3242732Y4420657D02*
X3242732Y4706371D01*
X3242732Y4706371D02*
X3290351Y4801609D01*
X3290351Y4801609D02*
X3337970Y4849228D01*
X3337970Y4849228D02*
X3433208Y4896847D01*
X3433208Y4896847D02*
X3576065Y4896847D01*
X3576065Y4896847D02*
X3671303Y4849228D01*
X3671303Y4849228D02*
X3718922Y4801609D01*
X3718922Y4801609D02*
X3766541Y4706371D01*
X3766541Y4706371D02*
X3766541Y4420657D01*
X3766541Y4420657D02*
X3718922Y4325419D01*
X3718922Y4325419D02*
X3671303Y4277799D01*
X3671303Y4277799D02*
X3576065Y4230180D01*
X3576065Y4230180D02*
X3433208Y4230180D01*
X4052256Y4896847D02*
X4433208Y4896847D01*
X4195113Y5230180D02*
X4195113Y4373038D01*
X4195113Y4373038D02*
X4242732Y4277799D01*
X4242732Y4277799D02*
X4337970Y4230180D01*
X4337970Y4230180D02*
X4433208Y4230180D01*
X4766542Y4230180D02*
X4766542Y5230180D01*
X5195113Y4230180D02*
X5195113Y4753990D01*
X5195113Y4753990D02*
X5147494Y4849228D01*
X5147494Y4849228D02*
X5052256Y4896847D01*
X5052256Y4896847D02*
X4909399Y4896847D01*
X4909399Y4896847D02*
X4814161Y4849228D01*
X4814161Y4849228D02*
X4766542Y4801609D01*
X6433209Y4230180D02*
X6433209Y5230180D01*
X6433209Y4753990D02*
X7004637Y4753990D01*
X7004637Y4230180D02*
X7004637Y5230180D01*
X7909399Y4230180D02*
X7909399Y4753990D01*
X7909399Y4753990D02*
X7861780Y4849228D01*
X7861780Y4849228D02*
X7766542Y4896847D01*
X7766542Y4896847D02*
X7576066Y4896847D01*
X7576066Y4896847D02*
X7480828Y4849228D01*
X7909399Y4277799D02*
X7814161Y4230180D01*
X7814161Y4230180D02*
X7576066Y4230180D01*
X7576066Y4230180D02*
X7480828Y4277799D01*
X7480828Y4277799D02*
X7433209Y4373038D01*
X7433209Y4373038D02*
X7433209Y4468276D01*
X7433209Y4468276D02*
X7480828Y4563514D01*
X7480828Y4563514D02*
X7576066Y4611133D01*
X7576066Y4611133D02*
X7814161Y4611133D01*
X7814161Y4611133D02*
X7909399Y4658752D01*
X8242733Y4896847D02*
X8623685Y4896847D01*
X8385590Y5230180D02*
X8385590Y4373038D01*
X8385590Y4373038D02*
X8433209Y4277799D01*
X8433209Y4277799D02*
X8528447Y4230180D01*
X8528447Y4230180D02*
X8623685Y4230180D01*
X8957019Y4325419D02*
X9004638Y4277799D01*
X9004638Y4277799D02*
X8957019Y4230180D01*
X8957019Y4230180D02*
X8909400Y4277799D01*
X8909400Y4277799D02*
X8957019Y4325419D01*
X8957019Y4325419D02*
X8957019Y4230180D01*
X8957019Y4611133D02*
X8909400Y5182561D01*
X8909400Y5182561D02*
X8957019Y5230180D01*
X8957019Y5230180D02*
X9004638Y5182561D01*
X9004638Y5182561D02*
X8957019Y4611133D01*
X8957019Y4611133D02*
X8957019Y5230180D01*
D11*
X369552Y17138987D02*
X369552Y17192861D01*
X369552Y17192861D02*
X396490Y17273674D01*
X396490Y17273674D02*
X531177Y17408361D01*
X531177Y17408361D02*
X611989Y17435298D01*
X611989Y17435298D02*
X665864Y17435298D01*
X665864Y17435298D02*
X746676Y17408361D01*
X746676Y17408361D02*
X800551Y17354486D01*
X800551Y17354486D02*
X854425Y17246736D01*
X854425Y17246736D02*
X854425Y16600239D01*
X854425Y16600239D02*
X1204612Y16950425D01*
X1204612Y38550425D02*
X881363Y38227176D01*
X1042987Y38388800D02*
X477302Y38954486D01*
X477302Y38954486D02*
X504239Y38819799D01*
X504239Y38819799D02*
X504239Y38712049D01*
X504239Y38712049D02*
X477302Y38631237D01*
X369552Y22588987D02*
X369552Y22642861D01*
X369552Y22642861D02*
X396490Y22723674D01*
X396490Y22723674D02*
X531177Y22858361D01*
X531177Y22858361D02*
X611989Y22885298D01*
X611989Y22885298D02*
X665864Y22885298D01*
X665864Y22885298D02*
X746676Y22858361D01*
X746676Y22858361D02*
X800551Y22804486D01*
X800551Y22804486D02*
X854425Y22696736D01*
X854425Y22696736D02*
X854425Y22050239D01*
X854425Y22050239D02*
X1204612Y22400425D01*
X19791979Y34376915D02*
X19944360Y34491200D01*
X19944360Y34491200D02*
X20096741Y34376915D01*
X20249122Y34376915D02*
X20401503Y34491200D01*
X20401503Y34491200D02*
X20553884Y34376915D01*
X20706265Y34376915D02*
X20858646Y34491200D01*
X20858646Y34491200D02*
X21011027Y34376915D01*
X21163408Y34376915D02*
X21315789Y34491200D01*
X21315789Y34491200D02*
X21468170Y34376915D01*
X21620551Y34376915D02*
X21772932Y34491200D01*
X21772932Y34491200D02*
X21925313Y34376915D01*
X22077694Y34376915D02*
X22230075Y34491200D01*
X22230075Y34491200D02*
X22382456Y34376915D01*
X22534837Y34376915D02*
X22687218Y34491200D01*
X22687218Y34491200D02*
X22839599Y34376915D01*
X22991980Y34376915D02*
X23144361Y34491200D01*
X23144361Y34491200D02*
X23296742Y34376915D01*
X23449123Y34376915D02*
X23601504Y34491200D01*
X23601504Y34491200D02*
X23753885Y34376915D01*
X23906266Y34376915D02*
X24058647Y34491200D01*
X24058647Y34491200D02*
X24211028Y34376915D01*
X24363409Y34376915D02*
X24515790Y34491200D01*
X24515790Y34491200D02*
X24668171Y34376915D01*
X24820552Y34376915D02*
X24972933Y34491200D01*
X24972933Y34491200D02*
X25125314Y34376915D01*
X1204612Y33150425D02*
X881363Y32827176D01*
X1042987Y32988800D02*
X477302Y33554486D01*
X477302Y33554486D02*
X504239Y33419799D01*
X504239Y33419799D02*
X504239Y33312049D01*
X504239Y33312049D02*
X477302Y33231237D01*
X11611803Y41038987D02*
X12366050Y40661863D01*
X12366050Y40661863D02*
X11988926Y41416110D01*
X12823986Y41119799D02*
X12743173Y41092861D01*
X12743173Y41092861D02*
X12689298Y41092861D01*
X12689298Y41092861D02*
X12608486Y41119799D01*
X12608486Y41119799D02*
X12446862Y41281423D01*
X12446862Y41281423D02*
X12419924Y41362235D01*
X12419924Y41362235D02*
X12419924Y41416110D01*
X12419924Y41416110D02*
X12446862Y41496922D01*
X12446862Y41496922D02*
X12527674Y41577734D01*
X12527674Y41577734D02*
X12608486Y41604672D01*
X12608486Y41604672D02*
X12662361Y41604672D01*
X12662361Y41604672D02*
X12743173Y41577734D01*
X12743173Y41577734D02*
X12904798Y41416110D01*
X12904798Y41416110D02*
X12931735Y41335298D01*
X12931735Y41335298D02*
X12931735Y41281423D01*
X12931735Y41281423D02*
X12904798Y41200611D01*
X12904798Y41200611D02*
X12823986Y41119799D01*
X13335796Y41631610D02*
X13254984Y41604672D01*
X13254984Y41604672D02*
X13174172Y41631610D01*
X13174172Y41631610D02*
X12689299Y42116483D01*
X13416609Y42466669D02*
X13793733Y42089546D01*
X13174172Y42224233D02*
X13470484Y41927921D01*
X13470484Y41927921D02*
X13551296Y41900984D01*
X13551296Y41900984D02*
X13632108Y41927921D01*
X13632108Y41927921D02*
X13712920Y42008733D01*
X13712920Y42008733D02*
X13739858Y42089546D01*
X13739858Y42089546D02*
X13739858Y42143421D01*
X14063107Y42358920D02*
X13685983Y42736044D01*
X13739858Y42682169D02*
X13739858Y42736044D01*
X13739858Y42736044D02*
X13766795Y42816856D01*
X13766795Y42816856D02*
X13847608Y42897668D01*
X13847608Y42897668D02*
X13928420Y42924605D01*
X13928420Y42924605D02*
X14009232Y42897668D01*
X14009232Y42897668D02*
X14305544Y42601357D01*
X14009232Y42897668D02*
X13982295Y42978480D01*
X13982295Y42978480D02*
X14009232Y43059292D01*
X14009232Y43059292D02*
X14090044Y43140105D01*
X14090044Y43140105D02*
X14170857Y43167042D01*
X14170857Y43167042D02*
X14251669Y43140105D01*
X14251669Y43140105D02*
X14547980Y42843793D01*
X15005916Y43355604D02*
X14978979Y43274792D01*
X14978979Y43274792D02*
X14871229Y43167042D01*
X14871229Y43167042D02*
X14790417Y43140105D01*
X14790417Y43140105D02*
X14709605Y43167042D01*
X14709605Y43167042D02*
X14494106Y43382542D01*
X14494106Y43382542D02*
X14467168Y43463354D01*
X14467168Y43463354D02*
X14494106Y43544166D01*
X14494106Y43544166D02*
X14601855Y43651916D01*
X14601855Y43651916D02*
X14682667Y43678853D01*
X14682667Y43678853D02*
X14763480Y43651916D01*
X14763480Y43651916D02*
X14817354Y43598041D01*
X14817354Y43598041D02*
X14601855Y43274792D01*
D13*
X32815476Y4995180D02*
X32815476Y4280895D01*
X32815476Y4280895D02*
X32767857Y4138038D01*
X32767857Y4138038D02*
X32672619Y4042799D01*
X32672619Y4042799D02*
X32529762Y3995180D01*
X32529762Y3995180D02*
X32434524Y3995180D01*
X33815476Y3995180D02*
X33244048Y3995180D01*
X33529762Y3995180D02*
X33529762Y4995180D01*
X33529762Y4995180D02*
X33434524Y4852323D01*
X33434524Y4852323D02*
X33339286Y4757085D01*
X33339286Y4757085D02*
X33244048Y4709466D01*
X34672619Y4661847D02*
X34672619Y3995180D01*
X34434524Y5042799D02*
X34196429Y4328514D01*
X34196429Y4328514D02*
X34815476Y4328514D01*
X14665476Y5245180D02*
X14665476Y4530895D01*
X14665476Y4530895D02*
X14617857Y4388038D01*
X14617857Y4388038D02*
X14522619Y4292799D01*
X14522619Y4292799D02*
X14379762Y4245180D01*
X14379762Y4245180D02*
X14284524Y4245180D01*
X15665476Y4245180D02*
X15094048Y4245180D01*
X15379762Y4245180D02*
X15379762Y5245180D01*
X15379762Y5245180D02*
X15284524Y5102323D01*
X15284524Y5102323D02*
X15189286Y5007085D01*
X15189286Y5007085D02*
X15094048Y4959466D01*
X16046429Y5149942D02*
X16094048Y5197561D01*
X16094048Y5197561D02*
X16189286Y5245180D01*
X16189286Y5245180D02*
X16427381Y5245180D01*
X16427381Y5245180D02*
X16522619Y5197561D01*
X16522619Y5197561D02*
X16570238Y5149942D01*
X16570238Y5149942D02*
X16617857Y5054704D01*
X16617857Y5054704D02*
X16617857Y4959466D01*
X16617857Y4959466D02*
X16570238Y4816609D01*
X16570238Y4816609D02*
X15998810Y4245180D01*
X15998810Y4245180D02*
X16617857Y4245180D01*
X25265476Y5245180D02*
X25265476Y4530895D01*
X25265476Y4530895D02*
X25217857Y4388038D01*
X25217857Y4388038D02*
X25122619Y4292799D01*
X25122619Y4292799D02*
X24979762Y4245180D01*
X24979762Y4245180D02*
X24884524Y4245180D01*
X26265476Y4245180D02*
X25694048Y4245180D01*
X25979762Y4245180D02*
X25979762Y5245180D01*
X25979762Y5245180D02*
X25884524Y5102323D01*
X25884524Y5102323D02*
X25789286Y5007085D01*
X25789286Y5007085D02*
X25694048Y4959466D01*
X26598810Y5245180D02*
X27217857Y5245180D01*
X27217857Y5245180D02*
X26884524Y4864228D01*
X26884524Y4864228D02*
X27027381Y4864228D01*
X27027381Y4864228D02*
X27122619Y4816609D01*
X27122619Y4816609D02*
X27170238Y4768990D01*
X27170238Y4768990D02*
X27217857Y4673752D01*
X27217857Y4673752D02*
X27217857Y4435657D01*
X27217857Y4435657D02*
X27170238Y4340419D01*
X27170238Y4340419D02*
X27122619Y4292799D01*
X27122619Y4292799D02*
X27027381Y4245180D01*
X27027381Y4245180D02*
X26741667Y4245180D01*
X26741667Y4245180D02*
X26646429Y4292799D01*
X26646429Y4292799D02*
X26598810Y4340419D01*
X19566666Y15095181D02*
X19566666Y14380896D01*
X19566666Y14380896D02*
X19519047Y14238039D01*
X19519047Y14238039D02*
X19423809Y14142800D01*
X19423809Y14142800D02*
X19280952Y14095181D01*
X19280952Y14095181D02*
X19185714Y14095181D01*
X19947619Y15095181D02*
X20566666Y15095181D01*
X20566666Y15095181D02*
X20233333Y14714229D01*
X20233333Y14714229D02*
X20376190Y14714229D01*
X20376190Y14714229D02*
X20471428Y14666610D01*
X20471428Y14666610D02*
X20519047Y14618991D01*
X20519047Y14618991D02*
X20566666Y14523753D01*
X20566666Y14523753D02*
X20566666Y14285658D01*
X20566666Y14285658D02*
X20519047Y14190420D01*
X20519047Y14190420D02*
X20471428Y14142800D01*
X20471428Y14142800D02*
X20376190Y14095181D01*
X20376190Y14095181D02*
X20090476Y14095181D01*
X20090476Y14095181D02*
X19995238Y14142800D01*
X19995238Y14142800D02*
X19947619Y14190420D01*
X2816666Y24495181D02*
X2816666Y23780896D01*
X2816666Y23780896D02*
X2769047Y23638039D01*
X2769047Y23638039D02*
X2673809Y23542800D01*
X2673809Y23542800D02*
X2530952Y23495181D01*
X2530952Y23495181D02*
X2435714Y23495181D01*
X3197619Y24495181D02*
X3864285Y24495181D01*
X3864285Y24495181D02*
X3435714Y23495181D01*
X22740476Y38795181D02*
X22740476Y38080896D01*
X22740476Y38080896D02*
X22692857Y37938039D01*
X22692857Y37938039D02*
X22597619Y37842800D01*
X22597619Y37842800D02*
X22454762Y37795181D01*
X22454762Y37795181D02*
X22359524Y37795181D01*
X23740476Y37795181D02*
X23169048Y37795181D01*
X23454762Y37795181D02*
X23454762Y38795181D01*
X23454762Y38795181D02*
X23359524Y38652324D01*
X23359524Y38652324D02*
X23264286Y38557086D01*
X23264286Y38557086D02*
X23169048Y38509467D01*
X24359524Y38795181D02*
X24454762Y38795181D01*
X24454762Y38795181D02*
X24550000Y38747562D01*
X24550000Y38747562D02*
X24597619Y38699943D01*
X24597619Y38699943D02*
X24645238Y38604705D01*
X24645238Y38604705D02*
X24692857Y38414229D01*
X24692857Y38414229D02*
X24692857Y38176134D01*
X24692857Y38176134D02*
X24645238Y37985658D01*
X24645238Y37985658D02*
X24597619Y37890420D01*
X24597619Y37890420D02*
X24550000Y37842800D01*
X24550000Y37842800D02*
X24454762Y37795181D01*
X24454762Y37795181D02*
X24359524Y37795181D01*
X24359524Y37795181D02*
X24264286Y37842800D01*
X24264286Y37842800D02*
X24216667Y37890420D01*
X24216667Y37890420D02*
X24169048Y37985658D01*
X24169048Y37985658D02*
X24121429Y38176134D01*
X24121429Y38176134D02*
X24121429Y38414229D01*
X24121429Y38414229D02*
X24169048Y38604705D01*
X24169048Y38604705D02*
X24216667Y38699943D01*
X24216667Y38699943D02*
X24264286Y38747562D01*
X24264286Y38747562D02*
X24359524Y38795181D01*
X2786796Y19163684D02*
X2786796Y18449399D01*
X2786796Y18449399D02*
X2739177Y18306542D01*
X2739177Y18306542D02*
X2643939Y18211303D01*
X2643939Y18211303D02*
X2501082Y18163684D01*
X2501082Y18163684D02*
X2405844Y18163684D01*
X3405844Y18735113D02*
X3310606Y18782732D01*
X3310606Y18782732D02*
X3262987Y18830351D01*
X3262987Y18830351D02*
X3215368Y18925589D01*
X3215368Y18925589D02*
X3215368Y18973208D01*
X3215368Y18973208D02*
X3262987Y19068446D01*
X3262987Y19068446D02*
X3310606Y19116065D01*
X3310606Y19116065D02*
X3405844Y19163684D01*
X3405844Y19163684D02*
X3596320Y19163684D01*
X3596320Y19163684D02*
X3691558Y19116065D01*
X3691558Y19116065D02*
X3739177Y19068446D01*
X3739177Y19068446D02*
X3786796Y18973208D01*
X3786796Y18973208D02*
X3786796Y18925589D01*
X3786796Y18925589D02*
X3739177Y18830351D01*
X3739177Y18830351D02*
X3691558Y18782732D01*
X3691558Y18782732D02*
X3596320Y18735113D01*
X3596320Y18735113D02*
X3405844Y18735113D01*
X3405844Y18735113D02*
X3310606Y18687494D01*
X3310606Y18687494D02*
X3262987Y18639875D01*
X3262987Y18639875D02*
X3215368Y18544637D01*
X3215368Y18544637D02*
X3215368Y18354161D01*
X3215368Y18354161D02*
X3262987Y18258923D01*
X3262987Y18258923D02*
X3310606Y18211303D01*
X3310606Y18211303D02*
X3405844Y18163684D01*
X3405844Y18163684D02*
X3596320Y18163684D01*
X3596320Y18163684D02*
X3691558Y18211303D01*
X3691558Y18211303D02*
X3739177Y18258923D01*
X3739177Y18258923D02*
X3786796Y18354161D01*
X3786796Y18354161D02*
X3786796Y18544637D01*
X3786796Y18544637D02*
X3739177Y18639875D01*
X3739177Y18639875D02*
X3691558Y18687494D01*
X3691558Y18687494D02*
X3596320Y18735113D01*
X2786796Y40663684D02*
X2786796Y39949399D01*
X2786796Y39949399D02*
X2739177Y39806542D01*
X2739177Y39806542D02*
X2643939Y39711303D01*
X2643939Y39711303D02*
X2501082Y39663684D01*
X2501082Y39663684D02*
X2405844Y39663684D01*
X3691558Y40330351D02*
X3691558Y39663684D01*
X3453463Y40711303D02*
X3215368Y39997018D01*
X3215368Y39997018D02*
X3834415Y39997018D01*
X19040476Y31595181D02*
X19040476Y30880896D01*
X19040476Y30880896D02*
X18992857Y30738039D01*
X18992857Y30738039D02*
X18897619Y30642800D01*
X18897619Y30642800D02*
X18754762Y30595181D01*
X18754762Y30595181D02*
X18659524Y30595181D01*
X20040476Y30595181D02*
X19469048Y30595181D01*
X19754762Y30595181D02*
X19754762Y31595181D01*
X19754762Y31595181D02*
X19659524Y31452324D01*
X19659524Y31452324D02*
X19564286Y31357086D01*
X19564286Y31357086D02*
X19469048Y31309467D01*
X20992857Y30595181D02*
X20421429Y30595181D01*
X20707143Y30595181D02*
X20707143Y31595181D01*
X20707143Y31595181D02*
X20611905Y31452324D01*
X20611905Y31452324D02*
X20516667Y31357086D01*
X20516667Y31357086D02*
X20421429Y31309467D01*
X2791666Y13745181D02*
X2791666Y13030896D01*
X2791666Y13030896D02*
X2744047Y12888039D01*
X2744047Y12888039D02*
X2648809Y12792800D01*
X2648809Y12792800D02*
X2505952Y12745181D01*
X2505952Y12745181D02*
X2410714Y12745181D01*
X3315476Y12745181D02*
X3505952Y12745181D01*
X3505952Y12745181D02*
X3601190Y12792800D01*
X3601190Y12792800D02*
X3648809Y12840420D01*
X3648809Y12840420D02*
X3744047Y12983277D01*
X3744047Y12983277D02*
X3791666Y13173753D01*
X3791666Y13173753D02*
X3791666Y13554705D01*
X3791666Y13554705D02*
X3744047Y13649943D01*
X3744047Y13649943D02*
X3696428Y13697562D01*
X3696428Y13697562D02*
X3601190Y13745181D01*
X3601190Y13745181D02*
X3410714Y13745181D01*
X3410714Y13745181D02*
X3315476Y13697562D01*
X3315476Y13697562D02*
X3267857Y13649943D01*
X3267857Y13649943D02*
X3220238Y13554705D01*
X3220238Y13554705D02*
X3220238Y13316610D01*
X3220238Y13316610D02*
X3267857Y13221372D01*
X3267857Y13221372D02*
X3315476Y13173753D01*
X3315476Y13173753D02*
X3410714Y13126134D01*
X3410714Y13126134D02*
X3601190Y13126134D01*
X3601190Y13126134D02*
X3696428Y13173753D01*
X3696428Y13173753D02*
X3744047Y13221372D01*
X3744047Y13221372D02*
X3791666Y13316610D01*
X2816666Y35245181D02*
X2816666Y34530896D01*
X2816666Y34530896D02*
X2769047Y34388039D01*
X2769047Y34388039D02*
X2673809Y34292800D01*
X2673809Y34292800D02*
X2530952Y34245181D01*
X2530952Y34245181D02*
X2435714Y34245181D01*
X3769047Y35245181D02*
X3292857Y35245181D01*
X3292857Y35245181D02*
X3245238Y34768991D01*
X3245238Y34768991D02*
X3292857Y34816610D01*
X3292857Y34816610D02*
X3388095Y34864229D01*
X3388095Y34864229D02*
X3626190Y34864229D01*
X3626190Y34864229D02*
X3721428Y34816610D01*
X3721428Y34816610D02*
X3769047Y34768991D01*
X3769047Y34768991D02*
X3816666Y34673753D01*
X3816666Y34673753D02*
X3816666Y34435658D01*
X3816666Y34435658D02*
X3769047Y34340420D01*
X3769047Y34340420D02*
X3721428Y34292800D01*
X3721428Y34292800D02*
X3626190Y34245181D01*
X3626190Y34245181D02*
X3388095Y34245181D01*
X3388095Y34245181D02*
X3292857Y34292800D01*
X3292857Y34292800D02*
X3245238Y34340420D01*
X12640476Y38745181D02*
X12973809Y37745181D01*
X12973809Y37745181D02*
X13307142Y38745181D01*
X14211904Y37745181D02*
X13878571Y38221372D01*
X13640476Y37745181D02*
X13640476Y38745181D01*
X13640476Y38745181D02*
X14021428Y38745181D01*
X14021428Y38745181D02*
X14116666Y38697562D01*
X14116666Y38697562D02*
X14164285Y38649943D01*
X14164285Y38649943D02*
X14211904Y38554705D01*
X14211904Y38554705D02*
X14211904Y38411848D01*
X14211904Y38411848D02*
X14164285Y38316610D01*
X14164285Y38316610D02*
X14116666Y38268991D01*
X14116666Y38268991D02*
X14021428Y38221372D01*
X14021428Y38221372D02*
X13640476Y38221372D01*
X15164285Y37745181D02*
X14592857Y37745181D01*
X14878571Y37745181D02*
X14878571Y38745181D01*
X14878571Y38745181D02*
X14783333Y38602324D01*
X14783333Y38602324D02*
X14688095Y38507086D01*
X14688095Y38507086D02*
X14592857Y38459467D01*
X2816666Y29913684D02*
X2816666Y29199399D01*
X2816666Y29199399D02*
X2769047Y29056542D01*
X2769047Y29056542D02*
X2673809Y28961303D01*
X2673809Y28961303D02*
X2530952Y28913684D01*
X2530952Y28913684D02*
X2435714Y28913684D01*
X3721428Y29913684D02*
X3530952Y29913684D01*
X3530952Y29913684D02*
X3435714Y29866065D01*
X3435714Y29866065D02*
X3388095Y29818446D01*
X3388095Y29818446D02*
X3292857Y29675589D01*
X3292857Y29675589D02*
X3245238Y29485113D01*
X3245238Y29485113D02*
X3245238Y29104161D01*
X3245238Y29104161D02*
X3292857Y29008923D01*
X3292857Y29008923D02*
X3340476Y28961303D01*
X3340476Y28961303D02*
X3435714Y28913684D01*
X3435714Y28913684D02*
X3626190Y28913684D01*
X3626190Y28913684D02*
X3721428Y28961303D01*
X3721428Y28961303D02*
X3769047Y29008923D01*
X3769047Y29008923D02*
X3816666Y29104161D01*
X3816666Y29104161D02*
X3816666Y29342256D01*
X3816666Y29342256D02*
X3769047Y29437494D01*
X3769047Y29437494D02*
X3721428Y29485113D01*
X3721428Y29485113D02*
X3626190Y29532732D01*
X3626190Y29532732D02*
X3435714Y29532732D01*
X3435714Y29532732D02*
X3340476Y29485113D01*
X3340476Y29485113D02*
X3292857Y29437494D01*
X3292857Y29437494D02*
X3245238Y29342256D01*
D15*
X31675000Y5500101D02*
X31675000Y999974D01*
X31675000Y999974D02*
X41675000Y999974D01*
X41675000Y5500101D02*
X31675000Y5500101D01*
X41675000Y999974D02*
X41675000Y5500101D01*
X41320161Y1683997D02*
G75*
G03*
X41320161Y1683997I-359156J0D01*
G01*
D16*
X41831998Y5627101D02*
G75*
G03*
X41831998Y5627101I-29998J0D01*
G01*
D15*
X10475000Y5500101D02*
X10475000Y999974D01*
X10475000Y999974D02*
X20475000Y999974D01*
X20475000Y5500101D02*
X10475000Y5500101D01*
X20475000Y999974D02*
X20475000Y5500101D01*
X20120161Y1683997D02*
G75*
G03*
X20120161Y1683997I-359156J0D01*
G01*
D16*
X20631998Y5627101D02*
G75*
G03*
X20631998Y5627101I-29998J0D01*
G01*
D15*
X21075000Y5500101D02*
X21075000Y999974D01*
X21075000Y999974D02*
X31075000Y999974D01*
X31075000Y5500101D02*
X21075000Y5500101D01*
X31075000Y999974D02*
X31075000Y5500101D01*
X30720161Y1683997D02*
G75*
G03*
X30720161Y1683997I-359156J0D01*
G01*
D16*
X31231998Y5627101D02*
G75*
G03*
X31231998Y5627101I-29998J0D01*
G01*
D15*
X22974949Y13637032D02*
X22974949Y14405891D01*
X22974949Y13637032D02*
X12975000Y13637032D01*
X22974949Y17868172D02*
X22974949Y18637057D01*
X22974949Y18637057D02*
X20706115Y18637057D01*
X19243834Y18637057D02*
X18708147Y18637057D01*
X17245866Y18637057D02*
X16706140Y18637057D01*
X15243860Y18637057D02*
X12975000Y18637057D01*
X12975000Y13637032D02*
X12975000Y14405891D01*
X12975000Y17868172D02*
X12975000Y18637057D01*
D16*
X22980003Y20664972D02*
G75*
G03*
X22980003Y20664972I-29997J0D01*
G01*
D15*
X796863Y27012002D02*
X1812865Y28028004D01*
X796863Y23074994D02*
X796863Y27012002D01*
X1812865Y28028004D02*
X10702883Y28028004D01*
X2614491Y27012002D02*
X796863Y27012002D01*
X5114364Y27012002D02*
X3885509Y27012002D01*
X7614491Y27012002D02*
X6385382Y27012002D01*
X10702883Y28028004D02*
X10702883Y27012002D01*
X10702883Y27012002D02*
X8885509Y27012002D01*
X10702883Y27012002D02*
X10702883Y23074994D01*
X10702883Y23074994D02*
X796863Y23074994D01*
D16*
X10859881Y28155004D02*
G75*
G03*
X10859881Y28155004I-29998J0D01*
G01*
D15*
X19400000Y39700102D02*
X19400000Y35199975D01*
X19400000Y35199975D02*
X25400000Y35199975D01*
X19478994Y37154001D02*
X19986995Y37154001D01*
X19478994Y36518999D02*
X19986995Y36518999D01*
X19986995Y39059004D02*
X24940005Y39059004D01*
X19986995Y37154001D02*
X19986995Y39059004D01*
X19986995Y36518999D02*
X19986995Y35756998D01*
X19986995Y35756998D02*
X22145999Y35756998D01*
X22145999Y35756998D02*
X22145999Y35248997D01*
X22733045Y35756998D02*
X22733045Y35248997D01*
X24892050Y36518999D02*
X24892050Y35756998D01*
X24892050Y35756998D02*
X22733045Y35756998D01*
X24940005Y39059004D02*
X24940005Y37154001D01*
X24940005Y37154001D02*
X25321006Y37154001D01*
X25400000Y39700102D02*
X19400000Y39700102D01*
X25400000Y35199975D02*
X25400000Y39700102D01*
X25400051Y36518999D02*
X24892050Y36518999D01*
D16*
X25379934Y39700102D02*
G75*
G03*
X25379934Y39700102I-29972J0D01*
G01*
D15*
X766993Y21680505D02*
X1782995Y22696507D01*
X766993Y17743497D02*
X766993Y21680505D01*
X1782995Y22696507D02*
X10673013Y22696507D01*
X2584621Y21680505D02*
X766993Y21680505D01*
X5084494Y21680505D02*
X3855639Y21680505D01*
X7584621Y21680505D02*
X6355512Y21680505D01*
X10673013Y22696507D02*
X10673013Y21680505D01*
X10673013Y21680505D02*
X8855639Y21680505D01*
X10673013Y21680505D02*
X10673013Y17743497D01*
X10673013Y17743497D02*
X766993Y17743497D01*
D16*
X10830011Y22823507D02*
G75*
G03*
X10830011Y22823507I-29998J0D01*
G01*
D15*
X766993Y43180505D02*
X1782995Y44196507D01*
X766993Y39243497D02*
X766993Y43180505D01*
X1782995Y44196507D02*
X10673013Y44196507D01*
X2584621Y43180505D02*
X766993Y43180505D01*
X5084494Y43180505D02*
X3855639Y43180505D01*
X7584621Y43180505D02*
X6355512Y43180505D01*
X10673013Y44196507D02*
X10673013Y43180505D01*
X10673013Y43180505D02*
X8855639Y43180505D01*
X10673013Y43180505D02*
X10673013Y39243497D01*
X10673013Y39243497D02*
X766993Y39243497D01*
D16*
X10830011Y44323507D02*
G75*
G03*
X10830011Y44323507I-29998J0D01*
G01*
D15*
X12925051Y31887528D02*
X12925051Y31118669D01*
X12925051Y31887528D02*
X22925000Y31887528D01*
X12925051Y27656388D02*
X12925051Y26887503D01*
X12925051Y26887503D02*
X15193885Y26887503D01*
X16656166Y26887503D02*
X17191853Y26887503D01*
X18654134Y26887503D02*
X19193860Y26887503D01*
X20656140Y26887503D02*
X22925000Y26887503D01*
X22925000Y31887528D02*
X22925000Y31118669D01*
X22925000Y27656388D02*
X22925000Y26887503D01*
D16*
X12979991Y24859588D02*
G75*
G03*
X12979991Y24859588I-29997J0D01*
G01*
D15*
X771863Y16262002D02*
X1787865Y17278004D01*
X771863Y12324994D02*
X771863Y16262002D01*
X1787865Y17278004D02*
X10677883Y17278004D01*
X2589491Y16262002D02*
X771863Y16262002D01*
X5089364Y16262002D02*
X3860509Y16262002D01*
X7589491Y16262002D02*
X6360382Y16262002D01*
X10677883Y17278004D02*
X10677883Y16262002D01*
X10677883Y16262002D02*
X8860509Y16262002D01*
X10677883Y16262002D02*
X10677883Y12324994D01*
X10677883Y12324994D02*
X771863Y12324994D01*
D16*
X10834881Y17405004D02*
G75*
G03*
X10834881Y17405004I-29998J0D01*
G01*
D15*
X796863Y37762002D02*
X1812865Y38778004D01*
X796863Y33824994D02*
X796863Y37762002D01*
X1812865Y38778004D02*
X10702883Y38778004D01*
X2614491Y37762002D02*
X796863Y37762002D01*
X5114364Y37762002D02*
X3885509Y37762002D01*
X7614491Y37762002D02*
X6385382Y37762002D01*
X10702883Y38778004D02*
X10702883Y37762002D01*
X10702883Y37762002D02*
X8885509Y37762002D01*
X10702883Y37762002D02*
X10702883Y33824994D01*
X10702883Y33824994D02*
X796863Y33824994D01*
D16*
X10859881Y38905004D02*
G75*
G03*
X10859881Y38905004I-29998J0D01*
G01*
D15*
X19016002Y32593991D02*
X11903988Y32593991D01*
X19016002Y35641998D02*
X19016002Y32593991D01*
X19016002Y39198005D02*
X19016002Y35641998D01*
X19016002Y39706006D02*
X19016002Y39198005D01*
X18508001Y39198005D02*
X18508001Y39706006D01*
X18508001Y39706006D02*
X19016002Y39706006D01*
X17491999Y39198005D02*
X18508001Y39198005D01*
X17491999Y39706006D02*
X17491999Y39198005D01*
X15967996Y39198005D02*
X15967996Y39706006D01*
X15967996Y39706006D02*
X17491999Y39706006D01*
X15459995Y37166001D02*
X15459995Y35133997D01*
X14951994Y39198005D02*
X15967996Y39198005D01*
X14951994Y39706006D02*
X14951994Y39198005D01*
X14443993Y36149999D02*
X16475997Y36149999D01*
X13427991Y39198005D02*
X13427991Y39706006D01*
X13427991Y39706006D02*
X14951994Y39706006D01*
X12411989Y39198005D02*
X13427991Y39198005D01*
X12411989Y39706006D02*
X12411989Y39198005D01*
X11903988Y32593991D02*
X11903988Y35641998D01*
X11903988Y35133997D02*
X11903988Y39198005D01*
X11903988Y39198005D02*
X11903988Y39706006D01*
X11903988Y39706006D02*
X12411989Y39706006D01*
X18000100Y33228995D02*
G75*
G03*
X17997460Y33228993I-1378J76187D01*
G01*
X15462394Y35014640D02*
G75*
G03*
X15439675Y35014616I-12559J1135857D01*
G01*
D16*
X19172999Y39833006D02*
G75*
G03*
X19172999Y39833006I-29997J0D01*
G01*
D15*
X796863Y32430505D02*
X1812865Y33446507D01*
X796863Y28493497D02*
X796863Y32430505D01*
X1812865Y33446507D02*
X10702883Y33446507D01*
X2614491Y32430505D02*
X796863Y32430505D01*
X5114364Y32430505D02*
X3885509Y32430505D01*
X7614491Y32430505D02*
X6385382Y32430505D01*
X10702883Y33446507D02*
X10702883Y32430505D01*
X10702883Y32430505D02*
X8885509Y32430505D01*
X10702883Y32430505D02*
X10702883Y28493497D01*
X10702883Y28493497D02*
X796863Y28493497D01*
D16*
X10859881Y33573507D02*
G75*
G03*
X10859881Y33573507I-29998J0D01*
G01*
M02*
