M48
; DRILL file {KiCad 7.0.5-0} date 2024 December 03, Tuesday 11:17:54
; FORMAT={-:-/ absolute / metric / decimal}
; #@! TF.CreationDate,2024-12-03T11:17:54-08:00
; #@! TF.GenerationSoftware,Kicad,Pcbnew,7.0.5-0
; #@! TF.FileFunction,Plated,1,2,PTH
FMAT,2
METRIC
; #@! TA.AperFunction,Plated,PTH,ViaDrill
T1C0.600
; #@! TA.AperFunction,Plated,PTH,ComponentDrill
T2C0.762
; #@! TA.AperFunction,Plated,PTH,ComponentDrill
T3C0.900
; #@! TA.AperFunction,Plated,PTH,ComponentDrill
T4C0.914
; #@! TA.AperFunction,Plated,PTH,ComponentDrill
T5C1.000
; #@! TA.AperFunction,Plated,PTH,ComponentDrill
T6C1.100
%
G90
G05
T1
X1.125Y6.45
X5.775Y39.8
X5.775Y28.75
X5.775Y23.7
X5.775Y18.65
X5.825Y34.25
X11.95Y31.95
X11.95Y28.0
X12.85Y38.25
X20.075Y31.825
X21.55Y23.6
X21.875Y38.4
X22.4Y35.6
X22.95Y23.6
X24.3Y28.2
X25.2Y29.45
T2
X12.92Y36.15
X15.46Y33.61
X18.0Y36.15
T3
X21.4Y36.9
X23.4Y36.9
T4
X3.22Y42.419
X3.22Y20.919
X3.225Y15.5
X3.25Y37.0
X3.25Y31.669
X3.25Y26.25
X5.72Y42.419
X5.72Y20.919
X5.725Y15.5
X5.75Y37.0
X5.75Y31.669
X5.75Y26.25
X8.22Y42.419
X8.22Y20.919
X8.225Y15.5
X8.25Y37.0
X8.25Y31.669
X8.25Y26.25
T5
X12.475Y2.7
X14.475Y2.7
X16.475Y2.7
X18.475Y2.7
X23.075Y2.7
X25.075Y2.7
X27.075Y2.7
X29.075Y2.7
X33.675Y2.7
X35.675Y2.7
X37.675Y2.7
X39.675Y2.7
T6
X6.46Y48.72
X6.46Y46.18
X6.46Y10.67
X6.46Y8.13
X9.0Y48.72
X9.0Y46.18
X9.0Y10.67
X9.0Y8.13
X11.54Y48.72
X11.54Y46.18
X11.54Y10.67
X11.54Y8.13
X14.08Y48.72
X14.08Y46.18
X14.08Y10.67
X14.08Y8.13
X16.62Y48.72
X16.62Y46.18
X16.62Y10.67
X16.62Y8.13
X19.16Y48.72
X19.16Y46.18
X19.16Y10.67
X19.16Y8.13
X21.7Y48.72
X21.7Y46.18
X21.7Y10.67
X21.7Y8.13
X24.24Y48.72
X24.24Y46.18
X24.24Y10.67
X24.24Y8.13
X26.78Y48.72
X26.78Y46.18
X26.78Y10.67
X26.78Y8.13
X29.32Y48.72
X29.32Y46.18
X29.32Y10.67
X29.32Y8.13
X31.86Y48.72
X31.86Y46.18
X31.86Y10.67
X31.86Y8.13
X34.4Y48.72
X34.4Y46.18
X34.4Y10.67
X34.4Y8.13
X36.94Y48.72
X36.94Y46.18
X36.94Y10.67
X36.94Y8.13
T0
M30
