G04 #@! TF.GenerationSoftware,KiCad,Pcbnew,7.0.5-0*
G04 #@! TF.CreationDate,2024-12-03T11:17:58-08:00*
G04 #@! TF.ProjectId,MilkVHat,4d696c6b-5648-4617-942e-6b696361645f,rev?*
G04 #@! TF.SameCoordinates,PX5f5e100PY5f5e100*
G04 #@! TF.FileFunction,Paste,Bot*
G04 #@! TF.FilePolarity,Positive*
%FSLAX46Y46*%
G04 Gerber Fmt 4.6, Leading zero omitted, Abs format (unit mm)*
G04 Created by KiCad (PCBNEW 7.0.5-0) date 2024-12-03 11:17:58*
%MOMM*%
%LPD*%
G01*
G04 APERTURE LIST*
%ADD10R,0.864008X0.800000*%
%ADD11R,0.800000X0.900000*%
%ADD12R,1.207518X1.701016*%
%ADD13R,0.864008X0.806477*%
%ADD14R,1.727991X1.485014*%
%ADD15R,1.410008X1.350013*%
%ADD16R,1.905004X2.800000*%
%ADD17R,1.100000X0.600000*%
%ADD18O,0.364008X1.691999*%
%ADD19R,1.485014X1.727991*%
%ADD20R,1.701016X1.207518*%
%ADD21R,0.303124X0.324003*%
G04 APERTURE END LIST*
D10*
X16350000Y37350102D03*
X16350000Y38749898D03*
D11*
X17299975Y33199999D03*
X18700025Y33199999D03*
D12*
X21621209Y26050000D03*
X24578791Y26050000D03*
D13*
X17125000Y19471633D03*
X17125000Y20978365D03*
D14*
X24300000Y13607417D03*
X24300000Y16792583D03*
D15*
X12849987Y19860915D03*
X14849987Y19860915D03*
D16*
X12299041Y15349999D03*
X17150959Y15349999D03*
D15*
X21050000Y19650000D03*
X23050000Y19650000D03*
D17*
X12774987Y22000037D03*
X12774987Y22949999D03*
X12774987Y23899961D03*
X15475013Y23899961D03*
X15475013Y22949999D03*
X15475013Y22000037D03*
D18*
X23013316Y29533052D03*
X22363075Y29533052D03*
X21713087Y29533052D03*
X21063100Y29533052D03*
X21063100Y33825152D03*
X21713087Y33825152D03*
X22363075Y33825152D03*
X23013316Y33825152D03*
D10*
X24750000Y33650204D03*
X24750000Y35050000D03*
D11*
X19099975Y38800000D03*
X20500025Y38800000D03*
D19*
X19782417Y21899999D03*
X22967583Y21899999D03*
D14*
X20100000Y13607417D03*
X20100000Y16792583D03*
D20*
X12975000Y30496208D03*
X12975000Y33453790D03*
D21*
X17074987Y22685915D03*
X17558095Y22685915D03*
D12*
X16146209Y28724999D03*
X19103791Y28724999D03*
D11*
X17274975Y31099999D03*
X18675025Y31099999D03*
D19*
X12707417Y25924999D03*
X15892583Y25924999D03*
D11*
X24700025Y38800000D03*
X23299975Y38800000D03*
M02*
